<svg width="2987" height="1749" xmlns="http://www.w3.org/2000/svg" xmlns:xlink="http://www.w3.org/1999/xlink" overflow="hidden"><defs><clipPath id="clip0"><rect x="257" y="311" width="2987" height="1749"/></clipPath></defs><g clip-path="url(#clip0)" transform="translate(-257 -311)"><path d="M829 1957 2237.11 1957" stroke="#A6A6A6" stroke-width="2.29167" stroke-miterlimit="8" fill="none" fill-rule="evenodd"/><rect x="597" y="545" width="157" height="104" fill="#FFFFFF"/><text fill="#2F5597" font-family="Calibri,Calibri_MSFontService,sans-serif" font-weight="400" font-size="83" transform="matrix(1 0 0 1 634.115 625)">ua</text><rect x="621" y="737" width="1256" height="1003" fill="#DAE3F3"/><path d="M696.022 790.998C696.022 803.449 685.971 813.5 673.52 813.5 661.071 813.5 651.02 803.449 651.02 790.998 651.02 778.548 661.071 768.498 673.52 768.498 685.971 768.498 696.022 778.548 696.022 790.998Z" fill-rule="evenodd"/><path d="M696.022 915.442C696.022 928.118 685.971 938.444 673.52 938.444 661.121 938.444 651.02 928.118 651.02 915.442 651.02 902.716 661.121 892.442 673.52 892.442 685.971 892.442 696.022 902.716 696.022 915.442Z" fill="#AFABAB" fill-rule="evenodd"/><path d="M696.022 1046C696.022 1058.4 685.971 1068.5 673.52 1068.5 661.121 1068.5 651.02 1058.4 651.02 1046 651.02 1033.55 661.121 1023.5 673.52 1023.5 685.971 1023.5 696.022 1033.55 696.022 1046Z" fill="#AFABAB" fill-rule="evenodd"/><path d="M696.022 1171C696.022 1183.4 685.971 1193.5 673.52 1193.5 661.121 1193.5 651.02 1183.4 651.02 1171 651.02 1158.55 661.121 1148.5 673.52 1148.5 685.971 1148.5 696.022 1158.55 696.022 1171Z" fill="#AFABAB" fill-rule="evenodd"/><path d="M696.022 1297C696.022 1309.4 685.971 1319.5 673.52 1319.5 661.121 1319.5 651.02 1309.4 651.02 1297 651.02 1284.55 661.121 1274.5 673.52 1274.5 685.971 1274.5 696.022 1284.55 696.022 1297Z" fill="#AFABAB" fill-rule="evenodd"/><path d="M696.022 1422C696.022 1434.4 685.971 1444.5 673.52 1444.5 661.121 1444.5 651.02 1434.4 651.02 1422 651.02 1409.55 661.121 1399.5 673.52 1399.5 685.971 1399.5 696.022 1409.55 696.022 1422Z" fill="#AFABAB" fill-rule="evenodd"/><path d="M696.022 1553C696.022 1565.4 685.971 1575.5 673.52 1575.5 661.121 1575.5 651.02 1565.4 651.02 1553 651.02 1540.55 661.121 1530.5 673.52 1530.5 685.971 1530.5 696.022 1540.55 696.022 1553Z" fill="#AFABAB" fill-rule="evenodd"/><path d="M696.022 1678C696.022 1690.4 685.971 1700.5 673.52 1700.5 661.121 1700.5 651.02 1690.4 651.02 1678 651.02 1665.55 661.121 1655.5 673.52 1655.5 685.971 1655.5 696.022 1665.55 696.022 1678Z" fill-rule="evenodd"/><path d="M826.022 789.998C826.022 802.398 815.972 812.5 803.52 812.5 791.071 812.5 781.02 802.398 781.02 789.998 781.02 777.548 791.071 767.498 803.52 767.498 815.972 767.498 826.022 777.548 826.022 789.998Z" fill="#AFABAB" fill-rule="evenodd"/><path d="M826.022 915.442C826.022 928.118 815.972 938.444 803.52 938.444 791.071 938.444 781.02 928.118 781.02 915.442 781.02 902.716 791.071 892.442 803.52 892.442 815.972 892.442 826.022 902.716 826.022 915.442Z" fill="#AFABAB" fill-rule="evenodd"/><path d="M826.022 1046C826.022 1058.4 815.972 1068.5 803.52 1068.5 791.071 1068.5 781.02 1058.4 781.02 1046 781.02 1033.55 791.071 1023.5 803.52 1023.5 815.972 1023.5 826.022 1033.55 826.022 1046Z" fill="#AFABAB" fill-rule="evenodd"/><path d="M826.022 1171C826.022 1183.4 815.972 1193.5 803.52 1193.5 791.071 1193.5 781.02 1183.4 781.02 1171 781.02 1158.55 791.071 1148.5 803.52 1148.5 815.972 1148.5 826.022 1158.55 826.022 1171Z" fill="#AFABAB" fill-rule="evenodd"/><path d="M826.022 1297C826.022 1309.4 815.972 1319.5 803.52 1319.5 791.071 1319.5 781.02 1309.4 781.02 1297 781.02 1284.55 791.071 1274.5 803.52 1274.5 815.972 1274.5 826.022 1284.55 826.022 1297Z" fill="#AFABAB" fill-rule="evenodd"/><path d="M826.022 1422C826.022 1434.4 815.972 1444.5 803.52 1444.5 791.071 1444.5 781.02 1434.4 781.02 1422 781.02 1409.55 791.071 1399.5 803.52 1399.5 815.972 1399.5 826.022 1409.55 826.022 1422Z" fill="#AFABAB" fill-rule="evenodd"/><path d="M826.022 1553C826.022 1565.4 815.972 1575.5 803.52 1575.5 791.071 1575.5 781.02 1565.4 781.02 1553 781.02 1540.55 791.071 1530.5 803.52 1530.5 815.972 1530.5 826.022 1540.55 826.022 1553Z" fill="#AFABAB" fill-rule="evenodd"/><path d="M826.022 1678C826.022 1690.4 815.972 1700.5 803.52 1700.5 791.071 1700.5 781.02 1690.4 781.02 1678 781.02 1665.55 791.071 1655.5 803.52 1655.5 815.972 1655.5 826.022 1665.55 826.022 1678Z" fill="#AFABAB" fill-rule="evenodd"/><path d="M955.088 789.998C955.088 802.398 945.261 812.5 933.086 812.5 920.963 812.5 911.086 802.398 911.086 789.998 911.086 777.548 920.963 767.498 933.086 767.498 945.261 767.498 955.088 777.548 955.088 789.998Z" fill="#AFABAB" fill-rule="evenodd"/><path d="M955.088 915.442C955.088 928.118 945.261 938.444 933.086 938.444 920.963 938.444 911.086 928.118 911.086 915.442 911.086 902.716 920.963 892.442 933.086 892.442 945.261 892.442 955.088 902.716 955.088 915.442Z" fill="#AFABAB" fill-rule="evenodd"/><path d="M955.088 1046C955.088 1058.4 945.261 1068.5 933.086 1068.5 920.963 1068.5 911.086 1058.4 911.086 1046 911.086 1033.55 920.963 1023.5 933.086 1023.5 945.261 1023.5 955.088 1033.55 955.088 1046Z" fill="#AFABAB" fill-rule="evenodd"/><path d="M955.088 1171C955.088 1183.4 945.261 1193.5 933.086 1193.5 920.963 1193.5 911.086 1183.4 911.086 1171 911.086 1158.55 920.963 1148.5 933.086 1148.5 945.261 1148.5 955.088 1158.55 955.088 1171Z" fill="#AFABAB" fill-rule="evenodd"/><path d="M955.088 1297C955.088 1309.4 945.261 1319.5 933.086 1319.5 920.963 1319.5 911.086 1309.4 911.086 1297 911.086 1284.55 920.963 1274.5 933.086 1274.5 945.261 1274.5 955.088 1284.55 955.088 1297Z" fill="#AFABAB" fill-rule="evenodd"/><path d="M955.088 1422C955.088 1434.4 945.261 1444.5 933.086 1444.5 920.963 1444.5 911.086 1434.4 911.086 1422 911.086 1409.55 920.963 1399.5 933.086 1399.5 945.261 1399.5 955.088 1409.55 955.088 1422Z" fill="#AFABAB" fill-rule="evenodd"/><path d="M955.088 1553C955.088 1565.4 945.261 1575.5 933.086 1575.5 920.963 1575.5 911.086 1565.4 911.086 1553 911.086 1540.55 920.963 1530.5 933.086 1530.5 945.261 1530.5 955.088 1540.55 955.088 1553Z" fill="#AFABAB" fill-rule="evenodd"/><path d="M955.088 1678C955.088 1690.4 945.261 1700.5 933.086 1700.5 920.963 1700.5 911.086 1690.4 911.086 1678 911.086 1665.55 920.963 1655.5 933.086 1655.5 945.261 1655.5 955.088 1665.55 955.088 1678Z" fill="#AFABAB" fill-rule="evenodd"/><path d="M1085.02 789.998C1085.02 802.398 1074.97 812.5 1062.52 812.5 1050.12 812.5 1040.02 802.398 1040.02 789.998 1040.02 777.548 1050.12 767.498 1062.52 767.498 1074.97 767.498 1085.02 777.548 1085.02 789.998Z" fill="#AFABAB" fill-rule="evenodd"/><path d="M1085.02 915.442C1085.02 928.118 1074.97 938.444 1062.52 938.444 1050.12 938.444 1040.02 928.118 1040.02 915.442 1040.02 902.716 1050.12 892.442 1062.52 892.442 1074.97 892.442 1085.02 902.716 1085.02 915.442Z" fill="#AFABAB" fill-rule="evenodd"/><path d="M1085.02 1046C1085.02 1058.4 1074.97 1068.5 1062.52 1068.5 1050.12 1068.5 1040.02 1058.4 1040.02 1046 1040.02 1033.55 1050.12 1023.5 1062.52 1023.5 1074.97 1023.5 1085.02 1033.55 1085.02 1046Z" fill="#AFABAB" fill-rule="evenodd"/><path d="M1085.02 1171C1085.02 1183.4 1074.97 1193.5 1062.52 1193.5 1050.12 1193.5 1040.02 1183.4 1040.02 1171 1040.02 1158.55 1050.12 1148.5 1062.52 1148.5 1074.97 1148.5 1085.02 1158.55 1085.02 1171Z" fill="#AFABAB" fill-rule="evenodd"/><path d="M1085.02 1297C1085.02 1309.4 1074.97 1319.5 1062.52 1319.5 1050.12 1319.5 1040.02 1309.4 1040.02 1297 1040.02 1284.55 1050.12 1274.5 1062.52 1274.5 1074.97 1274.5 1085.02 1284.55 1085.02 1297Z" fill="#AFABAB" fill-rule="evenodd"/><path d="M1085.02 1422C1085.02 1434.4 1074.97 1444.5 1062.52 1444.5 1050.12 1444.5 1040.02 1434.4 1040.02 1422 1040.02 1409.55 1050.12 1399.5 1062.52 1399.5 1074.97 1399.5 1085.02 1409.55 1085.02 1422Z" fill="#AFABAB" fill-rule="evenodd"/><path d="M1085.02 1553C1085.02 1565.4 1074.97 1575.5 1062.52 1575.5 1050.12 1575.5 1040.02 1565.4 1040.02 1553 1040.02 1540.55 1050.12 1530.5 1062.52 1530.5 1074.97 1530.5 1085.02 1540.55 1085.02 1553Z" fill="#AFABAB" fill-rule="evenodd"/><path d="M1085.02 1678C1085.02 1690.4 1074.97 1700.5 1062.52 1700.5 1050.12 1700.5 1040.02 1690.4 1040.02 1678 1040.02 1665.55 1050.12 1655.5 1062.52 1655.5 1074.97 1655.5 1085.02 1665.55 1085.02 1678Z" fill="#AFABAB" fill-rule="evenodd"/><path d="M1215.02 789.998C1215.02 802.398 1204.97 812.5 1192.52 812.5 1180.12 812.5 1170.02 802.398 1170.02 789.998 1170.02 777.548 1180.12 767.498 1192.52 767.498 1204.97 767.498 1215.02 777.548 1215.02 789.998Z" fill="#AFABAB" fill-rule="evenodd"/><path d="M1215.02 915.442C1215.02 928.118 1204.97 938.444 1192.52 938.444 1180.12 938.444 1170.02 928.118 1170.02 915.442 1170.02 902.716 1180.12 892.442 1192.52 892.442 1204.97 892.442 1215.02 902.716 1215.02 915.442Z" fill="#AFABAB" fill-rule="evenodd"/><path d="M1215.02 1046C1215.02 1058.4 1204.97 1068.5 1192.52 1068.5 1180.12 1068.5 1170.02 1058.4 1170.02 1046 1170.02 1033.55 1180.12 1023.5 1192.52 1023.5 1204.97 1023.5 1215.02 1033.55 1215.02 1046Z" fill="#AFABAB" fill-rule="evenodd"/><path d="M1215.02 1171C1215.02 1183.4 1204.97 1193.5 1192.52 1193.5 1180.12 1193.5 1170.02 1183.4 1170.02 1171 1170.02 1158.55 1180.12 1148.5 1192.52 1148.5 1204.97 1148.5 1215.02 1158.55 1215.02 1171Z" fill="#AFABAB" fill-rule="evenodd"/><path d="M1215.02 1297C1215.02 1309.4 1204.97 1319.5 1192.52 1319.5 1180.12 1319.5 1170.02 1309.4 1170.02 1297 1170.02 1284.55 1180.12 1274.5 1192.52 1274.5 1204.97 1274.5 1215.02 1284.55 1215.02 1297Z" fill="#AFABAB" fill-rule="evenodd"/><path d="M1215.02 1422C1215.02 1434.4 1204.97 1444.5 1192.52 1444.5 1180.12 1444.5 1170.02 1434.4 1170.02 1422 1170.02 1409.55 1180.12 1399.5 1192.52 1399.5 1204.97 1399.5 1215.02 1409.55 1215.02 1422Z" fill="#AFABAB" fill-rule="evenodd"/><path d="M1215.02 1553C1215.02 1565.4 1204.97 1575.5 1192.52 1575.5 1180.12 1575.5 1170.02 1565.4 1170.02 1553 1170.02 1540.55 1180.12 1530.5 1192.52 1530.5 1204.97 1530.5 1215.02 1540.55 1215.02 1553Z" fill="#AFABAB" fill-rule="evenodd"/><path d="M1215.02 1678C1215.02 1690.4 1204.97 1700.5 1192.52 1700.5 1180.12 1700.5 1170.02 1690.4 1170.02 1678 1170.02 1665.55 1180.12 1655.5 1192.52 1655.5 1204.97 1655.5 1215.02 1665.55 1215.02 1678Z" fill="#AFABAB" fill-rule="evenodd"/><path d="M1345.02 789.998C1345.02 802.398 1334.97 812.5 1322.52 812.5 1310.12 812.5 1300.02 802.398 1300.02 789.998 1300.02 777.548 1310.12 767.498 1322.52 767.498 1334.97 767.498 1345.02 777.548 1345.02 789.998Z" fill="#AFABAB" fill-rule="evenodd"/><path d="M1345.02 915.442C1345.02 928.118 1334.97 938.444 1322.52 938.444 1310.12 938.444 1300.02 928.118 1300.02 915.442 1300.02 902.716 1310.12 892.442 1322.52 892.442 1334.97 892.442 1345.02 902.716 1345.02 915.442Z" fill="#AFABAB" fill-rule="evenodd"/><path d="M1345.02 1046C1345.02 1058.4 1334.97 1068.5 1322.52 1068.5 1310.12 1068.5 1300.02 1058.4 1300.02 1046 1300.02 1033.55 1310.12 1023.5 1322.52 1023.5 1334.97 1023.5 1345.02 1033.55 1345.02 1046Z" fill="#AFABAB" fill-rule="evenodd"/><path d="M1345.02 1171C1345.02 1183.4 1334.97 1193.5 1322.52 1193.5 1310.12 1193.5 1300.02 1183.4 1300.02 1171 1300.02 1158.55 1310.12 1148.5 1322.52 1148.5 1334.97 1148.5 1345.02 1158.55 1345.02 1171Z" fill="#AFABAB" fill-rule="evenodd"/><path d="M1345.02 1297C1345.02 1309.4 1334.97 1319.5 1322.52 1319.5 1310.12 1319.5 1300.02 1309.4 1300.02 1297 1300.02 1284.55 1310.12 1274.5 1322.52 1274.5 1334.97 1274.5 1345.02 1284.55 1345.02 1297Z" fill="#AFABAB" fill-rule="evenodd"/><path d="M1345.02 1422C1345.02 1434.4 1334.97 1444.5 1322.52 1444.5 1310.12 1444.5 1300.02 1434.4 1300.02 1422 1300.02 1409.55 1310.12 1399.5 1322.52 1399.5 1334.97 1399.5 1345.02 1409.55 1345.02 1422Z" fill="#AFABAB" fill-rule="evenodd"/><path d="M1345.02 1553C1345.02 1565.4 1334.97 1575.5 1322.52 1575.5 1310.12 1575.5 1300.02 1565.4 1300.02 1553 1300.02 1540.55 1310.12 1530.5 1322.52 1530.5 1334.97 1530.5 1345.02 1540.55 1345.02 1553Z" fill="#AFABAB" fill-rule="evenodd"/><path d="M1345.02 1678C1345.02 1690.4 1334.97 1700.5 1322.52 1700.5 1310.12 1700.5 1300.02 1690.4 1300.02 1678 1300.02 1665.55 1310.12 1655.5 1322.52 1655.5 1334.97 1655.5 1345.02 1665.55 1345.02 1678Z" fill="#AFABAB" fill-rule="evenodd"/><path d="M1475.02 789.998C1475.02 802.398 1464.97 812.5 1452.52 812.5 1440.12 812.5 1430.02 802.398 1430.02 789.998 1430.02 777.548 1440.12 767.498 1452.52 767.498 1464.97 767.498 1475.02 777.548 1475.02 789.998Z" fill="#AFABAB" fill-rule="evenodd"/><path d="M1475.02 915.442C1475.02 928.118 1464.97 938.444 1452.52 938.444 1440.12 938.444 1430.02 928.118 1430.02 915.442 1430.02 902.716 1440.12 892.442 1452.52 892.442 1464.97 892.442 1475.02 902.716 1475.02 915.442Z" fill="#AFABAB" fill-rule="evenodd"/><path d="M1475.02 1046C1475.02 1058.4 1464.97 1068.5 1452.52 1068.5 1440.12 1068.5 1430.02 1058.4 1430.02 1046 1430.02 1033.55 1440.12 1023.5 1452.52 1023.5 1464.97 1023.5 1475.02 1033.55 1475.02 1046Z" fill="#AFABAB" fill-rule="evenodd"/><path d="M1475.02 1171C1475.02 1183.4 1464.97 1193.5 1452.52 1193.5 1440.12 1193.5 1430.02 1183.4 1430.02 1171 1430.02 1158.55 1440.12 1148.5 1452.52 1148.5 1464.97 1148.5 1475.02 1158.55 1475.02 1171Z" fill="#AFABAB" fill-rule="evenodd"/><path d="M1475.02 1297C1475.02 1309.4 1464.97 1319.5 1452.52 1319.5 1440.12 1319.5 1430.02 1309.4 1430.02 1297 1430.02 1284.55 1440.12 1274.5 1452.52 1274.5 1464.97 1274.5 1475.02 1284.55 1475.02 1297Z" fill="#AFABAB" fill-rule="evenodd"/><path d="M1475.02 1422C1475.02 1434.4 1464.97 1444.5 1452.52 1444.5 1440.12 1444.5 1430.02 1434.4 1430.02 1422 1430.02 1409.55 1440.12 1399.5 1452.52 1399.5 1464.97 1399.5 1475.02 1409.55 1475.02 1422Z" fill="#AFABAB" fill-rule="evenodd"/><path d="M1475.02 1553C1475.02 1565.4 1464.97 1575.5 1452.52 1575.5 1440.12 1575.5 1430.02 1565.4 1430.02 1553 1430.02 1540.55 1440.12 1530.5 1452.52 1530.5 1464.97 1530.5 1475.02 1540.55 1475.02 1553Z" fill="#AFABAB" fill-rule="evenodd"/><path d="M1475.02 1678C1475.02 1690.4 1464.97 1700.5 1452.52 1700.5 1440.12 1700.5 1430.02 1690.4 1430.02 1678 1430.02 1665.55 1440.12 1655.5 1452.52 1655.5 1464.97 1655.5 1475.02 1665.55 1475.02 1678Z" fill="#AFABAB" fill-rule="evenodd"/><path d="M1604.02 789.998C1604.02 802.398 1593.97 812.5 1581.52 812.5 1569.12 812.5 1559.02 802.398 1559.02 789.998 1559.02 777.548 1569.12 767.498 1581.52 767.498 1593.97 767.498 1604.02 777.548 1604.02 789.998Z" fill="#AFABAB" fill-rule="evenodd"/><path d="M1604.02 915.442C1604.02 928.118 1593.97 938.444 1581.52 938.444 1569.12 938.444 1559.02 928.118 1559.02 915.442 1559.02 902.716 1569.12 892.442 1581.52 892.442 1593.97 892.442 1604.02 902.716 1604.02 915.442Z" fill="#AFABAB" fill-rule="evenodd"/><path d="M1604.02 1046C1604.02 1058.4 1593.97 1068.5 1581.52 1068.5 1569.12 1068.5 1559.02 1058.4 1559.02 1046 1559.02 1033.55 1569.12 1023.5 1581.52 1023.5 1593.97 1023.5 1604.02 1033.55 1604.02 1046Z" fill="#AFABAB" fill-rule="evenodd"/><path d="M1604.02 1171C1604.02 1183.4 1593.97 1193.5 1581.52 1193.5 1569.12 1193.5 1559.02 1183.4 1559.02 1171 1559.02 1158.55 1569.12 1148.5 1581.52 1148.5 1593.97 1148.5 1604.02 1158.55 1604.02 1171Z" fill="#AFABAB" fill-rule="evenodd"/><path d="M1604.02 1297C1604.02 1309.4 1593.97 1319.5 1581.52 1319.5 1569.12 1319.5 1559.02 1309.4 1559.02 1297 1559.02 1284.55 1569.12 1274.5 1581.52 1274.5 1593.97 1274.5 1604.02 1284.55 1604.02 1297Z" fill="#AFABAB" fill-rule="evenodd"/><path d="M1604.02 1422C1604.02 1434.4 1593.97 1444.5 1581.52 1444.5 1569.12 1444.5 1559.02 1434.4 1559.02 1422 1559.02 1409.55 1569.12 1399.5 1581.52 1399.5 1593.97 1399.5 1604.02 1409.55 1604.02 1422Z" fill="#AFABAB" fill-rule="evenodd"/><path d="M1604.02 1553C1604.02 1565.4 1593.97 1575.5 1581.52 1575.5 1569.12 1575.5 1559.02 1565.4 1559.02 1553 1559.02 1540.55 1569.12 1530.5 1581.52 1530.5 1593.97 1530.5 1604.02 1540.55 1604.02 1553Z" fill="#AFABAB" fill-rule="evenodd"/><path d="M1604.02 1678C1604.02 1690.4 1593.97 1700.5 1581.52 1700.5 1569.12 1700.5 1559.02 1690.4 1559.02 1678 1559.02 1665.55 1569.12 1655.5 1581.52 1655.5 1593.97 1655.5 1604.02 1665.55 1604.02 1678Z" fill="#AFABAB" fill-rule="evenodd"/><path d="M1734.02 789.998C1734.02 802.398 1723.97 812.5 1711.52 812.5 1699.12 812.5 1689.02 802.398 1689.02 789.998 1689.02 777.548 1699.12 767.498 1711.52 767.498 1723.97 767.498 1734.02 777.548 1734.02 789.998Z" fill="#AFABAB" fill-rule="evenodd"/><path d="M1734.02 915.442C1734.02 928.118 1723.97 938.444 1711.52 938.444 1699.12 938.444 1689.02 928.118 1689.02 915.442 1689.02 902.716 1699.12 892.442 1711.52 892.442 1723.97 892.442 1734.02 902.716 1734.02 915.442Z" fill="#AFABAB" fill-rule="evenodd"/><path d="M1734.02 1046C1734.02 1058.4 1723.97 1068.5 1711.52 1068.5 1699.12 1068.5 1689.02 1058.4 1689.02 1046 1689.02 1033.55 1699.12 1023.5 1711.52 1023.5 1723.97 1023.5 1734.02 1033.55 1734.02 1046Z" fill="#AFABAB" fill-rule="evenodd"/><path d="M1734.02 1171C1734.02 1183.4 1723.97 1193.5 1711.52 1193.5 1699.12 1193.5 1689.02 1183.4 1689.02 1171 1689.02 1158.55 1699.12 1148.5 1711.52 1148.5 1723.97 1148.5 1734.02 1158.55 1734.02 1171Z" fill="#AFABAB" fill-rule="evenodd"/><path d="M1734.02 1297C1734.02 1309.4 1723.97 1319.5 1711.52 1319.5 1699.12 1319.5 1689.02 1309.4 1689.02 1297 1689.02 1284.55 1699.12 1274.5 1711.52 1274.5 1723.97 1274.5 1734.02 1284.55 1734.02 1297Z" fill="#AFABAB" fill-rule="evenodd"/><path d="M1734.02 1422C1734.02 1434.4 1723.97 1444.5 1711.52 1444.5 1699.12 1444.5 1689.02 1434.4 1689.02 1422 1689.02 1409.55 1699.12 1399.5 1711.52 1399.5 1723.97 1399.5 1734.02 1409.55 1734.02 1422Z" fill="#AFABAB" fill-rule="evenodd"/><path d="M1734.02 1553C1734.02 1565.4 1723.97 1575.5 1711.52 1575.5 1699.12 1575.5 1689.02 1565.4 1689.02 1553 1689.02 1540.55 1699.12 1530.5 1711.52 1530.5 1723.97 1530.5 1734.02 1540.55 1734.02 1553Z" fill="#AFABAB" fill-rule="evenodd"/><path d="M1734.02 1678C1734.02 1690.4 1723.97 1700.5 1711.52 1700.5 1699.12 1700.5 1689.02 1690.4 1689.02 1678 1689.02 1665.55 1699.12 1655.5 1711.52 1655.5 1723.97 1655.5 1734.02 1665.55 1734.02 1678Z" fill="#AFABAB" fill-rule="evenodd"/><path d="M1864.02 789.998C1864.02 802.398 1853.97 812.5 1841.52 812.5 1829.07 812.5 1819.02 802.398 1819.02 789.998 1819.02 777.548 1829.07 767.498 1841.52 767.498 1853.97 767.498 1864.02 777.548 1864.02 789.998Z" fill-rule="evenodd"/><path d="M1864.02 915.442C1864.02 928.118 1853.97 938.444 1841.52 938.444 1829.07 938.444 1819.02 928.118 1819.02 915.442 1819.02 902.716 1829.07 892.442 1841.52 892.442 1853.97 892.442 1864.02 902.716 1864.02 915.442Z" fill="#AFABAB" fill-rule="evenodd"/><path d="M1864.02 1046C1864.02 1058.4 1853.97 1068.5 1841.52 1068.5 1829.07 1068.5 1819.02 1058.4 1819.02 1046 1819.02 1033.55 1829.07 1023.5 1841.52 1023.5 1853.97 1023.5 1864.02 1033.55 1864.02 1046Z" fill="#AFABAB" fill-rule="evenodd"/><path d="M1864.02 1171C1864.02 1183.4 1853.97 1193.5 1841.52 1193.5 1829.07 1193.5 1819.02 1183.4 1819.02 1171 1819.02 1158.55 1829.07 1148.5 1841.52 1148.5 1853.97 1148.5 1864.02 1158.55 1864.02 1171Z" fill="#AFABAB" fill-rule="evenodd"/><path d="M1864.02 1297C1864.02 1309.4 1853.97 1319.5 1841.52 1319.5 1829.07 1319.5 1819.02 1309.4 1819.02 1297 1819.02 1284.55 1829.07 1274.5 1841.52 1274.5 1853.97 1274.5 1864.02 1284.55 1864.02 1297Z" fill="#AFABAB" fill-rule="evenodd"/><path d="M1864.02 1422C1864.02 1434.4 1853.97 1444.5 1841.52 1444.5 1829.07 1444.5 1819.02 1434.4 1819.02 1422 1819.02 1409.55 1829.07 1399.5 1841.52 1399.5 1853.97 1399.5 1864.02 1409.55 1864.02 1422Z" fill="#AFABAB" fill-rule="evenodd"/><path d="M1864.02 1553C1864.02 1565.4 1853.97 1575.5 1841.52 1575.5 1829.07 1575.5 1819.02 1565.4 1819.02 1553 1819.02 1540.55 1829.07 1530.5 1841.52 1530.5 1853.97 1530.5 1864.02 1540.55 1864.02 1553Z" fill="#AFABAB" fill-rule="evenodd"/><path d="M1864.02 1678C1864.02 1690.4 1853.97 1700.5 1841.52 1700.5 1829.07 1700.5 1819.02 1690.4 1819.02 1678 1819.02 1665.55 1829.07 1655.5 1841.52 1655.5 1853.97 1655.5 1864.02 1665.55 1864.02 1678Z" fill-rule="evenodd"/><text fill="#2F5597" font-family="Calibri,Calibri_MSFontService,sans-serif" font-weight="400" font-size="83" transform="matrix(1 0 0 1 539.037 697)">A<tspan font-size="83" x="1379.63" y="1123">D</tspan><tspan font-size="83" x="1.71875" y="1121">C</tspan><tspan font-size="83" x="1368.69" y="9">B</tspan></text><rect x="2005" y="634" width="90.9996" height="330" fill="#FFFFFF"/><text fill="#2F5597" font-family="Calibri,Calibri_MSFontService,sans-serif" font-weight="400" font-size="83" transform="matrix(-1.83697e-16 -1 1 -1.83697e-16 2078.08 851)">...<tspan font-size="83" x="62" y="1.13892e-14">0</tspan></text><rect x="2004" y="1493" width="91" height="330" fill="#FFFFFF"/><text fill="#2F5597" font-family="Calibri,Calibri_MSFontService,sans-serif" font-weight="400" font-size="83" transform="matrix(-1.83697e-16 -1 1 -1.83697e-16 2076.69 1741)">1.0<tspan font-size="83" x="104" y="1.91045e-14">...</tspan></text><rect x="2002" y="995" width="91.0001" height="330" fill="#FFFFFF"/><text fill="#2F5597" font-family="Calibri,Calibri_MSFontService,sans-serif" font-weight="400" font-size="83" transform="matrix(-1.83697e-16 -1 1 -1.83697e-16 2075.2 1197)">s2</text><path d="M0 0 0.000360892 1474.06" stroke="#4472C4" stroke-width="2.29167" stroke-miterlimit="8" fill="none" fill-rule="evenodd" transform="matrix(-1 0 0 1 1191 441)"/><path d="M0 0 1509.37 1.24183" stroke="#4472C4" stroke-width="2.29167" stroke-miterlimit="8" fill="none" fill-rule="evenodd" transform="matrix(-1 0 0 1 2002.37 1160)"/><rect x="627" y="1915" width="174" height="91.0001" fill="#FFFFFF"/><text fill="#2F5597" font-family="Calibri,Calibri_MSFontService,sans-serif" font-weight="400" font-size="83" transform="matrix(1 0 0 1 626.674 1988)">0.0…</text><rect x="1680" y="1913" width="220" height="91.0001" fill="#FFFFFF"/><text fill="#2F5597" font-family="Calibri,Calibri_MSFontService,sans-serif" font-weight="400" font-size="83" transform="matrix(1 0 0 1 1712.84 1986)">…1.0</text><rect x="1120" y="1915" width="145" height="91.0001" fill="#FFFFFF"/><text fill="#2F5597" font-family="Calibri,Calibri_MSFontService,sans-serif" font-weight="400" font-size="83" transform="matrix(1 0 0 1 1155.48 1988)">s1<tspan font-size="83" x="-38.0901" y="-858">u</tspan></text><rect x="597" y="441" width="157" height="104" fill="#FFFFFF"/><text fill="#2F5597" font-family="Calibri,Calibri_MSFontService,sans-serif" font-weight="400" font-size="83" transform="matrix(1 0 0 1 625.522 521)">ia1</text><rect x="379" y="1598" width="104" height="157" fill="#FFFFFF"/><text fill="#2F5597" font-family="Calibri,Calibri_MSFontService,sans-serif" font-weight="400" font-size="83" transform="matrix(-1.83697e-16 -1 1 -1.83697e-16 458.507 1729)">id2</text><rect x="378" y="722" width="104" height="157" fill="#FFFFFF"/><text fill="#2F5597" font-family="Calibri,Calibri_MSFontService,sans-serif" font-weight="400" font-size="83" transform="matrix(-1.83697e-16 -1 1 -1.83697e-16 457.704 850)">ia2</text><rect x="381" y="1080" width="103" height="157" fill="#FFFFFF"/><text fill="#2F5597" font-family="Calibri,Calibri_MSFontService,sans-serif" font-weight="400" font-size="83" transform="matrix(-1.83697e-16 -1 1 -1.83697e-16 460.024 1189)">i2</text><rect x="1716" y="1793" width="157" height="104" fill="#FFFFFF"/><text fill="#2F5597" font-family="Calibri,Calibri_MSFontService,sans-serif" font-weight="400" font-size="83" transform="matrix(1 0 0 1 1785.95 1873)">ud</text><rect x="627" y="1795" width="157" height="104" fill="#FFFFFF"/><text fill="#2F5597" font-family="Calibri,Calibri_MSFontService,sans-serif" font-weight="400" font-size="83" transform="matrix(1 0 0 1 626.673 1875)">uc</text><rect x="1055" y="1793" width="294" height="104" fill="#FFFFFF"/><text fill="#2F5597" font-family="Calibri,Calibri_MSFontService,sans-serif" font-weight="400" font-size="83" transform="matrix(1 0 0 1 1141.03 1873)">ucd</text><rect x="597" y="335" width="187" height="104" fill="#FFFFFF"/><text fill="#2F5597" font-family="Calibri,Calibri_MSFontService,sans-serif" font-weight="400" font-size="83" transform="matrix(1 0 0 1 624.55 415)">tpi1</text><rect x="279" y="1456" width="104" height="329" fill="#FFFFFF"/><text fill="#2F5597" font-family="Calibri,Calibri_MSFontService,sans-serif" font-weight="400" font-size="83" transform="matrix(-1.83697e-16 -1 1 -1.83697e-16 358.873 1728)">tpi2+1</text><rect x="279" y="739" width="104" height="157" fill="#FFFFFF"/><text fill="#2F5597" font-family="Calibri,Calibri_MSFontService,sans-serif" font-weight="400" font-size="83" transform="matrix(-1.83697e-16 -1 1 -1.83697e-16 358.873 883)">tpi2</text><path d="M0 0 1482.59 0.658268" stroke="#A6A6A6" stroke-width="2.29167" stroke-miterlimit="8" fill="none" fill-rule="evenodd" transform="matrix(1 0 0 -1 754 597.658)"/><path d="M0 0 1482.59 4.32349" stroke="#A6A6A6" stroke-width="2.29167" stroke-miterlimit="8" fill="none" fill-rule="evenodd" transform="matrix(1 0 0 -1 754 493.324)"/><path d="M0 0 1453.02 1.97372" stroke="#A6A6A6" stroke-width="2.29167" stroke-miterlimit="8" fill="none" fill-rule="evenodd" transform="matrix(1 0 0 -1 784 386.974)"/><text fill="#2F5597" font-family="Calibri,Calibri_MSFontService,sans-serif" font-weight="400" font-size="83" transform="matrix(1 0 0 1 2262.79 521)">Interpolated Dimension<tspan font-size="83" x="0" y="104">Coordinate value</tspan><tspan font-size="83" x="0" y="-108">Subsampled Dimension</tspan></text><rect x="1751" y="545" width="157" height="104" fill="#FFFFFF"/><text fill="#2F5597" font-family="Calibri,Calibri_MSFontService,sans-serif" font-weight="400" font-size="83" transform="matrix(1 0 0 1 1785.75 625)">ub</text><rect x="1743" y="441" width="157" height="104" fill="#FFFFFF"/><text fill="#2F5597" font-family="Calibri,Calibri_MSFontService,sans-serif" font-weight="400" font-size="83" transform="matrix(1 0 0 1 1768.98 521)">ib1</text><rect x="1586" y="350" width="358" height="87" fill="#FFFFFF"/><text fill="#2F5597" font-family="Calibri,Calibri_MSFontService,sans-serif" font-weight="400" font-size="83" transform="matrix(1 0 0 1 1657.45 421)">tpi1+1</text><rect x="1115" y="441" width="157" height="104" fill="#FFFFFF"/><text fill="#2F5597" font-family="Calibri,Calibri_MSFontService,sans-serif" font-weight="400" font-size="83" transform="matrix(1 0 0 1 1162.83 521)">i1</text><rect x="1104" y="545" width="168" height="104" fill="#FFFFFF"/><text fill="#2F5597" font-family="Calibri,Calibri_MSFontService,sans-serif" font-weight="400" font-size="83" transform="matrix(1 0 0 1 1124.68 625)">uab<tspan font-size="83" x="1138.1" y="1360">Interpolation argument</tspan></text></g></svg>