<?xml version="1.0" encoding="UTF-8" standalone="no"?>
<!DOCTYPE svg PUBLIC "-//W3C//DTD SVG 1.1//EN"
 "http://www.w3.org/Graphics/SVG/1.1/DTD/svg11.dtd">
<!-- Generated by graphviz version 2.40.1 (20161225.0304)
 -->
<!-- Title: %3 Pages: 1 -->
<svg width="679pt" height="455pt"
 viewBox="0.00 0.00 678.50 455.00" xmlns="http://www.w3.org/2000/svg" xmlns:xlink="http://www.w3.org/1999/xlink">
<g id="graph0" class="graph" transform="scale(1 1) rotate(0) translate(4 451)">
<title>%3</title>
<polygon fill="#ffffff" stroke="transparent" points="-4,4 -4,-451 674.5,-451 674.5,4 -4,4"/>
<!-- NetCDFDimension -->
<g id="node1" class="node">
<title>NetCDFDimension</title>
<polygon fill="#ffffd8" stroke="#000000" stroke-width="2" points="257.5,-303 143.5,-303 143.5,-267 257.5,-267 257.5,-303"/>
<text text-anchor="middle" x="200.5" y="-281.3" font-family="Arial" font-size="14.00" fill="#000000">NC::Dimension</text>
</g>
<!-- NetCDFVariable -->
<g id="node2" class="node">
<title>NetCDFVariable</title>
<polygon fill="#ffffd8" stroke="#000000" stroke-width="2" points="409.5,-303 311.5,-303 311.5,-267 409.5,-267 409.5,-303"/>
<text text-anchor="middle" x="360.5" y="-281.3" font-family="Arial" font-size="14.00" fill="#000000">NC::Variable</text>
</g>
<!-- NetCDFDimension&#45;&gt;NetCDFVariable -->
<g id="edge7" class="edge">
<title>NetCDFDimension&#45;&gt;NetCDFVariable</title>
<path fill="none" stroke="#000000" d="M267.8117,-285C267.8117,-285 311.2599,-285 311.2599,-285"/>
<polygon fill="#000000" stroke="#000000" points="257.8117,-285 267.8118,-280.5001 262.8117,-285 267.8117,-285.0001 267.8117,-285.0001 267.8117,-285.0001 262.8117,-285 267.8117,-289.5001 257.8117,-285 257.8117,-285"/>
<text text-anchor="middle" x="272.3117" y="-288.2" font-family="Arial" font-size="11.00" fill="#000000"> &#160;&#160;&#160;0..*</text>
</g>
<!-- NetCDFAttribute -->
<g id="node3" class="node">
<title>NetCDFAttribute</title>
<polygon fill="#ffffd8" stroke="#000000" stroke-width="2" points="561.5,-303 463.5,-303 463.5,-267 561.5,-267 561.5,-303"/>
<text text-anchor="middle" x="512.5" y="-281.3" font-family="Arial" font-size="14.00" fill="#000000">NC::Attribute</text>
</g>
<!-- NetCDFVariable&#45;&gt;NetCDFAttribute -->
<g id="edge8" class="edge">
<title>NetCDFVariable&#45;&gt;NetCDFAttribute</title>
<path fill="none" stroke="#000000" d="M419.85,-285C419.85,-285 451.3976,-285 451.3976,-285"/>
<polygon fill="#000000" stroke="#000000" points="463.3976,-285 453.3976,-289.5 458.3976,-285 453.3976,-285 453.3976,-285 453.3976,-285 458.3976,-285 453.3976,-280.5 463.3976,-285 463.3976,-285"/>
<polygon fill="#000000" stroke="#000000" points="421.85,-285 415.85,-289 409.85,-285 415.8501,-281 421.85,-285"/>
<text text-anchor="middle" x="448.8976" y="-288.2" font-family="Arial" font-size="11.00" fill="#000000">0..* &#160;&#160;&#160;</text>
</g>
<!-- route7 -->
<g id="node23" class="node">
<title>route7</title>
<polygon fill="#c3ffff" stroke="transparent" stroke-width="2" points="361,-231 360,-231 360,-230 361,-230 361,-231"/>
</g>
<!-- NetCDFVariable&#45;&gt;route7 -->
<g id="edge12" class="edge">
<title>NetCDFVariable&#45;&gt;route7</title>
<path fill="none" stroke="#000000" d="M360.5,-256.8523C360.5,-256.8523 360.5,-231.0198 360.5,-231.0198"/>
<polygon fill="none" stroke="#000000" points="357.0001,-256.8523 360.5,-266.8523 364.0001,-256.8523 357.0001,-256.8523"/>
</g>
<!-- GenericCoordinate -->
<g id="node4" class="node">
<title>GenericCoordinate</title>
<polygon fill="#ffffff" stroke="#000000" stroke-width="2" points="101,-194 0,-194 0,-126 101,-126 101,-194"/>
<text text-anchor="middle" x="50.5" y="-178.8" font-family="Arial" font-size="14.00" fill="#000000">&lt;&lt;abstract&gt;&gt;</text>
<text text-anchor="middle" x="50.5" y="-163.8" font-family="Arial" font-size="14.00" fill="#000000">Generic</text>
<text text-anchor="middle" x="50.5" y="-148.8" font-family="Arial" font-size="14.00" fill="#000000">Coordinate</text>
<text text-anchor="middle" x="50.5" y="-133.8" font-family="Arial" font-size="14.00" fill="#000000">Variable</text>
</g>
<!-- BoundaryVariable -->
<g id="node15" class="node">
<title>BoundaryVariable</title>
<polygon fill="#c3ffff" stroke="#000000" stroke-width="2" points="216.5,-179 136.5,-179 136.5,-141 216.5,-141 216.5,-179"/>
<text text-anchor="middle" x="176.5" y="-163.8" font-family="Arial" font-size="14.00" fill="#000000">Boundary</text>
<text text-anchor="middle" x="176.5" y="-148.8" font-family="Arial" font-size="14.00" fill="#000000">Variable</text>
</g>
<!-- GenericCoordinate&#45;&gt;BoundaryVariable -->
<g id="edge26" class="edge">
<title>GenericCoordinate&#45;&gt;BoundaryVariable</title>
<path fill="none" stroke="#000000" d="M101.023,-160C101.023,-160 126.4326,-160 126.4326,-160"/>
<polygon fill="#000000" stroke="#000000" points="136.4326,-160 126.4327,-164.5001 131.4326,-160 126.4326,-160.0001 126.4326,-160.0001 126.4326,-160.0001 131.4326,-160 126.4326,-155.5001 136.4326,-160 136.4326,-160"/>
<text text-anchor="middle" x="120.9326" y="-163.2" font-family="Arial" font-size="11.00" fill="#000000">0..1 &#160;&#160;&#160;</text>
</g>
<!-- route4 -->
<g id="node20" class="node">
<title>route4</title>
<polygon fill="#c3ffff" stroke="transparent" stroke-width="2" points="51,-231 50,-231 50,-230 51,-230 51,-231"/>
</g>
<!-- GenericCoordinate&#45;&gt;route4 -->
<g id="edge14" class="edge">
<title>GenericCoordinate&#45;&gt;route4</title>
<path fill="none" stroke="#000000" d="M50.5,-194.011C50.5,-209.7856 50.5,-225.8915 50.5,-229.6715"/>
</g>
<!-- route12 -->
<g id="node28" class="node">
<title>route12</title>
<polygon fill="#c3ffff" stroke="transparent" stroke-width="2" points="51,-90 50,-90 50,-89 51,-89 51,-90"/>
</g>
<!-- GenericCoordinate&#45;&gt;route12 -->
<g id="edge27" class="edge">
<title>GenericCoordinate&#45;&gt;route12</title>
<path fill="none" stroke="#000000" d="M50.5,-115.989C50.5,-115.989 50.5,-90.3285 50.5,-90.3285"/>
<polygon fill="none" stroke="#000000" points="47.0001,-115.989 50.5,-125.989 54.0001,-115.9891 47.0001,-115.989"/>
</g>
<!-- Dimension -->
<g id="node5" class="node">
<title>Dimension</title>
<polygon fill="#c3ffff" stroke="#000000" stroke-width="2" points="150.5,-447 64.5,-447 64.5,-411 150.5,-411 150.5,-447"/>
<text text-anchor="middle" x="107.5" y="-425.3" font-family="Arial" font-size="14.00" fill="#000000">Dimension</text>
</g>
<!-- route3 -->
<g id="node19" class="node">
<title>route3</title>
<polygon fill="#c3ffff" stroke="transparent" stroke-width="2" points="108,-285.5 107,-285.5 107,-284.5 108,-284.5 108,-285.5"/>
</g>
<!-- Dimension&#45;&gt;route3 -->
<g id="edge1" class="edge">
<title>Dimension&#45;&gt;route3</title>
<path fill="none" stroke="#000000" d="M107.5,-410.7623C107.5,-373.8302 107.5,-293.0515 107.5,-285.5596"/>
</g>
<!-- CellMethods -->
<g id="node6" class="node">
<title>CellMethods</title>
<polygon fill="#c3ffff" stroke="#000000" stroke-width="2" points="563,-447 462,-447 462,-411 563,-411 563,-447"/>
<text text-anchor="middle" x="512.5" y="-425.3" font-family="Arial" font-size="14.00" fill="#000000">Cell Methods</text>
</g>
<!-- route1 -->
<g id="node17" class="node">
<title>route1</title>
<polygon fill="#c3ffff" stroke="transparent" stroke-width="2" points="201,-357.5 200,-357.5 200,-356.5 201,-356.5 201,-357.5"/>
</g>
<!-- CellMethods&#45;&gt;route1 -->
<g id="edge3" class="edge">
<title>CellMethods&#45;&gt;route1</title>
<path fill="none" stroke="#000000" d="M461.6774,-429C373.2685,-429 200.5,-429 200.5,-429 200.5,-429 200.5,-365.7188 200.5,-357.8086"/>
</g>
<!-- route2 -->
<g id="node18" class="node">
<title>route2</title>
<polygon fill="#c3ffff" stroke="transparent" stroke-width="2" points="582,-429.5 581,-429.5 581,-428.5 582,-428.5 582,-429.5"/>
</g>
<!-- CellMethods&#45;&gt;route2 -->
<g id="edge5" class="edge">
<title>CellMethods&#45;&gt;route2</title>
<path fill="none" stroke="#000000" d="M563.0093,-429C571.5581,-429 578.4219,-429 580.6952,-429"/>
</g>
<!-- route11 -->
<g id="node27" class="node">
<title>route11</title>
<polygon fill="#c3ffff" stroke="transparent" stroke-width="2" points="513,-357.5 512,-357.5 512,-356.5 513,-356.5 513,-357.5"/>
</g>
<!-- CellMethods&#45;&gt;route11 -->
<!-- FormulaTerms -->
<g id="node7" class="node">
<title>FormulaTerms</title>
<polygon fill="#c3ffff" stroke="#000000" stroke-width="2" points="417,-375 304,-375 304,-339 417,-339 417,-375"/>
<text text-anchor="middle" x="360.5" y="-353.3" font-family="Arial" font-size="14.00" fill="#000000">Formula Terms</text>
</g>
<!-- FormulaTerms&#45;&gt;NetCDFVariable -->
<g id="edge9" class="edge">
<title>FormulaTerms&#45;&gt;NetCDFVariable</title>
<path fill="none" stroke="#000000" d="M360.5,-338.8314C360.5,-338.8314 360.5,-313.4133 360.5,-313.4133"/>
<polygon fill="#000000" stroke="#000000" points="360.5,-303.4133 365.0001,-313.4132 360.5,-308.4133 360.5001,-313.4133 360.5001,-313.4133 360.5001,-313.4133 360.5,-308.4133 356.0001,-313.4133 360.5,-303.4133 360.5,-303.4133"/>
<text text-anchor="middle" x="349" y="-306.6133" font-family="Arial" font-size="11.00" fill="#000000">1..* &#160;</text>
</g>
<!-- FormulaTerms&#45;&gt;route11 -->
<g id="edge10" class="edge">
<title>FormulaTerms&#45;&gt;route11</title>
<path fill="none" stroke="#000000" d="M417.0992,-357C457.614,-357 506.0119,-357 511.9034,-357"/>
</g>
<!-- AuxiliaryCoordinate -->
<g id="node8" class="node">
<title>AuxiliaryCoordinate</title>
<polygon fill="#c3ffff" stroke="#000000" stroke-width="2" points="94.5,-53 6.5,-53 6.5,0 94.5,0 94.5,-53"/>
<text text-anchor="middle" x="50.5" y="-37.8" font-family="Arial" font-size="14.00" fill="#000000">Auxiliary</text>
<text text-anchor="middle" x="50.5" y="-22.8" font-family="Arial" font-size="14.00" fill="#000000">Coordinate</text>
<text text-anchor="middle" x="50.5" y="-7.8" font-family="Arial" font-size="14.00" fill="#000000">Variable</text>
</g>
<!-- Coordinate -->
<g id="node9" class="node">
<title>Coordinate</title>
<polygon fill="#c3ffff" stroke="#000000" stroke-width="2" points="200.5,-45.5 112.5,-45.5 112.5,-7.5 200.5,-7.5 200.5,-45.5"/>
<text text-anchor="middle" x="156.5" y="-30.3" font-family="Arial" font-size="14.00" fill="#000000">Coordinate</text>
<text text-anchor="middle" x="156.5" y="-15.3" font-family="Arial" font-size="14.00" fill="#000000">Variable</text>
</g>
<!-- ScalarCoordinate -->
<g id="node10" class="node">
<title>ScalarCoordinate</title>
<polygon fill="#c3ffff" stroke="#000000" stroke-width="2" points="306.5,-53 218.5,-53 218.5,0 306.5,0 306.5,-53"/>
<text text-anchor="middle" x="262.5" y="-37.8" font-family="Arial" font-size="14.00" fill="#000000">Scalar</text>
<text text-anchor="middle" x="262.5" y="-22.8" font-family="Arial" font-size="14.00" fill="#000000">Coordinate</text>
<text text-anchor="middle" x="262.5" y="-7.8" font-family="Arial" font-size="14.00" fill="#000000">Variable</text>
</g>
<!-- Data -->
<g id="node11" class="node">
<title>Data</title>
<polygon fill="#c3ffff" stroke="#000000" stroke-width="2" points="306.5,-179 234.5,-179 234.5,-141 306.5,-141 306.5,-179"/>
<text text-anchor="middle" x="270.5" y="-163.8" font-family="Arial" font-size="14.00" fill="#000000">Data</text>
<text text-anchor="middle" x="270.5" y="-148.8" font-family="Arial" font-size="14.00" fill="#000000">Variable</text>
</g>
<!-- Domain -->
<g id="node12" class="node">
<title>Domain</title>
<polygon fill="#c3ffff" stroke="#000000" stroke-width="2" points="396.5,-179 324.5,-179 324.5,-141 396.5,-141 396.5,-179"/>
<text text-anchor="middle" x="360.5" y="-163.8" font-family="Arial" font-size="14.00" fill="#000000">Domain</text>
<text text-anchor="middle" x="360.5" y="-148.8" font-family="Arial" font-size="14.00" fill="#000000">Variable</text>
</g>
<!-- CellMeasure -->
<g id="node13" class="node">
<title>CellMeasure</title>
<polygon fill="#c3ffff" stroke="#000000" stroke-width="2" points="580.5,-186.5 506.5,-186.5 506.5,-133.5 580.5,-133.5 580.5,-186.5"/>
<text text-anchor="middle" x="543.5" y="-171.3" font-family="Arial" font-size="14.00" fill="#000000">Cell</text>
<text text-anchor="middle" x="543.5" y="-156.3" font-family="Arial" font-size="14.00" fill="#000000">Measure</text>
<text text-anchor="middle" x="543.5" y="-141.3" font-family="Arial" font-size="14.00" fill="#000000">Variable</text>
</g>
<!-- AncillaryData -->
<g id="node14" class="node">
<title>AncillaryData</title>
<polygon fill="#c3ffff" stroke="#000000" stroke-width="2" points="670.5,-186.5 598.5,-186.5 598.5,-133.5 670.5,-133.5 670.5,-186.5"/>
<text text-anchor="middle" x="634.5" y="-171.3" font-family="Arial" font-size="14.00" fill="#000000">Ancillary</text>
<text text-anchor="middle" x="634.5" y="-156.3" font-family="Arial" font-size="14.00" fill="#000000">Data</text>
<text text-anchor="middle" x="634.5" y="-141.3" font-family="Arial" font-size="14.00" fill="#000000">Variable</text>
</g>
<!-- GridMapping -->
<g id="node16" class="node">
<title>GridMapping</title>
<polygon fill="#c3ffff" stroke="#000000" stroke-width="2" points="488,-186.5 415,-186.5 415,-133.5 488,-133.5 488,-186.5"/>
<text text-anchor="middle" x="451.5" y="-171.3" font-family="Arial" font-size="14.00" fill="#000000">Grid</text>
<text text-anchor="middle" x="451.5" y="-156.3" font-family="Arial" font-size="14.00" fill="#000000">Mapping</text>
<text text-anchor="middle" x="451.5" y="-141.3" font-family="Arial" font-size="14.00" fill="#000000">Variable</text>
</g>
<!-- route8 -->
<g id="node24" class="node">
<title>route8</title>
<polygon fill="#c3ffff" stroke="transparent" stroke-width="2" points="452,-231 451,-231 451,-230 452,-230 452,-231"/>
</g>
<!-- GridMapping&#45;&gt;route8 -->
<g id="edge21" class="edge">
<title>GridMapping&#45;&gt;route8</title>
<path fill="none" stroke="#000000" d="M451.5,-186.653C451.5,-204.7457 451.5,-226.0564 451.5,-229.8932"/>
</g>
<!-- route1&#45;&gt;NetCDFDimension -->
<g id="edge4" class="edge">
<title>route1&#45;&gt;NetCDFDimension</title>
<path fill="none" stroke="#000000" d="M200.5,-356.1914C200.5,-356.1914 200.5,-313.3083 200.5,-313.3083"/>
<polygon fill="#000000" stroke="#000000" points="200.5,-303.3083 205.0001,-313.3083 200.5,-308.3083 200.5001,-313.3083 200.5001,-313.3083 200.5001,-313.3083 200.5,-308.3083 196.0001,-313.3084 200.5,-303.3083 200.5,-303.3083"/>
<text text-anchor="middle" x="187.5" y="-306.5083" font-family="Arial" font-size="11.00" fill="#000000">0..* &#160;&#160;</text>
</g>
<!-- route2&#45;&gt;NetCDFAttribute -->
<g id="edge6" class="edge">
<title>route2&#45;&gt;NetCDFAttribute</title>
<path fill="none" stroke="#000000" d="M581.5,-428.358C581.5,-417.9697 581.5,-285 581.5,-285 581.5,-285 571.5423,-285 571.5423,-285"/>
<polygon fill="none" stroke="#000000" points="571.5424,-281.5001 561.5423,-285 571.5423,-288.5001 571.5424,-281.5001"/>
</g>
<!-- route3&#45;&gt;NetCDFDimension -->
<g id="edge2" class="edge">
<title>route3&#45;&gt;NetCDFDimension</title>
<path fill="none" stroke="#000000" d="M108.0939,-285C108.0939,-285 133.3315,-285 133.3315,-285"/>
<polygon fill="none" stroke="#000000" points="133.3315,-288.5001 143.3315,-285 133.3315,-281.5001 133.3315,-288.5001"/>
</g>
<!-- route5 -->
<g id="node21" class="node">
<title>route5</title>
<polygon fill="#c3ffff" stroke="transparent" stroke-width="2" points="177,-231 176,-231 176,-230 177,-230 177,-231"/>
</g>
<!-- route4&#45;&gt;route5 -->
<g id="edge15" class="edge">
<title>route4&#45;&gt;route5</title>
<path fill="none" stroke="#000000" d="M51.3046,-230C61.5326,-230 165.9969,-230 175.7679,-230"/>
</g>
<!-- route5&#45;&gt;BoundaryVariable -->
<g id="edge16" class="edge">
<title>route5&#45;&gt;BoundaryVariable</title>
<path fill="none" stroke="#000000" d="M176.5,-229.7083C176.5,-224.8069 176.5,-198.194 176.5,-179.311"/>
</g>
<!-- route6 -->
<g id="node22" class="node">
<title>route6</title>
<polygon fill="#c3ffff" stroke="transparent" stroke-width="2" points="271,-231 270,-231 270,-230 271,-230 271,-231"/>
</g>
<!-- route5&#45;&gt;route6 -->
<g id="edge17" class="edge">
<title>route5&#45;&gt;route6</title>
<path fill="none" stroke="#000000" d="M177.1003,-230C184.7307,-230 262.6644,-230 269.9539,-230"/>
</g>
<!-- route6&#45;&gt;Data -->
<g id="edge18" class="edge">
<title>route6&#45;&gt;Data</title>
<path fill="none" stroke="#000000" d="M270.5,-229.7083C270.5,-224.8069 270.5,-198.194 270.5,-179.311"/>
</g>
<!-- route6&#45;&gt;route7 -->
<g id="edge19" class="edge">
<title>route6&#45;&gt;route7</title>
<path fill="none" stroke="#000000" d="M271.0747,-230C278.3804,-230 352.9978,-230 359.9771,-230"/>
</g>
<!-- route7&#45;&gt;Domain -->
<g id="edge13" class="edge">
<title>route7&#45;&gt;Domain</title>
<path fill="none" stroke="#000000" d="M360.5,-229.7083C360.5,-224.8069 360.5,-198.194 360.5,-179.311"/>
</g>
<!-- route7&#45;&gt;route8 -->
<g id="edge20" class="edge">
<title>route7&#45;&gt;route8</title>
<path fill="none" stroke="#000000" d="M361.0811,-230C368.468,-230 443.9144,-230 450.9713,-230"/>
</g>
<!-- route9 -->
<g id="node25" class="node">
<title>route9</title>
<polygon fill="#c3ffff" stroke="transparent" stroke-width="2" points="544,-231 543,-231 543,-230 544,-230 544,-231"/>
</g>
<!-- route8&#45;&gt;route9 -->
<g id="edge22" class="edge">
<title>route8&#45;&gt;route9</title>
<path fill="none" stroke="#000000" d="M452.0875,-230C459.5556,-230 535.8311,-230 542.9655,-230"/>
</g>
<!-- route9&#45;&gt;CellMeasure -->
<g id="edge23" class="edge">
<title>route9&#45;&gt;CellMeasure</title>
<path fill="none" stroke="#000000" d="M543.5,-229.7083C543.5,-225.412 543.5,-204.4342 543.5,-186.6028"/>
</g>
<!-- route10 -->
<g id="node26" class="node">
<title>route10</title>
<polygon fill="#c3ffff" stroke="transparent" stroke-width="2" points="635,-231 634,-231 634,-230 635,-230 635,-231"/>
</g>
<!-- route9&#45;&gt;route10 -->
<g id="edge24" class="edge">
<title>route9&#45;&gt;route10</title>
<path fill="none" stroke="#000000" d="M544.0811,-230C551.468,-230 626.9144,-230 633.9713,-230"/>
</g>
<!-- route10&#45;&gt;AncillaryData -->
<g id="edge25" class="edge">
<title>route10&#45;&gt;AncillaryData</title>
<path fill="none" stroke="#000000" d="M634.5,-229.7083C634.5,-225.412 634.5,-204.4342 634.5,-186.6028"/>
</g>
<!-- route11&#45;&gt;NetCDFAttribute -->
<g id="edge11" class="edge">
<title>route11&#45;&gt;NetCDFAttribute</title>
<path fill="none" stroke="#000000" d="M512.5,-356.1914C512.5,-356.1914 512.5,-313.3083 512.5,-313.3083"/>
<polygon fill="none" stroke="#000000" points="516.0001,-313.3083 512.5,-303.3083 509.0001,-313.3083 516.0001,-313.3083"/>
</g>
<!-- route12&#45;&gt;AuxiliaryCoordinate -->
<g id="edge28" class="edge">
<title>route12&#45;&gt;AuxiliaryCoordinate</title>
<path fill="none" stroke="#000000" d="M50.5,-88.7925C50.5,-85.1966 50.5,-68.5235 50.5,-53.3319"/>
</g>
<!-- route13 -->
<g id="node29" class="node">
<title>route13</title>
<polygon fill="#c3ffff" stroke="transparent" stroke-width="2" points="157,-90 156,-90 156,-89 157,-89 157,-90"/>
</g>
<!-- route12&#45;&gt;route13 -->
<g id="edge29" class="edge">
<title>route12&#45;&gt;route13</title>
<path fill="none" stroke="#000000" d="M51.1769,-89C59.7814,-89 147.6641,-89 155.8841,-89"/>
</g>
<!-- route13&#45;&gt;Coordinate -->
<g id="edge30" class="edge">
<title>route13&#45;&gt;Coordinate</title>
<path fill="none" stroke="#000000" d="M156.5,-88.7925C156.5,-84.5748 156.5,-62.3658 156.5,-45.6587"/>
</g>
<!-- route14 -->
<g id="node30" class="node">
<title>route14</title>
<polygon fill="#c3ffff" stroke="transparent" stroke-width="2" points="263,-90 262,-90 262,-89 263,-89 263,-90"/>
</g>
<!-- route13&#45;&gt;route14 -->
<g id="edge31" class="edge">
<title>route13&#45;&gt;route14</title>
<path fill="none" stroke="#000000" d="M157.1769,-89C165.7814,-89 253.6641,-89 261.8841,-89"/>
</g>
<!-- route14&#45;&gt;ScalarCoordinate -->
<g id="edge32" class="edge">
<title>route14&#45;&gt;ScalarCoordinate</title>
<path fill="none" stroke="#000000" d="M262.5,-88.7925C262.5,-85.1966 262.5,-68.5235 262.5,-53.3319"/>
</g>
</g>
</svg>
