<?xml version="1.0" encoding="UTF-8" standalone="no"?>
<!DOCTYPE svg PUBLIC "-//W3C//DTD SVG 1.1//EN"
 "http://www.w3.org/Graphics/SVG/1.1/DTD/svg11.dtd">
<!-- Generated by graphviz version 2.43.0 (0)
 -->
<!-- Title: %3 Pages: 1 -->
<svg width="479pt" height="764pt"
 viewBox="0.00 0.00 478.50 764.00" xmlns="http://www.w3.org/2000/svg" xmlns:xlink="http://www.w3.org/1999/xlink">
<g id="graph0" class="graph" transform="scale(1 1) rotate(0) translate(4 760)">
<title>%3</title>
<polygon fill="white" stroke="transparent" points="-4,4 -4,-760 474.5,-760 474.5,4 -4,4"/>
<!-- DomainVariable -->
<g id="node1" class="node">
<title>DomainVariable</title>
<polygon fill="#c3ffff" stroke="black" stroke-width="2" points="150.5,-756 42.5,-756 42.5,-706 150.5,-706 150.5,-756"/>
<text text-anchor="middle" x="96.5" y="-734.8" font-family="Arial" font-size="14.00">CN::Domain</text>
<text text-anchor="middle" x="96.5" y="-719.8" font-family="Arial" font-size="14.00">Variable</text>
</g>
<!-- FieldAncillary -->
<g id="node12" class="node">
<title>FieldAncillary</title>
<polygon fill="#c3ffc2" stroke="black" stroke-width="2" points="196.5,-560 88.5,-560 88.5,-510 196.5,-510 196.5,-560"/>
<text text-anchor="middle" x="142.5" y="-538.8" font-family="Arial" font-size="14.00">&lt;&lt;construct&gt;&gt;</text>
<text text-anchor="middle" x="142.5" y="-523.8" font-family="Arial" font-size="14.00">FieldAncillary</text>
</g>
<!-- DomainVariable&#45;&gt;FieldAncillary -->
<!-- route9 -->
<g id="node23" class="node">
<title>route9</title>
<polygon fill="#c3ffc2" stroke="transparent" stroke-width="2" points="85,-633.5 84,-633.5 84,-632.5 85,-632.5 85,-633.5"/>
</g>
<!-- DomainVariable&#45;&gt;route9 -->
<g id="edge18" class="edge">
<title>DomainVariable&#45;&gt;route9</title>
<path fill="none" stroke="black" d="M84.5,-695.76C84.5,-695.76 84.5,-633.77 84.5,-633.77"/>
<polygon fill="black" stroke="black" points="84.5,-705.76 80,-695.76 84.5,-700.76 84.5,-695.76 84.5,-695.76 84.5,-695.76 84.5,-700.76 89,-695.76 84.5,-705.76 84.5,-705.76"/>
</g>
<!-- DataVariable -->
<g id="node2" class="node">
<title>DataVariable</title>
<polygon fill="#c3ffff" stroke="black" stroke-width="2" points="286.5,-756 178.5,-756 178.5,-706 286.5,-706 286.5,-756"/>
<text text-anchor="middle" x="232.5" y="-734.8" font-family="Arial" font-size="14.00">CN::Data</text>
<text text-anchor="middle" x="232.5" y="-719.8" font-family="Arial" font-size="14.00">Variable</text>
</g>
<!-- Field -->
<g id="node4" class="node">
<title>Field</title>
<polygon fill="#c3ffc2" stroke="black" stroke-width="2" points="286.5,-669 178.5,-669 178.5,-597 286.5,-597 286.5,-669"/>
<text text-anchor="middle" x="232.5" y="-636.8" font-family="Arial" font-size="14.00">&lt;&lt;construct&gt;&gt;</text>
<text text-anchor="middle" x="232.5" y="-621.8" font-family="Arial" font-size="14.00">Field</text>
</g>
<!-- DataVariable&#45;&gt;Field -->
<g id="edge1" class="edge">
<title>DataVariable&#45;&gt;Field</title>
<path fill="none" stroke="black" d="M232.5,-695.76C232.5,-695.76 232.5,-669.23 232.5,-669.23"/>
<polygon fill="black" stroke="black" points="232.5,-705.76 228,-695.76 232.5,-700.76 232.5,-695.76 232.5,-695.76 232.5,-695.76 232.5,-700.76 237,-695.76 232.5,-705.76 232.5,-705.76"/>
</g>
<!-- Domain -->
<g id="node3" class="node">
<title>Domain</title>
<polygon fill="#c3ffc2" stroke="black" stroke-width="2" points="322.5,-444 142.5,-444 142.5,-372 322.5,-372 322.5,-444"/>
<text text-anchor="middle" x="232.5" y="-411.8" font-family="Arial" font-size="14.00">&lt;&lt;construct&gt;&gt;</text>
<text text-anchor="middle" x="232.5" y="-396.8" font-family="Arial" font-size="14.00">Domain</text>
</g>
<!-- DomainAxis -->
<g id="node6" class="node">
<title>DomainAxis</title>
<polygon fill="#c3ffc2" stroke="black" stroke-width="2" points="470.5,-433 362.5,-433 362.5,-383 470.5,-383 470.5,-433"/>
<text text-anchor="middle" x="416.5" y="-411.8" font-family="Arial" font-size="14.00">&lt;&lt;construct&gt;&gt;</text>
<text text-anchor="middle" x="416.5" y="-396.8" font-family="Arial" font-size="14.00">DomainAxis</text>
</g>
<!-- Domain&#45;&gt;DomainAxis -->
<g id="edge10" class="edge">
<title>Domain&#45;&gt;DomainAxis</title>
<path fill="none" stroke="black" d="M332.61,-399C332.61,-399 350.3,-399 350.3,-399"/>
<polygon fill="black" stroke="black" points="362.3,-399 352.3,-403.5 357.3,-399 352.3,-399 352.3,-399 352.3,-399 357.3,-399 352.3,-394.5 362.3,-399 362.3,-399"/>
<polygon fill="black" stroke="black" points="334.61,-399 328.61,-403 322.61,-399 328.61,-395 334.61,-399"/>
<text text-anchor="middle" x="350.8" y="-402.2" font-family="Arial" font-size="11.00">0..* &#160;</text>
</g>
<!-- DomainAncillary -->
<g id="node7" class="node">
<title>DomainAncillary</title>
<polygon fill="#c3ffc2" stroke="black" stroke-width="2" points="160,-239 45,-239 45,-189 160,-189 160,-239"/>
<text text-anchor="middle" x="102.5" y="-217.8" font-family="Arial" font-size="14.00">&lt;&lt;construct&gt;&gt;</text>
<text text-anchor="middle" x="102.5" y="-202.8" font-family="Arial" font-size="14.00">DomainAncillary</text>
</g>
<!-- Domain&#45;&gt;DomainAncillary -->
<g id="edge15" class="edge">
<title>Domain&#45;&gt;DomainAncillary</title>
<path fill="none" stroke="black" d="M130.41,-389C130.41,-389 51.25,-389 51.25,-389 51.25,-389 51.25,-249.07 51.25,-249.07"/>
<polygon fill="black" stroke="black" points="130.41,-389 136.41,-385 142.41,-389 136.41,-393 130.41,-389"/>
<polygon fill="black" stroke="black" points="51.25,-239.07 55.75,-249.07 51.25,-244.07 51.25,-249.07 51.25,-249.07 51.25,-249.07 51.25,-244.07 46.75,-249.07 51.25,-239.07 51.25,-239.07"/>
<text text-anchor="middle" x="39.75" y="-242.27" font-family="Arial" font-size="11.00">0..* &#160;</text>
</g>
<!-- DomainTopology -->
<g id="node13" class="node">
<title>DomainTopology</title>
<polygon fill="#c3ffc2" stroke="black" stroke-width="2" points="175.5,-335 57.5,-335 57.5,-285 175.5,-285 175.5,-335"/>
<text text-anchor="middle" x="116.5" y="-313.8" font-family="Arial" font-size="14.00">&lt;&lt;construct&gt;&gt;</text>
<text text-anchor="middle" x="116.5" y="-298.8" font-family="Arial" font-size="14.00">DomainTopology</text>
</g>
<!-- Domain&#45;&gt;DomainTopology -->
<g id="edge19" class="edge">
<title>Domain&#45;&gt;DomainTopology</title>
<path fill="none" stroke="black" d="M159,-361.79C159,-361.79 159,-347.06 159,-347.06"/>
<polygon fill="black" stroke="black" points="159,-335.06 163.5,-345.06 159,-340.06 159,-345.06 159,-345.06 159,-345.06 159,-340.06 154.5,-345.06 159,-335.06 159,-335.06"/>
<polygon fill="black" stroke="black" points="159,-359.79 163,-365.79 159,-371.79 155,-365.79 159,-359.79"/>
<text text-anchor="middle" x="146" y="-338.26" font-family="Arial" font-size="11.00">0..* &#160;&#160;</text>
</g>
<!-- route7 -->
<g id="node21" class="node">
<title>route7</title>
<polygon fill="#c3ffc2" stroke="transparent" stroke-width="2" points="306,-214.5 305,-214.5 305,-213.5 306,-213.5 306,-214.5"/>
</g>
<!-- Domain&#45;&gt;route7 -->
<g id="edge13" class="edge">
<title>Domain&#45;&gt;route7</title>
<path fill="none" stroke="black" d="M305.5,-359.96C305.5,-359.96 305.5,-214.66 305.5,-214.66"/>
<polygon fill="black" stroke="black" points="305.5,-359.96 309.5,-365.96 305.5,-371.96 301.5,-365.96 305.5,-359.96"/>
</g>
<!-- route11 -->
<g id="node25" class="node">
<title>route11</title>
<polygon fill="#c3ffc2" stroke="transparent" stroke-width="2" points="233,-310.5 232,-310.5 232,-309.5 233,-309.5 233,-310.5"/>
</g>
<!-- Domain&#45;&gt;route11 -->
<g id="edge6" class="edge">
<title>Domain&#45;&gt;route11</title>
<path fill="none" stroke="black" d="M232.5,-359.79C232.5,-359.79 232.5,-310.86 232.5,-310.86"/>
<polygon fill="black" stroke="black" points="232.5,-359.79 236.5,-365.79 232.5,-371.79 228.5,-365.79 232.5,-359.79"/>
</g>
<!-- route2 -->
<g id="node16" class="node">
<title>route2</title>
<polygon fill="#c3ffc2" stroke="transparent" stroke-width="2" points="417,-633.5 416,-633.5 416,-632.5 417,-632.5 417,-633.5"/>
</g>
<!-- Field&#45;&gt;route2 -->
<g id="edge5" class="edge">
<title>Field&#45;&gt;route2</title>
<path fill="none" stroke="black" d="M298.71,-633C298.71,-633 415.64,-633 415.64,-633"/>
<polygon fill="black" stroke="black" points="298.71,-633 292.71,-637 286.71,-633 292.71,-629 298.71,-633"/>
</g>
<!-- route8 -->
<g id="node22" class="node">
<title>route8</title>
<polygon fill="#c3ffc2" stroke="transparent" stroke-width="2" points="233,-535.5 232,-535.5 232,-534.5 233,-534.5 233,-535.5"/>
</g>
<!-- Field&#45;&gt;route8 -->
<g id="edge2" class="edge">
<title>Field&#45;&gt;route8</title>
<path fill="none" stroke="black" d="M232.5,-584.79C232.5,-584.79 232.5,-535.86 232.5,-535.86"/>
<polygon fill="none" stroke="black" points="232.5,-584.79 236.5,-590.79 232.5,-596.79 228.5,-590.79 232.5,-584.79"/>
</g>
<!-- CellMethod -->
<g id="node5" class="node">
<title>CellMethod</title>
<polygon fill="#c3ffc2" stroke="black" stroke-width="2" points="470.5,-560 362.5,-560 362.5,-510 470.5,-510 470.5,-560"/>
<text text-anchor="middle" x="416.5" y="-538.8" font-family="Arial" font-size="14.00">&lt;&lt;construct&gt;&gt;</text>
<text text-anchor="middle" x="416.5" y="-523.8" font-family="Arial" font-size="14.00">CellMethod</text>
</g>
<!-- CellMethod&#45;&gt;DomainAxis -->
<g id="edge25" class="edge">
<title>CellMethod&#45;&gt;DomainAxis</title>
<path fill="none" stroke="black" d="M416.5,-499.91C416.5,-499.91 416.5,-445.04 416.5,-445.04"/>
<polygon fill="black" stroke="black" points="416.5,-433.04 421,-443.04 416.5,-438.04 416.5,-443.04 416.5,-443.04 416.5,-443.04 416.5,-438.04 412,-443.04 416.5,-433.04 416.5,-433.04"/>
<polygon fill="black" stroke="black" points="416.5,-497.91 420.5,-503.91 416.5,-509.91 412.5,-503.91 416.5,-497.91"/>
<text text-anchor="middle" x="405" y="-436.24" font-family="Arial" font-size="11.00">1..* &#160;</text>
</g>
<!-- CellMeasure -->
<g id="node8" class="node">
<title>CellMeasure</title>
<polygon fill="#c3ffc2" stroke="black" stroke-width="2" points="470.5,-239 362.5,-239 362.5,-189 470.5,-189 470.5,-239"/>
<text text-anchor="middle" x="416.5" y="-217.8" font-family="Arial" font-size="14.00">&lt;&lt;construct&gt;&gt;</text>
<text text-anchor="middle" x="416.5" y="-202.8" font-family="Arial" font-size="14.00">CellMeasure</text>
</g>
<!-- DomainAxis&#45;&gt;CellMeasure -->
<!-- AuxiliaryCoordinate -->
<g id="node10" class="node">
<title>AuxiliaryCoordinate</title>
<polygon fill="#c3ffc2" stroke="black" stroke-width="2" points="434.5,-143 300.5,-143 300.5,-93 434.5,-93 434.5,-143"/>
<text text-anchor="middle" x="367.5" y="-121.8" font-family="Arial" font-size="14.00">&lt;&lt;construct&gt;&gt;</text>
<text text-anchor="middle" x="367.5" y="-106.8" font-family="Arial" font-size="14.00">AuxillaryCoordinate</text>
</g>
<!-- DomainAxis&#45;&gt;AuxiliaryCoordinate -->
<!-- CoordinateReference -->
<g id="node9" class="node">
<title>CoordinateReference</title>
<polygon fill="#c3ffc2" stroke="black" stroke-width="2" points="201.5,-56 3.5,-56 3.5,-6 201.5,-6 201.5,-56"/>
<text text-anchor="middle" x="102.5" y="-34.8" font-family="Arial" font-size="14.00">&lt;&lt;construct&gt;&gt;</text>
<text text-anchor="middle" x="102.5" y="-19.8" font-family="Arial" font-size="14.00">CoordinateReference </text>
</g>
<!-- DomainAncillary&#45;&gt;CoordinateReference -->
<g id="edge24" class="edge">
<title>DomainAncillary&#45;&gt;CoordinateReference</title>
<path fill="none" stroke="black" d="M102.5,-178.94C102.5,-178.94 102.5,-56.05 102.5,-56.05"/>
<polygon fill="black" stroke="black" points="102.5,-188.94 98,-178.94 102.5,-183.94 102.5,-178.94 102.5,-178.94 102.5,-178.94 102.5,-183.94 107,-178.94 102.5,-188.94 102.5,-188.94"/>
<text text-anchor="middle" x="97.85" y="-176.17" font-family="Arial" font-size="11.00">0..* &#160;&#160;&#160;&#160;&#160;</text>
</g>
<!-- CellMeasure&#45;&gt;AuxiliaryCoordinate -->
<!-- DimensionCoordinate -->
<g id="node11" class="node">
<title>DimensionCoordinate</title>
<polygon fill="#c3ffc2" stroke="black" stroke-width="2" points="441,-56 294,-56 294,-6 441,-6 441,-56"/>
<text text-anchor="middle" x="367.5" y="-34.8" font-family="Arial" font-size="14.00">&lt;&lt;construct&gt;&gt;</text>
<text text-anchor="middle" x="367.5" y="-19.8" font-family="Arial" font-size="14.00">DimensionCoordinate</text>
</g>
<!-- AuxiliaryCoordinate&#45;&gt;DimensionCoordinate -->
<!-- FieldAncillary&#45;&gt;Domain -->
<g id="edge16" class="edge">
<title>FieldAncillary&#45;&gt;Domain</title>
<path fill="none" stroke="black" d="M169.5,-509.91C169.5,-509.91 169.5,-454.1 169.5,-454.1"/>
<polygon fill="black" stroke="black" points="169.5,-444.1 174,-454.1 169.5,-449.1 169.5,-454.1 169.5,-454.1 169.5,-454.1 169.5,-449.1 165,-454.1 169.5,-444.1 169.5,-444.1"/>
<text text-anchor="middle" x="170" y="-480.8" font-family="Arial" font-size="14.00">uses &#160;&#160;&#160;&#160;&#160;&#160;&#160;&#160;&#160;&#160;&#160;&#160;</text>
<text text-anchor="middle" x="170" y="-465.8" font-family="Arial" font-size="14.00">parent &#160;&#160;&#160;&#160;&#160;&#160;&#160;&#160;&#160;&#160;&#160;&#160;&#160;&#160;</text>
</g>
<!-- GenericCoordinate -->
<g id="node14" class="node">
<title>GenericCoordinate</title>
<polygon fill="white" stroke="black" stroke-width="2" points="286.5,-248 178.5,-248 178.5,-180 286.5,-180 286.5,-248"/>
<text text-anchor="middle" x="232.5" y="-232.8" font-family="Arial" font-size="14.00">&lt;&lt;abstract&gt;&gt;</text>
<text text-anchor="middle" x="232.5" y="-217.8" font-family="Arial" font-size="14.00">Generic</text>
<text text-anchor="middle" x="232.5" y="-202.8" font-family="Arial" font-size="14.00">Coordinate</text>
<text text-anchor="middle" x="232.5" y="-187.8" font-family="Arial" font-size="14.00">Construct</text>
</g>
<!-- route3 -->
<g id="node17" class="node">
<title>route3</title>
<polygon fill="#c3ffc2" stroke="transparent" stroke-width="2" points="233,-118.5 232,-118.5 232,-117.5 233,-117.5 233,-118.5"/>
</g>
<!-- GenericCoordinate&#45;&gt;route3 -->
<g id="edge26" class="edge">
<title>GenericCoordinate&#45;&gt;route3</title>
<path fill="none" stroke="black" d="M232.5,-169.88C232.5,-169.88 232.5,-118.87 232.5,-118.87"/>
<polygon fill="black" stroke="black" points="232.5,-179.88 228,-169.88 232.5,-174.88 232.5,-169.88 232.5,-169.88 232.5,-169.88 232.5,-174.88 237,-169.88 232.5,-179.88 232.5,-179.88"/>
<text text-anchor="middle" x="227.85" y="-167.11" font-family="Arial" font-size="11.00">0..* &#160;&#160;&#160;&#160;&#160;</text>
</g>
<!-- route4 -->
<g id="node18" class="node">
<title>route4</title>
<polygon fill="#c3ffc2" stroke="transparent" stroke-width="2" points="258,-118.5 257,-118.5 257,-117.5 258,-117.5 258,-118.5"/>
</g>
<!-- GenericCoordinate&#45;&gt;route4 -->
<g id="edge20" class="edge">
<title>GenericCoordinate&#45;&gt;route4</title>
<path fill="none" stroke="black" d="M257.5,-169.88C257.5,-169.88 257.5,-118.87 257.5,-118.87"/>
<polygon fill="none" stroke="black" points="254,-169.88 257.5,-179.88 261,-169.88 254,-169.88"/>
</g>
<!-- route1 -->
<g id="node15" class="node">
<title>route1</title>
<polygon fill="#c3ffc2" stroke="transparent" stroke-width="2" points="143,-633.5 142,-633.5 142,-632.5 143,-632.5 143,-633.5"/>
</g>
<!-- route1&#45;&gt;Field -->
<g id="edge4" class="edge">
<title>route1&#45;&gt;Field</title>
<path fill="none" stroke="black" d="M143.07,-633C143.07,-633 166.16,-633 166.16,-633"/>
<polygon fill="black" stroke="black" points="166.16,-633 172.16,-629 178.16,-633 172.16,-637 166.16,-633"/>
</g>
<!-- route1&#45;&gt;FieldAncillary -->
<g id="edge9" class="edge">
<title>route1&#45;&gt;FieldAncillary</title>
<path fill="none" stroke="black" d="M142.5,-632.37C142.5,-632.37 142.5,-570.15 142.5,-570.15"/>
<polygon fill="black" stroke="black" points="142.5,-560.15 147,-570.15 142.5,-565.15 142.5,-570.15 142.5,-570.15 142.5,-570.15 142.5,-565.15 138,-570.15 142.5,-560.15 142.5,-560.15"/>
<text text-anchor="middle" x="131" y="-563.35" font-family="Arial" font-size="11.00">0..* &#160;</text>
</g>
<!-- route2&#45;&gt;CellMethod -->
<g id="edge8" class="edge">
<title>route2&#45;&gt;CellMethod</title>
<path fill="none" stroke="black" d="M416.5,-632.37C416.5,-632.37 416.5,-570.15 416.5,-570.15"/>
<polygon fill="black" stroke="black" points="416.5,-560.15 421,-570.15 416.5,-565.15 416.5,-570.15 416.5,-570.15 416.5,-570.15 416.5,-565.15 412,-570.15 416.5,-560.15 416.5,-560.15"/>
<text text-anchor="middle" x="403.5" y="-563.35" font-family="Arial" font-size="11.00">0..* &#160;&#160;</text>
</g>
<!-- route3&#45;&gt;CoordinateReference -->
<g id="edge27" class="edge">
<title>route3&#45;&gt;CoordinateReference</title>
<path fill="none" stroke="black" d="M231.76,-118C226.12,-118 190,-118 190,-118 190,-118 190,-81.86 190,-56.16"/>
</g>
<!-- route4&#45;&gt;AuxiliaryCoordinate -->
<g id="edge21" class="edge">
<title>route4&#45;&gt;AuxiliaryCoordinate</title>
<path fill="none" stroke="black" d="M258.2,-118C261.94,-118 280.04,-118 300.48,-118"/>
</g>
<!-- route5 -->
<g id="node19" class="node">
<title>route5</title>
<polygon fill="#c3ffc2" stroke="transparent" stroke-width="2" points="258,-31.5 257,-31.5 257,-30.5 258,-30.5 258,-31.5"/>
</g>
<!-- route4&#45;&gt;route5 -->
<g id="edge22" class="edge">
<title>route4&#45;&gt;route5</title>
<path fill="none" stroke="black" d="M257.5,-117.44C257.5,-110.38 257.5,-38.25 257.5,-31.51"/>
</g>
<!-- route5&#45;&gt;DimensionCoordinate -->
<g id="edge23" class="edge">
<title>route5&#45;&gt;DimensionCoordinate</title>
<path fill="none" stroke="black" d="M258.2,-31C261.53,-31 276.31,-31 293.97,-31"/>
</g>
<!-- route6 -->
<g id="node20" class="node">
<title>route6</title>
<polygon fill="#c3ffc2" stroke="transparent" stroke-width="2" points="62,-408.5 61,-408.5 61,-407.5 62,-407.5 62,-408.5"/>
</g>
<!-- route6&#45;&gt;Domain -->
<g id="edge11" class="edge">
<title>route6&#45;&gt;Domain</title>
<path fill="none" stroke="black" d="M62.26,-408C62.26,-408 130.38,-408 130.38,-408"/>
<polygon fill="black" stroke="black" points="130.38,-408 136.38,-404 142.38,-408 136.38,-412 130.38,-408"/>
</g>
<!-- route6&#45;&gt;CoordinateReference -->
<g id="edge12" class="edge">
<title>route6&#45;&gt;CoordinateReference</title>
<path fill="none" stroke="black" d="M60.83,-408C55.72,-408 23,-408 23,-408 23,-408 23,-66.03 23,-66.03"/>
<polygon fill="black" stroke="black" points="23,-56.03 27.5,-66.03 23,-61.03 23,-66.03 23,-66.03 23,-66.03 23,-61.03 18.5,-66.03 23,-56.03 23,-56.03"/>
<text text-anchor="middle" x="11.5" y="-59.23" font-family="Arial" font-size="11.00">0..* &#160;</text>
</g>
<!-- route7&#45;&gt;CellMeasure -->
<g id="edge14" class="edge">
<title>route7&#45;&gt;CellMeasure</title>
<path fill="none" stroke="black" d="M306.21,-214C306.21,-214 352.42,-214 352.42,-214"/>
<polygon fill="black" stroke="black" points="362.42,-214 352.42,-218.5 357.42,-214 352.42,-214 352.42,-214 352.42,-214 357.42,-214 352.42,-209.5 362.42,-214 362.42,-214"/>
<text text-anchor="middle" x="350.92" y="-217.2" font-family="Arial" font-size="11.00">0..* &#160;</text>
</g>
<!-- route8&#45;&gt;Domain -->
<g id="edge3" class="edge">
<title>route8&#45;&gt;Domain</title>
<path fill="none" stroke="black" d="M232.5,-534.19C232.5,-534.19 232.5,-454.1 232.5,-454.1"/>
<polygon fill="black" stroke="black" points="232.5,-444.1 237,-454.1 232.5,-449.1 232.5,-454.1 232.5,-454.1 232.5,-454.1 232.5,-449.1 228,-454.1 232.5,-444.1 232.5,-444.1"/>
<text text-anchor="middle" x="218" y="-447.3" font-family="Times,serif" font-size="11.00">0..1 &#160;</text>
</g>
<!-- route9&#45;&gt;Domain -->
<g id="edge17" class="edge">
<title>route9&#45;&gt;Domain</title>
<path fill="none" stroke="black" d="M84.5,-632.41C84.5,-620.26 84.5,-426 84.5,-426 84.5,-426 111.33,-426 142.14,-426"/>
</g>
<!-- route9&#45;&gt;route1 -->
<!-- route10 -->
<g id="node24" class="node">
<title>route10</title>
<polygon fill="#c3ffc2" stroke="transparent" stroke-width="2" points="306,-731.5 305,-731.5 305,-730.5 306,-730.5 306,-731.5"/>
</g>
<!-- route11&#45;&gt;GenericCoordinate -->
<g id="edge7" class="edge">
<title>route11&#45;&gt;GenericCoordinate</title>
<path fill="none" stroke="black" d="M232.5,-309.39C232.5,-309.39 232.5,-258.08 232.5,-258.08"/>
<polygon fill="black" stroke="black" points="232.5,-248.08 237,-258.08 232.5,-253.08 232.5,-258.08 232.5,-258.08 232.5,-258.08 232.5,-253.08 228,-258.08 232.5,-248.08 232.5,-248.08"/>
<text text-anchor="middle" x="219.5" y="-251.28" font-family="Arial" font-size="11.00">0..* &#160;&#160;</text>
</g>
<!-- route12 -->
<g id="node26" class="node">
<title>route12</title>
<polygon fill="#c3ffc2" stroke="transparent" stroke-width="2" points="325,-731.5 324,-731.5 324,-730.5 325,-730.5 325,-731.5"/>
</g>
<!-- route13 -->
<g id="node27" class="node">
<title>route13</title>
<polygon fill="#c3ffc2" stroke="transparent" stroke-width="2" points="344,-731.5 343,-731.5 343,-730.5 344,-730.5 344,-731.5"/>
</g>
</g>
</svg>
