<?xml version="1.0" encoding="UTF-8" standalone="no"?>
<!DOCTYPE svg PUBLIC "-//W3C//DTD SVG 1.1//EN"
 "http://www.w3.org/Graphics/SVG/1.1/DTD/svg11.dtd">
<!-- Generated by graphviz version 2.40.1 (20161225.0304)
 -->
<!-- Title: %3 Pages: 1 -->
<svg width="517pt" height="525pt"
 viewBox="0.00 0.00 516.76 525.00" xmlns="http://www.w3.org/2000/svg" xmlns:xlink="http://www.w3.org/1999/xlink">
<g id="graph0" class="graph" transform="scale(1 1) rotate(0) translate(4 521)">
<title>%3</title>
<polygon fill="#ffffff" stroke="transparent" points="-4,4 -4,-521 512.755,-521 512.755,4 -4,4"/>
<!-- Note -->
<g id="node1" class="node">
<title>Note</title>
<polygon fill="#ffffff" stroke="#000000" points="142,-339 0,-339 0,-271 142,-271 142,-339"/>
<text text-anchor="middle" x="71" y="-326.2" font-family="Arial" font-size="11.00" fill="#000000">Dimension and Auxiliary</text>
<text text-anchor="middle" x="71" y="-314.2" font-family="Arial" font-size="11.00" fill="#000000">Coordinate constructs</text>
<text text-anchor="middle" x="71" y="-302.2" font-family="Arial" font-size="11.00" fill="#000000">are related to</text>
<text text-anchor="middle" x="71" y="-290.2" font-family="Arial" font-size="11.00" fill="#000000">DomainAxis via the</text>
<text text-anchor="middle" x="71" y="-278.2" font-family="Arial" font-size="11.00" fill="#000000">(implicit) domain mapping</text>
</g>
<!-- BoundaryVariable -->
<g id="node2" class="node">
<title>BoundaryVariable</title>
<polygon fill="#c3ffff" stroke="#000000" stroke-width="2" points="359,-413 251,-413 251,-375 359,-375 359,-413"/>
<text text-anchor="middle" x="305" y="-397.8" font-family="Arial" font-size="14.00" fill="#000000">CN::Boundary</text>
<text text-anchor="middle" x="305" y="-382.8" font-family="Arial" font-size="14.00" fill="#000000">Variable</text>
</g>
<!-- route3 -->
<g id="node14" class="node">
<title>route3</title>
<polygon fill="#c3ffc2" stroke="transparent" stroke-width="2" points="305.5,-305.5 304.5,-305.5 304.5,-304.5 305.5,-304.5 305.5,-305.5"/>
</g>
<!-- BoundaryVariable&#45;&gt;route3 -->
<g id="edge8" class="edge">
<title>BoundaryVariable&#45;&gt;route3</title>
<path fill="none" stroke="#000000" d="M305,-364.6883C305,-364.6883 305,-305.7677 305,-305.7677"/>
<polygon fill="#000000" stroke="#000000" points="305,-374.6883 300.5001,-364.6883 305,-369.6883 305.0001,-364.6883 305.0001,-364.6883 305.0001,-364.6883 305,-369.6883 309.5001,-364.6884 305,-374.6883 305,-374.6883"/>
<text text-anchor="middle" x="300.3512" y="-361.9189" font-family="Arial" font-size="11.00" fill="#000000">0..1 &#160;&#160;&#160;&#160;&#160;&#160;&#160;</text>
</g>
<!-- CoordinateVariable -->
<g id="node3" class="node">
<title>CoordinateVariable</title>
<polygon fill="#c3ffff" stroke="#000000" stroke-width="2" points="445,-324 329,-324 329,-286 445,-286 445,-324"/>
<text text-anchor="middle" x="387" y="-308.8" font-family="Arial" font-size="14.00" fill="#000000">CN::Coordinate</text>
<text text-anchor="middle" x="387" y="-293.8" font-family="Arial" font-size="14.00" fill="#000000">Variable</text>
</g>
<!-- AuxiliaryCoordinateVariable -->
<g id="node4" class="node">
<title>AuxiliaryCoordinateVariable</title>
<polygon fill="#c3ffff" stroke="#000000" stroke-width="2" points="211,-227.5 111,-227.5 111,-174.5 211,-174.5 211,-227.5"/>
<text text-anchor="middle" x="161" y="-212.3" font-family="Arial" font-size="14.00" fill="#000000">CN::Auxiliary</text>
<text text-anchor="middle" x="161" y="-197.3" font-family="Arial" font-size="14.00" fill="#000000">Coordinate</text>
<text text-anchor="middle" x="161" y="-182.3" font-family="Arial" font-size="14.00" fill="#000000">Variable</text>
</g>
<!-- GenericCoordinateVariable -->
<g id="node7" class="node">
<title>GenericCoordinateVariable</title>
<polygon fill="#ffffff" stroke="#000000" stroke-width="2" points="355.5,-235 254.5,-235 254.5,-167 355.5,-167 355.5,-235"/>
<text text-anchor="middle" x="305" y="-219.8" font-family="Arial" font-size="14.00" fill="#000000">&lt;&lt;abstract&gt;&gt;</text>
<text text-anchor="middle" x="305" y="-204.8" font-family="Arial" font-size="14.00" fill="#000000">Generic</text>
<text text-anchor="middle" x="305" y="-189.8" font-family="Arial" font-size="14.00" fill="#000000">Coordinate</text>
<text text-anchor="middle" x="305" y="-174.8" font-family="Arial" font-size="14.00" fill="#000000">Variable</text>
</g>
<!-- AuxiliaryCoordinateVariable&#45;&gt;GenericCoordinateVariable -->
<g id="edge7" class="edge">
<title>AuxiliaryCoordinateVariable&#45;&gt;GenericCoordinateVariable</title>
<path fill="none" stroke="#000000" d="M211.3642,-201C211.3642,-201 244.4208,-201 244.4208,-201"/>
<polygon fill="none" stroke="#000000" points="244.4209,-204.5001 254.4208,-201 244.4208,-197.5001 244.4209,-204.5001"/>
</g>
<!-- DomainAxis -->
<g id="node9" class="node">
<title>DomainAxis</title>
<polygon fill="#c3ffc2" stroke="#000000" stroke-width="2" points="215.5,-123.5 106.5,-123.5 106.5,-85.5 215.5,-85.5 215.5,-123.5"/>
<text text-anchor="middle" x="161" y="-108.3" font-family="Arial" font-size="14.00" fill="#000000">&lt;&lt;construct&gt;&gt;</text>
<text text-anchor="middle" x="161" y="-93.3" font-family="Arial" font-size="14.00" fill="#000000">DomainAxis</text>
</g>
<!-- AuxiliaryCoordinateVariable&#45;&gt;DomainAxis -->
<!-- ScalarCoordinateVariable -->
<g id="node5" class="node">
<title>ScalarCoordinateVariable</title>
<polygon fill="#c3ffff" stroke="#000000" stroke-width="2" points="442,-131 354,-131 354,-78 442,-78 442,-131"/>
<text text-anchor="middle" x="398" y="-115.8" font-family="Arial" font-size="14.00" fill="#000000">CN::Scalar</text>
<text text-anchor="middle" x="398" y="-100.8" font-family="Arial" font-size="14.00" fill="#000000">Coordinate</text>
<text text-anchor="middle" x="398" y="-85.8" font-family="Arial" font-size="14.00" fill="#000000">Variable</text>
</g>
<!-- ScalarCoordinateVariable&#45;&gt;CoordinateVariable -->
<!-- Dimension -->
<g id="node6" class="node">
<title>Dimension</title>
<polygon fill="#c3ffff" stroke="#000000" stroke-width="2" points="218,-42 104,-42 104,-6 218,-6 218,-42"/>
<text text-anchor="middle" x="161" y="-20.3" font-family="Arial" font-size="14.00" fill="#000000">CN::Dimension</text>
</g>
<!-- route4 -->
<g id="node15" class="node">
<title>route4</title>
<polygon fill="#c3ffc2" stroke="transparent" stroke-width="2" points="413.5,-201.5 412.5,-201.5 412.5,-200.5 413.5,-200.5 413.5,-201.5"/>
</g>
<!-- GenericCoordinateVariable&#45;&gt;route4 -->
<g id="edge10" class="edge">
<title>GenericCoordinateVariable&#45;&gt;route4</title>
<path fill="none" stroke="#000000" d="M365.5217,-201C365.5217,-201 412.2508,-201 412.2508,-201"/>
<polygon fill="none" stroke="#000000" points="365.5217,-197.5001 355.5217,-201 365.5216,-204.5001 365.5217,-197.5001"/>
</g>
<!-- GenericCoordinateConstruct -->
<g id="node8" class="node">
<title>GenericCoordinateConstruct</title>
<polygon fill="#ffffff" stroke="#000000" stroke-width="2" points="211.5,-517 110.5,-517 110.5,-449 211.5,-449 211.5,-517"/>
<text text-anchor="middle" x="161" y="-501.8" font-family="Arial" font-size="14.00" fill="#000000">&lt;&lt;abstract&gt;&gt;</text>
<text text-anchor="middle" x="161" y="-486.8" font-family="Arial" font-size="14.00" fill="#000000">Generic</text>
<text text-anchor="middle" x="161" y="-471.8" font-family="Arial" font-size="14.00" fill="#000000">Coordinate</text>
<text text-anchor="middle" x="161" y="-456.8" font-family="Arial" font-size="14.00" fill="#000000">Construct</text>
</g>
<!-- AuxiliaryCoordinate -->
<g id="node10" class="node">
<title>AuxiliaryCoordinate</title>
<polygon fill="#c3ffc2" stroke="#000000" stroke-width="2" points="232.5,-413 89.5,-413 89.5,-375 232.5,-375 232.5,-413"/>
<text text-anchor="middle" x="161" y="-397.8" font-family="Arial" font-size="14.00" fill="#000000">&lt;&lt;construct&gt;&gt;</text>
<text text-anchor="middle" x="161" y="-382.8" font-family="Arial" font-size="14.00" fill="#000000">AuxillaryCoordinate</text>
</g>
<!-- GenericCoordinateConstruct&#45;&gt;AuxiliaryCoordinate -->
<g id="edge3" class="edge">
<title>GenericCoordinateConstruct&#45;&gt;AuxiliaryCoordinate</title>
<path fill="none" stroke="#000000" d="M161,-438.8448C161,-438.8448 161,-413.0108 161,-413.0108"/>
<polygon fill="none" stroke="#000000" points="157.5001,-438.8448 161,-448.8448 164.5001,-438.8448 157.5001,-438.8448"/>
</g>
<!-- route1 -->
<g id="node12" class="node">
<title>route1</title>
<polygon fill="#c3ffc2" stroke="transparent" stroke-width="2" points="260.5,-483.5 259.5,-483.5 259.5,-482.5 260.5,-482.5 260.5,-483.5"/>
</g>
<!-- GenericCoordinateConstruct&#45;&gt;route1 -->
<g id="edge1" class="edge">
<title>GenericCoordinateConstruct&#45;&gt;route1</title>
<path fill="none" stroke="#000000" d="M221.6601,-483C221.6601,-483 259.3871,-483 259.3871,-483"/>
<polygon fill="none" stroke="#000000" points="221.6601,-479.5001 211.6601,-483 221.66,-486.5001 221.6601,-479.5001"/>
</g>
<!-- DomainAxis&#45;&gt;ScalarCoordinateVariable -->
<g id="edge14" class="edge">
<title>DomainAxis&#45;&gt;ScalarCoordinateVariable</title>
<path fill="none" stroke="#000000" d="M215.6702,-104C215.6702,-104 343.9012,-104 343.9012,-104"/>
<polygon fill="#000000" stroke="#000000" points="353.9012,-104 343.9013,-108.5001 348.9012,-104 343.9012,-104.0001 343.9012,-104.0001 343.9012,-104.0001 348.9012,-104 343.9012,-99.5001 353.9012,-104 353.9012,-104"/>
<text text-anchor="middle" x="338.4012" y="-107.2" font-family="Arial" font-size="11.00" fill="#000000">0..1 &#160;&#160;&#160;</text>
<text text-anchor="middle" x="237.1702" y="-107.2" font-family="Arial" font-size="11.00" fill="#000000"> either/or</text>
</g>
<!-- DomainAxis&#45;&gt;Dimension -->
<g id="edge13" class="edge">
<title>DomainAxis&#45;&gt;Dimension</title>
<path fill="none" stroke="#000000" d="M161,-85.4226C161,-85.4226 161,-52.1112 161,-52.1112"/>
<polygon fill="#000000" stroke="#000000" points="161,-42.1112 165.5001,-52.1112 161,-47.1112 161.0001,-52.1112 161.0001,-52.1112 161.0001,-52.1112 161,-47.1112 156.5001,-52.1113 161,-42.1112 161,-42.1112"/>
<text text-anchor="middle" x="148.5" y="-45.3112" font-family="Arial" font-size="11.00" fill="#000000">0..1 &#160;</text>
<text text-anchor="middle" x="138" y="-76.6226" font-family="Arial" font-size="11.00" fill="#000000"> either/or </text>
</g>
<!-- route2 -->
<g id="node13" class="node">
<title>route2</title>
<polygon fill="#c3ffc2" stroke="transparent" stroke-width="2" points="161.5,-305.5 160.5,-305.5 160.5,-304.5 161.5,-304.5 161.5,-305.5"/>
</g>
<!-- AuxiliaryCoordinate&#45;&gt;route2 -->
<g id="edge4" class="edge">
<title>AuxiliaryCoordinate&#45;&gt;route2</title>
<path fill="none" stroke="#000000" d="M161,-374.6883C161,-350.5577 161,-311.693 161,-305.7677"/>
</g>
<!-- DimensionCoordinate -->
<g id="node11" class="node">
<title>DimensionCoordinate</title>
<polygon fill="#c3ffc2" stroke="#000000" stroke-width="2" points="465.5,-502 308.5,-502 308.5,-464 465.5,-464 465.5,-502"/>
<text text-anchor="middle" x="387" y="-486.8" font-family="Arial" font-size="14.00" fill="#000000">&lt;&lt;construct&gt;&gt;</text>
<text text-anchor="middle" x="387" y="-471.8" font-family="Arial" font-size="14.00" fill="#000000">DimensionCoordinate</text>
</g>
<!-- DimensionCoordinate&#45;&gt;CoordinateVariable -->
<g id="edge6" class="edge">
<title>DimensionCoordinate&#45;&gt;CoordinateVariable</title>
<path fill="none" stroke="#000000" d="M402,-463.9509C402,-463.9509 402,-334.1812 402,-334.1812"/>
<polygon fill="#000000" stroke="#000000" points="402,-324.1812 406.5001,-334.1811 402,-329.1812 402.0001,-334.1812 402.0001,-334.1812 402.0001,-334.1812 402,-329.1812 397.5001,-334.1812 402,-324.1812 402,-324.1812"/>
<text text-anchor="middle" x="397.3512" y="-451.1815" font-family="Arial" font-size="11.00" fill="#000000"> &#160;&#160;&#160;&#160;&#160;&#160;&#160;&#160;&#160;&#160;&#160;&#160;&#160;&#160;&#160;&#160;&#160;either/or</text>
</g>
<!-- route6 -->
<g id="node17" class="node">
<title>route6</title>
<polygon fill="#c3ffc2" stroke="transparent" stroke-width="2" points="484.5,-483.5 483.5,-483.5 483.5,-482.5 484.5,-482.5 484.5,-483.5"/>
</g>
<!-- DimensionCoordinate&#45;&gt;route6 -->
<g id="edge15" class="edge">
<title>DimensionCoordinate&#45;&gt;route6</title>
<path fill="none" stroke="#000000" d="M465.755,-483C474.5168,-483 481.0852,-483 483.2404,-483"/>
<text text-anchor="middle" x="487.255" y="-486.2" font-family="Arial" font-size="11.00" fill="#000000"> either/or</text>
</g>
<!-- route1&#45;&gt;DimensionCoordinate -->
<g id="edge2" class="edge">
<title>route1&#45;&gt;DimensionCoordinate</title>
<path fill="none" stroke="#000000" d="M260.811,-483C265.0361,-483 285.2152,-483 308.2396,-483"/>
</g>
<!-- route2&#45;&gt;AuxiliaryCoordinateVariable -->
<g id="edge5" class="edge">
<title>route2&#45;&gt;AuxiliaryCoordinateVariable</title>
<path fill="none" stroke="#000000" d="M161,-304.3359C161,-304.3359 161,-237.6897 161,-237.6897"/>
<polygon fill="#000000" stroke="#000000" points="161,-227.6897 165.5001,-237.6897 161,-232.6897 161.0001,-237.6897 161.0001,-237.6897 161.0001,-237.6897 161,-232.6897 156.5001,-237.6898 161,-227.6897 161,-227.6897"/>
</g>
<!-- route3&#45;&gt;CoordinateVariable -->
<!-- route3&#45;&gt;GenericCoordinateVariable -->
<g id="edge9" class="edge">
<title>route3&#45;&gt;GenericCoordinateVariable</title>
<path fill="none" stroke="#000000" d="M305,-304.3359C305,-299.0422 305,-263.1653 305,-235.1525"/>
</g>
<!-- route4&#45;&gt;CoordinateVariable -->
<g id="edge11" class="edge">
<title>route4&#45;&gt;CoordinateVariable</title>
<path fill="none" stroke="#000000" d="M413,-201.6641C413,-207.9612 413,-257.5339 413,-285.6669"/>
</g>
<!-- route4&#45;&gt;ScalarCoordinateVariable -->
<g id="edge12" class="edge">
<title>route4&#45;&gt;ScalarCoordinateVariable</title>
<path fill="none" stroke="#000000" d="M413,-200.3838C413,-195.1508 413,-157.7094 413,-131.1965"/>
</g>
<!-- route5 -->
<g id="node16" class="node">
<title>route5</title>
<polygon fill="#c3ffc2" stroke="transparent" stroke-width="2" points="503.5,-483.5 502.5,-483.5 502.5,-482.5 503.5,-482.5 503.5,-483.5"/>
</g>
<!-- route6&#45;&gt;ScalarCoordinateVariable -->
<g id="edge16" class="edge">
<title>route6&#45;&gt;ScalarCoordinateVariable</title>
<path fill="none" stroke="#000000" d="M484,-482.3852C484,-465.4426 484,-104 484,-104 484,-104 452.0077,-104 452.0077,-104"/>
<polygon fill="#000000" stroke="#000000" points="442.0077,-104 452.0078,-99.5001 447.0077,-104 452.0077,-104.0001 452.0077,-104.0001 452.0077,-104.0001 447.0077,-104 452.0077,-108.5001 442.0077,-104 442.0077,-104"/>
</g>
<!-- EitherOr -->
<g id="node18" class="node">
<title>EitherOr</title>
<polygon fill="#c3ffc2" stroke="transparent" stroke-width="2" points="286.5,-305.5 285.5,-305.5 285.5,-304.5 286.5,-304.5 286.5,-305.5"/>
</g>
<!-- EitherOr&#45;&gt;GenericCoordinateVariable -->
</g>
</svg>
