<?xml version="1.0" encoding="UTF-8" standalone="no"?>
<!DOCTYPE svg PUBLIC "-//W3C//DTD SVG 1.1//EN"
 "http://www.w3.org/Graphics/SVG/1.1/DTD/svg11.dtd">
<!-- Generated by graphviz version 2.43.0 (0)
 -->
<!-- Title: %3 Pages: 1 -->
<svg width="848pt" height="455pt"
 viewBox="0.00 0.00 848.00 455.00" xmlns="http://www.w3.org/2000/svg" xmlns:xlink="http://www.w3.org/1999/xlink">
<g id="graph0" class="graph" transform="scale(1 1) rotate(0) translate(4 451)">
<title>%3</title>
<polygon fill="white" stroke="transparent" points="-4,4 -4,-451 844,-451 844,4 -4,4"/>
<!-- NetCDFDimension -->
<g id="node1" class="node">
<title>NetCDFDimension</title>
<polygon fill="#ffffd8" stroke="black" stroke-width="2" points="252,-303 144,-303 144,-267 252,-267 252,-303"/>
<text text-anchor="middle" x="198" y="-281.3" font-family="Arial" font-size="14.00">NC::Dimension</text>
</g>
<!-- NetCDFVariable -->
<g id="node2" class="node">
<title>NetCDFVariable</title>
<polygon fill="#ffffd8" stroke="black" stroke-width="2" points="398,-303 306,-303 306,-267 398,-267 398,-303"/>
<text text-anchor="middle" x="352" y="-281.3" font-family="Arial" font-size="14.00">NC::Variable</text>
</g>
<!-- NetCDFDimension&#45;&gt;NetCDFVariable -->
<g id="edge7" class="edge">
<title>NetCDFDimension&#45;&gt;NetCDFVariable</title>
<path fill="none" stroke="black" d="M262.29,-285C262.29,-285 305.85,-285 305.85,-285"/>
<polygon fill="black" stroke="black" points="252.29,-285 262.29,-280.5 257.29,-285 262.29,-285 262.29,-285 262.29,-285 257.29,-285 262.29,-289.5 252.29,-285 252.29,-285"/>
<text text-anchor="middle" x="266.79" y="-288.2" font-family="Arial" font-size="11.00"> &#160;&#160;&#160;0..*</text>
</g>
<!-- NetCDFAttribute -->
<g id="node3" class="node">
<title>NetCDFAttribute</title>
<polygon fill="#ffffd8" stroke="black" stroke-width="2" points="546,-303 452,-303 452,-267 546,-267 546,-303"/>
<text text-anchor="middle" x="499" y="-281.3" font-family="Arial" font-size="14.00">NC::Attribute</text>
</g>
<!-- NetCDFVariable&#45;&gt;NetCDFAttribute -->
<g id="edge8" class="edge">
<title>NetCDFVariable&#45;&gt;NetCDFAttribute</title>
<path fill="none" stroke="black" d="M408.11,-285C408.11,-285 439.79,-285 439.79,-285"/>
<polygon fill="black" stroke="black" points="451.79,-285 441.79,-289.5 446.79,-285 441.79,-285 441.79,-285 441.79,-285 446.79,-285 441.79,-280.5 451.79,-285 451.79,-285"/>
<polygon fill="black" stroke="black" points="410.11,-285 404.11,-289 398.11,-285 404.11,-281 410.11,-285"/>
<text text-anchor="middle" x="437.29" y="-288.2" font-family="Arial" font-size="11.00">0..* &#160;&#160;&#160;</text>
</g>
<!-- route7 -->
<g id="node25" class="node">
<title>route7</title>
<polygon fill="#c3ffff" stroke="transparent" stroke-width="2" points="352.5,-231 351.5,-231 351.5,-230 352.5,-230 352.5,-231"/>
</g>
<!-- NetCDFVariable&#45;&gt;route7 -->
<g id="edge12" class="edge">
<title>NetCDFVariable&#45;&gt;route7</title>
<path fill="none" stroke="black" d="M352,-256.85C352,-256.85 352,-231.02 352,-231.02"/>
<polygon fill="none" stroke="black" points="348.5,-256.85 352,-266.85 355.5,-256.85 348.5,-256.85"/>
</g>
<!-- GenericCoordinate -->
<g id="node4" class="node">
<title>GenericCoordinate</title>
<polygon fill="white" stroke="black" stroke-width="2" points="98,-194 0,-194 0,-126 98,-126 98,-194"/>
<text text-anchor="middle" x="49" y="-178.8" font-family="Arial" font-size="14.00">&lt;&lt;abstract&gt;&gt;</text>
<text text-anchor="middle" x="49" y="-163.8" font-family="Arial" font-size="14.00">Generic</text>
<text text-anchor="middle" x="49" y="-148.8" font-family="Arial" font-size="14.00">Coordinate</text>
<text text-anchor="middle" x="49" y="-133.8" font-family="Arial" font-size="14.00">Variable</text>
</g>
<!-- BoundaryVariable -->
<g id="node15" class="node">
<title>BoundaryVariable</title>
<polygon fill="#c3ffff" stroke="black" stroke-width="2" points="208,-179 134,-179 134,-141 208,-141 208,-179"/>
<text text-anchor="middle" x="171" y="-163.8" font-family="Arial" font-size="14.00">Boundary</text>
<text text-anchor="middle" x="171" y="-148.8" font-family="Arial" font-size="14.00">Variable</text>
</g>
<!-- GenericCoordinate&#45;&gt;BoundaryVariable -->
<g id="edge30" class="edge">
<title>GenericCoordinate&#45;&gt;BoundaryVariable</title>
<path fill="none" stroke="black" d="M98.27,-160C98.27,-160 123.93,-160 123.93,-160"/>
<polygon fill="black" stroke="black" points="133.93,-160 123.93,-164.5 128.93,-160 123.93,-160 123.93,-160 123.93,-160 128.93,-160 123.93,-155.5 133.93,-160 133.93,-160"/>
<text text-anchor="middle" x="118.43" y="-163.2" font-family="Arial" font-size="11.00">0..1 &#160;&#160;&#160;</text>
</g>
<!-- route4 -->
<g id="node22" class="node">
<title>route4</title>
<polygon fill="#c3ffff" stroke="transparent" stroke-width="2" points="49.5,-231 48.5,-231 48.5,-230 49.5,-230 49.5,-231"/>
</g>
<!-- GenericCoordinate&#45;&gt;route4 -->
<g id="edge14" class="edge">
<title>GenericCoordinate&#45;&gt;route4</title>
<path fill="none" stroke="black" d="M49,-194.01C49,-209.79 49,-225.89 49,-229.67"/>
</g>
<!-- route12 -->
<g id="node30" class="node">
<title>route12</title>
<polygon fill="#c3ffff" stroke="transparent" stroke-width="2" points="49.5,-90 48.5,-90 48.5,-89 49.5,-89 49.5,-90"/>
</g>
<!-- GenericCoordinate&#45;&gt;route12 -->
<g id="edge31" class="edge">
<title>GenericCoordinate&#45;&gt;route12</title>
<path fill="none" stroke="black" d="M49,-115.99C49,-115.99 49,-90.33 49,-90.33"/>
<polygon fill="none" stroke="black" points="45.5,-115.99 49,-125.99 52.5,-115.99 45.5,-115.99"/>
</g>
<!-- Dimension -->
<g id="node5" class="node">
<title>Dimension</title>
<polygon fill="#c3ffff" stroke="black" stroke-width="2" points="148.5,-447 67.5,-447 67.5,-411 148.5,-411 148.5,-447"/>
<text text-anchor="middle" x="108" y="-425.3" font-family="Arial" font-size="14.00">Dimension</text>
</g>
<!-- route3 -->
<g id="node21" class="node">
<title>route3</title>
<polygon fill="#c3ffff" stroke="transparent" stroke-width="2" points="108.5,-285.5 107.5,-285.5 107.5,-284.5 108.5,-284.5 108.5,-285.5"/>
</g>
<!-- Dimension&#45;&gt;route3 -->
<g id="edge1" class="edge">
<title>Dimension&#45;&gt;route3</title>
<path fill="none" stroke="black" d="M108,-410.76C108,-373.83 108,-293.05 108,-285.56"/>
</g>
<!-- CellMethods -->
<g id="node6" class="node">
<title>CellMethods</title>
<polygon fill="#c3ffff" stroke="black" stroke-width="2" points="547,-447 451,-447 451,-411 547,-411 547,-447"/>
<text text-anchor="middle" x="499" y="-425.3" font-family="Arial" font-size="14.00">Cell Methods</text>
</g>
<!-- route1 -->
<g id="node19" class="node">
<title>route1</title>
<polygon fill="#c3ffff" stroke="transparent" stroke-width="2" points="198.5,-357.5 197.5,-357.5 197.5,-356.5 198.5,-356.5 198.5,-357.5"/>
</g>
<!-- CellMethods&#45;&gt;route1 -->
<g id="edge3" class="edge">
<title>CellMethods&#45;&gt;route1</title>
<path fill="none" stroke="black" d="M450.97,-429C365.99,-429 198,-429 198,-429 198,-429 198,-365.72 198,-357.81"/>
</g>
<!-- route2 -->
<g id="node20" class="node">
<title>route2</title>
<polygon fill="#c3ffff" stroke="transparent" stroke-width="2" points="566.5,-429.5 565.5,-429.5 565.5,-428.5 566.5,-428.5 566.5,-429.5"/>
</g>
<!-- CellMethods&#45;&gt;route2 -->
<g id="edge5" class="edge">
<title>CellMethods&#45;&gt;route2</title>
<path fill="none" stroke="black" d="M547.34,-429C555.92,-429 562.88,-429 565.18,-429"/>
</g>
<!-- route11 -->
<g id="node29" class="node">
<title>route11</title>
<polygon fill="#c3ffff" stroke="transparent" stroke-width="2" points="499.5,-357.5 498.5,-357.5 498.5,-356.5 499.5,-356.5 499.5,-357.5"/>
</g>
<!-- CellMethods&#45;&gt;route11 -->
<!-- FormulaTerms -->
<g id="node7" class="node">
<title>FormulaTerms</title>
<polygon fill="#c3ffff" stroke="black" stroke-width="2" points="406,-375 298,-375 298,-339 406,-339 406,-375"/>
<text text-anchor="middle" x="352" y="-353.3" font-family="Arial" font-size="14.00">Formula Terms</text>
</g>
<!-- FormulaTerms&#45;&gt;NetCDFVariable -->
<g id="edge9" class="edge">
<title>FormulaTerms&#45;&gt;NetCDFVariable</title>
<path fill="none" stroke="black" d="M352,-338.83C352,-338.83 352,-313.41 352,-313.41"/>
<polygon fill="black" stroke="black" points="352,-303.41 356.5,-313.41 352,-308.41 352,-313.41 352,-313.41 352,-313.41 352,-308.41 347.5,-313.41 352,-303.41 352,-303.41"/>
<text text-anchor="middle" x="340.5" y="-306.61" font-family="Arial" font-size="11.00">1..* &#160;</text>
</g>
<!-- FormulaTerms&#45;&gt;route11 -->
<g id="edge10" class="edge">
<title>FormulaTerms&#45;&gt;route11</title>
<path fill="none" stroke="black" d="M406.32,-357C445.58,-357 492.68,-357 498.42,-357"/>
</g>
<!-- AuxiliaryCoordinate -->
<g id="node8" class="node">
<title>AuxiliaryCoordinate</title>
<polygon fill="#c3ffff" stroke="black" stroke-width="2" points="90.5,-53 7.5,-53 7.5,0 90.5,0 90.5,-53"/>
<text text-anchor="middle" x="49" y="-37.8" font-family="Arial" font-size="14.00">Auxiliary</text>
<text text-anchor="middle" x="49" y="-22.8" font-family="Arial" font-size="14.00">Coordinate</text>
<text text-anchor="middle" x="49" y="-7.8" font-family="Arial" font-size="14.00">Variable</text>
</g>
<!-- Coordinate -->
<g id="node9" class="node">
<title>Coordinate</title>
<polygon fill="#c3ffff" stroke="black" stroke-width="2" points="191.5,-45.5 108.5,-45.5 108.5,-7.5 191.5,-7.5 191.5,-45.5"/>
<text text-anchor="middle" x="150" y="-30.3" font-family="Arial" font-size="14.00">Coordinate</text>
<text text-anchor="middle" x="150" y="-15.3" font-family="Arial" font-size="14.00">Variable</text>
</g>
<!-- ScalarCoordinate -->
<g id="node10" class="node">
<title>ScalarCoordinate</title>
<polygon fill="#c3ffff" stroke="black" stroke-width="2" points="292.5,-53 209.5,-53 209.5,0 292.5,0 292.5,-53"/>
<text text-anchor="middle" x="251" y="-37.8" font-family="Arial" font-size="14.00">Scalar</text>
<text text-anchor="middle" x="251" y="-22.8" font-family="Arial" font-size="14.00">Coordinate</text>
<text text-anchor="middle" x="251" y="-7.8" font-family="Arial" font-size="14.00">Variable</text>
</g>
<!-- Data -->
<g id="node11" class="node">
<title>Data</title>
<polygon fill="#c3ffff" stroke="black" stroke-width="2" points="298,-179 226,-179 226,-141 298,-141 298,-179"/>
<text text-anchor="middle" x="262" y="-163.8" font-family="Arial" font-size="14.00">Data</text>
<text text-anchor="middle" x="262" y="-148.8" font-family="Arial" font-size="14.00">Variable</text>
</g>
<!-- Domain -->
<g id="node12" class="node">
<title>Domain</title>
<polygon fill="#c3ffff" stroke="black" stroke-width="2" points="388,-179 316,-179 316,-141 388,-141 388,-179"/>
<text text-anchor="middle" x="352" y="-163.8" font-family="Arial" font-size="14.00">Domain</text>
<text text-anchor="middle" x="352" y="-148.8" font-family="Arial" font-size="14.00">Variable</text>
</g>
<!-- CellMeasure -->
<g id="node13" class="node">
<title>CellMeasure</title>
<polygon fill="#c3ffff" stroke="black" stroke-width="2" points="568,-186.5 496,-186.5 496,-133.5 568,-133.5 568,-186.5"/>
<text text-anchor="middle" x="532" y="-171.3" font-family="Arial" font-size="14.00">Cell</text>
<text text-anchor="middle" x="532" y="-156.3" font-family="Arial" font-size="14.00">Measure</text>
<text text-anchor="middle" x="532" y="-141.3" font-family="Arial" font-size="14.00">Variable</text>
</g>
<!-- AncillaryData -->
<g id="node14" class="node">
<title>AncillaryData</title>
<polygon fill="#c3ffff" stroke="black" stroke-width="2" points="658,-186.5 586,-186.5 586,-133.5 658,-133.5 658,-186.5"/>
<text text-anchor="middle" x="622" y="-171.3" font-family="Arial" font-size="14.00">Ancillary</text>
<text text-anchor="middle" x="622" y="-156.3" font-family="Arial" font-size="14.00">Data</text>
<text text-anchor="middle" x="622" y="-141.3" font-family="Arial" font-size="14.00">Variable</text>
</g>
<!-- GridMapping -->
<g id="node16" class="node">
<title>GridMapping</title>
<polygon fill="#c3ffff" stroke="black" stroke-width="2" points="478,-186.5 406,-186.5 406,-133.5 478,-133.5 478,-186.5"/>
<text text-anchor="middle" x="442" y="-171.3" font-family="Arial" font-size="14.00">Grid</text>
<text text-anchor="middle" x="442" y="-156.3" font-family="Arial" font-size="14.00">Mapping</text>
<text text-anchor="middle" x="442" y="-141.3" font-family="Arial" font-size="14.00">Variable</text>
</g>
<!-- route8 -->
<g id="node26" class="node">
<title>route8</title>
<polygon fill="#c3ffff" stroke="transparent" stroke-width="2" points="442.5,-231 441.5,-231 441.5,-230 442.5,-230 442.5,-231"/>
</g>
<!-- GridMapping&#45;&gt;route8 -->
<g id="edge21" class="edge">
<title>GridMapping&#45;&gt;route8</title>
<path fill="none" stroke="black" d="M442,-186.65C442,-204.75 442,-226.06 442,-229.89"/>
</g>
<!-- MeshTopology -->
<g id="node17" class="node">
<title>MeshTopology</title>
<polygon fill="#c3ffff" stroke="black" stroke-width="2" points="748,-186.5 676,-186.5 676,-133.5 748,-133.5 748,-186.5"/>
<text text-anchor="middle" x="712" y="-171.3" font-family="Arial" font-size="14.00">Mesh</text>
<text text-anchor="middle" x="712" y="-156.3" font-family="Arial" font-size="14.00">Topology</text>
<text text-anchor="middle" x="712" y="-141.3" font-family="Arial" font-size="14.00">Variable</text>
</g>
<!-- LocationIndexSet -->
<g id="node18" class="node">
<title>LocationIndexSet</title>
<polygon fill="#c3ffff" stroke="black" stroke-width="2" points="840,-186.5 766,-186.5 766,-133.5 840,-133.5 840,-186.5"/>
<text text-anchor="middle" x="803" y="-171.3" font-family="Arial" font-size="14.00">Location</text>
<text text-anchor="middle" x="803" y="-156.3" font-family="Arial" font-size="14.00">Index Set</text>
<text text-anchor="middle" x="803" y="-141.3" font-family="Arial" font-size="14.00">Variable</text>
</g>
<!-- route1&#45;&gt;NetCDFDimension -->
<g id="edge4" class="edge">
<title>route1&#45;&gt;NetCDFDimension</title>
<path fill="none" stroke="black" d="M198,-356.19C198,-356.19 198,-313.31 198,-313.31"/>
<polygon fill="black" stroke="black" points="198,-303.31 202.5,-313.31 198,-308.31 198,-313.31 198,-313.31 198,-313.31 198,-308.31 193.5,-313.31 198,-303.31 198,-303.31"/>
<text text-anchor="middle" x="185" y="-306.51" font-family="Arial" font-size="11.00">0..* &#160;&#160;</text>
</g>
<!-- route2&#45;&gt;NetCDFAttribute -->
<g id="edge6" class="edge">
<title>route2&#45;&gt;NetCDFAttribute</title>
<path fill="none" stroke="black" d="M566,-428.36C566,-417.97 566,-285 566,-285 566,-285 556.26,-285 556.26,-285"/>
<polygon fill="none" stroke="black" points="556.26,-281.5 546.26,-285 556.26,-288.5 556.26,-281.5"/>
</g>
<!-- route3&#45;&gt;NetCDFDimension -->
<g id="edge2" class="edge">
<title>route3&#45;&gt;NetCDFDimension</title>
<path fill="none" stroke="black" d="M108.57,-285C108.57,-285 133.66,-285 133.66,-285"/>
<polygon fill="none" stroke="black" points="133.66,-288.5 143.66,-285 133.66,-281.5 133.66,-288.5"/>
</g>
<!-- route5 -->
<g id="node23" class="node">
<title>route5</title>
<polygon fill="#c3ffff" stroke="transparent" stroke-width="2" points="171.5,-231 170.5,-231 170.5,-230 171.5,-230 171.5,-231"/>
</g>
<!-- route4&#45;&gt;route5 -->
<g id="edge15" class="edge">
<title>route4&#45;&gt;route5</title>
<path fill="none" stroke="black" d="M49.78,-230C59.68,-230 160.83,-230 170.29,-230"/>
</g>
<!-- route5&#45;&gt;BoundaryVariable -->
<g id="edge16" class="edge">
<title>route5&#45;&gt;BoundaryVariable</title>
<path fill="none" stroke="black" d="M171,-229.71C171,-224.81 171,-198.19 171,-179.31"/>
</g>
<!-- route6 -->
<g id="node24" class="node">
<title>route6</title>
<polygon fill="#c3ffff" stroke="transparent" stroke-width="2" points="262.5,-231 261.5,-231 261.5,-230 262.5,-230 262.5,-231"/>
</g>
<!-- route5&#45;&gt;route6 -->
<g id="edge17" class="edge">
<title>route5&#45;&gt;route6</title>
<path fill="none" stroke="black" d="M171.58,-230C178.97,-230 254.41,-230 261.47,-230"/>
</g>
<!-- route6&#45;&gt;Data -->
<g id="edge18" class="edge">
<title>route6&#45;&gt;Data</title>
<path fill="none" stroke="black" d="M262,-229.71C262,-224.81 262,-198.19 262,-179.31"/>
</g>
<!-- route6&#45;&gt;route7 -->
<g id="edge19" class="edge">
<title>route6&#45;&gt;route7</title>
<path fill="none" stroke="black" d="M262.57,-230C269.88,-230 344.5,-230 351.48,-230"/>
</g>
<!-- route7&#45;&gt;Domain -->
<g id="edge13" class="edge">
<title>route7&#45;&gt;Domain</title>
<path fill="none" stroke="black" d="M352,-229.71C352,-224.81 352,-198.19 352,-179.31"/>
</g>
<!-- route7&#45;&gt;route8 -->
<g id="edge20" class="edge">
<title>route7&#45;&gt;route8</title>
<path fill="none" stroke="black" d="M352.57,-230C359.88,-230 434.5,-230 441.48,-230"/>
</g>
<!-- route9 -->
<g id="node27" class="node">
<title>route9</title>
<polygon fill="#c3ffff" stroke="transparent" stroke-width="2" points="532.5,-231 531.5,-231 531.5,-230 532.5,-230 532.5,-231"/>
</g>
<!-- route8&#45;&gt;route9 -->
<g id="edge22" class="edge">
<title>route8&#45;&gt;route9</title>
<path fill="none" stroke="black" d="M442.57,-230C449.88,-230 524.5,-230 531.48,-230"/>
</g>
<!-- route9&#45;&gt;CellMeasure -->
<g id="edge23" class="edge">
<title>route9&#45;&gt;CellMeasure</title>
<path fill="none" stroke="black" d="M532,-229.71C532,-225.41 532,-204.43 532,-186.6"/>
</g>
<!-- route10 -->
<g id="node28" class="node">
<title>route10</title>
<polygon fill="#c3ffff" stroke="transparent" stroke-width="2" points="622.5,-231 621.5,-231 621.5,-230 622.5,-230 622.5,-231"/>
</g>
<!-- route9&#45;&gt;route10 -->
<g id="edge24" class="edge">
<title>route9&#45;&gt;route10</title>
<path fill="none" stroke="black" d="M532.57,-230C539.88,-230 614.5,-230 621.48,-230"/>
</g>
<!-- route10&#45;&gt;AncillaryData -->
<g id="edge25" class="edge">
<title>route10&#45;&gt;AncillaryData</title>
<path fill="none" stroke="black" d="M622,-229.71C622,-225.41 622,-204.43 622,-186.6"/>
</g>
<!-- route15 -->
<g id="node33" class="node">
<title>route15</title>
<polygon fill="#c3ffff" stroke="transparent" stroke-width="2" points="712.5,-231 711.5,-231 711.5,-230 712.5,-230 712.5,-231"/>
</g>
<!-- route10&#45;&gt;route15 -->
<g id="edge26" class="edge">
<title>route10&#45;&gt;route15</title>
<path fill="none" stroke="black" d="M622.57,-230C629.88,-230 704.5,-230 711.48,-230"/>
</g>
<!-- route11&#45;&gt;NetCDFAttribute -->
<g id="edge11" class="edge">
<title>route11&#45;&gt;NetCDFAttribute</title>
<path fill="none" stroke="black" d="M499,-356.19C499,-356.19 499,-313.31 499,-313.31"/>
<polygon fill="none" stroke="black" points="502.5,-313.31 499,-303.31 495.5,-313.31 502.5,-313.31"/>
</g>
<!-- route12&#45;&gt;AuxiliaryCoordinate -->
<g id="edge32" class="edge">
<title>route12&#45;&gt;AuxiliaryCoordinate</title>
<path fill="none" stroke="black" d="M49,-88.79C49,-85.2 49,-68.52 49,-53.33"/>
</g>
<!-- route13 -->
<g id="node31" class="node">
<title>route13</title>
<polygon fill="#c3ffff" stroke="transparent" stroke-width="2" points="150.5,-90 149.5,-90 149.5,-89 150.5,-89 150.5,-90"/>
</g>
<!-- route12&#45;&gt;route13 -->
<g id="edge33" class="edge">
<title>route12&#45;&gt;route13</title>
<path fill="none" stroke="black" d="M49.64,-89C57.84,-89 141.58,-89 149.41,-89"/>
</g>
<!-- route13&#45;&gt;Coordinate -->
<g id="edge34" class="edge">
<title>route13&#45;&gt;Coordinate</title>
<path fill="none" stroke="black" d="M150,-88.79C150,-84.57 150,-62.37 150,-45.66"/>
</g>
<!-- route14 -->
<g id="node32" class="node">
<title>route14</title>
<polygon fill="#c3ffff" stroke="transparent" stroke-width="2" points="251.5,-90 250.5,-90 250.5,-89 251.5,-89 251.5,-90"/>
</g>
<!-- route13&#45;&gt;route14 -->
<g id="edge35" class="edge">
<title>route13&#45;&gt;route14</title>
<path fill="none" stroke="black" d="M150.64,-89C158.84,-89 242.58,-89 250.41,-89"/>
</g>
<!-- route14&#45;&gt;ScalarCoordinate -->
<g id="edge36" class="edge">
<title>route14&#45;&gt;ScalarCoordinate</title>
<path fill="none" stroke="black" d="M251,-88.79C251,-85.2 251,-68.52 251,-53.33"/>
</g>
<!-- route15&#45;&gt;MeshTopology -->
<g id="edge27" class="edge">
<title>route15&#45;&gt;MeshTopology</title>
<path fill="none" stroke="black" d="M712,-229.71C712,-225.41 712,-204.43 712,-186.6"/>
</g>
<!-- route16 -->
<g id="node34" class="node">
<title>route16</title>
<polygon fill="#c3ffff" stroke="transparent" stroke-width="2" points="803.5,-231 802.5,-231 802.5,-230 803.5,-230 803.5,-231"/>
</g>
<!-- route15&#45;&gt;route16 -->
<g id="edge28" class="edge">
<title>route15&#45;&gt;route16</title>
<path fill="none" stroke="black" d="M712.58,-230C719.97,-230 795.41,-230 802.47,-230"/>
</g>
<!-- route16&#45;&gt;LocationIndexSet -->
<g id="edge29" class="edge">
<title>route16&#45;&gt;LocationIndexSet</title>
<path fill="none" stroke="black" d="M803,-229.71C803,-225.41 803,-204.43 803,-186.6"/>
</g>
</g>
</svg>
