<?xml version="1.0" encoding="UTF-8" standalone="no"?>
<!DOCTYPE svg PUBLIC "-//W3C//DTD SVG 1.1//EN"
 "http://www.w3.org/Graphics/SVG/1.1/DTD/svg11.dtd">
<!-- Generated by graphviz version 2.40.1 (20161225.0304)
 -->
<!-- Title: %3 Pages: 1 -->
<svg width="779pt" height="282pt"
 viewBox="0.00 0.00 778.50 282.00" xmlns="http://www.w3.org/2000/svg" xmlns:xlink="http://www.w3.org/1999/xlink">
<g id="graph0" class="graph" transform="scale(1 1) rotate(0) translate(4 278)">
<title>%3</title>
<polygon fill="#ffffff" stroke="transparent" points="-4,4 -4,-278 774.5,-278 774.5,4 -4,4"/>
<!-- DataVariable -->
<g id="node1" class="node">
<title>DataVariable</title>
<polygon fill="#c3ffff" stroke="#000000" stroke-width="2" points="656,-274 580,-274 580,-236 656,-236 656,-274"/>
<text text-anchor="middle" x="618" y="-258.8" font-family="Arial" font-size="14.00" fill="#000000">CN::Data</text>
<text text-anchor="middle" x="618" y="-243.8" font-family="Arial" font-size="14.00" fill="#000000">Variable</text>
</g>
<!-- GenericCoordinateVariable -->
<g id="node2" class="node">
<title>GenericCoordinateVariable</title>
<polygon fill="#ffffff" stroke="#000000" stroke-width="2" points="596.5,-200 495.5,-200 495.5,-132 596.5,-132 596.5,-200"/>
<text text-anchor="middle" x="546" y="-184.8" font-family="Arial" font-size="14.00" fill="#000000">&lt;&lt;abstract&gt;&gt;</text>
<text text-anchor="middle" x="546" y="-169.8" font-family="Arial" font-size="14.00" fill="#000000">Generic</text>
<text text-anchor="middle" x="546" y="-154.8" font-family="Arial" font-size="14.00" fill="#000000">Coordinate</text>
<text text-anchor="middle" x="546" y="-139.8" font-family="Arial" font-size="14.00" fill="#000000">Variable</text>
</g>
<!-- FormulaTerms -->
<g id="node5" class="node">
<title>FormulaTerms</title>
<polygon fill="#c3ffff" stroke="#000000" stroke-width="2" points="595,-51.5 497,-51.5 497,-13.5 595,-13.5 595,-51.5"/>
<text text-anchor="middle" x="546" y="-36.3" font-family="Arial" font-size="14.00" fill="#000000">CN::Formula</text>
<text text-anchor="middle" x="546" y="-21.3" font-family="Arial" font-size="14.00" fill="#000000">Terms</text>
</g>
<!-- GenericCoordinateVariable&#45;&gt;FormulaTerms -->
<g id="edge13" class="edge">
<title>GenericCoordinateVariable&#45;&gt;FormulaTerms</title>
<path fill="none" stroke="#000000" d="M546,-121.9669C546,-121.9669 546,-51.6062 546,-51.6062"/>
<polygon fill="#000000" stroke="#000000" points="546,-131.9669 541.5001,-121.9668 546,-126.9669 546.0001,-121.9669 546.0001,-121.9669 546.0001,-121.9669 546,-126.9669 550.5001,-121.9669 546,-131.9669 546,-131.9669"/>
</g>
<!-- GridMappingVariable -->
<g id="node3" class="node">
<title>GridMappingVariable</title>
<polygon fill="#c3ffff" stroke="#000000" stroke-width="2" points="241,-51.5 109,-51.5 109,-13.5 241,-13.5 241,-51.5"/>
<text text-anchor="middle" x="175" y="-36.3" font-family="Arial" font-size="14.00" fill="#000000">CN::Grid Mapping</text>
<text text-anchor="middle" x="175" y="-21.3" font-family="Arial" font-size="14.00" fill="#000000">Variable</text>
</g>
<!-- NamedFormula -->
<g id="node4" class="node">
<title>NamedFormula</title>
<polygon fill="#c3ffff" stroke="#000000" stroke-width="2" points="407.5,-59 276.5,-59 276.5,-6 407.5,-6 407.5,-59"/>
<text text-anchor="middle" x="342" y="-43.8" font-family="Arial" font-size="14.00" fill="#000000">&lt;&lt;enumeration&gt;&gt;</text>
<text text-anchor="middle" x="342" y="-28.8" font-family="Arial" font-size="14.00" fill="#000000">CN::Named</text>
<text text-anchor="middle" x="342" y="-13.8" font-family="Arial" font-size="14.00" fill="#000000">Formula</text>
</g>
<!-- GridMappingVariable&#45;&gt;NamedFormula -->
<g id="edge11" class="edge">
<title>GridMappingVariable&#45;&gt;NamedFormula</title>
<path fill="none" stroke="#000000" d="M241.0028,-32C241.0028,-32 266.4765,-32 266.4765,-32"/>
<polygon fill="#000000" stroke="#000000" points="276.4765,-32 266.4765,-36.5001 271.4765,-32 266.4765,-32.0001 266.4765,-32.0001 266.4765,-32.0001 271.4765,-32 266.4764,-27.5001 276.4765,-32 276.4765,-32"/>
</g>
<!-- NamedFormula&#45;&gt;FormulaTerms -->
<g id="edge12" class="edge">
<title>NamedFormula&#45;&gt;FormulaTerms</title>
<path fill="none" stroke="#000000" d="M417.6698,-26C417.6698,-26 496.9565,-26 496.9565,-26"/>
<polygon fill="#000000" stroke="#000000" points="407.6698,-26 417.6698,-21.5001 412.6698,-26 417.6698,-26.0001 417.6698,-26.0001 417.6698,-26.0001 412.6698,-26 417.6697,-30.5001 407.6698,-26 407.6698,-26"/>
</g>
<!-- GenericCoordinateConstruct -->
<g id="node6" class="node">
<title>GenericCoordinateConstruct</title>
<polygon fill="#ffffff" stroke="#000000" stroke-width="2" points="305.5,-200 204.5,-200 204.5,-132 305.5,-132 305.5,-200"/>
<text text-anchor="middle" x="255" y="-184.8" font-family="Arial" font-size="14.00" fill="#000000">&lt;&lt;abstract&gt;&gt;</text>
<text text-anchor="middle" x="255" y="-169.8" font-family="Arial" font-size="14.00" fill="#000000">Generic</text>
<text text-anchor="middle" x="255" y="-154.8" font-family="Arial" font-size="14.00" fill="#000000">Coordinate</text>
<text text-anchor="middle" x="255" y="-139.8" font-family="Arial" font-size="14.00" fill="#000000">Construct</text>
</g>
<!-- CoordinateConversion -->
<g id="node9" class="node">
<title>CoordinateConversion</title>
<polygon fill="#c3ffc2" stroke="#000000" stroke-width="2" points="463.5,-185 372.5,-185 372.5,-147 463.5,-147 463.5,-185"/>
<text text-anchor="middle" x="418" y="-169.8" font-family="Arial" font-size="14.00" fill="#000000">Coordinate</text>
<text text-anchor="middle" x="418" y="-154.8" font-family="Arial" font-size="14.00" fill="#000000">Conversion</text>
</g>
<!-- GenericCoordinateConstruct&#45;&gt;CoordinateConversion -->
<g id="edge6" class="edge">
<title>GenericCoordinateConstruct&#45;&gt;CoordinateConversion</title>
<path fill="none" stroke="#000000" d="M315.6807,-159C315.6807,-159 372.3312,-159 372.3312,-159"/>
<polygon fill="#000000" stroke="#000000" points="305.6807,-159 315.6808,-154.5001 310.6807,-159 315.6807,-159.0001 315.6807,-159.0001 315.6807,-159.0001 310.6807,-159 315.6807,-163.5001 305.6807,-159 305.6807,-159"/>
<text text-anchor="middle" x="323.8069" y="-147.7476" font-family="Arial" font-size="11.00" fill="#000000"> &#160;&#160;0..*</text>
</g>
<!-- DomainAncillary -->
<g id="node7" class="node">
<title>DomainAncillary</title>
<polygon fill="#c3ffc2" stroke="#000000" stroke-width="2" points="490,-274 368,-274 368,-236 490,-236 490,-274"/>
<text text-anchor="middle" x="429" y="-258.8" font-family="Arial" font-size="14.00" fill="#000000">&lt;&lt;construct&gt;&gt;</text>
<text text-anchor="middle" x="429" y="-243.8" font-family="Arial" font-size="14.00" fill="#000000">DomainAncillary</text>
</g>
<!-- DomainAncillary&#45;&gt;DataVariable -->
<g id="edge7" class="edge">
<title>DomainAncillary&#45;&gt;DataVariable</title>
<path fill="none" stroke="#000000" d="M490.1019,-245C490.1019,-245 569.9405,-245 569.9405,-245"/>
<polygon fill="#000000" stroke="#000000" points="579.9405,-245 569.9405,-249.5001 574.9405,-245 569.9405,-245.0001 569.9405,-245.0001 569.9405,-245.0001 574.9405,-245 569.9404,-240.5001 579.9405,-245 579.9405,-245"/>
<text text-anchor="middle" x="511.6019" y="-248.2" font-family="Arial" font-size="11.00" fill="#000000"> either/or</text>
</g>
<!-- DomainAncillary&#45;&gt;GenericCoordinateVariable -->
<g id="edge8" class="edge">
<title>DomainAncillary&#45;&gt;GenericCoordinateVariable</title>
<path fill="none" stroke="#000000" d="M476.75,-235.7556C476.75,-217.2285 476.75,-192 476.75,-192 476.75,-192 485.3077,-192 485.3077,-192"/>
<polygon fill="#000000" stroke="#000000" points="495.3077,-192 485.3078,-196.5001 490.3077,-192 485.3077,-192.0001 485.3077,-192.0001 485.3077,-192.0001 490.3077,-192 485.3077,-187.5001 495.3077,-192 495.3077,-192"/>
<text text-anchor="middle" x="472.1012" y="-222.9862" font-family="Arial" font-size="11.00" fill="#000000"> &#160;&#160;&#160;&#160;&#160;&#160;&#160;&#160;&#160;&#160;&#160;&#160;&#160;&#160;&#160;&#160;&#160;either/or</text>
</g>
<!-- DomainAncillary&#45;&gt;CoordinateConversion -->
<g id="edge5" class="edge">
<title>DomainAncillary&#45;&gt;CoordinateConversion</title>
<path fill="none" stroke="#000000" d="M418,-225.6883C418,-225.6883 418,-185.274 418,-185.274"/>
<polygon fill="#000000" stroke="#000000" points="418,-235.6883 413.5001,-225.6883 418,-230.6883 418.0001,-225.6883 418.0001,-225.6883 418.0001,-225.6883 418,-230.6883 422.5001,-225.6884 418,-235.6883 418,-235.6883"/>
<text text-anchor="middle" x="413.3512" y="-222.9189" font-family="Arial" font-size="11.00" fill="#000000">0..* &#160;&#160;&#160;&#160;&#160;&#160;</text>
</g>
<!-- CoordinateReference -->
<g id="node8" class="node">
<title>CoordinateReference</title>
<polygon fill="#c3ffc2" stroke="#000000" stroke-width="2" points="332.5,-274 177.5,-274 177.5,-236 332.5,-236 332.5,-274"/>
<text text-anchor="middle" x="255" y="-258.8" font-family="Arial" font-size="14.00" fill="#000000">&lt;&lt;construct&gt;&gt;</text>
<text text-anchor="middle" x="255" y="-243.8" font-family="Arial" font-size="14.00" fill="#000000">CoordinateReference</text>
</g>
<!-- CoordinateReference&#45;&gt;GenericCoordinateConstruct -->
<g id="edge2" class="edge">
<title>CoordinateReference&#45;&gt;GenericCoordinateConstruct</title>
<path fill="none" stroke="#000000" d="M255,-235.6883C255,-235.6883 255,-210.348 255,-210.348"/>
<polygon fill="#000000" stroke="#000000" points="255,-200.348 259.5001,-210.348 255,-205.348 255.0001,-210.348 255.0001,-210.348 255.0001,-210.348 255,-205.348 250.5001,-210.3481 255,-200.348 255,-200.348"/>
<text text-anchor="middle" x="243.5" y="-203.548" font-family="Arial" font-size="11.00" fill="#000000">0..* &#160;</text>
</g>
<!-- CoordinateReference&#45;&gt;DomainAncillary -->
<g id="edge1" class="edge">
<title>CoordinateReference&#45;&gt;DomainAncillary</title>
<path fill="none" stroke="#000000" d="M332.5858,-255C332.5858,-255 357.7507,-255 357.7507,-255"/>
<polygon fill="#000000" stroke="#000000" points="367.7507,-255 357.7507,-259.5001 362.7507,-255 357.7507,-255.0001 357.7507,-255.0001 357.7507,-255.0001 362.7507,-255 357.7506,-250.5001 367.7507,-255 367.7507,-255"/>
<text text-anchor="middle" x="354.7507" y="-258.2" font-family="Arial" font-size="11.00" fill="#000000">0..* &#160;&#160;</text>
</g>
<!-- CoordinateReference&#45;&gt;CoordinateConversion -->
<g id="edge4" class="edge">
<title>CoordinateReference&#45;&gt;CoordinateConversion</title>
<path fill="none" stroke="#000000" d="M319,-223.7495C319,-223.7495 319,-172 319,-172 319,-172 362.2673,-172 362.2673,-172"/>
<polygon fill="#000000" stroke="#000000" points="319.0001,-223.7495 323,-229.7495 319,-235.7495 315,-229.7495 319.0001,-223.7495"/>
<polygon fill="#000000" stroke="#000000" points="372.2673,-172 362.2673,-176.5001 367.2673,-172 362.2673,-172.0001 362.2673,-172.0001 362.2673,-172.0001 367.2673,-172 362.2672,-167.5001 372.2673,-172 372.2673,-172"/>
<text text-anchor="middle" x="356.7673" y="-175.2" font-family="Arial" font-size="11.00" fill="#000000">0..1 &#160;&#160;&#160;</text>
</g>
<!-- Datum -->
<g id="node10" class="node">
<title>Datum</title>
<polygon fill="#c3ffc2" stroke="#000000" stroke-width="2" points="73,-50.5 1,-50.5 1,-14.5 73,-14.5 73,-50.5"/>
<text text-anchor="middle" x="37" y="-28.8" font-family="Arial" font-size="14.00" fill="#000000">Datum</text>
</g>
<!-- CoordinateReference&#45;&gt;Datum -->
<g id="edge3" class="edge">
<title>CoordinateReference&#45;&gt;Datum</title>
<path fill="none" stroke="#000000" d="M165.4531,-255C165.4531,-255 25,-255 25,-255 25,-255 25,-60.7081 25,-60.7081"/>
<polygon fill="#000000" stroke="#000000" points="165.4531,-255.0001 171.4531,-251 177.4531,-255 171.4532,-259 165.4531,-255.0001"/>
<polygon fill="#000000" stroke="#000000" points="25,-50.7081 29.5001,-60.7081 25,-55.7081 25.0001,-60.7081 25.0001,-60.7081 25.0001,-60.7081 25,-55.7081 20.5001,-60.7082 25,-50.7081 25,-50.7081"/>
<text text-anchor="middle" x="12.5" y="-53.9081" font-family="Arial" font-size="11.00" fill="#000000">0..1 &#160;</text>
</g>
<!-- CoordinateConversion&#45;&gt;GenericCoordinateVariable -->
<!-- route7 -->
<g id="node17" class="node">
<title>route7</title>
<polygon fill="#c3ffc2" stroke="transparent" stroke-width="2" points="408.5,-96 407.5,-96 407.5,-95 408.5,-95 408.5,-96"/>
</g>
<!-- CoordinateConversion&#45;&gt;route7 -->
<g id="edge14" class="edge">
<title>CoordinateConversion&#45;&gt;route7</title>
<path fill="none" stroke="#000000" d="M408,-146.7356C408,-127.8187 408,-101.1094 408,-96.2677"/>
<text text-anchor="middle" x="403.3512" y="-133.9662" font-family="Arial" font-size="11.00" fill="#000000">either/or &#160;&#160;&#160;&#160;&#160;&#160;&#160;&#160;&#160;&#160;</text>
</g>
<!-- route8 -->
<g id="node18" class="node">
<title>route8</title>
<polygon fill="#c3ffc2" stroke="transparent" stroke-width="2" points="427.5,-96 426.5,-96 426.5,-95 427.5,-95 427.5,-96"/>
</g>
<!-- CoordinateConversion&#45;&gt;route8 -->
<g id="edge16" class="edge">
<title>CoordinateConversion&#45;&gt;route8</title>
<path fill="none" stroke="#000000" d="M427,-146.7356C427,-127.8187 427,-101.1094 427,-96.2677"/>
<text text-anchor="middle" x="422.3512" y="-133.9662" font-family="Arial" font-size="11.00" fill="#000000"> &#160;&#160;&#160;&#160;&#160;&#160;&#160;&#160;&#160;&#160;&#160;&#160;&#160;&#160;&#160;&#160;&#160;either/or</text>
</g>
<!-- Datum&#45;&gt;GridMappingVariable -->
<g id="edge10" class="edge">
<title>Datum&#45;&gt;GridMappingVariable</title>
<path fill="none" stroke="#000000" d="M73.2579,-32C73.2579,-32 98.8199,-32 98.8199,-32"/>
<polygon fill="#000000" stroke="#000000" points="108.8199,-32 98.8199,-36.5001 103.8199,-32 98.8199,-32.0001 98.8199,-32.0001 98.8199,-32.0001 103.8199,-32 98.8199,-27.5001 108.8199,-32 108.8199,-32"/>
<text text-anchor="middle" x="93.3199" y="-35.2" font-family="Arial" font-size="11.00" fill="#000000">0..1 &#160;&#160;&#160;</text>
</g>
<!-- Datum&#45;&gt;GenericCoordinateConstruct -->
<g id="edge9" class="edge">
<title>Datum&#45;&gt;GenericCoordinateConstruct</title>
<path fill="none" stroke="#000000" d="M49,-50.5044C49,-86.9442 49,-166 49,-166 49,-166 194.3429,-166 194.3429,-166"/>
<polygon fill="#000000" stroke="#000000" points="204.3429,-166 194.3429,-170.5001 199.3429,-166 194.3429,-166.0001 194.3429,-166.0001 194.3429,-166.0001 199.3429,-166 194.3428,-161.5001 204.3429,-166 204.3429,-166"/>
<text text-anchor="middle" x="191.3429" y="-169.2" font-family="Arial" font-size="11.00" fill="#000000">0..* &#160;&#160;</text>
</g>
<!-- route1 -->
<g id="node11" class="node">
<title>route1</title>
<polygon fill="#c3ffc2" stroke="transparent" stroke-width="2" points="675.5,-255.5 674.5,-255.5 674.5,-254.5 675.5,-254.5 675.5,-255.5"/>
</g>
<!-- route2 -->
<g id="node12" class="node">
<title>route2</title>
<polygon fill="#c3ffc2" stroke="transparent" stroke-width="2" points="694.5,-255.5 693.5,-255.5 693.5,-254.5 694.5,-254.5 694.5,-255.5"/>
</g>
<!-- route3 -->
<g id="node13" class="node">
<title>route3</title>
<polygon fill="#c3ffc2" stroke="transparent" stroke-width="2" points="713.5,-255.5 712.5,-255.5 712.5,-254.5 713.5,-254.5 713.5,-255.5"/>
</g>
<!-- route4 -->
<g id="node14" class="node">
<title>route4</title>
<polygon fill="#c3ffc2" stroke="transparent" stroke-width="2" points="732.5,-255.5 731.5,-255.5 731.5,-254.5 732.5,-254.5 732.5,-255.5"/>
</g>
<!-- route5 -->
<g id="node15" class="node">
<title>route5</title>
<polygon fill="#c3ffc2" stroke="transparent" stroke-width="2" points="751.5,-255.5 750.5,-255.5 750.5,-254.5 751.5,-254.5 751.5,-255.5"/>
</g>
<!-- route6 -->
<g id="node16" class="node">
<title>route6</title>
<polygon fill="#c3ffc2" stroke="transparent" stroke-width="2" points="770.5,-255.5 769.5,-255.5 769.5,-254.5 770.5,-254.5 770.5,-255.5"/>
</g>
<!-- route7&#45;&gt;GridMappingVariable -->
<g id="edge15" class="edge">
<title>route7&#45;&gt;GridMappingVariable</title>
<path fill="none" stroke="#000000" d="M407.4686,-95C396.6028,-95 222.75,-95 222.75,-95 222.75,-95 222.75,-61.5917 222.75,-61.5917"/>
<polygon fill="#000000" stroke="#000000" points="222.75,-51.5917 227.2501,-61.5916 222.75,-56.5917 222.7501,-61.5917 222.7501,-61.5917 222.7501,-61.5917 222.75,-56.5917 218.2501,-61.5917 222.75,-51.5917 222.75,-51.5917"/>
</g>
<!-- route8&#45;&gt;FormulaTerms -->
<g id="edge17" class="edge">
<title>route8&#45;&gt;FormulaTerms</title>
<path fill="none" stroke="#000000" d="M427,-94.8542C427,-88.5371 427,-38 427,-38 427,-38 486.9111,-38 486.9111,-38"/>
<polygon fill="#000000" stroke="#000000" points="496.9111,-38 486.9112,-42.5001 491.9111,-38 486.9111,-38.0001 486.9111,-38.0001 486.9111,-38.0001 491.9111,-38 486.9111,-33.5001 496.9111,-38 496.9111,-38"/>
</g>
<!-- Data -->
<g id="node19" class="node">
<title>Data</title>
<polygon fill="#c3ffc2" stroke="transparent" stroke-width="2" points="546.5,-255.5 545.5,-255.5 545.5,-254.5 546.5,-254.5 546.5,-255.5"/>
</g>
<!-- Data&#45;&gt;GenericCoordinateVariable -->
</g>
</svg>
