<?xml version="1.0" encoding="UTF-8" standalone="no"?>
<!DOCTYPE svg PUBLIC "-//W3C//DTD SVG 1.1//EN"
 "http://www.w3.org/Graphics/SVG/1.1/DTD/svg11.dtd">
<!-- Generated by graphviz version 2.43.0 (0)
 -->
<!-- Title: %3 Pages: 1 -->
<svg width="760pt" height="282pt"
 viewBox="0.00 0.00 759.50 282.00" xmlns="http://www.w3.org/2000/svg" xmlns:xlink="http://www.w3.org/1999/xlink">
<g id="graph0" class="graph" transform="scale(1 1) rotate(0) translate(4 278)">
<title>%3</title>
<polygon fill="white" stroke="transparent" points="-4,4 -4,-278 755.5,-278 755.5,4 -4,4"/>
<!-- DataVariable -->
<g id="node1" class="node">
<title>DataVariable</title>
<polygon fill="#c3ffff" stroke="black" stroke-width="2" points="637,-274 565,-274 565,-236 637,-236 637,-274"/>
<text text-anchor="middle" x="601" y="-258.8" font-family="Arial" font-size="14.00">CN::Data</text>
<text text-anchor="middle" x="601" y="-243.8" font-family="Arial" font-size="14.00">Variable</text>
</g>
<!-- GenericCoordinateVariable -->
<g id="node2" class="node">
<title>GenericCoordinateVariable</title>
<polygon fill="white" stroke="black" stroke-width="2" points="581,-200 483,-200 483,-132 581,-132 581,-200"/>
<text text-anchor="middle" x="532" y="-184.8" font-family="Arial" font-size="14.00">&lt;&lt;abstract&gt;&gt;</text>
<text text-anchor="middle" x="532" y="-169.8" font-family="Arial" font-size="14.00">Generic</text>
<text text-anchor="middle" x="532" y="-154.8" font-family="Arial" font-size="14.00">Coordinate</text>
<text text-anchor="middle" x="532" y="-139.8" font-family="Arial" font-size="14.00">Variable</text>
</g>
<!-- FormulaTerms -->
<g id="node5" class="node">
<title>FormulaTerms</title>
<polygon fill="#c3ffff" stroke="black" stroke-width="2" points="579,-51.5 485,-51.5 485,-13.5 579,-13.5 579,-51.5"/>
<text text-anchor="middle" x="532" y="-36.3" font-family="Arial" font-size="14.00">CN::Formula</text>
<text text-anchor="middle" x="532" y="-21.3" font-family="Arial" font-size="14.00">Terms</text>
</g>
<!-- GenericCoordinateVariable&#45;&gt;FormulaTerms -->
<g id="edge13" class="edge">
<title>GenericCoordinateVariable&#45;&gt;FormulaTerms</title>
<path fill="none" stroke="black" d="M532,-121.97C532,-121.97 532,-51.61 532,-51.61"/>
<polygon fill="black" stroke="black" points="532,-131.97 527.5,-121.97 532,-126.97 532,-121.97 532,-121.97 532,-121.97 532,-126.97 536.5,-121.97 532,-131.97 532,-131.97"/>
</g>
<!-- GridMappingVariable -->
<g id="node3" class="node">
<title>GridMappingVariable</title>
<polygon fill="#c3ffff" stroke="black" stroke-width="2" points="235,-51.5 109,-51.5 109,-13.5 235,-13.5 235,-51.5"/>
<text text-anchor="middle" x="172" y="-36.3" font-family="Arial" font-size="14.00">CN::Grid Mapping</text>
<text text-anchor="middle" x="172" y="-21.3" font-family="Arial" font-size="14.00">Variable</text>
</g>
<!-- NamedFormula -->
<g id="node4" class="node">
<title>NamedFormula</title>
<polygon fill="#c3ffff" stroke="black" stroke-width="2" points="395.5,-59 270.5,-59 270.5,-6 395.5,-6 395.5,-59"/>
<text text-anchor="middle" x="333" y="-43.8" font-family="Arial" font-size="14.00">&lt;&lt;enumeration&gt;&gt;</text>
<text text-anchor="middle" x="333" y="-28.8" font-family="Arial" font-size="14.00">CN::Named</text>
<text text-anchor="middle" x="333" y="-13.8" font-family="Arial" font-size="14.00">Formula</text>
</g>
<!-- GridMappingVariable&#45;&gt;NamedFormula -->
<g id="edge11" class="edge">
<title>GridMappingVariable&#45;&gt;NamedFormula</title>
<path fill="none" stroke="black" d="M235.17,-32C235.17,-32 260.28,-32 260.28,-32"/>
<polygon fill="black" stroke="black" points="270.28,-32 260.28,-36.5 265.28,-32 260.28,-32 260.28,-32 260.28,-32 265.28,-32 260.28,-27.5 270.28,-32 270.28,-32"/>
</g>
<!-- NamedFormula&#45;&gt;FormulaTerms -->
<g id="edge12" class="edge">
<title>NamedFormula&#45;&gt;FormulaTerms</title>
<path fill="none" stroke="black" d="M405.69,-26C405.69,-26 484.78,-26 484.78,-26"/>
<polygon fill="black" stroke="black" points="395.69,-26 405.69,-21.5 400.69,-26 405.69,-26 405.69,-26 405.69,-26 400.69,-26 405.69,-30.5 395.69,-26 395.69,-26"/>
</g>
<!-- GenericCoordinateConstruct -->
<g id="node6" class="node">
<title>GenericCoordinateConstruct</title>
<polygon fill="white" stroke="black" stroke-width="2" points="301,-200 203,-200 203,-132 301,-132 301,-200"/>
<text text-anchor="middle" x="252" y="-184.8" font-family="Arial" font-size="14.00">&lt;&lt;abstract&gt;&gt;</text>
<text text-anchor="middle" x="252" y="-169.8" font-family="Arial" font-size="14.00">Generic</text>
<text text-anchor="middle" x="252" y="-154.8" font-family="Arial" font-size="14.00">Coordinate</text>
<text text-anchor="middle" x="252" y="-139.8" font-family="Arial" font-size="14.00">Construct</text>
</g>
<!-- CoordinateConversion -->
<g id="node9" class="node">
<title>CoordinateConversion</title>
<polygon fill="#c3ffc2" stroke="black" stroke-width="2" points="451.5,-185 366.5,-185 366.5,-147 451.5,-147 451.5,-185"/>
<text text-anchor="middle" x="409" y="-169.8" font-family="Arial" font-size="14.00">Coordinate</text>
<text text-anchor="middle" x="409" y="-154.8" font-family="Arial" font-size="14.00">Conversion</text>
</g>
<!-- GenericCoordinateConstruct&#45;&gt;CoordinateConversion -->
<g id="edge6" class="edge">
<title>GenericCoordinateConstruct&#45;&gt;CoordinateConversion</title>
<path fill="none" stroke="black" d="M311.25,-159C311.25,-159 366.29,-159 366.29,-159"/>
<polygon fill="black" stroke="black" points="301.25,-159 311.25,-154.5 306.25,-159 311.25,-159 311.25,-159 311.25,-159 306.25,-159 311.24,-163.5 301.25,-159 301.25,-159"/>
<text text-anchor="middle" x="319.37" y="-147.75" font-family="Arial" font-size="11.00"> &#160;&#160;0..*</text>
</g>
<!-- DomainAncillary -->
<g id="node7" class="node">
<title>DomainAncillary</title>
<polygon fill="#c3ffc2" stroke="black" stroke-width="2" points="475.5,-274 360.5,-274 360.5,-236 475.5,-236 475.5,-274"/>
<text text-anchor="middle" x="418" y="-258.8" font-family="Arial" font-size="14.00">&lt;&lt;construct&gt;&gt;</text>
<text text-anchor="middle" x="418" y="-243.8" font-family="Arial" font-size="14.00">DomainAncillary</text>
</g>
<!-- DomainAncillary&#45;&gt;DataVariable -->
<g id="edge7" class="edge">
<title>DomainAncillary&#45;&gt;DataVariable</title>
<path fill="none" stroke="black" d="M475.65,-245C475.65,-245 554.91,-245 554.91,-245"/>
<polygon fill="black" stroke="black" points="564.91,-245 554.91,-249.5 559.91,-245 554.91,-245 554.91,-245 554.91,-245 559.91,-245 554.91,-240.5 564.91,-245 564.91,-245"/>
<text text-anchor="middle" x="497.15" y="-248.2" font-family="Arial" font-size="11.00"> either/or</text>
</g>
<!-- DomainAncillary&#45;&gt;GenericCoordinateVariable -->
<g id="edge8" class="edge">
<title>DomainAncillary&#45;&gt;GenericCoordinateVariable</title>
<path fill="none" stroke="black" d="M463.5,-235.76C463.5,-217.23 463.5,-192 463.5,-192 463.5,-192 472.95,-192 472.95,-192"/>
<polygon fill="black" stroke="black" points="482.95,-192 472.95,-196.5 477.95,-192 472.95,-192 472.95,-192 472.95,-192 477.95,-192 472.95,-187.5 482.95,-192 482.95,-192"/>
<text text-anchor="middle" x="458.85" y="-222.99" font-family="Arial" font-size="11.00"> &#160;&#160;&#160;&#160;&#160;&#160;&#160;&#160;&#160;&#160;&#160;&#160;&#160;&#160;&#160;&#160;&#160;either/or</text>
</g>
<!-- DomainAncillary&#45;&gt;CoordinateConversion -->
<g id="edge5" class="edge">
<title>DomainAncillary&#45;&gt;CoordinateConversion</title>
<path fill="none" stroke="black" d="M409,-225.69C409,-225.69 409,-185.27 409,-185.27"/>
<polygon fill="black" stroke="black" points="409,-235.69 404.5,-225.69 409,-230.69 409,-225.69 409,-225.69 409,-225.69 409,-230.69 413.5,-225.69 409,-235.69 409,-235.69"/>
<text text-anchor="middle" x="404.35" y="-222.92" font-family="Arial" font-size="11.00">0..* &#160;&#160;&#160;&#160;&#160;&#160;</text>
</g>
<!-- CoordinateReference -->
<g id="node8" class="node">
<title>CoordinateReference</title>
<polygon fill="#c3ffc2" stroke="black" stroke-width="2" points="324.5,-274 179.5,-274 179.5,-236 324.5,-236 324.5,-274"/>
<text text-anchor="middle" x="252" y="-258.8" font-family="Arial" font-size="14.00">&lt;&lt;construct&gt;&gt;</text>
<text text-anchor="middle" x="252" y="-243.8" font-family="Arial" font-size="14.00">CoordinateReference</text>
</g>
<!-- CoordinateReference&#45;&gt;GenericCoordinateConstruct -->
<g id="edge2" class="edge">
<title>CoordinateReference&#45;&gt;GenericCoordinateConstruct</title>
<path fill="none" stroke="black" d="M252,-235.69C252,-235.69 252,-210.35 252,-210.35"/>
<polygon fill="black" stroke="black" points="252,-200.35 256.5,-210.35 252,-205.35 252,-210.35 252,-210.35 252,-210.35 252,-205.35 247.5,-210.35 252,-200.35 252,-200.35"/>
<text text-anchor="middle" x="240.5" y="-203.55" font-family="Arial" font-size="11.00">0..* &#160;</text>
</g>
<!-- CoordinateReference&#45;&gt;DomainAncillary -->
<g id="edge1" class="edge">
<title>CoordinateReference&#45;&gt;DomainAncillary</title>
<path fill="none" stroke="black" d="M324.81,-255C324.81,-255 350.46,-255 350.46,-255"/>
<polygon fill="black" stroke="black" points="360.46,-255 350.46,-259.5 355.46,-255 350.46,-255 350.46,-255 350.46,-255 355.46,-255 350.46,-250.5 360.46,-255 360.46,-255"/>
<text text-anchor="middle" x="347.46" y="-258.2" font-family="Arial" font-size="11.00">0..* &#160;&#160;</text>
</g>
<!-- CoordinateReference&#45;&gt;CoordinateConversion -->
<g id="edge4" class="edge">
<title>CoordinateReference&#45;&gt;CoordinateConversion</title>
<path fill="none" stroke="black" d="M312.75,-223.75C312.75,-223.75 312.75,-172 312.75,-172 312.75,-172 356.22,-172 356.22,-172"/>
<polygon fill="black" stroke="black" points="312.75,-223.75 316.75,-229.75 312.75,-235.75 308.75,-229.75 312.75,-223.75"/>
<polygon fill="black" stroke="black" points="366.22,-172 356.22,-176.5 361.22,-172 356.22,-172 356.22,-172 356.22,-172 361.22,-172 356.22,-167.5 366.22,-172 366.22,-172"/>
<text text-anchor="middle" x="350.72" y="-175.2" font-family="Arial" font-size="11.00">0..1 &#160;&#160;&#160;</text>
</g>
<!-- Datum -->
<g id="node10" class="node">
<title>Datum</title>
<polygon fill="#c3ffc2" stroke="black" stroke-width="2" points="73,-50.5 1,-50.5 1,-14.5 73,-14.5 73,-50.5"/>
<text text-anchor="middle" x="37" y="-28.8" font-family="Arial" font-size="14.00">Datum</text>
</g>
<!-- CoordinateReference&#45;&gt;Datum -->
<g id="edge3" class="edge">
<title>CoordinateReference&#45;&gt;Datum</title>
<path fill="none" stroke="black" d="M167.24,-255C167.24,-255 25,-255 25,-255 25,-255 25,-60.71 25,-60.71"/>
<polygon fill="black" stroke="black" points="167.24,-255 173.24,-251 179.24,-255 173.24,-259 167.24,-255"/>
<polygon fill="black" stroke="black" points="25,-50.71 29.5,-60.71 25,-55.71 25,-60.71 25,-60.71 25,-60.71 25,-55.71 20.5,-60.71 25,-50.71 25,-50.71"/>
<text text-anchor="middle" x="12.5" y="-53.91" font-family="Arial" font-size="11.00">0..1 &#160;</text>
</g>
<!-- CoordinateConversion&#45;&gt;GenericCoordinateVariable -->
<!-- route7 -->
<g id="node17" class="node">
<title>route7</title>
<polygon fill="#c3ffc2" stroke="transparent" stroke-width="2" points="399.5,-96 398.5,-96 398.5,-95 399.5,-95 399.5,-96"/>
</g>
<!-- CoordinateConversion&#45;&gt;route7 -->
<g id="edge14" class="edge">
<title>CoordinateConversion&#45;&gt;route7</title>
<path fill="none" stroke="black" d="M399,-146.74C399,-127.82 399,-101.11 399,-96.27"/>
<text text-anchor="middle" x="394.35" y="-133.97" font-family="Arial" font-size="11.00">either/or &#160;&#160;&#160;&#160;&#160;&#160;&#160;&#160;&#160;&#160;</text>
</g>
<!-- route8 -->
<g id="node18" class="node">
<title>route8</title>
<polygon fill="#c3ffc2" stroke="transparent" stroke-width="2" points="418.5,-96 417.5,-96 417.5,-95 418.5,-95 418.5,-96"/>
</g>
<!-- CoordinateConversion&#45;&gt;route8 -->
<g id="edge16" class="edge">
<title>CoordinateConversion&#45;&gt;route8</title>
<path fill="none" stroke="black" d="M418,-146.74C418,-127.82 418,-101.11 418,-96.27"/>
<text text-anchor="middle" x="413.35" y="-133.97" font-family="Arial" font-size="11.00"> &#160;&#160;&#160;&#160;&#160;&#160;&#160;&#160;&#160;&#160;&#160;&#160;&#160;&#160;&#160;&#160;&#160;either/or</text>
</g>
<!-- Datum&#45;&gt;GridMappingVariable -->
<g id="edge10" class="edge">
<title>Datum&#45;&gt;GridMappingVariable</title>
<path fill="none" stroke="black" d="M73.18,-32C73.18,-32 98.88,-32 98.88,-32"/>
<polygon fill="black" stroke="black" points="108.88,-32 98.88,-36.5 103.88,-32 98.88,-32 98.88,-32 98.88,-32 103.88,-32 98.88,-27.5 108.88,-32 108.88,-32"/>
<text text-anchor="middle" x="93.38" y="-35.2" font-family="Arial" font-size="11.00">0..1 &#160;&#160;&#160;</text>
</g>
<!-- Datum&#45;&gt;GenericCoordinateConstruct -->
<g id="edge9" class="edge">
<title>Datum&#45;&gt;GenericCoordinateConstruct</title>
<path fill="none" stroke="black" d="M49,-50.5C49,-86.94 49,-166 49,-166 49,-166 192.86,-166 192.86,-166"/>
<polygon fill="black" stroke="black" points="202.86,-166 192.86,-170.5 197.86,-166 192.86,-166 192.86,-166 192.86,-166 197.86,-166 192.86,-161.5 202.86,-166 202.86,-166"/>
<text text-anchor="middle" x="189.86" y="-169.2" font-family="Arial" font-size="11.00">0..* &#160;&#160;</text>
</g>
<!-- route1 -->
<g id="node11" class="node">
<title>route1</title>
<polygon fill="#c3ffc2" stroke="transparent" stroke-width="2" points="656.5,-255.5 655.5,-255.5 655.5,-254.5 656.5,-254.5 656.5,-255.5"/>
</g>
<!-- route2 -->
<g id="node12" class="node">
<title>route2</title>
<polygon fill="#c3ffc2" stroke="transparent" stroke-width="2" points="675.5,-255.5 674.5,-255.5 674.5,-254.5 675.5,-254.5 675.5,-255.5"/>
</g>
<!-- route3 -->
<g id="node13" class="node">
<title>route3</title>
<polygon fill="#c3ffc2" stroke="transparent" stroke-width="2" points="694.5,-255.5 693.5,-255.5 693.5,-254.5 694.5,-254.5 694.5,-255.5"/>
</g>
<!-- route4 -->
<g id="node14" class="node">
<title>route4</title>
<polygon fill="#c3ffc2" stroke="transparent" stroke-width="2" points="713.5,-255.5 712.5,-255.5 712.5,-254.5 713.5,-254.5 713.5,-255.5"/>
</g>
<!-- route5 -->
<g id="node15" class="node">
<title>route5</title>
<polygon fill="#c3ffc2" stroke="transparent" stroke-width="2" points="732.5,-255.5 731.5,-255.5 731.5,-254.5 732.5,-254.5 732.5,-255.5"/>
</g>
<!-- route6 -->
<g id="node16" class="node">
<title>route6</title>
<polygon fill="#c3ffc2" stroke="transparent" stroke-width="2" points="751.5,-255.5 750.5,-255.5 750.5,-254.5 751.5,-254.5 751.5,-255.5"/>
</g>
<!-- route7&#45;&gt;GridMappingVariable -->
<g id="edge15" class="edge">
<title>route7&#45;&gt;GridMappingVariable</title>
<path fill="none" stroke="black" d="M398.48,-95C387.93,-95 219,-95 219,-95 219,-95 219,-61.59 219,-61.59"/>
<polygon fill="black" stroke="black" points="219,-51.59 223.5,-61.59 219,-56.59 219,-61.59 219,-61.59 219,-61.59 219,-56.59 214.5,-61.59 219,-51.59 219,-51.59"/>
</g>
<!-- route8&#45;&gt;FormulaTerms -->
<g id="edge17" class="edge">
<title>route8&#45;&gt;FormulaTerms</title>
<path fill="none" stroke="black" d="M418,-94.85C418,-88.54 418,-38 418,-38 418,-38 474.97,-38 474.97,-38"/>
<polygon fill="black" stroke="black" points="484.97,-38 474.97,-42.5 479.97,-38 474.97,-38 474.97,-38 474.97,-38 479.97,-38 474.97,-33.5 484.97,-38 484.97,-38"/>
</g>
<!-- Data -->
<g id="node19" class="node">
<title>Data</title>
<polygon fill="#c3ffc2" stroke="transparent" stroke-width="2" points="532.5,-255.5 531.5,-255.5 531.5,-254.5 532.5,-254.5 532.5,-255.5"/>
</g>
<!-- Data&#45;&gt;GenericCoordinateVariable -->
</g>
</svg>
