<?xml version="1.0" encoding="UTF-8" standalone="no"?>
<!DOCTYPE svg PUBLIC "-//W3C//DTD SVG 1.1//EN"
 "http://www.w3.org/Graphics/SVG/1.1/DTD/svg11.dtd">
<!-- Generated by graphviz version 2.43.0 (0)
 -->
<!-- Title: %3 Pages: 1 -->
<svg width="497pt" height="525pt"
 viewBox="0.00 0.00 497.32 525.00" xmlns="http://www.w3.org/2000/svg" xmlns:xlink="http://www.w3.org/1999/xlink">
<g id="graph0" class="graph" transform="scale(1 1) rotate(0) translate(4 521)">
<title>%3</title>
<polygon fill="white" stroke="transparent" points="-4,4 -4,-521 493.32,-521 493.32,4 -4,4"/>
<!-- Note -->
<g id="node1" class="node">
<title>Note</title>
<polygon fill="white" stroke="black" points="139,-339 0,-339 0,-271 139,-271 139,-339"/>
<text text-anchor="middle" x="69.5" y="-326.2" font-family="Arial" font-size="11.00">Dimension and Auxiliary</text>
<text text-anchor="middle" x="69.5" y="-314.2" font-family="Arial" font-size="11.00">Coordinate constructs</text>
<text text-anchor="middle" x="69.5" y="-302.2" font-family="Arial" font-size="11.00">are related to</text>
<text text-anchor="middle" x="69.5" y="-290.2" font-family="Arial" font-size="11.00">DomainAxis via the</text>
<text text-anchor="middle" x="69.5" y="-278.2" font-family="Arial" font-size="11.00">(implicit) domain mapping</text>
</g>
<!-- BoundaryVariable -->
<g id="node2" class="node">
<title>BoundaryVariable</title>
<polygon fill="#c3ffff" stroke="black" stroke-width="2" points="344,-413 243,-413 243,-375 344,-375 344,-413"/>
<text text-anchor="middle" x="293.5" y="-397.8" font-family="Arial" font-size="14.00">CN::Boundary</text>
<text text-anchor="middle" x="293.5" y="-382.8" font-family="Arial" font-size="14.00">Variable</text>
</g>
<!-- route3 -->
<g id="node14" class="node">
<title>route3</title>
<polygon fill="#c3ffc2" stroke="transparent" stroke-width="2" points="294,-305.5 293,-305.5 293,-304.5 294,-304.5 294,-305.5"/>
</g>
<!-- BoundaryVariable&#45;&gt;route3 -->
<g id="edge8" class="edge">
<title>BoundaryVariable&#45;&gt;route3</title>
<path fill="none" stroke="black" d="M293.5,-364.69C293.5,-364.69 293.5,-305.77 293.5,-305.77"/>
<polygon fill="black" stroke="black" points="293.5,-374.69 289,-364.69 293.5,-369.69 293.5,-364.69 293.5,-364.69 293.5,-364.69 293.5,-369.69 298,-364.69 293.5,-374.69 293.5,-374.69"/>
<text text-anchor="middle" x="288.85" y="-361.92" font-family="Arial" font-size="11.00">0..1 &#160;&#160;&#160;&#160;&#160;&#160;&#160;</text>
</g>
<!-- CoordinateVariable -->
<g id="node3" class="node">
<title>CoordinateVariable</title>
<polygon fill="#c3ffff" stroke="black" stroke-width="2" points="427.5,-324 317.5,-324 317.5,-286 427.5,-286 427.5,-324"/>
<text text-anchor="middle" x="372.5" y="-308.8" font-family="Arial" font-size="14.00">CN::Coordinate</text>
<text text-anchor="middle" x="372.5" y="-293.8" font-family="Arial" font-size="14.00">Variable</text>
</g>
<!-- AuxiliaryCoordinateVariable -->
<g id="node4" class="node">
<title>AuxiliaryCoordinateVariable</title>
<polygon fill="#c3ffff" stroke="black" stroke-width="2" points="205,-227.5 110,-227.5 110,-174.5 205,-174.5 205,-227.5"/>
<text text-anchor="middle" x="157.5" y="-212.3" font-family="Arial" font-size="14.00">CN::Auxiliary</text>
<text text-anchor="middle" x="157.5" y="-197.3" font-family="Arial" font-size="14.00">Coordinate</text>
<text text-anchor="middle" x="157.5" y="-182.3" font-family="Arial" font-size="14.00">Variable</text>
</g>
<!-- GenericCoordinateVariable -->
<g id="node7" class="node">
<title>GenericCoordinateVariable</title>
<polygon fill="white" stroke="black" stroke-width="2" points="342.5,-235 244.5,-235 244.5,-167 342.5,-167 342.5,-235"/>
<text text-anchor="middle" x="293.5" y="-219.8" font-family="Arial" font-size="14.00">&lt;&lt;abstract&gt;&gt;</text>
<text text-anchor="middle" x="293.5" y="-204.8" font-family="Arial" font-size="14.00">Generic</text>
<text text-anchor="middle" x="293.5" y="-189.8" font-family="Arial" font-size="14.00">Coordinate</text>
<text text-anchor="middle" x="293.5" y="-174.8" font-family="Arial" font-size="14.00">Variable</text>
</g>
<!-- AuxiliaryCoordinateVariable&#45;&gt;GenericCoordinateVariable -->
<g id="edge7" class="edge">
<title>AuxiliaryCoordinateVariable&#45;&gt;GenericCoordinateVariable</title>
<path fill="none" stroke="black" d="M205.07,-201C205.07,-201 234.35,-201 234.35,-201"/>
<polygon fill="none" stroke="black" points="234.35,-204.5 244.35,-201 234.35,-197.5 234.35,-204.5"/>
</g>
<!-- DomainAxis -->
<g id="node9" class="node">
<title>DomainAxis</title>
<polygon fill="#c3ffc2" stroke="black" stroke-width="2" points="209.5,-123.5 105.5,-123.5 105.5,-85.5 209.5,-85.5 209.5,-123.5"/>
<text text-anchor="middle" x="157.5" y="-108.3" font-family="Arial" font-size="14.00">&lt;&lt;construct&gt;&gt;</text>
<text text-anchor="middle" x="157.5" y="-93.3" font-family="Arial" font-size="14.00">DomainAxis</text>
</g>
<!-- AuxiliaryCoordinateVariable&#45;&gt;DomainAxis -->
<!-- ScalarCoordinateVariable -->
<g id="node5" class="node">
<title>ScalarCoordinateVariable</title>
<polygon fill="#c3ffff" stroke="black" stroke-width="2" points="426,-131 343,-131 343,-78 426,-78 426,-131"/>
<text text-anchor="middle" x="384.5" y="-115.8" font-family="Arial" font-size="14.00">CN::Scalar</text>
<text text-anchor="middle" x="384.5" y="-100.8" font-family="Arial" font-size="14.00">Coordinate</text>
<text text-anchor="middle" x="384.5" y="-85.8" font-family="Arial" font-size="14.00">Variable</text>
</g>
<!-- ScalarCoordinateVariable&#45;&gt;CoordinateVariable -->
<!-- Dimension -->
<g id="node6" class="node">
<title>Dimension</title>
<polygon fill="#c3ffff" stroke="black" stroke-width="2" points="211.5,-42 103.5,-42 103.5,-6 211.5,-6 211.5,-42"/>
<text text-anchor="middle" x="157.5" y="-20.3" font-family="Arial" font-size="14.00">CN::Dimension</text>
</g>
<!-- route4 -->
<g id="node15" class="node">
<title>route4</title>
<polygon fill="#c3ffc2" stroke="transparent" stroke-width="2" points="400,-201.5 399,-201.5 399,-200.5 400,-200.5 400,-201.5"/>
</g>
<!-- GenericCoordinateVariable&#45;&gt;route4 -->
<g id="edge10" class="edge">
<title>GenericCoordinateVariable&#45;&gt;route4</title>
<path fill="none" stroke="black" d="M352.78,-201C352.78,-201 398.76,-201 398.76,-201"/>
<polygon fill="none" stroke="black" points="352.78,-197.5 342.78,-201 352.78,-204.5 352.78,-197.5"/>
</g>
<!-- GenericCoordinateConstruct -->
<g id="node8" class="node">
<title>GenericCoordinateConstruct</title>
<polygon fill="white" stroke="black" stroke-width="2" points="206.5,-517 108.5,-517 108.5,-449 206.5,-449 206.5,-517"/>
<text text-anchor="middle" x="157.5" y="-501.8" font-family="Arial" font-size="14.00">&lt;&lt;abstract&gt;&gt;</text>
<text text-anchor="middle" x="157.5" y="-486.8" font-family="Arial" font-size="14.00">Generic</text>
<text text-anchor="middle" x="157.5" y="-471.8" font-family="Arial" font-size="14.00">Coordinate</text>
<text text-anchor="middle" x="157.5" y="-456.8" font-family="Arial" font-size="14.00">Construct</text>
</g>
<!-- AuxiliaryCoordinate -->
<g id="node10" class="node">
<title>AuxiliaryCoordinate</title>
<polygon fill="#c3ffc2" stroke="black" stroke-width="2" points="224.5,-413 90.5,-413 90.5,-375 224.5,-375 224.5,-413"/>
<text text-anchor="middle" x="157.5" y="-397.8" font-family="Arial" font-size="14.00">&lt;&lt;construct&gt;&gt;</text>
<text text-anchor="middle" x="157.5" y="-382.8" font-family="Arial" font-size="14.00">AuxillaryCoordinate</text>
</g>
<!-- GenericCoordinateConstruct&#45;&gt;AuxiliaryCoordinate -->
<g id="edge3" class="edge">
<title>GenericCoordinateConstruct&#45;&gt;AuxiliaryCoordinate</title>
<path fill="none" stroke="black" d="M157.5,-438.84C157.5,-438.84 157.5,-413.01 157.5,-413.01"/>
<polygon fill="none" stroke="black" points="154,-438.84 157.5,-448.84 161,-438.84 154,-438.84"/>
</g>
<!-- route1 -->
<g id="node12" class="node">
<title>route1</title>
<polygon fill="#c3ffc2" stroke="transparent" stroke-width="2" points="254,-483.5 253,-483.5 253,-482.5 254,-482.5 254,-483.5"/>
</g>
<!-- GenericCoordinateConstruct&#45;&gt;route1 -->
<g id="edge1" class="edge">
<title>GenericCoordinateConstruct&#45;&gt;route1</title>
<path fill="none" stroke="black" d="M216.62,-483C216.62,-483 252.91,-483 252.91,-483"/>
<polygon fill="none" stroke="black" points="216.62,-479.5 206.62,-483 216.62,-486.5 216.62,-479.5"/>
</g>
<!-- DomainAxis&#45;&gt;ScalarCoordinateVariable -->
<g id="edge14" class="edge">
<title>DomainAxis&#45;&gt;ScalarCoordinateVariable</title>
<path fill="none" stroke="black" d="M209.58,-104C209.58,-104 332.89,-104 332.89,-104"/>
<polygon fill="black" stroke="black" points="342.89,-104 332.89,-108.5 337.89,-104 332.89,-104 332.89,-104 332.89,-104 337.89,-104 332.89,-99.5 342.89,-104 342.89,-104"/>
<text text-anchor="middle" x="327.39" y="-107.2" font-family="Arial" font-size="11.00">0..1 &#160;&#160;&#160;</text>
<text text-anchor="middle" x="231.08" y="-107.2" font-family="Arial" font-size="11.00"> either/or</text>
</g>
<!-- DomainAxis&#45;&gt;Dimension -->
<g id="edge13" class="edge">
<title>DomainAxis&#45;&gt;Dimension</title>
<path fill="none" stroke="black" d="M157.5,-85.42C157.5,-85.42 157.5,-52.11 157.5,-52.11"/>
<polygon fill="black" stroke="black" points="157.5,-42.11 162,-52.11 157.5,-47.11 157.5,-52.11 157.5,-52.11 157.5,-52.11 157.5,-47.11 153,-52.11 157.5,-42.11 157.5,-42.11"/>
<text text-anchor="middle" x="145" y="-45.31" font-family="Arial" font-size="11.00">0..1 &#160;</text>
<text text-anchor="middle" x="134.5" y="-76.62" font-family="Arial" font-size="11.00"> either/or </text>
</g>
<!-- route2 -->
<g id="node13" class="node">
<title>route2</title>
<polygon fill="#c3ffc2" stroke="transparent" stroke-width="2" points="158,-305.5 157,-305.5 157,-304.5 158,-304.5 158,-305.5"/>
</g>
<!-- AuxiliaryCoordinate&#45;&gt;route2 -->
<g id="edge4" class="edge">
<title>AuxiliaryCoordinate&#45;&gt;route2</title>
<path fill="none" stroke="black" d="M157.5,-374.69C157.5,-350.56 157.5,-311.69 157.5,-305.77"/>
</g>
<!-- DimensionCoordinate -->
<g id="node11" class="node">
<title>DimensionCoordinate</title>
<polygon fill="#c3ffc2" stroke="black" stroke-width="2" points="446,-502 299,-502 299,-464 446,-464 446,-502"/>
<text text-anchor="middle" x="372.5" y="-486.8" font-family="Arial" font-size="14.00">&lt;&lt;construct&gt;&gt;</text>
<text text-anchor="middle" x="372.5" y="-471.8" font-family="Arial" font-size="14.00">DimensionCoordinate</text>
</g>
<!-- DimensionCoordinate&#45;&gt;CoordinateVariable -->
<g id="edge6" class="edge">
<title>DimensionCoordinate&#45;&gt;CoordinateVariable</title>
<path fill="none" stroke="black" d="M385.75,-463.95C385.75,-463.95 385.75,-334.18 385.75,-334.18"/>
<polygon fill="black" stroke="black" points="385.75,-324.18 390.25,-334.18 385.75,-329.18 385.75,-334.18 385.75,-334.18 385.75,-334.18 385.75,-329.18 381.25,-334.18 385.75,-324.18 385.75,-324.18"/>
<text text-anchor="middle" x="381.1" y="-451.18" font-family="Arial" font-size="11.00"> &#160;&#160;&#160;&#160;&#160;&#160;&#160;&#160;&#160;&#160;&#160;&#160;&#160;&#160;&#160;&#160;&#160;either/or</text>
</g>
<!-- route6 -->
<g id="node17" class="node">
<title>route6</title>
<polygon fill="#c3ffc2" stroke="transparent" stroke-width="2" points="465,-483.5 464,-483.5 464,-482.5 465,-482.5 465,-483.5"/>
</g>
<!-- DimensionCoordinate&#45;&gt;route6 -->
<g id="edge15" class="edge">
<title>DimensionCoordinate&#45;&gt;route6</title>
<path fill="none" stroke="black" d="M446.32,-483C455.01,-483 461.58,-483 463.74,-483"/>
<text text-anchor="middle" x="467.82" y="-486.2" font-family="Arial" font-size="11.00"> either/or</text>
</g>
<!-- route1&#45;&gt;DimensionCoordinate -->
<g id="edge2" class="edge">
<title>route1&#45;&gt;DimensionCoordinate</title>
<path fill="none" stroke="black" d="M254.26,-483C258.22,-483 277.13,-483 298.7,-483"/>
</g>
<!-- route2&#45;&gt;AuxiliaryCoordinateVariable -->
<g id="edge5" class="edge">
<title>route2&#45;&gt;AuxiliaryCoordinateVariable</title>
<path fill="none" stroke="black" d="M157.5,-304.34C157.5,-304.34 157.5,-237.69 157.5,-237.69"/>
<polygon fill="black" stroke="black" points="157.5,-227.69 162,-237.69 157.5,-232.69 157.5,-237.69 157.5,-237.69 157.5,-237.69 157.5,-232.69 153,-237.69 157.5,-227.69 157.5,-227.69"/>
</g>
<!-- route3&#45;&gt;CoordinateVariable -->
<!-- route3&#45;&gt;GenericCoordinateVariable -->
<g id="edge9" class="edge">
<title>route3&#45;&gt;GenericCoordinateVariable</title>
<path fill="none" stroke="black" d="M293.5,-304.34C293.5,-299.04 293.5,-263.17 293.5,-235.15"/>
</g>
<!-- route4&#45;&gt;CoordinateVariable -->
<g id="edge11" class="edge">
<title>route4&#45;&gt;CoordinateVariable</title>
<path fill="none" stroke="black" d="M399.5,-201.66C399.5,-207.96 399.5,-257.53 399.5,-285.67"/>
</g>
<!-- route4&#45;&gt;ScalarCoordinateVariable -->
<g id="edge12" class="edge">
<title>route4&#45;&gt;ScalarCoordinateVariable</title>
<path fill="none" stroke="black" d="M399.5,-200.38C399.5,-195.15 399.5,-157.71 399.5,-131.2"/>
</g>
<!-- route5 -->
<g id="node16" class="node">
<title>route5</title>
<polygon fill="#c3ffc2" stroke="transparent" stroke-width="2" points="484,-483.5 483,-483.5 483,-482.5 484,-482.5 484,-483.5"/>
</g>
<!-- route6&#45;&gt;ScalarCoordinateVariable -->
<g id="edge16" class="edge">
<title>route6&#45;&gt;ScalarCoordinateVariable</title>
<path fill="none" stroke="black" d="M464.5,-482.39C464.5,-465.44 464.5,-104 464.5,-104 464.5,-104 436.37,-104 436.37,-104"/>
<polygon fill="black" stroke="black" points="426.37,-104 436.37,-99.5 431.37,-104 436.37,-104 436.37,-104 436.37,-104 431.37,-104 436.37,-108.5 426.37,-104 426.37,-104"/>
</g>
<!-- EitherOr -->
<g id="node18" class="node">
<title>EitherOr</title>
<polygon fill="#c3ffc2" stroke="transparent" stroke-width="2" points="275,-305.5 274,-305.5 274,-304.5 275,-304.5 275,-305.5"/>
</g>
<!-- EitherOr&#45;&gt;GenericCoordinateVariable -->
</g>
</svg>
