<svg width="4148" height="1106" xmlns="http://www.w3.org/2000/svg" xmlns:xlink="http://www.w3.org/1999/xlink" overflow="hidden"><defs><clipPath id="clip0"><rect x="117" y="746" width="4148" height="1106"/></clipPath></defs><g clip-path="url(#clip0)" transform="translate(-117 -746)"><path d="M264 1497 3257.36 1497" stroke="#A6A6A6" stroke-width="2.29167" stroke-miterlimit="8" fill="none" fill-rule="evenodd"/><rect x="133" y="1136" width="1362" height="106" fill="#DAE3F3"/><path d="M208.154 1189.55C208.154 1201.73 198.551 1211.56 186.653 1211.56 174.756 1211.56 165.153 1201.73 165.153 1189.55 165.153 1177.38 174.756 1167.55 186.653 1167.55 198.551 1167.55 208.154 1177.38 208.154 1189.55Z" fill-rule="evenodd"/><path d="M350.088 1189.55C350.088 1201.68 340.261 1211.56 328.086 1211.56 315.914 1211.56 306.086 1201.68 306.086 1189.55 306.086 1177.38 315.914 1167.55 328.086 1167.55 340.261 1167.55 350.088 1177.38 350.088 1189.55Z" fill="#AFABAB" fill-rule="evenodd"/><path d="M490.154 1189.55C490.154 1201.68 480.55 1211.56 468.653 1211.56 456.805 1211.56 447.153 1201.68 447.153 1189.55 447.153 1177.38 456.805 1167.55 468.653 1167.55 480.55 1167.55 490.154 1177.38 490.154 1189.55Z" fill="#AFABAB" fill-rule="evenodd"/><path d="M631.154 1189.55C631.154 1201.68 621.55 1211.56 609.652 1211.56 597.805 1211.56 588.152 1201.68 588.152 1189.55 588.152 1177.38 597.805 1167.55 609.652 1167.55 621.55 1167.55 631.154 1177.38 631.154 1189.55Z" fill="#AFABAB" fill-rule="evenodd"/><path d="M772.088 1189.55C772.088 1201.68 762.261 1211.56 750.087 1211.56 737.963 1211.56 728.087 1201.68 728.087 1189.55 728.087 1177.38 737.963 1167.55 750.087 1167.55 762.261 1167.55 772.088 1177.38 772.088 1189.55Z" fill="#AFABAB" fill-rule="evenodd"/><path d="M913.088 1189.55C913.088 1201.68 903.261 1211.56 891.086 1211.56 878.963 1211.56 869.086 1201.68 869.086 1189.55 869.086 1177.38 878.963 1167.55 891.086 1167.55 903.261 1167.55 913.088 1177.38 913.088 1189.55Z" fill="#AFABAB" fill-rule="evenodd"/><path d="M1053.15 1189.55C1053.15 1201.68 1043.55 1211.56 1031.65 1211.56 1019.8 1211.56 1010.15 1201.68 1010.15 1189.55 1010.15 1177.38 1019.8 1167.55 1031.65 1167.55 1043.55 1167.55 1053.15 1177.38 1053.15 1189.55Z" fill="#AFABAB" fill-rule="evenodd"/><path d="M1194.15 1189.55C1194.15 1201.68 1184.55 1211.56 1172.65 1211.56 1160.8 1211.56 1151.15 1201.68 1151.15 1189.55 1151.15 1177.38 1160.8 1167.55 1172.65 1167.55 1184.55 1167.55 1194.15 1177.38 1194.15 1189.55Z" fill="#AFABAB" fill-rule="evenodd"/><path d="M1335.09 1189.55C1335.09 1201.68 1325.26 1211.56 1313.09 1211.56 1300.96 1211.56 1291.09 1201.68 1291.09 1189.55 1291.09 1177.38 1300.96 1167.55 1313.09 1167.55 1325.26 1167.55 1335.09 1177.38 1335.09 1189.55Z" fill="#AFABAB" fill-rule="evenodd"/><path d="M1476.09 1189.55C1476.09 1201.68 1466.26 1211.56 1454.09 1211.56 1441.91 1211.56 1432.09 1201.68 1432.09 1189.55 1432.09 1177.38 1441.91 1167.55 1454.09 1167.55 1466.26 1167.55 1476.09 1177.38 1476.09 1189.55Z" fill-rule="evenodd"/><path d="M264 1022 3257.36 1022" stroke="#A6A6A6" stroke-width="2.29167" stroke-miterlimit="8" fill="none" fill-rule="evenodd"/><path d="M237 917 3257.73 917" stroke="#A6A6A6" stroke-width="2.29167" stroke-miterlimit="8" fill="none" fill-rule="evenodd"/><path d="M318 813 3256.94 813" stroke="#A6A6A6" stroke-width="2.29167" stroke-miterlimit="8" fill="none" fill-rule="evenodd"/><path d="M746 969 746 1452.02" stroke="#4472C4" stroke-width="2.29167" stroke-miterlimit="8" fill="none" fill-rule="evenodd"/><rect x="1901" y="1136" width="1234" height="106" fill="#DAE3F3"/><path d="M1848.15 1189.55C1848.15 1201.73 1838.55 1211.56 1826.65 1211.56 1814.76 1211.56 1805.15 1201.73 1805.15 1189.55 1805.15 1177.38 1814.76 1167.55 1826.65 1167.55 1838.55 1167.55 1848.15 1177.38 1848.15 1189.55Z" fill-rule="evenodd"/><path d="M1989.15 1189.55C1989.15 1201.68 1979.55 1211.56 1967.65 1211.56 1955.76 1211.56 1946.15 1201.68 1946.15 1189.55 1946.15 1177.38 1955.76 1167.55 1967.65 1167.55 1979.55 1167.55 1989.15 1177.38 1989.15 1189.55Z" fill="#AFABAB" fill-rule="evenodd"/><path d="M2130.15 1189.55C2130.15 1201.68 2120.55 1211.56 2108.65 1211.56 2096.8 1211.56 2087.15 1201.68 2087.15 1189.55 2087.15 1177.38 2096.8 1167.55 2108.65 1167.55 2120.55 1167.55 2130.15 1177.38 2130.15 1189.55Z" fill="#AFABAB" fill-rule="evenodd"/><path d="M2271.09 1189.55C2271.09 1201.68 2261.26 1211.56 2249.09 1211.56 2236.96 1211.56 2227.09 1201.68 2227.09 1189.55 2227.09 1177.38 2236.96 1167.55 2249.09 1167.55 2261.26 1167.55 2271.09 1177.38 2271.09 1189.55Z" fill="#AFABAB" fill-rule="evenodd"/><path d="M2412.09 1189.55C2412.09 1201.68 2402.26 1211.56 2390.09 1211.56 2377.96 1211.56 2368.09 1201.68 2368.09 1189.55 2368.09 1177.38 2377.96 1167.55 2390.09 1167.55 2402.26 1167.55 2412.09 1177.38 2412.09 1189.55Z" fill="#AFABAB" fill-rule="evenodd"/><path d="M2552.15 1189.55C2552.15 1201.68 2542.55 1211.56 2530.65 1211.56 2518.8 1211.56 2509.15 1201.68 2509.15 1189.55 2509.15 1177.38 2518.8 1167.55 2530.65 1167.55 2542.55 1167.55 2552.15 1177.38 2552.15 1189.55Z" fill="#AFABAB" fill-rule="evenodd"/><path d="M2693.15 1189.55C2693.15 1201.68 2683.55 1211.56 2671.65 1211.56 2659.8 1211.56 2650.15 1201.68 2650.15 1189.55 2650.15 1177.38 2659.8 1167.55 2671.65 1167.55 2683.55 1167.55 2693.15 1177.38 2693.15 1189.55Z" fill="#AFABAB" fill-rule="evenodd"/><path d="M2834.09 1189.55C2834.09 1201.68 2824.26 1211.56 2812.09 1211.56 2799.96 1211.56 2790.09 1201.68 2790.09 1189.55 2790.09 1177.38 2799.96 1167.55 2812.09 1167.55 2824.26 1167.55 2834.09 1177.38 2834.09 1189.55Z" fill="#AFABAB" fill-rule="evenodd"/><path d="M2975.09 1189.55C2975.09 1201.68 2965.26 1211.56 2953.09 1211.56 2940.96 1211.56 2931.09 1201.68 2931.09 1189.55 2931.09 1177.38 2940.96 1167.55 2953.09 1167.55 2965.26 1167.55 2975.09 1177.38 2975.09 1189.55Z" fill="#AFABAB" fill-rule="evenodd"/><path d="M3116.09 1189.55C3116.09 1201.68 3106.26 1211.56 3094.09 1211.56 3081.91 1211.56 3072.09 1201.68 3072.09 1189.55 3072.09 1177.38 3081.91 1167.55 3094.09 1167.55 3106.26 1167.55 3116.09 1177.38 3116.09 1189.55Z" fill-rule="evenodd"/><path d="M2386 969 2386 1452.02" stroke="#4472C4" stroke-width="2.29167" stroke-miterlimit="8" fill="none" fill-rule="evenodd"/><rect x="161" y="1321" width="100" height="104" fill="#FFFFFF"/><text fill="#2F5597" font-family="Calibri,Calibri_MSFontService,sans-serif" font-weight="400" font-size="73" transform="matrix(1 0 0 1 161.309 1398)">A</text><rect x="1402" y="1321" width="79.9998" height="104" fill="#FFFFFF"/><text fill="#2F5597" font-family="Calibri,Calibri_MSFontService,sans-serif" font-weight="400" font-size="73" transform="matrix(1 0 0 1 1441.7 1398)">B</text><rect x="1801" y="1321" width="100" height="104" fill="#FFFFFF"/><text fill="#2F5597" font-family="Calibri,Calibri_MSFontService,sans-serif" font-weight="400" font-size="73" transform="matrix(1 0 0 1 1801.14 1398)">A</text><rect x="3042" y="1321" width="80" height="104" fill="#FFFFFF"/><text fill="#2F5597" font-family="Calibri,Calibri_MSFontService,sans-serif" font-weight="400" font-size="73" transform="matrix(1 0 0 1 3081.53 1398)">B</text><rect x="161" y="1446" width="157" height="104" fill="#FFFFFF"/><text fill="#2F5597" font-family="Calibri,Calibri_MSFontService,sans-serif" font-weight="400" font-size="73" transform="matrix(1 0 0 1 161.309 1523)">0.0…</text><rect x="1311" y="1446" width="191" height="104" fill="#FFFFFF"/><text fill="#2F5597" font-family="Calibri,Calibri_MSFontService,sans-serif" font-weight="400" font-size="73" transform="matrix(1 0 0 1 1332.29 1523)">…1.0</text><rect x="681" y="1452" width="130" height="91.0001" fill="#FFFFFF"/><text fill="#2F5597" font-family="Calibri,Calibri_MSFontService,sans-serif" font-weight="400" font-size="73" transform="matrix(1 0 0 1 731.834 1523)">s</text><rect x="1773" y="1446" width="190" height="104" fill="#FFFFFF"/><text fill="#2F5597" font-family="Calibri,Calibri_MSFontService,sans-serif" font-weight="400" font-size="73" transform="matrix(1 0 0 1 1799.12 1523)">0.0…</text><rect x="2960" y="1446" width="162" height="104" fill="#FFFFFF"/><text fill="#2F5597" font-family="Calibri,Calibri_MSFontService,sans-serif" font-weight="400" font-size="73" transform="matrix(1 0 0 1 2978.23 1523)">…1.0</text><rect x="2321" y="1452" width="130" height="91.0001" fill="#FFFFFF"/><text fill="#2F5597" font-family="Calibri,Calibri_MSFontService,sans-serif" font-weight="400" font-size="73" transform="matrix(1 0 0 1 2371.66 1523)">s</text><rect x="1402" y="865" width="79.9998" height="104" fill="#FFFFFF"/><text fill="#2F5597" font-family="Calibri,Calibri_MSFontService,sans-serif" font-weight="400" font-size="73" transform="matrix(1 0 0 1 1426.23 942)">ib</text><rect x="161" y="865" width="76" height="104" fill="#FFFFFF"/><text fill="#2F5597" font-family="Calibri,Calibri_MSFontService,sans-serif" font-weight="400" font-size="73" transform="matrix(1 0 0 1 161.309 942)">ia</text><rect x="681" y="865" width="130" height="104" fill="#FFFFFF"/><text fill="#2F5597" font-family="Calibri,Calibri_MSFontService,sans-serif" font-weight="400" font-size="73" transform="matrix(1 0 0 1 737.85 942)">i</text><rect x="3042" y="865" width="80" height="104" fill="#FFFFFF"/><text fill="#2F5597" font-family="Calibri,Calibri_MSFontService,sans-serif" font-weight="400" font-size="73" transform="matrix(1 0 0 1 3066.06 942)">ib</text><rect x="1801" y="865" width="74.9999" height="104" fill="#FFFFFF"/><text fill="#2F5597" font-family="Calibri,Calibri_MSFontService,sans-serif" font-weight="400" font-size="73" transform="matrix(1 0 0 1 1801.14 942)">ia</text><rect x="2321" y="865" width="130" height="104" fill="#FFFFFF"/><text fill="#2F5597" font-family="Calibri,Calibri_MSFontService,sans-serif" font-weight="400" font-size="73" transform="matrix(1 0 0 1 2377.68 942)">i<tspan font-size="73" x="905.672" y="0">Interpolated Dimension</tspan></text><rect x="161" y="970" width="103" height="104" fill="#FFFFFF"/><text fill="#2F5597" font-family="Calibri,Calibri_MSFontService,sans-serif" font-weight="400" font-size="73" transform="matrix(1 0 0 1 161.309 1047)">ua</text><rect x="1363" y="970" width="119" height="104" fill="#FFFFFF"/><text fill="#2F5597" font-family="Calibri,Calibri_MSFontService,sans-serif" font-weight="400" font-size="73" transform="matrix(1 0 0 1 1404.95 1047)">ub</text><rect x="681" y="976" width="130" height="91.0001" fill="#FFFFFF"/><text fill="#2F5597" font-family="Calibri,Calibri_MSFontService,sans-serif" font-weight="400" font-size="73" transform="matrix(1 0 0 1 726.964 1047)">u</text><rect x="1801" y="970" width="103" height="104" fill="#FFFFFF"/><text fill="#2F5597" font-family="Calibri,Calibri_MSFontService,sans-serif" font-weight="400" font-size="73" transform="matrix(1 0 0 1 1801.14 1047)">ua</text><rect x="3002" y="970" width="120" height="104" fill="#FFFFFF"/><text fill="#2F5597" font-family="Calibri,Calibri_MSFontService,sans-serif" font-weight="400" font-size="73" transform="matrix(1 0 0 1 3044.78 1047)">ub</text><rect x="2321" y="976" width="130" height="91.0001" fill="#FFFFFF"/><text fill="#2F5597" font-family="Calibri,Calibri_MSFontService,sans-serif" font-weight="400" font-size="73" transform="matrix(1 0 0 1 2366.79 1047)">u<tspan font-size="73" x="916.557" y="0">Coordinate value</tspan></text><rect x="1237" y="761" width="245" height="104" fill="#FFFFFF"/><text fill="#2F5597" font-family="Calibri,Calibri_MSFontService,sans-serif" font-weight="400" font-size="73" transform="matrix(1 0 0 1 1290.64 838)">tpi1+1</text><rect x="161" y="761" width="157" height="104" fill="#FFFFFF"/><text fill="#2F5597" font-family="Calibri,Calibri_MSFontService,sans-serif" font-weight="400" font-size="73" transform="matrix(1 0 0 1 161.309 838)">tpi1</text><rect x="2877" y="761" width="245" height="104" fill="#FFFFFF"/><text fill="#2F5597" font-family="Calibri,Calibri_MSFontService,sans-serif" font-weight="400" font-size="73" transform="matrix(1 0 0 1 2930.46 838)">tpi1+1</text><rect x="1801" y="761" width="157" height="104" fill="#FFFFFF"/><text fill="#2F5597" font-family="Calibri,Calibri_MSFontService,sans-serif" font-weight="400" font-size="73" transform="matrix(1 0 0 1 1801.14 838)">tpi1<tspan font-size="73" x="1482.21" y="0">Subsampled Dimension</tspan><tspan fill="#FFFFFF" font-size="110" x="-1045.64" y="379">(0)</tspan><tspan fill="#FFFFFF" font-size="110" x="596.983" y="381">(</tspan><tspan fill="#FFFFFF" font-size="110" x="630.212" y="381">1</tspan><tspan fill="#FFFFFF" font-size="110" x="685.785" y="381">)</tspan><tspan font-size="73" x="-1347.21" y="855">Interpolation Subarea (0) </tspan><tspan font-size="73" x="-1267.79" y="943">including Tie Pont A </tspan><tspan font-size="73" x="297.862" y="855">Interpolation Subarea (1) </tspan><tspan font-size="73" x="372.089" y="943">excluding Tie Pont A </tspan><tspan font-size="73" x="1482.21" y="684">Interpolation argument</tspan></text></g></svg>