<svg width="4041" height="1959" xmlns="http://www.w3.org/2000/svg" xmlns:xlink="http://www.w3.org/1999/xlink" overflow="hidden"><defs><clipPath id="clip0"><rect x="147" y="127" width="4041" height="1959"/></clipPath></defs><g clip-path="url(#clip0)" transform="translate(-147 -127)"><path d="M0 0 1274.21 0.000360892" stroke="#A6A6A6" stroke-width="2.29167" stroke-miterlimit="8" fill="none" fill-rule="evenodd" transform="matrix(1 0 0 -1 1644 543)"/><rect x="2640" y="521" width="58" height="49.9998" fill="#FFFFFF"/><path d="M1627 423 2863.51 423.001" stroke="#A6A6A6" stroke-width="2.29167" stroke-miterlimit="8" fill="none" fill-rule="evenodd"/><path d="M1628 245 2940.58 245" stroke="#A6A6A6" stroke-width="2.29167" stroke-miterlimit="8" fill="none" fill-rule="evenodd"/><rect x="1485" y="647" width="1234" height="1201" fill="#DAE3F3"/><path d="M0 0 1094.18 1.64242" stroke="#A9D18E" stroke-width="2.29167" stroke-miterlimit="8" fill="none" fill-rule="evenodd" transform="matrix(1 0 0 -1 1550 695.642)"/><path d="M0 0 1400.92 0.000360892" stroke="#FFFFFF" stroke-width="10.3125" stroke-miterlimit="8" fill="none" fill-rule="evenodd" transform="matrix(1 0 0 -1 1438 1274)"/><path d="M1473 2060 2751.9 2060" stroke="#FFFFFF" stroke-width="10.3125" stroke-miterlimit="8" fill="none" fill-rule="evenodd"/><path d="M2212 714 2212 1784.73" stroke="#A9D18E" stroke-width="2.29167" stroke-miterlimit="8" fill="none" fill-rule="evenodd"/><path d="M0 0 0.000360892 1452" stroke="#FFFFFF" stroke-width="10.3125" stroke-miterlimit="8" fill="none" fill-rule="evenodd" transform="matrix(1 0 0 -1 2122 2032)"/><path d="M2661 711 2661 1781.73" stroke="#A9D18E" stroke-width="2.29167" stroke-miterlimit="8" fill="none" fill-rule="evenodd"/><path d="M1606.82 751.665C1606.82 760.796 1599.45 768.166 1590.31 768.166 1581.19 768.166 1573.81 760.796 1573.81 751.665 1573.81 742.535 1581.19 735.165 1590.31 735.165 1599.45 735.165 1606.82 742.535 1606.82 751.665Z" fill-rule="evenodd"/><path d="M1718.82 751.665C1718.82 760.759 1711.45 768.166 1702.31 768.166 1693.19 768.166 1685.81 760.759 1685.81 751.665 1685.81 742.535 1693.19 735.165 1702.31 735.165 1711.45 735.165 1718.82 742.535 1718.82 751.665Z" fill="#AFABAB" fill-rule="evenodd"/><path d="M1830.75 751.665C1830.75 760.759 1823.16 768.166 1813.75 768.166 1804.38 768.166 1796.75 760.759 1796.75 751.665 1796.75 742.535 1804.38 735.165 1813.75 735.165 1823.16 735.165 1830.75 742.535 1830.75 751.665Z" fill="#AFABAB" fill-rule="evenodd"/><path d="M1941.82 751.665C1941.82 760.759 1934.45 768.166 1925.31 768.166 1916.22 768.166 1908.81 760.759 1908.81 751.665 1908.81 742.535 1916.22 735.165 1925.31 735.165 1934.45 735.165 1941.82 742.535 1941.82 751.665Z" fill="#AFABAB" fill-rule="evenodd"/><path d="M2053.82 751.665C2053.82 760.759 2046.45 768.166 2037.31 768.166 2028.22 768.166 2020.81 760.759 2020.81 751.665 2020.81 742.535 2028.22 735.165 2037.31 735.165 2046.45 735.165 2053.82 742.535 2053.82 751.665Z" fill-rule="evenodd"/><path d="M1549.82 696.221C1549.82 705.075 1542.45 712.222 1533.31 712.222 1524.19 712.222 1516.81 705.075 1516.81 696.221 1516.81 687.368 1524.19 680.221 1533.31 680.221 1542.45 680.221 1549.82 687.368 1549.82 696.221Z" fill="#548235" fill-rule="evenodd"/><path d="M1661.82 696.221C1661.82 705.039 1654.45 712.222 1645.31 712.222 1636.19 712.222 1628.81 705.039 1628.81 696.221 1628.81 687.368 1636.19 680.221 1645.31 680.221 1654.45 680.221 1661.82 687.368 1661.82 696.221Z" fill="#A9D18E" fill-rule="evenodd"/><path d="M1774.75 696.221C1774.75 705.039 1767.16 712.222 1757.75 712.222 1748.38 712.222 1740.75 705.039 1740.75 696.221 1740.75 687.368 1748.38 680.221 1757.75 680.221 1767.16 680.221 1774.75 687.368 1774.75 696.221Z" fill="#A9D18E" fill-rule="evenodd"/><path d="M1886.82 696.221C1886.82 705.039 1879.45 712.222 1870.31 712.222 1861.22 712.222 1853.81 705.039 1853.81 696.221 1853.81 687.368 1861.22 680.221 1870.31 680.221 1879.45 680.221 1886.82 687.368 1886.82 696.221Z" fill="#A9D18E" fill-rule="evenodd"/><path d="M1998.82 696.221C1998.82 705.039 1991.45 712.222 1982.31 712.222 1973.22 712.222 1965.81 705.039 1965.81 696.221 1965.81 687.368 1973.22 680.221 1982.31 680.221 1991.45 680.221 1998.82 687.368 1998.82 696.221Z" fill="#A9D18E" fill-rule="evenodd"/><path d="M2110.82 696.221C2110.82 705.039 2103.45 712.222 2094.31 712.222 2085.22 712.222 2077.81 705.039 2077.81 696.221 2077.81 687.368 2085.22 680.221 2094.31 680.221 2103.45 680.221 2110.82 687.368 2110.82 696.221Z" fill="#548235" fill-rule="evenodd"/><path d="M1549.82 806.665C1549.82 815.796 1542.45 823.166 1533.31 823.166 1524.19 823.166 1516.81 815.796 1516.81 806.665 1516.81 797.535 1524.19 790.165 1533.31 790.165 1542.45 790.165 1549.82 797.535 1549.82 806.665Z" fill="#A9D18E" fill-rule="evenodd"/><path d="M1661.82 806.665C1661.82 815.759 1654.45 823.166 1645.31 823.166 1636.19 823.166 1628.81 815.759 1628.81 806.665 1628.81 797.535 1636.19 790.165 1645.31 790.165 1654.45 790.165 1661.82 797.535 1661.82 806.665Z" fill="#A9D18E" fill-rule="evenodd"/><path d="M1774.75 806.665C1774.75 815.759 1767.16 823.166 1757.75 823.166 1748.38 823.166 1740.75 815.759 1740.75 806.665 1740.75 797.535 1748.38 790.165 1757.75 790.165 1767.16 790.165 1774.75 797.535 1774.75 806.665Z" fill="#A9D18E" fill-rule="evenodd"/><path d="M1886.82 806.665C1886.82 815.759 1879.45 823.166 1870.31 823.166 1861.22 823.166 1853.81 815.759 1853.81 806.665 1853.81 797.535 1861.22 790.165 1870.31 790.165 1879.45 790.165 1886.82 797.535 1886.82 806.665Z" fill="#A9D18E" fill-rule="evenodd"/><path d="M1998.82 806.665C1998.82 815.759 1991.45 823.166 1982.31 823.166 1973.22 823.166 1965.81 815.759 1965.81 806.665 1965.81 797.535 1973.22 790.165 1982.31 790.165 1991.45 790.165 1998.82 797.535 1998.82 806.665Z" fill="#A9D18E" fill-rule="evenodd"/><path d="M2110.82 806.665C2110.82 815.759 2103.45 823.166 2094.31 823.166 2085.22 823.166 2077.81 815.759 2077.81 806.665 2077.81 797.535 2085.22 790.165 2094.31 790.165 2103.45 790.165 2110.82 797.535 2110.82 806.665Z" fill="#A9D18E" fill-rule="evenodd"/><path d="M1606.82 861.665C1606.82 870.796 1599.45 878.166 1590.31 878.166 1581.19 878.166 1573.81 870.796 1573.81 861.665 1573.81 852.535 1581.19 845.165 1590.31 845.165 1599.45 845.165 1606.82 852.535 1606.82 861.665Z" fill="#A6A6A6" fill-rule="evenodd"/><path d="M1718.82 861.665C1718.82 870.759 1711.45 878.166 1702.31 878.166 1693.19 878.166 1685.81 870.759 1685.81 861.665 1685.81 852.535 1693.19 845.165 1702.31 845.165 1711.45 845.165 1718.82 852.535 1718.82 861.665Z" fill="#AFABAB" fill-rule="evenodd"/><path d="M1830.75 861.665C1830.75 870.759 1823.16 878.166 1813.75 878.166 1804.38 878.166 1796.75 870.759 1796.75 861.665 1796.75 852.535 1804.38 845.165 1813.75 845.165 1823.16 845.165 1830.75 852.535 1830.75 861.665Z" fill="#AFABAB" fill-rule="evenodd"/><path d="M1941.82 861.665C1941.82 870.759 1934.45 878.166 1925.31 878.166 1916.22 878.166 1908.81 870.759 1908.81 861.665 1908.81 852.535 1916.22 845.165 1925.31 845.165 1934.45 845.165 1941.82 852.535 1941.82 861.665Z" fill="#AFABAB" fill-rule="evenodd"/><path d="M2053.82 861.665C2053.82 870.759 2046.45 878.166 2037.31 878.166 2028.22 878.166 2020.81 870.759 2020.81 861.665 2020.81 852.535 2028.22 845.165 2037.31 845.165 2046.45 845.165 2053.82 852.535 2053.82 861.665Z" fill="#A6A6A6" fill-rule="evenodd"/><path d="M1549.82 916.665C1549.82 925.796 1542.45 933.166 1533.31 933.166 1524.19 933.166 1516.81 925.796 1516.81 916.665 1516.81 907.535 1524.19 900.165 1533.31 900.165 1542.45 900.165 1549.82 907.535 1549.82 916.665Z" fill="#A9D18E" fill-rule="evenodd"/><path d="M1661.82 916.665C1661.82 925.759 1654.45 933.166 1645.31 933.166 1636.19 933.166 1628.81 925.759 1628.81 916.665 1628.81 907.535 1636.19 900.165 1645.31 900.165 1654.45 900.165 1661.82 907.535 1661.82 916.665Z" fill="#A9D18E" fill-rule="evenodd"/><path d="M1774.75 916.665C1774.75 925.759 1767.16 933.166 1757.75 933.166 1748.38 933.166 1740.75 925.759 1740.75 916.665 1740.75 907.535 1748.38 900.165 1757.75 900.165 1767.16 900.165 1774.75 907.535 1774.75 916.665Z" fill="#A9D18E" fill-rule="evenodd"/><path d="M1886.82 916.665C1886.82 925.759 1879.45 933.166 1870.31 933.166 1861.22 933.166 1853.81 925.759 1853.81 916.665 1853.81 907.535 1861.22 900.165 1870.31 900.165 1879.45 900.165 1886.82 907.535 1886.82 916.665Z" fill="#A9D18E" fill-rule="evenodd"/><path d="M1998.82 916.665C1998.82 925.759 1991.45 933.166 1982.31 933.166 1973.22 933.166 1965.81 925.759 1965.81 916.665 1965.81 907.535 1973.22 900.165 1982.31 900.165 1991.45 900.165 1998.82 907.535 1998.82 916.665Z" fill="#A9D18E" fill-rule="evenodd"/><path d="M2110.82 916.665C2110.82 925.759 2103.45 933.166 2094.31 933.166 2085.22 933.166 2077.81 925.759 2077.81 916.665 2077.81 907.535 2085.22 900.165 2094.31 900.165 2103.45 900.165 2110.82 907.535 2110.82 916.665Z" fill="#A9D18E" fill-rule="evenodd"/><path d="M1606.82 971.665C1606.82 980.796 1599.45 988.166 1590.31 988.166 1581.19 988.166 1573.81 980.796 1573.81 971.665 1573.81 962.535 1581.19 955.165 1590.31 955.165 1599.45 955.165 1606.82 962.535 1606.82 971.665Z" fill="#A6A6A6" fill-rule="evenodd"/><path d="M1718.82 971.665C1718.82 980.759 1711.45 988.166 1702.31 988.166 1693.19 988.166 1685.81 980.759 1685.81 971.665 1685.81 962.535 1693.19 955.165 1702.31 955.165 1711.45 955.165 1718.82 962.535 1718.82 971.665Z" fill="#AFABAB" fill-rule="evenodd"/><path d="M1830.75 971.665C1830.75 980.759 1823.16 988.166 1813.75 988.166 1804.38 988.166 1796.75 980.759 1796.75 971.665 1796.75 962.535 1804.38 955.165 1813.75 955.165 1823.16 955.165 1830.75 962.535 1830.75 971.665Z" fill="#AFABAB" fill-rule="evenodd"/><path d="M1941.82 971.665C1941.82 980.759 1934.45 988.166 1925.31 988.166 1916.22 988.166 1908.81 980.759 1908.81 971.665 1908.81 962.535 1916.22 955.165 1925.31 955.165 1934.45 955.165 1941.82 962.535 1941.82 971.665Z" fill="#AFABAB" fill-rule="evenodd"/><path d="M2053.82 971.665C2053.82 980.759 2046.45 988.166 2037.31 988.166 2028.22 988.166 2020.81 980.759 2020.81 971.665 2020.81 962.535 2028.22 955.165 2037.31 955.165 2046.45 955.165 2053.82 962.535 2053.82 971.665Z" fill="#A6A6A6" fill-rule="evenodd"/><path d="M1549.82 1027.22C1549.82 1036.07 1542.45 1043.22 1533.31 1043.22 1524.19 1043.22 1516.81 1036.07 1516.81 1027.22 1516.81 1018.37 1524.19 1011.22 1533.31 1011.22 1542.45 1011.22 1549.82 1018.37 1549.82 1027.22Z" fill="#A9D18E" fill-rule="evenodd"/><path d="M1661.82 1027.22C1661.82 1036.04 1654.45 1043.22 1645.31 1043.22 1636.19 1043.22 1628.81 1036.04 1628.81 1027.22 1628.81 1018.37 1636.19 1011.22 1645.31 1011.22 1654.45 1011.22 1661.82 1018.37 1661.82 1027.22Z" fill="#A9D18E" fill-rule="evenodd"/><path d="M1774.75 1027.22C1774.75 1036.04 1767.16 1043.22 1757.75 1043.22 1748.38 1043.22 1740.75 1036.04 1740.75 1027.22 1740.75 1018.37 1748.38 1011.22 1757.75 1011.22 1767.16 1011.22 1774.75 1018.37 1774.75 1027.22Z" fill="#A9D18E" fill-rule="evenodd"/><path d="M1886.82 1027.22C1886.82 1036.04 1879.45 1043.22 1870.31 1043.22 1861.22 1043.22 1853.81 1036.04 1853.81 1027.22 1853.81 1018.37 1861.22 1011.22 1870.31 1011.22 1879.45 1011.22 1886.82 1018.37 1886.82 1027.22Z" fill="#A9D18E" fill-rule="evenodd"/><path d="M1998.82 1027.22C1998.82 1036.04 1991.45 1043.22 1982.31 1043.22 1973.22 1043.22 1965.81 1036.04 1965.81 1027.22 1965.81 1018.37 1973.22 1011.22 1982.31 1011.22 1991.45 1011.22 1998.82 1018.37 1998.82 1027.22Z" fill="#A9D18E" fill-rule="evenodd"/><path d="M2110.82 1027.22C2110.82 1036.04 2103.45 1043.22 2094.31 1043.22 2085.22 1043.22 2077.81 1036.04 2077.81 1027.22 2077.81 1018.37 2085.22 1011.22 2094.31 1011.22 2103.45 1011.22 2110.82 1018.37 2110.82 1027.22Z" fill="#A9D18E" fill-rule="evenodd"/><path d="M1606.82 1082.67C1606.82 1091.8 1599.45 1099.17 1590.31 1099.17 1581.19 1099.17 1573.81 1091.8 1573.81 1082.67 1573.81 1073.54 1581.19 1066.17 1590.31 1066.17 1599.45 1066.17 1606.82 1073.54 1606.82 1082.67Z" fill="#A6A6A6" fill-rule="evenodd"/><path d="M1718.82 1082.67C1718.82 1091.76 1711.45 1099.17 1702.31 1099.17 1693.19 1099.17 1685.81 1091.76 1685.81 1082.67 1685.81 1073.54 1693.19 1066.17 1702.31 1066.17 1711.45 1066.17 1718.82 1073.54 1718.82 1082.67Z" fill="#AFABAB" fill-rule="evenodd"/><path d="M1830.75 1082.67C1830.75 1091.76 1823.16 1099.17 1813.75 1099.17 1804.38 1099.17 1796.75 1091.76 1796.75 1082.67 1796.75 1073.54 1804.38 1066.17 1813.75 1066.17 1823.16 1066.17 1830.75 1073.54 1830.75 1082.67Z" fill="#AFABAB" fill-rule="evenodd"/><path d="M1941.82 1082.67C1941.82 1091.76 1934.45 1099.17 1925.31 1099.17 1916.22 1099.17 1908.81 1091.76 1908.81 1082.67 1908.81 1073.54 1916.22 1066.17 1925.31 1066.17 1934.45 1066.17 1941.82 1073.54 1941.82 1082.67Z" fill="#AFABAB" fill-rule="evenodd"/><path d="M2053.82 1082.67C2053.82 1091.76 2046.45 1099.17 2037.31 1099.17 2028.22 1099.17 2020.81 1091.76 2020.81 1082.67 2020.81 1073.54 2028.22 1066.17 2037.31 1066.17 2046.45 1066.17 2053.82 1073.54 2053.82 1082.67Z" fill="#A6A6A6" fill-rule="evenodd"/><path d="M1549.82 1137.67C1549.82 1146.8 1542.45 1154.17 1533.31 1154.17 1524.19 1154.17 1516.81 1146.8 1516.81 1137.67 1516.81 1128.54 1524.19 1121.17 1533.31 1121.17 1542.45 1121.17 1549.82 1128.54 1549.82 1137.67Z" fill="#A9D18E" fill-rule="evenodd"/><path d="M1661.82 1137.67C1661.82 1146.76 1654.45 1154.17 1645.31 1154.17 1636.19 1154.17 1628.81 1146.76 1628.81 1137.67 1628.81 1128.54 1636.19 1121.17 1645.31 1121.17 1654.45 1121.17 1661.82 1128.54 1661.82 1137.67Z" fill="#A9D18E" fill-rule="evenodd"/><path d="M1774.75 1137.67C1774.75 1146.76 1767.16 1154.17 1757.75 1154.17 1748.38 1154.17 1740.75 1146.76 1740.75 1137.67 1740.75 1128.54 1748.38 1121.17 1757.75 1121.17 1767.16 1121.17 1774.75 1128.54 1774.75 1137.67Z" fill="#A9D18E" fill-rule="evenodd"/><path d="M1886.82 1137.67C1886.82 1146.76 1879.45 1154.17 1870.31 1154.17 1861.22 1154.17 1853.81 1146.76 1853.81 1137.67 1853.81 1128.54 1861.22 1121.17 1870.31 1121.17 1879.45 1121.17 1886.82 1128.54 1886.82 1137.67Z" fill="#A9D18E" fill-rule="evenodd"/><path d="M1998.82 1137.67C1998.82 1146.76 1991.45 1154.17 1982.31 1154.17 1973.22 1154.17 1965.81 1146.76 1965.81 1137.67 1965.81 1128.54 1973.22 1121.17 1982.31 1121.17 1991.45 1121.17 1998.82 1128.54 1998.82 1137.67Z" fill="#A9D18E" fill-rule="evenodd"/><path d="M2110.82 1137.67C2110.82 1146.76 2103.45 1154.17 2094.31 1154.17 2085.22 1154.17 2077.81 1146.76 2077.81 1137.67 2077.81 1128.54 2085.22 1121.17 2094.31 1121.17 2103.45 1121.17 2110.82 1128.54 2110.82 1137.67Z" fill="#A9D18E" fill-rule="evenodd"/><path d="M1606.82 1192.67C1606.82 1201.8 1599.45 1209.17 1590.31 1209.17 1581.19 1209.17 1573.81 1201.8 1573.81 1192.67 1573.81 1183.54 1581.19 1176.17 1590.31 1176.17 1599.45 1176.17 1606.82 1183.54 1606.82 1192.67Z" fill-rule="evenodd"/><path d="M1718.82 1192.67C1718.82 1201.76 1711.45 1209.17 1702.31 1209.17 1693.19 1209.17 1685.81 1201.76 1685.81 1192.67 1685.81 1183.54 1693.19 1176.17 1702.31 1176.17 1711.45 1176.17 1718.82 1183.54 1718.82 1192.67Z" fill="#AFABAB" fill-rule="evenodd"/><path d="M1830.75 1192.67C1830.75 1201.76 1823.16 1209.17 1813.75 1209.17 1804.38 1209.17 1796.75 1201.76 1796.75 1192.67 1796.75 1183.54 1804.38 1176.17 1813.75 1176.17 1823.16 1176.17 1830.75 1183.54 1830.75 1192.67Z" fill="#AFABAB" fill-rule="evenodd"/><path d="M1941.82 1192.67C1941.82 1201.76 1934.45 1209.17 1925.31 1209.17 1916.22 1209.17 1908.81 1201.76 1908.81 1192.67 1908.81 1183.54 1916.22 1176.17 1925.31 1176.17 1934.45 1176.17 1941.82 1183.54 1941.82 1192.67Z" fill="#AFABAB" fill-rule="evenodd"/><path d="M2053.82 1192.67C2053.82 1201.76 2046.45 1209.17 2037.31 1209.17 2028.22 1209.17 2020.81 1201.76 2020.81 1192.67 2020.81 1183.54 2028.22 1176.17 2037.31 1176.17 2046.45 1176.17 2053.82 1183.54 2053.82 1192.67Z" fill-rule="evenodd"/><path d="M1549.82 1247.67C1549.82 1256.8 1542.45 1264.17 1533.31 1264.17 1524.19 1264.17 1516.81 1256.8 1516.81 1247.67 1516.81 1238.54 1524.19 1231.17 1533.31 1231.17 1542.45 1231.17 1549.82 1238.54 1549.82 1247.67Z" fill="#548235" fill-rule="evenodd"/><path d="M1661.82 1247.67C1661.82 1256.76 1654.45 1264.17 1645.31 1264.17 1636.19 1264.17 1628.81 1256.76 1628.81 1247.67 1628.81 1238.54 1636.19 1231.17 1645.31 1231.17 1654.45 1231.17 1661.82 1238.54 1661.82 1247.67Z" fill="#A9D18E" fill-rule="evenodd"/><path d="M1774.75 1247.67C1774.75 1256.76 1767.16 1264.17 1757.75 1264.17 1748.38 1264.17 1740.75 1256.76 1740.75 1247.67 1740.75 1238.54 1748.38 1231.17 1757.75 1231.17 1767.16 1231.17 1774.75 1238.54 1774.75 1247.67Z" fill="#A9D18E" fill-rule="evenodd"/><path d="M1886.82 1247.67C1886.82 1256.76 1879.45 1264.17 1870.31 1264.17 1861.22 1264.17 1853.81 1256.76 1853.81 1247.67 1853.81 1238.54 1861.22 1231.17 1870.31 1231.17 1879.45 1231.17 1886.82 1238.54 1886.82 1247.67Z" fill="#A9D18E" fill-rule="evenodd"/><path d="M1998.82 1247.67C1998.82 1256.76 1991.45 1264.17 1982.31 1264.17 1973.22 1264.17 1965.81 1256.76 1965.81 1247.67 1965.81 1238.54 1973.22 1231.17 1982.31 1231.17 1991.45 1231.17 1998.82 1238.54 1998.82 1247.67Z" fill="#A9D18E" fill-rule="evenodd"/><path d="M2110.82 1247.67C2110.82 1256.76 2103.45 1264.17 2094.31 1264.17 2085.22 1264.17 2077.81 1256.76 2077.81 1247.67 2077.81 1238.54 2085.22 1231.17 2094.31 1231.17 2103.45 1231.17 2110.82 1238.54 2110.82 1247.67Z" fill="#548235" fill-rule="evenodd"/><path d="M2173.75 749.665C2173.75 758.796 2166.16 766.166 2156.75 766.166 2147.34 766.166 2139.75 758.796 2139.75 749.665 2139.75 740.535 2147.34 733.165 2156.75 733.165 2166.16 733.165 2173.75 740.535 2173.75 749.665Z" fill="#A6A6A6" fill-rule="evenodd"/><path d="M2284.82 749.665C2284.82 758.759 2277.45 766.166 2268.31 766.166 2259.19 766.166 2251.81 758.759 2251.81 749.665 2251.81 740.535 2259.19 733.165 2268.31 733.165 2277.45 733.165 2284.82 740.535 2284.82 749.665Z" fill="#AFABAB" fill-rule="evenodd"/><path d="M2396.82 749.665C2396.82 758.759 2389.45 766.166 2380.31 766.166 2371.22 766.166 2363.81 758.759 2363.81 749.665 2363.81 740.535 2371.22 733.165 2380.31 733.165 2389.45 733.165 2396.82 740.535 2396.82 749.665Z" fill="#AFABAB" fill-rule="evenodd"/><path d="M2508.82 749.665C2508.82 758.759 2501.45 766.166 2492.31 766.166 2483.22 766.166 2475.81 758.759 2475.81 749.665 2475.81 740.535 2483.22 733.165 2492.31 733.165 2501.45 733.165 2508.82 740.535 2508.82 749.665Z" fill="#AFABAB" fill-rule="evenodd"/><path d="M2620.82 749.665C2620.82 758.759 2613.45 766.166 2604.31 766.166 2595.22 766.166 2587.81 758.759 2587.81 749.665 2587.81 740.535 2595.22 733.165 2604.31 733.165 2613.45 733.165 2620.82 740.535 2620.82 749.665Z" fill-rule="evenodd"/><path d="M2228.82 694.221C2228.82 703.039 2221.45 710.222 2212.31 710.222 2203.19 710.222 2195.81 703.039 2195.81 694.221 2195.81 685.368 2203.19 678.221 2212.31 678.221 2221.45 678.221 2228.82 685.368 2228.82 694.221Z" fill="#A9D18E" fill-rule="evenodd"/><path d="M2340.82 694.221C2340.82 703.039 2333.45 710.222 2324.31 710.222 2315.22 710.222 2307.81 703.039 2307.81 694.221 2307.81 685.368 2315.22 678.221 2324.31 678.221 2333.45 678.221 2340.82 685.368 2340.82 694.221Z" fill="#A9D18E" fill-rule="evenodd"/><path d="M2452.82 694.221C2452.82 703.039 2445.45 710.222 2436.31 710.222 2427.22 710.222 2419.81 703.039 2419.81 694.221 2419.81 685.368 2427.22 678.221 2436.31 678.221 2445.45 678.221 2452.82 685.368 2452.82 694.221Z" fill="#A9D18E" fill-rule="evenodd"/><path d="M2565.75 694.221C2565.75 703.039 2558.16 710.222 2548.75 710.222 2539.38 710.222 2531.75 703.039 2531.75 694.221 2531.75 685.368 2539.38 678.221 2548.75 678.221 2558.16 678.221 2565.75 685.368 2565.75 694.221Z" fill="#A9D18E" fill-rule="evenodd"/><path d="M2677.82 694.221C2677.82 703.039 2670.45 710.222 2661.31 710.222 2652.22 710.222 2644.81 703.039 2644.81 694.221 2644.81 685.368 2652.22 678.221 2661.31 678.221 2670.45 678.221 2677.82 685.368 2677.82 694.221Z" fill="#548235" fill-rule="evenodd"/><path d="M2228.82 804.665C2228.82 813.759 2221.45 821.166 2212.31 821.166 2203.19 821.166 2195.81 813.759 2195.81 804.665 2195.81 795.535 2203.19 788.165 2212.31 788.165 2221.45 788.165 2228.82 795.535 2228.82 804.665Z" fill="#A9D18E" fill-rule="evenodd"/><path d="M2340.82 804.665C2340.82 813.759 2333.45 821.166 2324.31 821.166 2315.22 821.166 2307.81 813.759 2307.81 804.665 2307.81 795.535 2315.22 788.165 2324.31 788.165 2333.45 788.165 2340.82 795.535 2340.82 804.665Z" fill="#A9D18E" fill-rule="evenodd"/><path d="M2452.82 804.665C2452.82 813.759 2445.45 821.166 2436.31 821.166 2427.22 821.166 2419.81 813.759 2419.81 804.665 2419.81 795.535 2427.22 788.165 2436.31 788.165 2445.45 788.165 2452.82 795.535 2452.82 804.665Z" fill="#A9D18E" fill-rule="evenodd"/><path d="M2565.75 804.665C2565.75 813.759 2558.16 821.166 2548.75 821.166 2539.38 821.166 2531.75 813.759 2531.75 804.665 2531.75 795.535 2539.38 788.165 2548.75 788.165 2558.16 788.165 2565.75 795.535 2565.75 804.665Z" fill="#A9D18E" fill-rule="evenodd"/><path d="M2677.82 804.665C2677.82 813.759 2670.45 821.166 2661.31 821.166 2652.22 821.166 2644.81 813.759 2644.81 804.665 2644.81 795.535 2652.22 788.165 2661.31 788.165 2670.45 788.165 2677.82 795.535 2677.82 804.665Z" fill="#A9D18E" fill-rule="evenodd"/><path d="M2173.75 859.665C2173.75 868.796 2166.16 876.166 2156.75 876.166 2147.34 876.166 2139.75 868.796 2139.75 859.665 2139.75 850.535 2147.34 843.165 2156.75 843.165 2166.16 843.165 2173.75 850.535 2173.75 859.665Z" fill="#A6A6A6" fill-rule="evenodd"/><path d="M2284.82 859.665C2284.82 868.759 2277.45 876.166 2268.31 876.166 2259.19 876.166 2251.81 868.759 2251.81 859.665 2251.81 850.535 2259.19 843.165 2268.31 843.165 2277.45 843.165 2284.82 850.535 2284.82 859.665Z" fill="#AFABAB" fill-rule="evenodd"/><path d="M2396.82 859.665C2396.82 868.759 2389.45 876.166 2380.31 876.166 2371.22 876.166 2363.81 868.759 2363.81 859.665 2363.81 850.535 2371.22 843.165 2380.31 843.165 2389.45 843.165 2396.82 850.535 2396.82 859.665Z" fill="#AFABAB" fill-rule="evenodd"/><path d="M2508.82 859.665C2508.82 868.759 2501.45 876.166 2492.31 876.166 2483.22 876.166 2475.81 868.759 2475.81 859.665 2475.81 850.535 2483.22 843.165 2492.31 843.165 2501.45 843.165 2508.82 850.535 2508.82 859.665Z" fill="#AFABAB" fill-rule="evenodd"/><path d="M2620.82 859.665C2620.82 868.759 2613.45 876.166 2604.31 876.166 2595.22 876.166 2587.81 868.759 2587.81 859.665 2587.81 850.535 2595.22 843.165 2604.31 843.165 2613.45 843.165 2620.82 850.535 2620.82 859.665Z" fill="#A6A6A6" fill-rule="evenodd"/><path d="M2228.82 915.221C2228.82 924.039 2221.45 931.222 2212.31 931.222 2203.19 931.222 2195.81 924.039 2195.81 915.221 2195.81 906.368 2203.19 899.221 2212.31 899.221 2221.45 899.221 2228.82 906.368 2228.82 915.221Z" fill="#A9D18E" fill-rule="evenodd"/><path d="M2340.82 915.221C2340.82 924.039 2333.45 931.222 2324.31 931.222 2315.22 931.222 2307.81 924.039 2307.81 915.221 2307.81 906.368 2315.22 899.221 2324.31 899.221 2333.45 899.221 2340.82 906.368 2340.82 915.221Z" fill="#A9D18E" fill-rule="evenodd"/><path d="M2452.82 915.221C2452.82 924.039 2445.45 931.222 2436.31 931.222 2427.22 931.222 2419.81 924.039 2419.81 915.221 2419.81 906.368 2427.22 899.221 2436.31 899.221 2445.45 899.221 2452.82 906.368 2452.82 915.221Z" fill="#A9D18E" fill-rule="evenodd"/><path d="M2565.75 915.221C2565.75 924.039 2558.16 931.222 2548.75 931.222 2539.38 931.222 2531.75 924.039 2531.75 915.221 2531.75 906.368 2539.38 899.221 2548.75 899.221 2558.16 899.221 2565.75 906.368 2565.75 915.221Z" fill="#A9D18E" fill-rule="evenodd"/><path d="M2677.82 915.221C2677.82 924.039 2670.45 931.222 2661.31 931.222 2652.22 931.222 2644.81 924.039 2644.81 915.221 2644.81 906.368 2652.22 899.221 2661.31 899.221 2670.45 899.221 2677.82 906.368 2677.82 915.221Z" fill="#A9D18E" fill-rule="evenodd"/><path d="M2173.75 970.665C2173.75 979.796 2166.16 987.166 2156.75 987.166 2147.34 987.166 2139.75 979.796 2139.75 970.665 2139.75 961.535 2147.34 954.165 2156.75 954.165 2166.16 954.165 2173.75 961.535 2173.75 970.665Z" fill="#A6A6A6" fill-rule="evenodd"/><path d="M2284.82 970.665C2284.82 979.759 2277.45 987.166 2268.31 987.166 2259.19 987.166 2251.81 979.759 2251.81 970.665 2251.81 961.535 2259.19 954.165 2268.31 954.165 2277.45 954.165 2284.82 961.535 2284.82 970.665Z" fill="#AFABAB" fill-rule="evenodd"/><path d="M2396.82 970.665C2396.82 979.759 2389.45 987.166 2380.31 987.166 2371.22 987.166 2363.81 979.759 2363.81 970.665 2363.81 961.535 2371.22 954.165 2380.31 954.165 2389.45 954.165 2396.82 961.535 2396.82 970.665Z" fill="#AFABAB" fill-rule="evenodd"/><path d="M2508.82 970.665C2508.82 979.759 2501.45 987.166 2492.31 987.166 2483.22 987.166 2475.81 979.759 2475.81 970.665 2475.81 961.535 2483.22 954.165 2492.31 954.165 2501.45 954.165 2508.82 961.535 2508.82 970.665Z" fill="#AFABAB" fill-rule="evenodd"/><path d="M2620.82 970.665C2620.82 979.759 2613.45 987.166 2604.31 987.166 2595.22 987.166 2587.81 979.759 2587.81 970.665 2587.81 961.535 2595.22 954.165 2604.31 954.165 2613.45 954.165 2620.82 961.535 2620.82 970.665Z" fill="#A6A6A6" fill-rule="evenodd"/><path d="M2228.82 1025.67C2228.82 1034.76 2221.45 1042.17 2212.31 1042.17 2203.19 1042.17 2195.81 1034.76 2195.81 1025.67 2195.81 1016.54 2203.19 1009.16 2212.31 1009.16 2221.45 1009.16 2228.82 1016.54 2228.82 1025.67Z" fill="#A9D18E" fill-rule="evenodd"/><path d="M2340.82 1025.67C2340.82 1034.76 2333.45 1042.17 2324.31 1042.17 2315.22 1042.17 2307.81 1034.76 2307.81 1025.67 2307.81 1016.54 2315.22 1009.16 2324.31 1009.16 2333.45 1009.16 2340.82 1016.54 2340.82 1025.67Z" fill="#A9D18E" fill-rule="evenodd"/><path d="M2452.82 1025.67C2452.82 1034.76 2445.45 1042.17 2436.31 1042.17 2427.22 1042.17 2419.81 1034.76 2419.81 1025.67 2419.81 1016.54 2427.22 1009.16 2436.31 1009.16 2445.45 1009.16 2452.82 1016.54 2452.82 1025.67Z" fill="#A9D18E" fill-rule="evenodd"/><path d="M2565.75 1025.67C2565.75 1034.76 2558.16 1042.17 2548.75 1042.17 2539.38 1042.17 2531.75 1034.76 2531.75 1025.67 2531.75 1016.54 2539.38 1009.16 2548.75 1009.16 2558.16 1009.16 2565.75 1016.54 2565.75 1025.67Z" fill="#A9D18E" fill-rule="evenodd"/><path d="M2677.82 1025.67C2677.82 1034.76 2670.45 1042.17 2661.31 1042.17 2652.22 1042.17 2644.81 1034.76 2644.81 1025.67 2644.81 1016.54 2652.22 1009.16 2661.31 1009.16 2670.45 1009.16 2677.82 1016.54 2677.82 1025.67Z" fill="#A9D18E" fill-rule="evenodd"/><path d="M2173.75 1080.67C2173.75 1089.8 2166.16 1097.17 2156.75 1097.17 2147.34 1097.17 2139.75 1089.8 2139.75 1080.67 2139.75 1071.54 2147.34 1064.17 2156.75 1064.17 2166.16 1064.17 2173.75 1071.54 2173.75 1080.67Z" fill="#A6A6A6" fill-rule="evenodd"/><path d="M2284.82 1080.67C2284.82 1089.76 2277.45 1097.17 2268.31 1097.17 2259.19 1097.17 2251.81 1089.76 2251.81 1080.67 2251.81 1071.54 2259.19 1064.17 2268.31 1064.17 2277.45 1064.17 2284.82 1071.54 2284.82 1080.67Z" fill="#AFABAB" fill-rule="evenodd"/><path d="M2396.82 1080.67C2396.82 1089.76 2389.45 1097.17 2380.31 1097.17 2371.22 1097.17 2363.81 1089.76 2363.81 1080.67 2363.81 1071.54 2371.22 1064.17 2380.31 1064.17 2389.45 1064.17 2396.82 1071.54 2396.82 1080.67Z" fill="#AFABAB" fill-rule="evenodd"/><path d="M2508.82 1080.67C2508.82 1089.76 2501.45 1097.17 2492.31 1097.17 2483.22 1097.17 2475.81 1089.76 2475.81 1080.67 2475.81 1071.54 2483.22 1064.17 2492.31 1064.17 2501.45 1064.17 2508.82 1071.54 2508.82 1080.67Z" fill="#AFABAB" fill-rule="evenodd"/><path d="M2620.82 1080.67C2620.82 1089.76 2613.45 1097.17 2604.31 1097.17 2595.22 1097.17 2587.81 1089.76 2587.81 1080.67 2587.81 1071.54 2595.22 1064.17 2604.31 1064.17 2613.45 1064.17 2620.82 1071.54 2620.82 1080.67Z" fill="#A6A6A6" fill-rule="evenodd"/><path d="M2228.82 1135.67C2228.82 1144.76 2221.45 1152.17 2212.31 1152.17 2203.19 1152.17 2195.81 1144.76 2195.81 1135.67 2195.81 1126.54 2203.19 1119.17 2212.31 1119.17 2221.45 1119.17 2228.82 1126.54 2228.82 1135.67Z" fill="#A9D18E" fill-rule="evenodd"/><path d="M2340.82 1135.67C2340.82 1144.76 2333.45 1152.17 2324.31 1152.17 2315.22 1152.17 2307.81 1144.76 2307.81 1135.67 2307.81 1126.54 2315.22 1119.17 2324.31 1119.17 2333.45 1119.17 2340.82 1126.54 2340.82 1135.67Z" fill="#A9D18E" fill-rule="evenodd"/><path d="M2452.82 1135.67C2452.82 1144.76 2445.45 1152.17 2436.31 1152.17 2427.22 1152.17 2419.81 1144.76 2419.81 1135.67 2419.81 1126.54 2427.22 1119.17 2436.31 1119.17 2445.45 1119.17 2452.82 1126.54 2452.82 1135.67Z" fill="#A9D18E" fill-rule="evenodd"/><path d="M2565.75 1135.67C2565.75 1144.76 2558.16 1152.17 2548.75 1152.17 2539.38 1152.17 2531.75 1144.76 2531.75 1135.67 2531.75 1126.54 2539.38 1119.17 2548.75 1119.17 2558.16 1119.17 2565.75 1126.54 2565.75 1135.67Z" fill="#A9D18E" fill-rule="evenodd"/><path d="M2677.82 1135.67C2677.82 1144.76 2670.45 1152.17 2661.31 1152.17 2652.22 1152.17 2644.81 1144.76 2644.81 1135.67 2644.81 1126.54 2652.22 1119.17 2661.31 1119.17 2670.45 1119.17 2677.82 1126.54 2677.82 1135.67Z" fill="#A9D18E" fill-rule="evenodd"/><path d="M2173.75 1190.67C2173.75 1199.8 2166.16 1207.17 2156.75 1207.17 2147.34 1207.17 2139.75 1199.8 2139.75 1190.67 2139.75 1181.54 2147.34 1174.17 2156.75 1174.17 2166.16 1174.17 2173.75 1181.54 2173.75 1190.67Z" fill="#A6A6A6" fill-rule="evenodd"/><path d="M2284.82 1190.67C2284.82 1199.76 2277.45 1207.17 2268.31 1207.17 2259.19 1207.17 2251.81 1199.76 2251.81 1190.67 2251.81 1181.54 2259.19 1174.17 2268.31 1174.17 2277.45 1174.17 2284.82 1181.54 2284.82 1190.67Z" fill="#AFABAB" fill-rule="evenodd"/><path d="M2396.82 1190.67C2396.82 1199.76 2389.45 1207.17 2380.31 1207.17 2371.22 1207.17 2363.81 1199.76 2363.81 1190.67 2363.81 1181.54 2371.22 1174.17 2380.31 1174.17 2389.45 1174.17 2396.82 1181.54 2396.82 1190.67Z" fill="#AFABAB" fill-rule="evenodd"/><path d="M2508.82 1190.67C2508.82 1199.76 2501.45 1207.17 2492.31 1207.17 2483.22 1207.17 2475.81 1199.76 2475.81 1190.67 2475.81 1181.54 2483.22 1174.17 2492.31 1174.17 2501.45 1174.17 2508.82 1181.54 2508.82 1190.67Z" fill="#AFABAB" fill-rule="evenodd"/><path d="M2620.82 1190.67C2620.82 1199.76 2613.45 1207.17 2604.31 1207.17 2595.22 1207.17 2587.81 1199.76 2587.81 1190.67 2587.81 1181.54 2595.22 1174.17 2604.31 1174.17 2613.45 1174.17 2620.82 1181.54 2620.82 1190.67Z" fill-rule="evenodd"/><path d="M2228.82 1246.22C2228.82 1255.04 2221.45 1262.22 2212.31 1262.22 2203.19 1262.22 2195.81 1255.04 2195.81 1246.22 2195.81 1237.37 2203.19 1230.22 2212.31 1230.22 2221.45 1230.22 2228.82 1237.37 2228.82 1246.22Z" fill="#A9D18E" fill-rule="evenodd"/><path d="M2340.82 1246.22C2340.82 1255.04 2333.45 1262.22 2324.31 1262.22 2315.22 1262.22 2307.81 1255.04 2307.81 1246.22 2307.81 1237.37 2315.22 1230.22 2324.31 1230.22 2333.45 1230.22 2340.82 1237.37 2340.82 1246.22Z" fill="#A9D18E" fill-rule="evenodd"/><path d="M2452.82 1246.22C2452.82 1255.04 2445.45 1262.22 2436.31 1262.22 2427.22 1262.22 2419.81 1255.04 2419.81 1246.22 2419.81 1237.37 2427.22 1230.22 2436.31 1230.22 2445.45 1230.22 2452.82 1237.37 2452.82 1246.22Z" fill="#A9D18E" fill-rule="evenodd"/><path d="M2565.75 1246.22C2565.75 1255.04 2558.16 1262.22 2548.75 1262.22 2539.38 1262.22 2531.75 1255.04 2531.75 1246.22 2531.75 1237.37 2539.38 1230.22 2548.75 1230.22 2558.16 1230.22 2565.75 1237.37 2565.75 1246.22Z" fill="#A9D18E" fill-rule="evenodd"/><path d="M2677.82 1246.22C2677.82 1255.04 2670.45 1262.22 2661.31 1262.22 2652.22 1262.22 2644.81 1255.04 2644.81 1246.22 2644.81 1237.37 2652.22 1230.22 2661.31 1230.22 2670.45 1230.22 2677.82 1237.37 2677.82 1246.22Z" fill="#548235" fill-rule="evenodd"/><path d="M1606.82 1302.67C1606.82 1311.8 1599.45 1319.17 1590.31 1319.17 1581.19 1319.17 1573.81 1311.8 1573.81 1302.67 1573.81 1293.54 1581.19 1286.17 1590.31 1286.17 1599.45 1286.17 1606.82 1293.54 1606.82 1302.67Z" fill="#A6A6A6" fill-rule="evenodd"/><path d="M1718.82 1302.67C1718.82 1311.76 1711.45 1319.17 1702.31 1319.17 1693.19 1319.17 1685.81 1311.76 1685.81 1302.67 1685.81 1293.54 1693.19 1286.17 1702.31 1286.17 1711.45 1286.17 1718.82 1293.54 1718.82 1302.67Z" fill="#AFABAB" fill-rule="evenodd"/><path d="M1830.75 1302.67C1830.75 1311.76 1823.16 1319.17 1813.75 1319.17 1804.38 1319.17 1796.75 1311.76 1796.75 1302.67 1796.75 1293.54 1804.38 1286.17 1813.75 1286.17 1823.16 1286.17 1830.75 1293.54 1830.75 1302.67Z" fill="#AFABAB" fill-rule="evenodd"/><path d="M1941.82 1302.67C1941.82 1311.76 1934.45 1319.17 1925.31 1319.17 1916.22 1319.17 1908.81 1311.76 1908.81 1302.67 1908.81 1293.54 1916.22 1286.17 1925.31 1286.17 1934.45 1286.17 1941.82 1293.54 1941.82 1302.67Z" fill="#AFABAB" fill-rule="evenodd"/><path d="M2053.82 1302.67C2053.82 1311.76 2046.45 1319.17 2037.31 1319.17 2028.22 1319.17 2020.81 1311.76 2020.81 1302.67 2020.81 1293.54 2028.22 1286.17 2037.31 1286.17 2046.45 1286.17 2053.82 1293.54 2053.82 1302.67Z" fill="#A6A6A6" fill-rule="evenodd"/><path d="M1549.82 1357.67C1549.82 1366.8 1542.45 1374.17 1533.31 1374.17 1524.19 1374.17 1516.81 1366.8 1516.81 1357.67 1516.81 1348.54 1524.19 1341.17 1533.31 1341.17 1542.45 1341.17 1549.82 1348.54 1549.82 1357.67Z" fill="#A9D18E" fill-rule="evenodd"/><path d="M1661.82 1357.67C1661.82 1366.76 1654.45 1374.17 1645.31 1374.17 1636.19 1374.17 1628.81 1366.76 1628.81 1357.67 1628.81 1348.54 1636.19 1341.17 1645.31 1341.17 1654.45 1341.17 1661.82 1348.54 1661.82 1357.67Z" fill="#A9D18E" fill-rule="evenodd"/><path d="M1774.75 1357.67C1774.75 1366.76 1767.16 1374.17 1757.75 1374.17 1748.38 1374.17 1740.75 1366.76 1740.75 1357.67 1740.75 1348.54 1748.38 1341.17 1757.75 1341.17 1767.16 1341.17 1774.75 1348.54 1774.75 1357.67Z" fill="#A9D18E" fill-rule="evenodd"/><path d="M1886.82 1357.67C1886.82 1366.76 1879.45 1374.17 1870.31 1374.17 1861.22 1374.17 1853.81 1366.76 1853.81 1357.67 1853.81 1348.54 1861.22 1341.17 1870.31 1341.17 1879.45 1341.17 1886.82 1348.54 1886.82 1357.67Z" fill="#A9D18E" fill-rule="evenodd"/><path d="M1998.82 1357.67C1998.82 1366.76 1991.45 1374.17 1982.31 1374.17 1973.22 1374.17 1965.81 1366.76 1965.81 1357.67 1965.81 1348.54 1973.22 1341.17 1982.31 1341.17 1991.45 1341.17 1998.82 1348.54 1998.82 1357.67Z" fill="#A9D18E" fill-rule="evenodd"/><path d="M2110.82 1357.67C2110.82 1366.76 2103.45 1374.17 2094.31 1374.17 2085.22 1374.17 2077.81 1366.76 2077.81 1357.67 2077.81 1348.54 2085.22 1341.17 2094.31 1341.17 2103.45 1341.17 2110.82 1348.54 2110.82 1357.67Z" fill="#A9D18E" fill-rule="evenodd"/><path d="M1606.82 1412.67C1606.82 1421.8 1599.45 1429.17 1590.31 1429.17 1581.19 1429.17 1573.81 1421.8 1573.81 1412.67 1573.81 1403.54 1581.19 1396.17 1590.31 1396.17 1599.45 1396.17 1606.82 1403.54 1606.82 1412.67Z" fill="#A6A6A6" fill-rule="evenodd"/><path d="M1718.82 1412.67C1718.82 1421.76 1711.45 1429.17 1702.31 1429.17 1693.19 1429.17 1685.81 1421.76 1685.81 1412.67 1685.81 1403.54 1693.19 1396.17 1702.31 1396.17 1711.45 1396.17 1718.82 1403.54 1718.82 1412.67Z" fill="#AFABAB" fill-rule="evenodd"/><path d="M1830.75 1412.67C1830.75 1421.76 1823.16 1429.17 1813.75 1429.17 1804.38 1429.17 1796.75 1421.76 1796.75 1412.67 1796.75 1403.54 1804.38 1396.17 1813.75 1396.17 1823.16 1396.17 1830.75 1403.54 1830.75 1412.67Z" fill="#AFABAB" fill-rule="evenodd"/><path d="M1941.82 1412.67C1941.82 1421.76 1934.45 1429.17 1925.31 1429.17 1916.22 1429.17 1908.81 1421.76 1908.81 1412.67 1908.81 1403.54 1916.22 1396.17 1925.31 1396.17 1934.45 1396.17 1941.82 1403.54 1941.82 1412.67Z" fill="#AFABAB" fill-rule="evenodd"/><path d="M2053.82 1412.67C2053.82 1421.76 2046.45 1429.17 2037.31 1429.17 2028.22 1429.17 2020.81 1421.76 2020.81 1412.67 2020.81 1403.54 2028.22 1396.17 2037.31 1396.17 2046.45 1396.17 2053.82 1403.54 2053.82 1412.67Z" fill="#A6A6A6" fill-rule="evenodd"/><path d="M1549.82 1468.22C1549.82 1477.08 1542.45 1484.22 1533.31 1484.22 1524.19 1484.22 1516.81 1477.08 1516.81 1468.22 1516.81 1459.37 1524.19 1452.22 1533.31 1452.22 1542.45 1452.22 1549.82 1459.37 1549.82 1468.22Z" fill="#A9D18E" fill-rule="evenodd"/><path d="M1661.82 1468.22C1661.82 1477.04 1654.45 1484.22 1645.31 1484.22 1636.19 1484.22 1628.81 1477.04 1628.81 1468.22 1628.81 1459.37 1636.19 1452.22 1645.31 1452.22 1654.45 1452.22 1661.82 1459.37 1661.82 1468.22Z" fill="#A9D18E" fill-rule="evenodd"/><path d="M1774.75 1468.22C1774.75 1477.04 1767.16 1484.22 1757.75 1484.22 1748.38 1484.22 1740.75 1477.04 1740.75 1468.22 1740.75 1459.37 1748.38 1452.22 1757.75 1452.22 1767.16 1452.22 1774.75 1459.37 1774.75 1468.22Z" fill="#A9D18E" fill-rule="evenodd"/><path d="M1886.82 1468.22C1886.82 1477.04 1879.45 1484.22 1870.31 1484.22 1861.22 1484.22 1853.81 1477.04 1853.81 1468.22 1853.81 1459.37 1861.22 1452.22 1870.31 1452.22 1879.45 1452.22 1886.82 1459.37 1886.82 1468.22Z" fill="#A9D18E" fill-rule="evenodd"/><path d="M1998.82 1468.22C1998.82 1477.04 1991.45 1484.22 1982.31 1484.22 1973.22 1484.22 1965.81 1477.04 1965.81 1468.22 1965.81 1459.37 1973.22 1452.22 1982.31 1452.22 1991.45 1452.22 1998.82 1459.37 1998.82 1468.22Z" fill="#A9D18E" fill-rule="evenodd"/><path d="M2110.82 1468.22C2110.82 1477.04 2103.45 1484.22 2094.31 1484.22 2085.22 1484.22 2077.81 1477.04 2077.81 1468.22 2077.81 1459.37 2085.22 1452.22 2094.31 1452.22 2103.45 1452.22 2110.82 1459.37 2110.82 1468.22Z" fill="#A9D18E" fill-rule="evenodd"/><path d="M1606.82 1523.67C1606.82 1532.8 1599.45 1540.17 1590.31 1540.17 1581.19 1540.17 1573.81 1532.8 1573.81 1523.67 1573.81 1514.54 1581.19 1507.17 1590.31 1507.17 1599.45 1507.17 1606.82 1514.54 1606.82 1523.67Z" fill="#A6A6A6" fill-rule="evenodd"/><path d="M1718.82 1523.67C1718.82 1532.76 1711.45 1540.17 1702.31 1540.17 1693.19 1540.17 1685.81 1532.76 1685.81 1523.67 1685.81 1514.54 1693.19 1507.17 1702.31 1507.17 1711.45 1507.17 1718.82 1514.54 1718.82 1523.67Z" fill="#AFABAB" fill-rule="evenodd"/><path d="M1830.75 1523.67C1830.75 1532.76 1823.16 1540.17 1813.75 1540.17 1804.38 1540.17 1796.75 1532.76 1796.75 1523.67 1796.75 1514.54 1804.38 1507.17 1813.75 1507.17 1823.16 1507.17 1830.75 1514.54 1830.75 1523.67Z" fill="#AFABAB" fill-rule="evenodd"/><path d="M1941.82 1523.67C1941.82 1532.76 1934.45 1540.17 1925.31 1540.17 1916.22 1540.17 1908.81 1532.76 1908.81 1523.67 1908.81 1514.54 1916.22 1507.17 1925.31 1507.17 1934.45 1507.17 1941.82 1514.54 1941.82 1523.67Z" fill="#AFABAB" fill-rule="evenodd"/><path d="M2053.82 1523.67C2053.82 1532.76 2046.45 1540.17 2037.31 1540.17 2028.22 1540.17 2020.81 1532.76 2020.81 1523.67 2020.81 1514.54 2028.22 1507.17 2037.31 1507.17 2046.45 1507.17 2053.82 1514.54 2053.82 1523.67Z" fill="#A6A6A6" fill-rule="evenodd"/><path d="M1549.82 1578.67C1549.82 1587.8 1542.45 1595.17 1533.31 1595.17 1524.19 1595.17 1516.81 1587.8 1516.81 1578.67 1516.81 1569.54 1524.19 1562.17 1533.31 1562.17 1542.45 1562.17 1549.82 1569.54 1549.82 1578.67Z" fill="#A9D18E" fill-rule="evenodd"/><path d="M1661.82 1578.67C1661.82 1587.76 1654.45 1595.17 1645.31 1595.17 1636.19 1595.17 1628.81 1587.76 1628.81 1578.67 1628.81 1569.54 1636.19 1562.17 1645.31 1562.17 1654.45 1562.17 1661.82 1569.54 1661.82 1578.67Z" fill="#A9D18E" fill-rule="evenodd"/><path d="M1774.75 1578.67C1774.75 1587.76 1767.16 1595.17 1757.75 1595.17 1748.38 1595.17 1740.75 1587.76 1740.75 1578.67 1740.75 1569.54 1748.38 1562.17 1757.75 1562.17 1767.16 1562.17 1774.75 1569.54 1774.75 1578.67Z" fill="#A9D18E" fill-rule="evenodd"/><path d="M1886.82 1578.67C1886.82 1587.76 1879.45 1595.17 1870.31 1595.17 1861.22 1595.17 1853.81 1587.76 1853.81 1578.67 1853.81 1569.54 1861.22 1562.17 1870.31 1562.17 1879.45 1562.17 1886.82 1569.54 1886.82 1578.67Z" fill="#A9D18E" fill-rule="evenodd"/><path d="M1998.82 1578.67C1998.82 1587.76 1991.45 1595.17 1982.31 1595.17 1973.22 1595.17 1965.81 1587.76 1965.81 1578.67 1965.81 1569.54 1973.22 1562.17 1982.31 1562.17 1991.45 1562.17 1998.82 1569.54 1998.82 1578.67Z" fill="#A9D18E" fill-rule="evenodd"/><path d="M2110.82 1578.67C2110.82 1587.76 2103.45 1595.17 2094.31 1595.17 2085.22 1595.17 2077.81 1587.76 2077.81 1578.67 2077.81 1569.54 2085.22 1562.17 2094.31 1562.17 2103.45 1562.17 2110.82 1569.54 2110.82 1578.67Z" fill="#A9D18E" fill-rule="evenodd"/><path d="M1606.82 1633.67C1606.82 1642.8 1599.45 1650.17 1590.31 1650.17 1581.19 1650.17 1573.81 1642.8 1573.81 1633.67 1573.81 1624.54 1581.19 1617.17 1590.31 1617.17 1599.45 1617.17 1606.82 1624.54 1606.82 1633.67Z" fill="#A6A6A6" fill-rule="evenodd"/><path d="M1718.82 1633.67C1718.82 1642.76 1711.45 1650.17 1702.31 1650.17 1693.19 1650.17 1685.81 1642.76 1685.81 1633.67 1685.81 1624.54 1693.19 1617.17 1702.31 1617.17 1711.45 1617.17 1718.82 1624.54 1718.82 1633.67Z" fill="#AFABAB" fill-rule="evenodd"/><path d="M1830.75 1633.67C1830.75 1642.76 1823.16 1650.17 1813.75 1650.17 1804.38 1650.17 1796.75 1642.76 1796.75 1633.67 1796.75 1624.54 1804.38 1617.17 1813.75 1617.17 1823.16 1617.17 1830.75 1624.54 1830.75 1633.67Z" fill="#AFABAB" fill-rule="evenodd"/><path d="M1941.82 1633.67C1941.82 1642.76 1934.45 1650.17 1925.31 1650.17 1916.22 1650.17 1908.81 1642.76 1908.81 1633.67 1908.81 1624.54 1916.22 1617.17 1925.31 1617.17 1934.45 1617.17 1941.82 1624.54 1941.82 1633.67Z" fill="#AFABAB" fill-rule="evenodd"/><path d="M2053.82 1633.67C2053.82 1642.76 2046.45 1650.17 2037.31 1650.17 2028.22 1650.17 2020.81 1642.76 2020.81 1633.67 2020.81 1624.54 2028.22 1617.17 2037.31 1617.17 2046.45 1617.17 2053.82 1624.54 2053.82 1633.67Z" fill="#A6A6A6" fill-rule="evenodd"/><path d="M1549.82 1688.67C1549.82 1697.8 1542.45 1705.17 1533.31 1705.17 1524.19 1705.17 1516.81 1697.8 1516.81 1688.67 1516.81 1679.54 1524.19 1672.17 1533.31 1672.17 1542.45 1672.17 1549.82 1679.54 1549.82 1688.67Z" fill="#A9D18E" fill-rule="evenodd"/><path d="M1661.82 1688.67C1661.82 1697.76 1654.45 1705.17 1645.31 1705.17 1636.19 1705.17 1628.81 1697.76 1628.81 1688.67 1628.81 1679.54 1636.19 1672.17 1645.31 1672.17 1654.45 1672.17 1661.82 1679.54 1661.82 1688.67Z" fill="#A9D18E" fill-rule="evenodd"/><path d="M1774.75 1688.67C1774.75 1697.76 1767.16 1705.17 1757.75 1705.17 1748.38 1705.17 1740.75 1697.76 1740.75 1688.67 1740.75 1679.54 1748.38 1672.17 1757.75 1672.17 1767.16 1672.17 1774.75 1679.54 1774.75 1688.67Z" fill="#A9D18E" fill-rule="evenodd"/><path d="M1886.82 1688.67C1886.82 1697.76 1879.45 1705.17 1870.31 1705.17 1861.22 1705.17 1853.81 1697.76 1853.81 1688.67 1853.81 1679.54 1861.22 1672.17 1870.31 1672.17 1879.45 1672.17 1886.82 1679.54 1886.82 1688.67Z" fill="#A9D18E" fill-rule="evenodd"/><path d="M1998.82 1688.67C1998.82 1697.76 1991.45 1705.17 1982.31 1705.17 1973.22 1705.17 1965.81 1697.76 1965.81 1688.67 1965.81 1679.54 1973.22 1672.17 1982.31 1672.17 1991.45 1672.17 1998.82 1679.54 1998.82 1688.67Z" fill="#A9D18E" fill-rule="evenodd"/><path d="M2110.82 1688.67C2110.82 1697.76 2103.45 1705.17 2094.31 1705.17 2085.22 1705.17 2077.81 1697.76 2077.81 1688.67 2077.81 1679.54 2085.22 1672.17 2094.31 1672.17 2103.45 1672.17 2110.82 1679.54 2110.82 1688.67Z" fill="#A9D18E" fill-rule="evenodd"/><path d="M1606.82 1744.22C1606.82 1753.08 1599.45 1760.22 1590.31 1760.22 1581.19 1760.22 1573.81 1753.08 1573.81 1744.22 1573.81 1735.37 1581.19 1728.22 1590.31 1728.22 1599.45 1728.22 1606.82 1735.37 1606.82 1744.22Z" fill-rule="evenodd"/><path d="M1718.82 1744.22C1718.82 1753.04 1711.45 1760.22 1702.31 1760.22 1693.19 1760.22 1685.81 1753.04 1685.81 1744.22 1685.81 1735.37 1693.19 1728.22 1702.31 1728.22 1711.45 1728.22 1718.82 1735.37 1718.82 1744.22Z" fill="#AFABAB" fill-rule="evenodd"/><path d="M1830.75 1744.22C1830.75 1753.04 1823.16 1760.22 1813.75 1760.22 1804.38 1760.22 1796.75 1753.04 1796.75 1744.22 1796.75 1735.37 1804.38 1728.22 1813.75 1728.22 1823.16 1728.22 1830.75 1735.37 1830.75 1744.22Z" fill="#AFABAB" fill-rule="evenodd"/><path d="M1941.82 1744.22C1941.82 1753.04 1934.45 1760.22 1925.31 1760.22 1916.22 1760.22 1908.81 1753.04 1908.81 1744.22 1908.81 1735.37 1916.22 1728.22 1925.31 1728.22 1934.45 1728.22 1941.82 1735.37 1941.82 1744.22Z" fill="#AFABAB" fill-rule="evenodd"/><path d="M2053.82 1744.22C2053.82 1753.04 2046.45 1760.22 2037.31 1760.22 2028.22 1760.22 2020.81 1753.04 2020.81 1744.22 2020.81 1735.37 2028.22 1728.22 2037.31 1728.22 2046.45 1728.22 2053.82 1735.37 2053.82 1744.22Z" fill-rule="evenodd"/><path d="M1549.82 1799.22C1549.82 1808.08 1542.45 1815.22 1533.31 1815.22 1524.19 1815.22 1516.81 1808.08 1516.81 1799.22 1516.81 1790.37 1524.19 1783.22 1533.31 1783.22 1542.45 1783.22 1549.82 1790.37 1549.82 1799.22Z" fill="#548235" fill-rule="evenodd"/><path d="M1661.82 1799.22C1661.82 1808.04 1654.45 1815.22 1645.31 1815.22 1636.19 1815.22 1628.81 1808.04 1628.81 1799.22 1628.81 1790.37 1636.19 1783.22 1645.31 1783.22 1654.45 1783.22 1661.82 1790.37 1661.82 1799.22Z" fill="#A9D18E" fill-rule="evenodd"/><path d="M1774.75 1799.22C1774.75 1808.04 1767.16 1815.22 1757.75 1815.22 1748.38 1815.22 1740.75 1808.04 1740.75 1799.22 1740.75 1790.37 1748.38 1783.22 1757.75 1783.22 1767.16 1783.22 1774.75 1790.37 1774.75 1799.22Z" fill="#A9D18E" fill-rule="evenodd"/><path d="M1886.82 1799.22C1886.82 1808.04 1879.45 1815.22 1870.31 1815.22 1861.22 1815.22 1853.81 1808.04 1853.81 1799.22 1853.81 1790.37 1861.22 1783.22 1870.31 1783.22 1879.45 1783.22 1886.82 1790.37 1886.82 1799.22Z" fill="#A9D18E" fill-rule="evenodd"/><path d="M1998.82 1799.22C1998.82 1808.04 1991.45 1815.22 1982.31 1815.22 1973.22 1815.22 1965.81 1808.04 1965.81 1799.22 1965.81 1790.37 1973.22 1783.22 1982.31 1783.22 1991.45 1783.22 1998.82 1790.37 1998.82 1799.22Z" fill="#A9D18E" fill-rule="evenodd"/><path d="M2110.82 1799.22C2110.82 1808.04 2103.45 1815.22 2094.31 1815.22 2085.22 1815.22 2077.81 1808.04 2077.81 1799.22 2077.81 1790.37 2085.22 1783.22 2094.31 1783.22 2103.45 1783.22 2110.82 1790.37 2110.82 1799.22Z" fill="#548235" fill-rule="evenodd"/><path d="M2173.75 1300.67C2173.75 1309.8 2166.16 1317.17 2156.75 1317.17 2147.34 1317.17 2139.75 1309.8 2139.75 1300.67 2139.75 1291.54 2147.34 1284.17 2156.75 1284.17 2166.16 1284.17 2173.75 1291.54 2173.75 1300.67Z" fill="#A6A6A6" fill-rule="evenodd"/><path d="M2284.82 1300.67C2284.82 1309.76 2277.45 1317.17 2268.31 1317.17 2259.19 1317.17 2251.81 1309.76 2251.81 1300.67 2251.81 1291.54 2259.19 1284.17 2268.31 1284.17 2277.45 1284.17 2284.82 1291.54 2284.82 1300.67Z" fill="#AFABAB" fill-rule="evenodd"/><path d="M2396.82 1300.67C2396.82 1309.76 2389.45 1317.17 2380.31 1317.17 2371.22 1317.17 2363.81 1309.76 2363.81 1300.67 2363.81 1291.54 2371.22 1284.17 2380.31 1284.17 2389.45 1284.17 2396.82 1291.54 2396.82 1300.67Z" fill="#AFABAB" fill-rule="evenodd"/><path d="M2508.82 1300.67C2508.82 1309.76 2501.45 1317.17 2492.31 1317.17 2483.22 1317.17 2475.81 1309.76 2475.81 1300.67 2475.81 1291.54 2483.22 1284.17 2492.31 1284.17 2501.45 1284.17 2508.82 1291.54 2508.82 1300.67Z" fill="#AFABAB" fill-rule="evenodd"/><path d="M2620.82 1300.67C2620.82 1309.76 2613.45 1317.17 2604.31 1317.17 2595.22 1317.17 2587.81 1309.76 2587.81 1300.67 2587.81 1291.54 2595.22 1284.17 2604.31 1284.17 2613.45 1284.17 2620.82 1291.54 2620.82 1300.67Z" fill="#A6A6A6" fill-rule="evenodd"/><path d="M2228.82 1356.22C2228.82 1365.04 2221.45 1372.22 2212.31 1372.22 2203.19 1372.22 2195.81 1365.04 2195.81 1356.22 2195.81 1347.37 2203.19 1340.22 2212.31 1340.22 2221.45 1340.22 2228.82 1347.37 2228.82 1356.22Z" fill="#A9D18E" fill-rule="evenodd"/><path d="M2340.82 1356.22C2340.82 1365.04 2333.45 1372.22 2324.31 1372.22 2315.22 1372.22 2307.81 1365.04 2307.81 1356.22 2307.81 1347.37 2315.22 1340.22 2324.31 1340.22 2333.45 1340.22 2340.82 1347.37 2340.82 1356.22Z" fill="#A9D18E" fill-rule="evenodd"/><path d="M2452.82 1356.22C2452.82 1365.04 2445.45 1372.22 2436.31 1372.22 2427.22 1372.22 2419.81 1365.04 2419.81 1356.22 2419.81 1347.37 2427.22 1340.22 2436.31 1340.22 2445.45 1340.22 2452.82 1347.37 2452.82 1356.22Z" fill="#A9D18E" fill-rule="evenodd"/><path d="M2565.75 1356.22C2565.75 1365.04 2558.16 1372.22 2548.75 1372.22 2539.38 1372.22 2531.75 1365.04 2531.75 1356.22 2531.75 1347.37 2539.38 1340.22 2548.75 1340.22 2558.16 1340.22 2565.75 1347.37 2565.75 1356.22Z" fill="#A9D18E" fill-rule="evenodd"/><path d="M2677.82 1356.22C2677.82 1365.04 2670.45 1372.22 2661.31 1372.22 2652.22 1372.22 2644.81 1365.04 2644.81 1356.22 2644.81 1347.37 2652.22 1340.22 2661.31 1340.22 2670.45 1340.22 2677.82 1347.37 2677.82 1356.22Z" fill="#A9D18E" fill-rule="evenodd"/><path d="M2173.75 1411.67C2173.75 1420.8 2166.16 1428.17 2156.75 1428.17 2147.34 1428.17 2139.75 1420.8 2139.75 1411.67 2139.75 1402.54 2147.34 1395.17 2156.75 1395.17 2166.16 1395.17 2173.75 1402.54 2173.75 1411.67Z" fill="#A6A6A6" fill-rule="evenodd"/><path d="M2284.82 1411.67C2284.82 1420.76 2277.45 1428.17 2268.31 1428.17 2259.19 1428.17 2251.81 1420.76 2251.81 1411.67 2251.81 1402.54 2259.19 1395.17 2268.31 1395.17 2277.45 1395.17 2284.82 1402.54 2284.82 1411.67Z" fill="#AFABAB" fill-rule="evenodd"/><path d="M2396.82 1411.67C2396.82 1420.76 2389.45 1428.17 2380.31 1428.17 2371.22 1428.17 2363.81 1420.76 2363.81 1411.67 2363.81 1402.54 2371.22 1395.17 2380.31 1395.17 2389.45 1395.17 2396.82 1402.54 2396.82 1411.67Z" fill="#AFABAB" fill-rule="evenodd"/><path d="M2508.82 1411.67C2508.82 1420.76 2501.45 1428.17 2492.31 1428.17 2483.22 1428.17 2475.81 1420.76 2475.81 1411.67 2475.81 1402.54 2483.22 1395.17 2492.31 1395.17 2501.45 1395.17 2508.82 1402.54 2508.82 1411.67Z" fill="#AFABAB" fill-rule="evenodd"/><path d="M2620.82 1411.67C2620.82 1420.76 2613.45 1428.17 2604.31 1428.17 2595.22 1428.17 2587.81 1420.76 2587.81 1411.67 2587.81 1402.54 2595.22 1395.17 2604.31 1395.17 2613.45 1395.17 2620.82 1402.54 2620.82 1411.67Z" fill="#A6A6A6" fill-rule="evenodd"/><path d="M2228.82 1466.67C2228.82 1475.76 2221.45 1483.17 2212.31 1483.17 2203.19 1483.17 2195.81 1475.76 2195.81 1466.67 2195.81 1457.54 2203.19 1450.17 2212.31 1450.17 2221.45 1450.17 2228.82 1457.54 2228.82 1466.67Z" fill="#A9D18E" fill-rule="evenodd"/><path d="M2340.82 1466.67C2340.82 1475.76 2333.45 1483.17 2324.31 1483.17 2315.22 1483.17 2307.81 1475.76 2307.81 1466.67 2307.81 1457.54 2315.22 1450.17 2324.31 1450.17 2333.45 1450.17 2340.82 1457.54 2340.82 1466.67Z" fill="#A9D18E" fill-rule="evenodd"/><path d="M2452.82 1466.67C2452.82 1475.76 2445.45 1483.17 2436.31 1483.17 2427.22 1483.17 2419.81 1475.76 2419.81 1466.67 2419.81 1457.54 2427.22 1450.17 2436.31 1450.17 2445.45 1450.17 2452.82 1457.54 2452.82 1466.67Z" fill="#A9D18E" fill-rule="evenodd"/><path d="M2565.75 1466.67C2565.75 1475.76 2558.16 1483.17 2548.75 1483.17 2539.38 1483.17 2531.75 1475.76 2531.75 1466.67 2531.75 1457.54 2539.38 1450.17 2548.75 1450.17 2558.16 1450.17 2565.75 1457.54 2565.75 1466.67Z" fill="#A9D18E" fill-rule="evenodd"/><path d="M2677.82 1466.67C2677.82 1475.76 2670.45 1483.17 2661.31 1483.17 2652.22 1483.17 2644.81 1475.76 2644.81 1466.67 2644.81 1457.54 2652.22 1450.17 2661.31 1450.17 2670.45 1450.17 2677.82 1457.54 2677.82 1466.67Z" fill="#A9D18E" fill-rule="evenodd"/><path d="M2173.75 1521.67C2173.75 1530.8 2166.16 1538.17 2156.75 1538.17 2147.34 1538.17 2139.75 1530.8 2139.75 1521.67 2139.75 1512.54 2147.34 1505.17 2156.75 1505.17 2166.16 1505.17 2173.75 1512.54 2173.75 1521.67Z" fill="#A6A6A6" fill-rule="evenodd"/><path d="M2284.82 1521.67C2284.82 1530.76 2277.45 1538.17 2268.31 1538.17 2259.19 1538.17 2251.81 1530.76 2251.81 1521.67 2251.81 1512.54 2259.19 1505.17 2268.31 1505.17 2277.45 1505.17 2284.82 1512.54 2284.82 1521.67Z" fill="#AFABAB" fill-rule="evenodd"/><path d="M2396.82 1521.67C2396.82 1530.76 2389.45 1538.17 2380.31 1538.17 2371.22 1538.17 2363.81 1530.76 2363.81 1521.67 2363.81 1512.54 2371.22 1505.17 2380.31 1505.17 2389.45 1505.17 2396.82 1512.54 2396.82 1521.67Z" fill="#AFABAB" fill-rule="evenodd"/><path d="M2508.82 1521.67C2508.82 1530.76 2501.45 1538.17 2492.31 1538.17 2483.22 1538.17 2475.81 1530.76 2475.81 1521.67 2475.81 1512.54 2483.22 1505.17 2492.31 1505.17 2501.45 1505.17 2508.82 1512.54 2508.82 1521.67Z" fill="#AFABAB" fill-rule="evenodd"/><path d="M2620.82 1521.67C2620.82 1530.76 2613.45 1538.17 2604.31 1538.17 2595.22 1538.17 2587.81 1530.76 2587.81 1521.67 2587.81 1512.54 2595.22 1505.17 2604.31 1505.17 2613.45 1505.17 2620.82 1512.54 2620.82 1521.67Z" fill="#A6A6A6" fill-rule="evenodd"/><path d="M2228.82 1576.67C2228.82 1585.76 2221.45 1593.17 2212.31 1593.17 2203.19 1593.17 2195.81 1585.76 2195.81 1576.67 2195.81 1567.54 2203.19 1560.17 2212.31 1560.17 2221.45 1560.17 2228.82 1567.54 2228.82 1576.67Z" fill="#A9D18E" fill-rule="evenodd"/><path d="M2340.82 1576.67C2340.82 1585.76 2333.45 1593.17 2324.31 1593.17 2315.22 1593.17 2307.81 1585.76 2307.81 1576.67 2307.81 1567.54 2315.22 1560.17 2324.31 1560.17 2333.45 1560.17 2340.82 1567.54 2340.82 1576.67Z" fill="#A9D18E" fill-rule="evenodd"/><path d="M2452.82 1576.67C2452.82 1585.76 2445.45 1593.17 2436.31 1593.17 2427.22 1593.17 2419.81 1585.76 2419.81 1576.67 2419.81 1567.54 2427.22 1560.17 2436.31 1560.17 2445.45 1560.17 2452.82 1567.54 2452.82 1576.67Z" fill="#A9D18E" fill-rule="evenodd"/><path d="M2565.75 1576.67C2565.75 1585.76 2558.16 1593.17 2548.75 1593.17 2539.38 1593.17 2531.75 1585.76 2531.75 1576.67 2531.75 1567.54 2539.38 1560.17 2548.75 1560.17 2558.16 1560.17 2565.75 1567.54 2565.75 1576.67Z" fill="#A9D18E" fill-rule="evenodd"/><path d="M2677.82 1576.67C2677.82 1585.76 2670.45 1593.17 2661.31 1593.17 2652.22 1593.17 2644.81 1585.76 2644.81 1576.67 2644.81 1567.54 2652.22 1560.17 2661.31 1560.17 2670.45 1560.17 2677.82 1567.54 2677.82 1576.67Z" fill="#A9D18E" fill-rule="evenodd"/><path d="M2173.75 1631.67C2173.75 1640.8 2166.16 1648.17 2156.75 1648.17 2147.34 1648.17 2139.75 1640.8 2139.75 1631.67 2139.75 1622.54 2147.34 1615.17 2156.75 1615.17 2166.16 1615.17 2173.75 1622.54 2173.75 1631.67Z" fill="#A6A6A6" fill-rule="evenodd"/><path d="M2284.82 1631.67C2284.82 1640.76 2277.45 1648.17 2268.31 1648.17 2259.19 1648.17 2251.81 1640.76 2251.81 1631.67 2251.81 1622.54 2259.19 1615.17 2268.31 1615.17 2277.45 1615.17 2284.82 1622.54 2284.82 1631.67Z" fill="#AFABAB" fill-rule="evenodd"/><path d="M2396.82 1631.67C2396.82 1640.76 2389.45 1648.17 2380.31 1648.17 2371.22 1648.17 2363.81 1640.76 2363.81 1631.67 2363.81 1622.54 2371.22 1615.17 2380.31 1615.17 2389.45 1615.17 2396.82 1622.54 2396.82 1631.67Z" fill="#AFABAB" fill-rule="evenodd"/><path d="M2508.82 1631.67C2508.82 1640.76 2501.45 1648.17 2492.31 1648.17 2483.22 1648.17 2475.81 1640.76 2475.81 1631.67 2475.81 1622.54 2483.22 1615.17 2492.31 1615.17 2501.45 1615.17 2508.82 1622.54 2508.82 1631.67Z" fill="#AFABAB" fill-rule="evenodd"/><path d="M2620.82 1631.67C2620.82 1640.76 2613.45 1648.17 2604.31 1648.17 2595.22 1648.17 2587.81 1640.76 2587.81 1631.67 2587.81 1622.54 2595.22 1615.17 2604.31 1615.17 2613.45 1615.17 2620.82 1622.54 2620.82 1631.67Z" fill="#A6A6A6" fill-rule="evenodd"/><path d="M2228.82 1687.22C2228.82 1696.04 2221.45 1703.22 2212.31 1703.22 2203.19 1703.22 2195.81 1696.04 2195.81 1687.22 2195.81 1678.37 2203.19 1671.22 2212.31 1671.22 2221.45 1671.22 2228.82 1678.37 2228.82 1687.22Z" fill="#A9D18E" fill-rule="evenodd"/><path d="M2340.82 1687.22C2340.82 1696.04 2333.45 1703.22 2324.31 1703.22 2315.22 1703.22 2307.81 1696.04 2307.81 1687.22 2307.81 1678.37 2315.22 1671.22 2324.31 1671.22 2333.45 1671.22 2340.82 1678.37 2340.82 1687.22Z" fill="#A9D18E" fill-rule="evenodd"/><path d="M2452.82 1687.22C2452.82 1696.04 2445.45 1703.22 2436.31 1703.22 2427.22 1703.22 2419.81 1696.04 2419.81 1687.22 2419.81 1678.37 2427.22 1671.22 2436.31 1671.22 2445.45 1671.22 2452.82 1678.37 2452.82 1687.22Z" fill="#A9D18E" fill-rule="evenodd"/><path d="M2565.75 1687.22C2565.75 1696.04 2558.16 1703.22 2548.75 1703.22 2539.38 1703.22 2531.75 1696.04 2531.75 1687.22 2531.75 1678.37 2539.38 1671.22 2548.75 1671.22 2558.16 1671.22 2565.75 1678.37 2565.75 1687.22Z" fill="#A9D18E" fill-rule="evenodd"/><path d="M2677.82 1687.22C2677.82 1696.04 2670.45 1703.22 2661.31 1703.22 2652.22 1703.22 2644.81 1696.04 2644.81 1687.22 2644.81 1678.37 2652.22 1671.22 2661.31 1671.22 2670.45 1671.22 2677.82 1678.37 2677.82 1687.22Z" fill="#A9D18E" fill-rule="evenodd"/><path d="M2173.75 1742.67C2173.75 1751.8 2166.16 1759.17 2156.75 1759.17 2147.34 1759.17 2139.75 1751.8 2139.75 1742.67 2139.75 1733.54 2147.34 1726.17 2156.75 1726.17 2166.16 1726.17 2173.75 1733.54 2173.75 1742.67Z" fill="#A6A6A6" fill-rule="evenodd"/><path d="M2284.82 1742.67C2284.82 1751.76 2277.45 1759.17 2268.31 1759.17 2259.19 1759.17 2251.81 1751.76 2251.81 1742.67 2251.81 1733.54 2259.19 1726.17 2268.31 1726.17 2277.45 1726.17 2284.82 1733.54 2284.82 1742.67Z" fill="#AFABAB" fill-rule="evenodd"/><path d="M2396.82 1742.67C2396.82 1751.76 2389.45 1759.17 2380.31 1759.17 2371.22 1759.17 2363.81 1751.76 2363.81 1742.67 2363.81 1733.54 2371.22 1726.17 2380.31 1726.17 2389.45 1726.17 2396.82 1733.54 2396.82 1742.67Z" fill="#AFABAB" fill-rule="evenodd"/><path d="M2508.82 1742.67C2508.82 1751.76 2501.45 1759.17 2492.31 1759.17 2483.22 1759.17 2475.81 1751.76 2475.81 1742.67 2475.81 1733.54 2483.22 1726.17 2492.31 1726.17 2501.45 1726.17 2508.82 1733.54 2508.82 1742.67Z" fill="#AFABAB" fill-rule="evenodd"/><path d="M2620.82 1742.67C2620.82 1751.76 2613.45 1759.17 2604.31 1759.17 2595.22 1759.17 2587.81 1751.76 2587.81 1742.67 2587.81 1733.54 2595.22 1726.17 2604.31 1726.17 2613.45 1726.17 2620.82 1733.54 2620.82 1742.67Z" fill-rule="evenodd"/><path d="M2228.82 1797.67C2228.82 1806.76 2221.45 1814.17 2212.31 1814.17 2203.19 1814.17 2195.81 1806.76 2195.81 1797.67 2195.81 1788.54 2203.19 1781.17 2212.31 1781.17 2221.45 1781.17 2228.82 1788.54 2228.82 1797.67Z" fill="#A9D18E" fill-rule="evenodd"/><path d="M2340.82 1797.67C2340.82 1806.76 2333.45 1814.17 2324.31 1814.17 2315.22 1814.17 2307.81 1806.76 2307.81 1797.67 2307.81 1788.54 2315.22 1781.17 2324.31 1781.17 2333.45 1781.17 2340.82 1788.54 2340.82 1797.67Z" fill="#A9D18E" fill-rule="evenodd"/><path d="M2452.82 1797.67C2452.82 1806.76 2445.45 1814.17 2436.31 1814.17 2427.22 1814.17 2419.81 1806.76 2419.81 1797.67 2419.81 1788.54 2427.22 1781.17 2436.31 1781.17 2445.45 1781.17 2452.82 1788.54 2452.82 1797.67Z" fill="#A9D18E" fill-rule="evenodd"/><path d="M2565.75 1797.67C2565.75 1806.76 2558.16 1814.17 2548.75 1814.17 2539.38 1814.17 2531.75 1806.76 2531.75 1797.67 2531.75 1788.54 2539.38 1781.17 2548.75 1781.17 2558.16 1781.17 2565.75 1788.54 2565.75 1797.67Z" fill="#A9D18E" fill-rule="evenodd"/><path d="M2677.82 1797.67C2677.82 1806.76 2670.45 1814.17 2661.31 1814.17 2652.22 1814.17 2644.81 1806.76 2644.81 1797.67 2644.81 1788.54 2652.22 1781.17 2661.31 1781.17 2670.45 1781.17 2677.82 1788.54 2677.82 1797.67Z" fill="#548235" fill-rule="evenodd"/><path d="M2324 714 2324 1784.73" stroke="#A9D18E" stroke-width="2.29167" stroke-miterlimit="8" fill="none" fill-rule="evenodd"/><path d="M2549 711 2549 1781.73" stroke="#A9D18E" stroke-width="2.29167" stroke-miterlimit="8" fill="none" fill-rule="evenodd"/><path d="M2437 711 2437 1781.73" stroke="#A9D18E" stroke-width="2.29167" stroke-miterlimit="8" fill="none" fill-rule="evenodd"/><path d="M0 0 1094.18 1.64242" stroke="#A9D18E" stroke-width="2.29167" stroke-miterlimit="8" fill="none" fill-rule="evenodd" transform="matrix(1 0 0 -1 1550 806.643)"/><path d="M0 0 1094.18 1.64242" stroke="#A9D18E" stroke-width="2.29167" stroke-miterlimit="8" fill="none" fill-rule="evenodd" transform="matrix(1 0 0 -1 1550 916.643)"/><path d="M0 0 1094.18 1.64242" stroke="#A9D18E" stroke-width="2.29167" stroke-miterlimit="8" fill="none" fill-rule="evenodd" transform="matrix(1 0 0 -1 1550 1027.64)"/><path d="M0 0 1094.18 1.64242" stroke="#A9D18E" stroke-width="2.29167" stroke-miterlimit="8" fill="none" fill-rule="evenodd" transform="matrix(1 0 0 -1 1550 1137.64)"/><path d="M0 0 1094.18 1.64242" stroke="#A9D18E" stroke-width="2.29167" stroke-miterlimit="8" fill="none" fill-rule="evenodd" transform="matrix(1 0 0 -1 1550 1247.64)"/><path d="M0 0 1094.18 1.64242" stroke="#A9D18E" stroke-width="2.29167" stroke-miterlimit="8" fill="none" fill-rule="evenodd" transform="matrix(1 0 0 -1 1549 1357.64)"/><path d="M0 0 1094.18 1.64242" stroke="#A9D18E" stroke-width="2.29167" stroke-miterlimit="8" fill="none" fill-rule="evenodd" transform="matrix(1 0 0 -1 1549 1467.64)"/><path d="M0 0 1094.18 1.64242" stroke="#A9D18E" stroke-width="2.29167" stroke-miterlimit="8" fill="none" fill-rule="evenodd" transform="matrix(1 0 0 -1 1549 1578.64)"/><path d="M0 0 1094.18 1.64242" stroke="#A9D18E" stroke-width="2.29167" stroke-miterlimit="8" fill="none" fill-rule="evenodd" transform="matrix(1 0 0 -1 1549 1688.64)"/><path d="M0 0 1094.18 1.64242" stroke="#A9D18E" stroke-width="2.29167" stroke-miterlimit="8" fill="none" fill-rule="evenodd" transform="matrix(1 0 0 -1 1549 1798.64)"/><path d="M1532 716 1532 1786.73" stroke="#A9D18E" stroke-width="2.29167" stroke-miterlimit="8" fill="none" fill-rule="evenodd"/><path d="M1981 712 1981 1782.73" stroke="#A9D18E" stroke-width="2.29167" stroke-miterlimit="8" fill="none" fill-rule="evenodd"/><path d="M1644 716 1644 1786.73" stroke="#A9D18E" stroke-width="2.29167" stroke-miterlimit="8" fill="none" fill-rule="evenodd"/><path d="M1869 712 1869 1782.73" stroke="#A9D18E" stroke-width="2.29167" stroke-miterlimit="8" fill="none" fill-rule="evenodd"/><path d="M1757 712 1757 1782.73" stroke="#A9D18E" stroke-width="2.29167" stroke-miterlimit="8" fill="none" fill-rule="evenodd"/><path d="M2094 712 2094 1782.73" stroke="#A9D18E" stroke-width="2.29167" stroke-miterlimit="8" fill="none" fill-rule="evenodd"/><rect x="2844" y="363" width="1327" height="104" fill="#FFFFFF"/><text fill="#2F5597" font-family="Calibri,Calibri_MSFontService,sans-serif" font-weight="400" font-size="73" transform="matrix(1 0 0 1 2870.39 440)">Interpolated Bound Dimension, <tspan font-size="73" x="949.827" y="0">m</tspan><tspan font-size="73" x="1067.69" y="0">Size </tspan>11</text><rect x="2844" y="489" width="1327" height="104" fill="#FFFFFF"/><text fill="#2F5597" font-family="Calibri,Calibri_MSFontService,sans-serif" font-weight="400" font-size="73" transform="matrix(1 0 0 1 2870.39 566)">Interpolated Dimension<tspan font-size="73" x="704.046" y="0">, </tspan><tspan font-size="73" x="738.994" y="0">i</tspan><tspan font-size="73" x="1067.69" y="0">Size </tspan>10</text><rect x="1973" y="489" width="135" height="114" fill="#FFFFFF"/><text fill="#A6A6A6" font-family="Calibri,Calibri_MSFontService,sans-serif" font-weight="400" font-size="92" transform="matrix(1 0 0 1 2017.23 577)">4</text><path d="M2040 603 2040 631.595" stroke="#A6A6A6" stroke-width="2.29167" stroke-miterlimit="8" fill="none" fill-rule="evenodd"/><rect x="2532" y="489" width="135" height="114" fill="#FFFFFF"/><text fill="#A6A6A6" font-family="Arial,Arial_MSFontService,sans-serif" font-weight="400" font-size="92" transform="matrix(1 0 0 1 2574.13 580)">9</text><path d="M2600 603 2600 631.595" stroke="#A6A6A6" stroke-width="2.29167" stroke-miterlimit="8" fill="none" fill-rule="evenodd"/><rect x="1525" y="489" width="136" height="114" fill="#FFFFFF"/><text fill="#A6A6A6" font-family="Arial,Arial_MSFontService,sans-serif" font-weight="400" font-size="92" transform="matrix(1 0 0 1 1567.28 580)">0</text><path d="M1593 603 1593 631.595" stroke="#A6A6A6" stroke-width="2.29167" stroke-miterlimit="8" fill="none" fill-rule="evenodd"/><path d="M1518 346C1518 330.536 1520.09 318 1522.67 318L1559.33 318C1561.91 318 1564 305.464 1564 290 1564 305.464 1566.09 318 1568.67 318L1605.33 318C1607.91 318 1610 330.536 1610 346" stroke="#A6A6A6" stroke-width="2.29167" stroke-miterlimit="8" fill="none" fill-rule="evenodd"/><rect x="1493" y="188" width="135" height="114" fill="#FFFFFF"/><text fill="#A6A6A6" font-family="Calibri,Calibri_MSFontService,sans-serif" font-weight="400" font-size="92" transform="matrix(1 0 0 1 1537.36 276)">0</text><path d="M2022 346C2022 330.26 2024.13 317.5 2026.75 317.5L2063.25 317.5C2065.87 317.5 2068 304.74 2068 289 2068 304.74 2070.13 317.5 2072.75 317.5L2109.25 317.5C2111.87 317.5 2114 330.26 2114 346" stroke="#A6A6A6" stroke-width="2.29167" stroke-miterlimit="8" fill="none" fill-rule="evenodd"/><rect x="1997" y="188" width="135" height="114" fill="#FFFFFF"/><text fill="#A6A6A6" font-family="Calibri,Calibri_MSFontService,sans-serif" font-weight="400" font-size="92" transform="matrix(1 0 0 1 2041.22 276)">1</text><path d="M2588 346C2588 330.26 2590.13 317.5 2592.75 317.5L2629.25 317.5C2631.87 317.5 2634 304.741 2634 289 2634 304.741 2636.13 317.5 2638.75 317.5L2675.25 317.5C2677.87 317.5 2680 330.26 2680 346" stroke="#A6A6A6" stroke-width="2.29167" stroke-miterlimit="8" fill="none" fill-rule="evenodd"/><rect x="2563" y="187" width="135" height="114" fill="#FFFFFF"/><text fill="#A6A6A6" font-family="Calibri,Calibri_MSFontService,sans-serif" font-weight="400" font-size="92" transform="matrix(1 0 0 1 2607.39 275)">2</text><rect x="2844" y="145" width="1327" height="184" fill="#FFFFFF"/><text fill="#2F5597" font-family="Calibri,Calibri_MSFontService,sans-serif" font-weight="400" font-size="73" transform="matrix(1 0 0 1 2870.39 218)">Subsampled Dimension shared by<tspan font-size="73" x="0" y="88">Coordinate and Bounds Tie </tspan><tspan font-size="73" x="819.661" y="88">Points</tspan><tspan font-size="73" x="1067.69" y="88">Size </tspan>3</text><path d="M2658 483 2658 627.391" stroke="#A6A6A6" stroke-width="2.29167" stroke-miterlimit="8" fill="none" fill-rule="evenodd"/><rect x="2591" y="368" width="135" height="115" fill="#FFFFFF"/><text fill="#A6A6A6" font-family="Arial,Arial_MSFontService,sans-serif" font-weight="400" font-size="92" transform="matrix(1 0 0 1 2607.43 460)">10<tspan fill="#7F7F7F" font-family="Calibri,Calibri_MSFontService,sans-serif" font-size="73" x="396.571" y="945">Coordinate Tie Points</tspan></text><path d="M2909.82 1378.67C2909.82 1387.76 2902.45 1395.17 2893.31 1395.17 2884.19 1395.17 2876.81 1387.76 2876.81 1378.67 2876.81 1369.54 2884.19 1362.17 2893.31 1362.17 2902.45 1362.17 2909.82 1369.54 2909.82 1378.67Z" fill-rule="evenodd"/><text fill="#7F7F7F" font-family="Calibri,Calibri_MSFontService,sans-serif" font-weight="400" font-size="73" transform="matrix(1 0 0 1 3004 1524)">Reconstituted Coordinate</text><path d="M2909.82 1498.22C2909.82 1507.04 2902.45 1514.22 2893.31 1514.22 2884.19 1514.22 2876.81 1507.04 2876.81 1498.22 2876.81 1489.37 2884.19 1482.22 2893.31 1482.22 2902.45 1482.22 2909.82 1489.37 2909.82 1498.22Z" fill="#AFABAB" fill-rule="evenodd"/><text fill="#70AD47" font-family="Calibri,Calibri_MSFontService,sans-serif" font-weight="400" font-size="73" transform="matrix(1 0 0 1 3004 1690)">Bounds Tie Points</text><path d="M2909.82 1664.67C2909.82 1673.76 2902.45 1681.17 2893.31 1681.17 2884.19 1681.17 2876.81 1673.76 2876.81 1664.67 2876.81 1655.54 2884.19 1648.17 2893.31 1648.17 2902.45 1648.17 2909.82 1655.54 2909.82 1664.67Z" fill="#548235" fill-rule="evenodd"/><text fill="#70AD47" font-family="Calibri,Calibri_MSFontService,sans-serif" font-weight="400" font-size="73" transform="matrix(1 0 0 1 3004 1810)">Reconstituted Bounds</text><path d="M2909.82 1783.66C2909.82 1792.76 2902.45 1800.17 2893.31 1800.17 2884.19 1800.17 2876.81 1792.76 2876.81 1783.66 2876.81 1774.54 2884.19 1767.16 2893.31 1767.16 2902.45 1767.16 2909.82 1774.54 2909.82 1783.66Z" fill="#A9D18E" fill-rule="evenodd"/><path d="M878.5 425.781 1023.94 425.782 1023.94 429.219 878.5 429.219ZM1019.36 413.75 1046.86 427.5 1019.36 441.25Z" fill="#7F7F7F"/><path d="M879.219 427.5 879.219 599.465 875.782 599.465 875.781 427.5ZM891.25 594.882 877.5 622.382 863.75 594.882Z" fill="#7F7F7F"/><text fill="#7F7F7F" font-family="Calibri,Calibri_MSFontService,sans-serif" font-weight="400" font-size="92" transform="matrix(1 0 0 1 1022.06 397)">m<tspan font-size="92" x="-146.797" y="301">n</tspan></text><path d="M1163.5 541.781 1308.94 541.781 1308.94 545.219 1163.5 545.219ZM1304.36 529.75 1331.86 543.5 1304.36 557.25Z" fill="#7F7F7F"/><path d="M1164.22 543.5 1164.22 715.465 1160.78 715.465 1160.78 543.5ZM1176.25 710.882 1162.5 738.382 1148.75 710.882Z" fill="#7F7F7F"/><text fill="#7F7F7F" font-family="Calibri,Calibri_MSFontService,sans-serif" font-weight="400" font-size="92" transform="matrix(1 0 0 1 1307.1 513)">i<tspan font-size="92" x="-146.797" y="301">j</tspan></text><rect x="630" y="1251" width="260" height="256" stroke="#A9D18E" stroke-width="13.75" stroke-miterlimit="8" fill="#DAE3F3"/><path d="M653.559 1245.66C653.559 1259.72 641.945 1271.17 627.557 1271.17 613.17 1271.17 601.557 1259.72 601.557 1245.66 601.557 1231.55 613.17 1220.16 627.557 1220.16 641.945 1220.16 653.559 1231.55 653.559 1245.66Z" fill="#A9D18E" fill-rule="evenodd"/><path d="M912.559 1248.11C912.559 1262.44 900.945 1274.11 886.557 1274.11 872.17 1274.11 860.556 1262.44 860.556 1248.11 860.556 1233.72 872.17 1222.11 886.557 1222.11 900.945 1222.11 912.559 1233.72 912.559 1248.11Z" fill="#A9D18E" fill-rule="evenodd"/><path d="M654.559 1503.11C654.559 1517.44 642.945 1529.11 628.557 1529.11 614.171 1529.11 602.557 1517.44 602.557 1503.11 602.557 1488.72 614.171 1477.11 628.557 1477.11 642.945 1477.11 654.559 1488.72 654.559 1503.11Z" fill="#A9D18E" fill-rule="evenodd"/><path d="M913.559 1505.66C913.559 1519.72 901.945 1531.17 887.557 1531.17 873.17 1531.17 861.556 1519.72 861.556 1505.66 861.556 1491.55 873.17 1480.16 887.557 1480.16 901.945 1480.16 913.559 1491.55 913.559 1505.66Z" fill="#A9D18E" fill-rule="evenodd"/><path d="M782.559 1376.11C782.559 1390.44 770.945 1402.11 756.557 1402.11 742.17 1402.11 730.556 1390.44 730.556 1376.11 730.556 1361.72 742.17 1350.11 756.557 1350.11 770.945 1350.11 782.559 1361.72 782.559 1376.11Z" fill="#A6A6A6" fill-rule="evenodd"/><text fill="#7F7F7F" font-family="Calibri,Calibri_MSFontService,sans-serif" font-weight="400" font-size="73" transform="matrix(1 0 0 1 191.877 923)">Coordinate<tspan font-size="73" x="346.431" y="0">Point</tspan><tspan font-size="73" x="517.298" y="0">(j, </tspan>i)<tspan font-size="73" x="0" y="88">in Interpolated Dimensions</tspan><tspan fill="#70AD47" font-size="73" x="0" y="924">Related Cell defined by </tspan><tspan fill="#70AD47" font-size="73" x="0" y="1012">four Bound </tspan><tspan fill="#70AD47" font-size="73" x="351.381" y="1012">Points</tspan><tspan fill="#70AD47" font-size="73" x="550.894" y="1012">(n, m)</tspan><tspan fill="#70AD47" font-size="73" x="0" y="1100">in Bound Dimensions</tspan><tspan fill="#70AD47" font-size="73" x="9.17767" y="251">B</tspan><tspan fill="#70AD47" font-size="49" x="49.2818" y="268">0 </tspan><tspan fill="#70AD47" font-size="73" x="84.8027" y="251">= (n</tspan><tspan fill="#70AD47" font-size="49" x="198.813" y="268">0</tspan><tspan fill="#70AD47" font-size="73" x="223.449" y="251">, m</tspan><tspan fill="#70AD47" font-size="49" x="316.834" y="268">0</tspan><tspan fill="#70AD47" font-size="73" x="341.469" y="251">) </tspan><tspan fill="#70AD47" font-size="73" x="194.276" y="339">= (j, </tspan><tspan fill="#70AD47" font-size="73" x="324.855" y="339">i</tspan><tspan fill="#70AD47" font-size="73" x="341.469" y="339">)</tspan><tspan fill="#70AD47" font-size="73" x="768.498" y="251">B</tspan><tspan fill="#70AD47" font-size="49" x="808.602" y="268">1 </tspan><tspan fill="#70AD47" font-size="73" x="844.123" y="251">= (n</tspan><tspan fill="#70AD47" font-size="49" x="958.134" y="268">1</tspan><tspan fill="#70AD47" font-size="73" x="982.769" y="251">, m</tspan><tspan fill="#70AD47" font-size="49" x="1076.15" y="268">1</tspan><tspan fill="#70AD47" font-size="73" x="1100.79" y="251">)</tspan><tspan fill="#70AD47" font-size="73" x="879.69" y="339">= (j, i+1)</tspan><tspan fill="#70AD47" font-size="73" x="10.073" y="662">B</tspan><tspan fill="#70AD47" font-size="49" x="50.1772" y="679">3 </tspan><tspan fill="#70AD47" font-size="73" x="85.6981" y="662">= (n</tspan><tspan fill="#70AD47" font-size="49" x="199.708" y="679">3</tspan><tspan fill="#70AD47" font-size="73" x="224.344" y="662">, m</tspan><tspan fill="#70AD47" font-size="49" x="317.729" y="679">3</tspan><tspan fill="#70AD47" font-size="73" x="342.365" y="662">) </tspan><tspan fill="#70AD47" font-size="73" x="121.265" y="750">= (j+1, </tspan><tspan fill="#70AD47" font-size="73" x="325.75" y="750">i</tspan><tspan fill="#70AD47" font-size="73" x="342.365" y="750">)</tspan><tspan fill="#70AD47" font-size="73" x="768.564" y="652">B</tspan><tspan fill="#70AD47" font-size="49" x="808.668" y="669">2 </tspan><tspan fill="#70AD47" font-size="73" x="844.189" y="652">= (n</tspan><tspan fill="#70AD47" font-size="49" x="958.199" y="669">2</tspan><tspan fill="#70AD47" font-size="73" x="982.834" y="652">, m</tspan><tspan fill="#70AD47" font-size="49" x="1076.22" y="669">2</tspan><tspan fill="#70AD47" font-size="73" x="1100.86" y="652">) </tspan><tspan fill="#70AD47" font-size="73" x="805.849" y="740">= (j+1, i+1)</tspan></text><path d="M741.062 1341.69 636 1049" stroke="#A6A6A6" stroke-width="2.29167" stroke-miterlimit="8" fill="none" fill-rule="evenodd"/><rect x="1760.5" y="1358.5" width="106" height="108" stroke="#2F528F" stroke-width="4.58333" stroke-miterlimit="8" stroke-dasharray="13.75 4.58333" fill="none"/><path d="M1759.81 1411.65 914 1374" stroke="#A6A6A6" stroke-width="2.29167" stroke-miterlimit="8" fill="none" fill-rule="evenodd"/><rect x="1470" y="364" width="136" height="122" fill="#FFFFFF"/><text fill="#A6A6A6" font-family="Arial,Arial_MSFontService,sans-serif" font-weight="400" font-size="92" transform="matrix(1 0 0 1 1512.28 459)">0</text><path d="M1538 486 1538 637.611" stroke="#A6A6A6" stroke-width="2.29167" stroke-miterlimit="8" fill="none" fill-rule="evenodd"/><text fill="#FFFFFF" font-family="Calibri,Calibri_MSFontService,sans-serif" font-weight="400" font-size="128" transform="matrix(1 0 0 1 1701.05 1007)">(0,0)<tspan font-size="128" x="563.22" y="0">(0,</tspan><tspan font-size="128" x="699.574" y="0">1</tspan>)<tspan font-size="128" x="0" y="556">(</tspan><tspan font-size="128" x="38.9584" y="556">1</tspan><tspan font-size="128" x="104.271" y="556">,0)</tspan><tspan font-size="128" x="563.22" y="556">(</tspan><tspan font-size="128" x="602.179" y="556">1</tspan>,<tspan font-size="128" x="699.574" y="556">1</tspan>)</text><rect x="2092" y="516" width="58.9998" height="49.0002" fill="#FFFFFF"/><path d="M2096 483 2096 627.391" stroke="#A6A6A6" stroke-width="2.29167" stroke-miterlimit="8" fill="none" fill-rule="evenodd"/><rect x="2028" y="368" width="136" height="115" fill="#FFFFFF"/><text fill="#A6A6A6" font-family="Arial,Arial_MSFontService,sans-serif" font-weight="400" font-size="92" transform="matrix(1 0 0 1 2070.81 460)">5</text></g></svg>