<svg width="1234" height="551" xmlns="http://www.w3.org/2000/svg" xmlns:xlink="http://www.w3.org/1999/xlink" overflow="hidden"><defs><clipPath id="clip0"><rect x="41" y="67" width="1234" height="551"/></clipPath></defs><g clip-path="url(#clip0)" transform="translate(-41 -67)"><path d="M236.5 247.5 236.813 421.12" stroke="#4472C4" stroke-width="0.666667" stroke-miterlimit="8" fill="none" fill-rule="evenodd"/><rect x="1155" y="138" width="45" height="30" fill="#FFFFFF"/><text fill="#2F5597" font-family="Calibri,Calibri_MSFontService,sans-serif" font-weight="400" font-size="27" transform="translate(1163.63 162)">ub</text><rect x="819" y="137" width="46" height="31" fill="#FFFFFF"/><text fill="#2F5597" font-family="Calibri,Calibri_MSFontService,sans-serif" font-weight="400" font-size="27" transform="translate(828.61 161)">ua</text><rect x="71" y="331" width="473" height="36" fill="#DAE3F3"/><path d="M97.0073 349.666C97.0073 353.816 93.6572 357.167 89.5067 357.167 85.3569 357.167 82.0067 353.816 82.0067 349.666 82.0067 345.516 85.3569 342.166 89.5067 342.166 93.6572 342.166 97.0073 345.516 97.0073 349.666Z" fill-rule="evenodd"/><path d="M146.007 348.666C146.007 352.799 142.657 356.167 138.507 356.167 134.357 356.167 131.007 352.799 131.007 348.666 131.007 344.516 134.357 341.166 138.507 341.166 142.657 341.166 146.007 344.516 146.007 348.666Z" fill="#AFABAB" fill-rule="evenodd"/><path d="M195.007 348.666C195.007 352.799 191.657 356.167 187.507 356.167 183.374 356.167 180.007 352.799 180.007 348.666 180.007 344.516 183.374 341.166 187.507 341.166 191.657 341.166 195.007 344.516 195.007 348.666Z" fill="#AFABAB" fill-rule="evenodd"/><path d="M244.007 348.666C244.007 352.799 240.657 356.167 236.507 356.167 232.374 356.167 229.007 352.799 229.007 348.666 229.007 344.516 232.374 341.166 236.507 341.166 240.657 341.166 244.007 344.516 244.007 348.666Z" fill="#AFABAB" fill-rule="evenodd"/><path d="M293.007 348.666C293.007 352.799 289.657 356.167 285.507 356.167 281.374 356.167 278.007 352.799 278.007 348.666 278.007 344.516 281.374 341.166 285.507 341.166 289.657 341.166 293.007 344.516 293.007 348.666Z" fill="#AFABAB" fill-rule="evenodd"/><path d="M342.007 348.666C342.007 352.799 338.657 356.167 334.507 356.167 330.374 356.167 327.007 352.799 327.007 348.666 327.007 344.516 330.374 341.166 334.507 341.166 338.657 341.166 342.007 344.516 342.007 348.666Z" fill="#AFABAB" fill-rule="evenodd"/><path d="M390.941 348.666C390.941 352.799 387.368 356.167 382.94 356.167 378.532 356.167 374.94 352.799 374.94 348.666 374.94 344.516 378.532 341.166 382.94 341.166 387.368 341.166 390.941 344.516 390.941 348.666Z" fill="#AFABAB" fill-rule="evenodd"/><path d="M439.007 348.666C439.007 352.799 435.657 356.167 431.507 356.167 427.374 356.167 424.007 352.799 424.007 348.666 424.007 344.516 427.374 341.166 431.507 341.166 435.657 341.166 439.007 344.516 439.007 348.666Z" fill="#AFABAB" fill-rule="evenodd"/><path d="M488.007 348.666C488.007 352.799 484.657 356.167 480.507 356.167 476.374 356.167 473.007 352.799 473.007 348.666 473.007 344.516 476.374 341.166 480.507 341.166 484.657 341.166 488.007 344.516 488.007 348.666Z" fill="#AFABAB" fill-rule="evenodd"/><path d="M537.007 348.666C537.007 352.799 533.657 356.167 529.507 356.167 525.357 356.167 522.007 352.799 522.007 348.666 522.007 344.516 525.357 341.166 529.507 341.166 533.657 341.166 537.007 344.516 537.007 348.666Z" fill-rule="evenodd"/><rect x="41" y="384" width="96" height="27" fill="#FFFFFF"/><text fill="#2F5597" font-family="Calibri,Calibri_MSFontService,sans-serif" font-weight="400" font-size="27" transform="translate(81.6526 406)">A</text><rect x="481" y="384" width="96" height="27" fill="#FFFFFF"/><text fill="#2F5597" font-family="Calibri,Calibri_MSFontService,sans-serif" font-weight="400" font-size="27" transform="translate(521.996 406)">B</text><rect x="50" y="421" width="96" height="26" fill="#FFFFFF"/><text fill="#2F5597" font-family="Calibri,Calibri_MSFontService,sans-serif" font-weight="400" font-size="27" transform="translate(72.2833 443)">0.0…</text><rect x="473" y="421" width="96" height="26" fill="#FFFFFF"/><text fill="#2F5597" font-family="Calibri,Calibri_MSFontService,sans-serif" font-weight="400" font-size="27" transform="translate(494.936 443)">…1.0</text><rect x="189" y="421" width="96" height="26" fill="#FFFFFF"/><text fill="#2F5597" font-family="Calibri,Calibri_MSFontService,sans-serif" font-weight="400" font-size="27" transform="translate(231.396 443)">s</text><rect x="42" y="283" width="96" height="26" fill="#FFFFFF"/><text fill="#2F5597" font-family="Calibri,Calibri_MSFontService,sans-serif" font-weight="400" font-size="27" transform="translate(76.8714 305)">ua</text><rect x="480" y="283" width="96" height="26" fill="#FFFFFF"/><text fill="#2F5597" font-family="Calibri,Calibri_MSFontService,sans-serif" font-weight="400" font-size="27" transform="translate(514.199 305)">ub</text><rect x="826" y="192" width="366" height="319" fill="#DAE3F3"/><path d="M848.14 209.222C848.14 213.095 845.236 216.222 841.639 216.222 838.043 216.222 835.139 213.095 835.139 209.222 835.139 205.348 838.043 202.222 841.639 202.222 845.236 202.222 848.14 205.348 848.14 209.222Z" fill-rule="evenodd"/><path d="M848.14 248.666C848.14 252.799 845.236 256.167 841.639 256.167 838.057 256.167 835.139 252.799 835.139 248.666 835.139 244.516 838.057 241.166 841.639 241.166 845.236 241.166 848.14 244.516 848.14 248.666Z" fill="#AFABAB" fill-rule="evenodd"/><path d="M848.14 290.222C848.14 294.08 845.236 297.222 841.639 297.222 838.057 297.222 835.139 294.08 835.139 290.222 835.139 286.348 838.057 283.222 841.639 283.222 845.236 283.222 848.14 286.348 848.14 290.222Z" fill="#AFABAB" fill-rule="evenodd"/><path d="M848.14 330.222C848.14 334.08 845.236 337.222 841.639 337.222 838.057 337.222 835.139 334.08 835.139 330.222 835.139 326.348 838.057 323.222 841.639 323.222 845.236 323.222 848.14 326.348 848.14 330.222Z" fill="#AFABAB" fill-rule="evenodd"/><path d="M848.14 370.222C848.14 374.08 845.236 377.222 841.639 377.222 838.057 377.222 835.139 374.08 835.139 370.222 835.139 366.348 838.057 363.222 841.639 363.222 845.236 363.222 848.14 366.348 848.14 370.222Z" fill="#AFABAB" fill-rule="evenodd"/><path d="M848.14 410.222C848.14 414.08 845.236 417.222 841.639 417.222 838.057 417.222 835.139 414.08 835.139 410.222 835.139 406.348 838.057 403.222 841.639 403.222 845.236 403.222 848.14 406.348 848.14 410.222Z" fill="#AFABAB" fill-rule="evenodd"/><path d="M848.14 451.666C848.14 455.799 845.236 459.167 841.639 459.167 838.057 459.167 835.139 455.799 835.139 451.666 835.139 447.516 838.057 444.166 841.639 444.166 845.236 444.166 848.14 447.516 848.14 451.666Z" fill="#AFABAB" fill-rule="evenodd"/><path d="M848.14 491.666C848.14 495.799 845.236 499.167 841.639 499.167 838.057 499.167 835.139 495.799 835.139 491.666 835.139 487.516 838.057 484.166 841.639 484.166 845.236 484.166 848.14 487.516 848.14 491.666Z" fill-rule="evenodd"/><path d="M886.073 208.666C886.073 212.799 882.947 216.167 879.073 216.167 875.2 216.167 872.073 212.799 872.073 208.666 872.073 204.516 875.2 201.166 879.073 201.166 882.947 201.166 886.073 204.516 886.073 208.666Z" fill="#AFABAB" fill-rule="evenodd"/><path d="M886.073 248.666C886.073 252.799 882.947 256.167 879.073 256.167 875.2 256.167 872.073 252.799 872.073 248.666 872.073 244.516 875.2 241.166 879.073 241.166 882.947 241.166 886.073 244.516 886.073 248.666Z" fill="#AFABAB" fill-rule="evenodd"/><path d="M886.073 290.222C886.073 294.08 882.947 297.222 879.073 297.222 875.2 297.222 872.073 294.08 872.073 290.222 872.073 286.348 875.2 283.222 879.073 283.222 882.947 283.222 886.073 286.348 886.073 290.222Z" fill="#AFABAB" fill-rule="evenodd"/><path d="M886.073 330.222C886.073 334.08 882.947 337.222 879.073 337.222 875.2 337.222 872.073 334.08 872.073 330.222 872.073 326.348 875.2 323.222 879.073 323.222 882.947 323.222 886.073 326.348 886.073 330.222Z" fill="#AFABAB" fill-rule="evenodd"/><path d="M886.073 370.222C886.073 374.08 882.947 377.222 879.073 377.222 875.2 377.222 872.073 374.08 872.073 370.222 872.073 366.348 875.2 363.222 879.073 363.222 882.947 363.222 886.073 366.348 886.073 370.222Z" fill="#AFABAB" fill-rule="evenodd"/><path d="M886.073 410.222C886.073 414.08 882.947 417.222 879.073 417.222 875.2 417.222 872.073 414.08 872.073 410.222 872.073 406.348 875.2 403.222 879.073 403.222 882.947 403.222 886.073 406.348 886.073 410.222Z" fill="#AFABAB" fill-rule="evenodd"/><path d="M886.073 451.666C886.073 455.799 882.947 459.167 879.073 459.167 875.2 459.167 872.073 455.799 872.073 451.666 872.073 447.516 875.2 444.166 879.073 444.166 882.947 444.166 886.073 447.516 886.073 451.666Z" fill="#AFABAB" fill-rule="evenodd"/><path d="M886.073 491.666C886.073 495.799 882.947 499.167 879.073 499.167 875.2 499.167 872.073 495.799 872.073 491.666 872.073 487.516 875.2 484.166 879.073 484.166 882.947 484.166 886.073 487.516 886.073 491.666Z" fill="#AFABAB" fill-rule="evenodd"/><path d="M923.14 208.666C923.14 212.799 920.236 216.167 916.639 216.167 913.057 216.167 910.139 212.799 910.139 208.666 910.139 204.516 913.057 201.166 916.639 201.166 920.236 201.166 923.14 204.516 923.14 208.666Z" fill="#AFABAB" fill-rule="evenodd"/><path d="M923.14 248.666C923.14 252.799 920.236 256.167 916.639 256.167 913.057 256.167 910.139 252.799 910.139 248.666 910.139 244.516 913.057 241.166 916.639 241.166 920.236 241.166 923.14 244.516 923.14 248.666Z" fill="#AFABAB" fill-rule="evenodd"/><path d="M923.14 290.222C923.14 294.08 920.236 297.222 916.639 297.222 913.057 297.222 910.139 294.08 910.139 290.222 910.139 286.348 913.057 283.222 916.639 283.222 920.236 283.222 923.14 286.348 923.14 290.222Z" fill="#AFABAB" fill-rule="evenodd"/><path d="M923.14 330.222C923.14 334.08 920.236 337.222 916.639 337.222 913.057 337.222 910.139 334.08 910.139 330.222 910.139 326.348 913.057 323.222 916.639 323.222 920.236 323.222 923.14 326.348 923.14 330.222Z" fill="#AFABAB" fill-rule="evenodd"/><path d="M923.14 370.222C923.14 374.08 920.236 377.222 916.639 377.222 913.057 377.222 910.139 374.08 910.139 370.222 910.139 366.348 913.057 363.222 916.639 363.222 920.236 363.222 923.14 366.348 923.14 370.222Z" fill="#AFABAB" fill-rule="evenodd"/><path d="M923.14 410.222C923.14 414.08 920.236 417.222 916.639 417.222 913.057 417.222 910.139 414.08 910.139 410.222 910.139 406.348 913.057 403.222 916.639 403.222 920.236 403.222 923.14 406.348 923.14 410.222Z" fill="#AFABAB" fill-rule="evenodd"/><path d="M923.14 451.666C923.14 455.799 920.236 459.167 916.639 459.167 913.057 459.167 910.139 455.799 910.139 451.666 910.139 447.516 913.057 444.166 916.639 444.166 920.236 444.166 923.14 447.516 923.14 451.666Z" fill="#AFABAB" fill-rule="evenodd"/><path d="M923.14 491.666C923.14 495.799 920.236 499.167 916.639 499.167 913.057 499.167 910.139 495.799 910.139 491.666 910.139 487.516 913.057 484.166 916.639 484.166 920.236 484.166 923.14 487.516 923.14 491.666Z" fill="#AFABAB" fill-rule="evenodd"/><path d="M961.14 208.666C961.14 212.799 958.236 216.167 954.639 216.167 951.057 216.167 948.139 212.799 948.139 208.666 948.139 204.516 951.057 201.166 954.639 201.166 958.236 201.166 961.14 204.516 961.14 208.666Z" fill="#AFABAB" fill-rule="evenodd"/><path d="M961.14 248.666C961.14 252.799 958.236 256.167 954.639 256.167 951.057 256.167 948.139 252.799 948.139 248.666 948.139 244.516 951.057 241.166 954.639 241.166 958.236 241.166 961.14 244.516 961.14 248.666Z" fill="#AFABAB" fill-rule="evenodd"/><path d="M961.14 290.222C961.14 294.08 958.236 297.222 954.639 297.222 951.057 297.222 948.139 294.08 948.139 290.222 948.139 286.348 951.057 283.222 954.639 283.222 958.236 283.222 961.14 286.348 961.14 290.222Z" fill="#AFABAB" fill-rule="evenodd"/><path d="M961.14 330.222C961.14 334.08 958.236 337.222 954.639 337.222 951.057 337.222 948.139 334.08 948.139 330.222 948.139 326.348 951.057 323.222 954.639 323.222 958.236 323.222 961.14 326.348 961.14 330.222Z" fill="#AFABAB" fill-rule="evenodd"/><path d="M961.14 370.222C961.14 374.08 958.236 377.222 954.639 377.222 951.057 377.222 948.139 374.08 948.139 370.222 948.139 366.348 951.057 363.222 954.639 363.222 958.236 363.222 961.14 366.348 961.14 370.222Z" fill="#AFABAB" fill-rule="evenodd"/><path d="M961.14 410.222C961.14 414.08 958.236 417.222 954.639 417.222 951.057 417.222 948.139 414.08 948.139 410.222 948.139 406.348 951.057 403.222 954.639 403.222 958.236 403.222 961.14 406.348 961.14 410.222Z" fill="#AFABAB" fill-rule="evenodd"/><path d="M961.14 451.666C961.14 455.799 958.236 459.167 954.639 459.167 951.057 459.167 948.139 455.799 948.139 451.666 948.139 447.516 951.057 444.166 954.639 444.166 958.236 444.166 961.14 447.516 961.14 451.666Z" fill="#AFABAB" fill-rule="evenodd"/><path d="M961.14 491.666C961.14 495.799 958.236 499.167 954.639 499.167 951.057 499.167 948.139 495.799 948.139 491.666 948.139 487.516 951.057 484.166 954.639 484.166 958.236 484.166 961.14 487.516 961.14 491.666Z" fill="#AFABAB" fill-rule="evenodd"/><path d="M999.14 208.666C999.14 212.799 996.236 216.167 992.639 216.167 989.057 216.167 986.139 212.799 986.139 208.666 986.139 204.516 989.057 201.166 992.639 201.166 996.236 201.166 999.14 204.516 999.14 208.666Z" fill="#AFABAB" fill-rule="evenodd"/><path d="M999.14 248.666C999.14 252.799 996.236 256.167 992.639 256.167 989.057 256.167 986.139 252.799 986.139 248.666 986.139 244.516 989.057 241.166 992.639 241.166 996.236 241.166 999.14 244.516 999.14 248.666Z" fill="#AFABAB" fill-rule="evenodd"/><path d="M999.14 290.222C999.14 294.08 996.236 297.222 992.639 297.222 989.057 297.222 986.139 294.08 986.139 290.222 986.139 286.348 989.057 283.222 992.639 283.222 996.236 283.222 999.14 286.348 999.14 290.222Z" fill="#AFABAB" fill-rule="evenodd"/><path d="M999.14 330.222C999.14 334.08 996.236 337.222 992.639 337.222 989.057 337.222 986.139 334.08 986.139 330.222 986.139 326.348 989.057 323.222 992.639 323.222 996.236 323.222 999.14 326.348 999.14 330.222Z" fill="#AFABAB" fill-rule="evenodd"/><path d="M999.14 370.222C999.14 374.08 996.236 377.222 992.639 377.222 989.057 377.222 986.139 374.08 986.139 370.222 986.139 366.348 989.057 363.222 992.639 363.222 996.236 363.222 999.14 366.348 999.14 370.222Z" fill="#AFABAB" fill-rule="evenodd"/><path d="M999.14 410.222C999.14 414.08 996.236 417.222 992.639 417.222 989.057 417.222 986.139 414.08 986.139 410.222 986.139 406.348 989.057 403.222 992.639 403.222 996.236 403.222 999.14 406.348 999.14 410.222Z" fill="#AFABAB" fill-rule="evenodd"/><path d="M999.14 451.666C999.14 455.799 996.236 459.167 992.639 459.167 989.057 459.167 986.139 455.799 986.139 451.666 986.139 447.516 989.057 444.166 992.639 444.166 996.236 444.166 999.14 447.516 999.14 451.666Z" fill="#AFABAB" fill-rule="evenodd"/><path d="M999.14 491.666C999.14 495.799 996.236 499.167 992.639 499.167 989.057 499.167 986.139 495.799 986.139 491.666 986.139 487.516 989.057 484.166 992.639 484.166 996.236 484.166 999.14 487.516 999.14 491.666Z" fill="#AFABAB" fill-rule="evenodd"/><path d="M1037.07 208.666C1037.07 212.799 1033.95 216.167 1030.07 216.167 1026.22 216.167 1023.07 212.799 1023.07 208.666 1023.07 204.516 1026.22 201.166 1030.07 201.166 1033.95 201.166 1037.07 204.516 1037.07 208.666Z" fill="#AFABAB" fill-rule="evenodd"/><path d="M1037.07 248.666C1037.07 252.799 1033.95 256.167 1030.07 256.167 1026.22 256.167 1023.07 252.799 1023.07 248.666 1023.07 244.516 1026.22 241.166 1030.07 241.166 1033.95 241.166 1037.07 244.516 1037.07 248.666Z" fill="#AFABAB" fill-rule="evenodd"/><path d="M1037.07 290.222C1037.07 294.08 1033.95 297.222 1030.07 297.222 1026.22 297.222 1023.07 294.08 1023.07 290.222 1023.07 286.348 1026.22 283.222 1030.07 283.222 1033.95 283.222 1037.07 286.348 1037.07 290.222Z" fill="#AFABAB" fill-rule="evenodd"/><path d="M1037.07 330.222C1037.07 334.08 1033.95 337.222 1030.07 337.222 1026.22 337.222 1023.07 334.08 1023.07 330.222 1023.07 326.348 1026.22 323.222 1030.07 323.222 1033.95 323.222 1037.07 326.348 1037.07 330.222Z" fill="#AFABAB" fill-rule="evenodd"/><path d="M1037.07 370.222C1037.07 374.08 1033.95 377.222 1030.07 377.222 1026.22 377.222 1023.07 374.08 1023.07 370.222 1023.07 366.348 1026.22 363.222 1030.07 363.222 1033.95 363.222 1037.07 366.348 1037.07 370.222Z" fill="#AFABAB" fill-rule="evenodd"/><path d="M1037.07 410.222C1037.07 414.08 1033.95 417.222 1030.07 417.222 1026.22 417.222 1023.07 414.08 1023.07 410.222 1023.07 406.348 1026.22 403.222 1030.07 403.222 1033.95 403.222 1037.07 406.348 1037.07 410.222Z" fill="#AFABAB" fill-rule="evenodd"/><path d="M1037.07 451.666C1037.07 455.799 1033.95 459.167 1030.07 459.167 1026.22 459.167 1023.07 455.799 1023.07 451.666 1023.07 447.516 1026.22 444.166 1030.07 444.166 1033.95 444.166 1037.07 447.516 1037.07 451.666Z" fill="#AFABAB" fill-rule="evenodd"/><path d="M1037.07 491.666C1037.07 495.799 1033.95 499.167 1030.07 499.167 1026.22 499.167 1023.07 495.799 1023.07 491.666 1023.07 487.516 1026.22 484.166 1030.07 484.166 1033.95 484.166 1037.07 487.516 1037.07 491.666Z" fill="#AFABAB" fill-rule="evenodd"/><path d="M1074.14 208.666C1074.14 212.799 1071.24 216.167 1067.64 216.167 1064.06 216.167 1061.14 212.799 1061.14 208.666 1061.14 204.516 1064.06 201.166 1067.64 201.166 1071.24 201.166 1074.14 204.516 1074.14 208.666Z" fill="#AFABAB" fill-rule="evenodd"/><path d="M1074.14 248.666C1074.14 252.799 1071.24 256.167 1067.64 256.167 1064.06 256.167 1061.14 252.799 1061.14 248.666 1061.14 244.516 1064.06 241.166 1067.64 241.166 1071.24 241.166 1074.14 244.516 1074.14 248.666Z" fill="#AFABAB" fill-rule="evenodd"/><path d="M1074.14 290.222C1074.14 294.08 1071.24 297.222 1067.64 297.222 1064.06 297.222 1061.14 294.08 1061.14 290.222 1061.14 286.348 1064.06 283.222 1067.64 283.222 1071.24 283.222 1074.14 286.348 1074.14 290.222Z" fill="#AFABAB" fill-rule="evenodd"/><path d="M1074.14 330.222C1074.14 334.08 1071.24 337.222 1067.64 337.222 1064.06 337.222 1061.14 334.08 1061.14 330.222 1061.14 326.348 1064.06 323.222 1067.64 323.222 1071.24 323.222 1074.14 326.348 1074.14 330.222Z" fill="#AFABAB" fill-rule="evenodd"/><path d="M1074.14 370.222C1074.14 374.08 1071.24 377.222 1067.64 377.222 1064.06 377.222 1061.14 374.08 1061.14 370.222 1061.14 366.348 1064.06 363.222 1067.64 363.222 1071.24 363.222 1074.14 366.348 1074.14 370.222Z" fill="#AFABAB" fill-rule="evenodd"/><path d="M1074.14 410.222C1074.14 414.08 1071.24 417.222 1067.64 417.222 1064.06 417.222 1061.14 414.08 1061.14 410.222 1061.14 406.348 1064.06 403.222 1067.64 403.222 1071.24 403.222 1074.14 406.348 1074.14 410.222Z" fill="#AFABAB" fill-rule="evenodd"/><path d="M1074.14 451.666C1074.14 455.799 1071.24 459.167 1067.64 459.167 1064.06 459.167 1061.14 455.799 1061.14 451.666 1061.14 447.516 1064.06 444.166 1067.64 444.166 1071.24 444.166 1074.14 447.516 1074.14 451.666Z" fill="#AFABAB" fill-rule="evenodd"/><path d="M1074.14 491.666C1074.14 495.799 1071.24 499.167 1067.64 499.167 1064.06 499.167 1061.14 495.799 1061.14 491.666 1061.14 487.516 1064.06 484.166 1067.64 484.166 1071.24 484.166 1074.14 487.516 1074.14 491.666Z" fill="#AFABAB" fill-rule="evenodd"/><path d="M1112.14 208.666C1112.14 212.799 1109.24 216.167 1105.64 216.167 1102.06 216.167 1099.14 212.799 1099.14 208.666 1099.14 204.516 1102.06 201.166 1105.64 201.166 1109.24 201.166 1112.14 204.516 1112.14 208.666Z" fill="#AFABAB" fill-rule="evenodd"/><path d="M1112.14 248.666C1112.14 252.799 1109.24 256.167 1105.64 256.167 1102.06 256.167 1099.14 252.799 1099.14 248.666 1099.14 244.516 1102.06 241.166 1105.64 241.166 1109.24 241.166 1112.14 244.516 1112.14 248.666Z" fill="#AFABAB" fill-rule="evenodd"/><path d="M1112.14 290.222C1112.14 294.08 1109.24 297.222 1105.64 297.222 1102.06 297.222 1099.14 294.08 1099.14 290.222 1099.14 286.348 1102.06 283.222 1105.64 283.222 1109.24 283.222 1112.14 286.348 1112.14 290.222Z" fill="#AFABAB" fill-rule="evenodd"/><path d="M1112.14 330.222C1112.14 334.08 1109.24 337.222 1105.64 337.222 1102.06 337.222 1099.14 334.08 1099.14 330.222 1099.14 326.348 1102.06 323.222 1105.64 323.222 1109.24 323.222 1112.14 326.348 1112.14 330.222Z" fill="#AFABAB" fill-rule="evenodd"/><path d="M1112.14 370.222C1112.14 374.08 1109.24 377.222 1105.64 377.222 1102.06 377.222 1099.14 374.08 1099.14 370.222 1099.14 366.348 1102.06 363.222 1105.64 363.222 1109.24 363.222 1112.14 366.348 1112.14 370.222Z" fill="#AFABAB" fill-rule="evenodd"/><path d="M1112.14 410.222C1112.14 414.08 1109.24 417.222 1105.64 417.222 1102.06 417.222 1099.14 414.08 1099.14 410.222 1099.14 406.348 1102.06 403.222 1105.64 403.222 1109.24 403.222 1112.14 406.348 1112.14 410.222Z" fill="#AFABAB" fill-rule="evenodd"/><path d="M1112.14 451.666C1112.14 455.799 1109.24 459.167 1105.64 459.167 1102.06 459.167 1099.14 455.799 1099.14 451.666 1099.14 447.516 1102.06 444.166 1105.64 444.166 1109.24 444.166 1112.14 447.516 1112.14 451.666Z" fill="#AFABAB" fill-rule="evenodd"/><path d="M1112.14 491.666C1112.14 495.799 1109.24 499.167 1105.64 499.167 1102.06 499.167 1099.14 495.799 1099.14 491.666 1099.14 487.516 1102.06 484.166 1105.64 484.166 1109.24 484.166 1112.14 487.516 1112.14 491.666Z" fill="#AFABAB" fill-rule="evenodd"/><path d="M1150.14 208.666C1150.14 212.799 1147.24 216.167 1143.64 216.167 1140.06 216.167 1137.14 212.799 1137.14 208.666 1137.14 204.516 1140.06 201.166 1143.64 201.166 1147.24 201.166 1150.14 204.516 1150.14 208.666Z" fill="#AFABAB" fill-rule="evenodd"/><path d="M1150.14 248.666C1150.14 252.799 1147.24 256.167 1143.64 256.167 1140.06 256.167 1137.14 252.799 1137.14 248.666 1137.14 244.516 1140.06 241.166 1143.64 241.166 1147.24 241.166 1150.14 244.516 1150.14 248.666Z" fill="#AFABAB" fill-rule="evenodd"/><path d="M1150.14 290.222C1150.14 294.08 1147.24 297.222 1143.64 297.222 1140.06 297.222 1137.14 294.08 1137.14 290.222 1137.14 286.348 1140.06 283.222 1143.64 283.222 1147.24 283.222 1150.14 286.348 1150.14 290.222Z" fill="#AFABAB" fill-rule="evenodd"/><path d="M1150.14 330.222C1150.14 334.08 1147.24 337.222 1143.64 337.222 1140.06 337.222 1137.14 334.08 1137.14 330.222 1137.14 326.348 1140.06 323.222 1143.64 323.222 1147.24 323.222 1150.14 326.348 1150.14 330.222Z" fill="#AFABAB" fill-rule="evenodd"/><path d="M1150.14 370.222C1150.14 374.08 1147.24 377.222 1143.64 377.222 1140.06 377.222 1137.14 374.08 1137.14 370.222 1137.14 366.348 1140.06 363.222 1143.64 363.222 1147.24 363.222 1150.14 366.348 1150.14 370.222Z" fill="#AFABAB" fill-rule="evenodd"/><path d="M1150.14 410.222C1150.14 414.08 1147.24 417.222 1143.64 417.222 1140.06 417.222 1137.14 414.08 1137.14 410.222 1137.14 406.348 1140.06 403.222 1143.64 403.222 1147.24 403.222 1150.14 406.348 1150.14 410.222Z" fill="#AFABAB" fill-rule="evenodd"/><path d="M1150.14 451.666C1150.14 455.799 1147.24 459.167 1143.64 459.167 1140.06 459.167 1137.14 455.799 1137.14 451.666 1137.14 447.516 1140.06 444.166 1143.64 444.166 1147.24 444.166 1150.14 447.516 1150.14 451.666Z" fill="#AFABAB" fill-rule="evenodd"/><path d="M1150.14 491.666C1150.14 495.799 1147.24 499.167 1143.64 499.167 1140.06 499.167 1137.14 495.799 1137.14 491.666 1137.14 487.516 1140.06 484.166 1143.64 484.166 1147.24 484.166 1150.14 487.516 1150.14 491.666Z" fill="#AFABAB" fill-rule="evenodd"/><path d="M1188.07 208.666C1188.07 212.799 1184.95 216.167 1181.07 216.167 1177.2 216.167 1174.07 212.799 1174.07 208.666 1174.07 204.516 1177.2 201.166 1181.07 201.166 1184.95 201.166 1188.07 204.516 1188.07 208.666Z" fill-rule="evenodd"/><path d="M1188.07 248.666C1188.07 252.799 1184.95 256.167 1181.07 256.167 1177.2 256.167 1174.07 252.799 1174.07 248.666 1174.07 244.516 1177.2 241.166 1181.07 241.166 1184.95 241.166 1188.07 244.516 1188.07 248.666Z" fill="#AFABAB" fill-rule="evenodd"/><path d="M1188.07 290.222C1188.07 294.08 1184.95 297.222 1181.07 297.222 1177.2 297.222 1174.07 294.08 1174.07 290.222 1174.07 286.348 1177.2 283.222 1181.07 283.222 1184.95 283.222 1188.07 286.348 1188.07 290.222Z" fill="#AFABAB" fill-rule="evenodd"/><path d="M1188.07 330.222C1188.07 334.08 1184.95 337.222 1181.07 337.222 1177.2 337.222 1174.07 334.08 1174.07 330.222 1174.07 326.348 1177.2 323.222 1181.07 323.222 1184.95 323.222 1188.07 326.348 1188.07 330.222Z" fill="#AFABAB" fill-rule="evenodd"/><path d="M1188.07 370.222C1188.07 374.08 1184.95 377.222 1181.07 377.222 1177.2 377.222 1174.07 374.08 1174.07 370.222 1174.07 366.348 1177.2 363.222 1181.07 363.222 1184.95 363.222 1188.07 366.348 1188.07 370.222Z" fill="#AFABAB" fill-rule="evenodd"/><path d="M1188.07 410.222C1188.07 414.08 1184.95 417.222 1181.07 417.222 1177.2 417.222 1174.07 414.08 1174.07 410.222 1174.07 406.348 1177.2 403.222 1181.07 403.222 1184.95 403.222 1188.07 406.348 1188.07 410.222Z" fill="#AFABAB" fill-rule="evenodd"/><path d="M1188.07 451.666C1188.07 455.799 1184.95 459.167 1181.07 459.167 1177.2 459.167 1174.07 455.799 1174.07 451.666 1174.07 447.516 1177.2 444.166 1181.07 444.166 1184.95 444.166 1188.07 447.516 1188.07 451.666Z" fill="#AFABAB" fill-rule="evenodd"/><path d="M1188.07 491.666C1188.07 495.799 1184.95 499.167 1181.07 499.167 1177.2 499.167 1174.07 495.799 1174.07 491.666 1174.07 487.516 1177.2 484.166 1181.07 484.166 1184.95 484.166 1188.07 487.516 1188.07 491.666Z" fill-rule="evenodd"/><text fill="#2F5597" font-family="Calibri,Calibri_MSFontService,sans-serif" font-weight="400" font-size="27" transform="translate(801.451 182)">A<tspan font-size="27" x="402.513" y="354">C</tspan><tspan font-size="27" x="-0.416687" y="353">D</tspan><tspan font-size="27" x="398.247" y="3">B</tspan></text><rect x="1229" y="163" width="26" height="96" fill="#FFFFFF"/><text fill="#2F5597" font-family="Calibri,Calibri_MSFontService,sans-serif" font-weight="400" font-size="27" transform="matrix(-1.83697e-16 -1 1 -1.83697e-16 1251.01 228)">...0</text><rect x="1228" y="439" width="27" height="96" fill="#FFFFFF"/><text fill="#2F5597" font-family="Calibri,Calibri_MSFontService,sans-serif" font-weight="400" font-size="27" transform="matrix(-1.83697e-16 -1 1 -1.83697e-16 1250.6 514)">1.0<tspan font-size="27" x="33" y="6.062e-15">...</tspan></text><rect x="1228" y="241" width="26" height="97" fill="#FFFFFF"/><text fill="#2F5597" font-family="Calibri,Calibri_MSFontService,sans-serif" font-weight="400" font-size="27" transform="matrix(-1.83697e-16 -1 1 -1.83697e-16 1250.17 301)">s2</text><path d="M0 0 0.923045 464.661" stroke="#4472C4" stroke-width="0.666667" stroke-miterlimit="8" fill="none" fill-rule="evenodd" transform="matrix(-1 0 0 1 993.423 108.5)"/><path d="M0 0 439.089 0.36126" stroke="#4472C4" stroke-width="0.666667" stroke-miterlimit="8" fill="none" fill-rule="evenodd" transform="matrix(-1 0 0 1 1228.59 289.5)"/><rect x="805" y="572" width="96" height="27" fill="#FFFFFF"/><text fill="#2F5597" font-family="Calibri,Calibri_MSFontService,sans-serif" font-weight="400" font-size="27" transform="translate(826.836 594)">0.0…</text><rect x="1121" y="572" width="96" height="26" fill="#FFFFFF"/><text fill="#2F5597" font-family="Calibri,Calibri_MSFontService,sans-serif" font-weight="400" font-size="27" transform="translate(1143.34 594)">…1.0</text><rect x="944" y="572" width="96" height="27" fill="#FFFFFF"/><text fill="#2F5597" font-family="Calibri,Calibri_MSFontService,sans-serif" font-weight="400" font-size="27" transform="translate(979.66 594)">s1</text><rect x="506" y="248" width="46" height="30" fill="#FFFFFF"/><text fill="#2F5597" font-family="Calibri,Calibri_MSFontService,sans-serif" font-weight="400" font-size="27" transform="translate(519.163 272)">ib</text><rect x="67" y="248" width="46" height="30" fill="#FFFFFF"/><text fill="#2F5597" font-family="Calibri,Calibri_MSFontService,sans-serif" font-weight="400" font-size="27" transform="translate(80.7304 272)">ia</text><rect x="213" y="247" width="46" height="30" fill="#FFFFFF"/><text fill="#2F5597" font-family="Calibri,Calibri_MSFontService,sans-serif" font-weight="400" font-size="27" transform="translate(233.249 271)">i</text><rect x="187" y="283" width="97" height="26" fill="#FFFFFF"/><text fill="#2F5597" font-family="Calibri,Calibri_MSFontService,sans-serif" font-weight="400" font-size="27" transform="translate(228.475 305)">u<tspan font-size="27" x="743.71" y="-22">u</tspan></text><rect x="1152" y="108" width="46" height="30" fill="#FFFFFF"/><text fill="#2F5597" font-family="Calibri,Calibri_MSFontService,sans-serif" font-weight="400" font-size="27" transform="translate(1158.42 132)">ib1</text><rect x="819" y="108" width="46" height="30" fill="#FFFFFF"/><text fill="#2F5597" font-family="Calibri,Calibri_MSFontService,sans-serif" font-weight="400" font-size="27" transform="translate(825.777 132)">ia1</text><rect x="970" y="108" width="45" height="30" fill="#FFFFFF"/><text fill="#2F5597" font-family="Calibri,Calibri_MSFontService,sans-serif" font-weight="400" font-size="27" transform="translate(982.75 132)">i1</text><rect x="756" y="470" width="30" height="46" fill="#FFFFFF"/><text fill="#2F5597" font-family="Calibri,Calibri_MSFontService,sans-serif" font-weight="400" font-size="27" transform="matrix(-1.83697e-16 -1 1 -1.83697e-16 779.857 510)">id2</text><rect x="756" y="188" width="30" height="46" fill="#FFFFFF"/><text fill="#2F5597" font-family="Calibri,Calibri_MSFontService,sans-serif" font-weight="400" font-size="27" transform="matrix(-1.83697e-16 -1 1 -1.83697e-16 779.624 228)">ia2</text><rect x="756" y="266" width="30" height="46" fill="#FFFFFF"/><text fill="#2F5597" font-family="Calibri,Calibri_MSFontService,sans-serif" font-weight="400" font-size="27" transform="matrix(-1.83697e-16 -1 1 -1.83697e-16 780.299 299)">i2</text><rect x="1153" y="527" width="46" height="30" fill="#FFFFFF"/><text fill="#2F5597" font-family="Calibri,Calibri_MSFontService,sans-serif" font-weight="400" font-size="27" transform="translate(1163.33 551)">uc</text><rect x="822" y="527" width="46" height="31" fill="#FFFFFF"/><text fill="#2F5597" font-family="Calibri,Calibri_MSFontService,sans-serif" font-weight="400" font-size="27" transform="translate(831.079 551)">ud</text><rect x="952" y="527" width="86" height="30" fill="#FFFFFF"/><text fill="#2F5597" font-family="Calibri,Calibri_MSFontService,sans-serif" font-weight="400" font-size="27" transform="translate(975.492 551)">udc</text><rect x="949" y="137" width="86" height="30" fill="#FFFFFF"/><text fill="#2F5597" font-family="Calibri,Calibri_MSFontService,sans-serif" font-weight="400" font-size="27" transform="translate(971.69 161)">uab</text><rect x="1107" y="80" width="104" height="26" fill="#FFFFFF"/><text fill="#2F5597" font-family="Calibri,Calibri_MSFontService,sans-serif" font-weight="400" font-size="27" transform="translate(1127.22 102)">tp1+1</text><rect x="819" y="76" width="46" height="30" fill="#FFFFFF"/><text fill="#2F5597" font-family="Calibri,Calibri_MSFontService,sans-serif" font-weight="400" font-size="27" transform="translate(823.777 100)">tp1</text><rect x="722" y="433" width="30" height="96" fill="#FFFFFF"/><text fill="#2F5597" font-family="Calibri,Calibri_MSFontService,sans-serif" font-weight="400" font-size="27" transform="matrix(-1.83697e-16 -1 1 -1.83697e-16 745.873 512)">tp2+1</text><rect x="722" y="188" width="30" height="46" fill="#FFFFFF"/><text fill="#2F5597" font-family="Calibri,Calibri_MSFontService,sans-serif" font-weight="400" font-size="27" transform="matrix(-1.83697e-16 -1 1 -1.83697e-16 745.873 229)">tp2</text><rect x="483" y="212" width="83" height="31" fill="#FFFFFF"/><text fill="#2F5597" font-family="Calibri,Calibri_MSFontService,sans-serif" font-weight="400" font-size="27" transform="translate(492.82 236)">tp1+1</text><rect x="67" y="211" width="46" height="30" fill="#FFFFFF"/><text fill="#2F5597" font-family="Calibri,Calibri_MSFontService,sans-serif" font-weight="400" font-size="27" transform="translate(71.9804 235)">tp1</text></g></svg>