<svg width="1007" height="676" xmlns="http://www.w3.org/2000/svg" xmlns:xlink="http://www.w3.org/1999/xlink" overflow="hidden"><defs><clipPath id="clip0"><rect x="80" y="7" width="1007" height="676"/></clipPath></defs><g clip-path="url(#clip0)" transform="translate(-80 -7)"><path d="M116.5 40.0001 166.526 40.0001 166.526 41.0001 116.5 41.0001ZM165.193 36.5001 173.193 40.5002 165.193 44.5001Z"/><path d="M117 40.5001 117 90.5263 116 90.5263 116 40.5001ZM120.5 89.193 116.5 97.193 112.5 89.193Z"/><text fill="#2F5597" font-family="Calibri,Calibri_MSFontService,sans-serif" font-weight="400" font-size="16" transform="translate(169.26 27)">x<tspan font-size="16" x="-78.8727" y="68">y</tspan><tspan font-size="21" x="251.835" y="211">Dimension (</tspan><tspan font-size="21" x="355.669" y="211">y_interpolation_zone</tspan><tspan font-size="21" x="540.575" y="211">, </tspan><tspan font-size="21" x="550.742" y="211">x_tie_point_interpolation</tspan><tspan font-size="21" x="772.749" y="211">)</tspan><tspan font-size="21" x="251.835" y="237">Example (1, 2) </tspan><tspan font-size="21" x="256.03" y="340">Dimension (</tspan><tspan font-size="21" x="359.863" y="340">y_tie_point_interpolation</tspan><tspan font-size="21" x="582.37" y="340">, </tspan><tspan font-size="21" x="592.537" y="340">x_interpolation_zone</tspan><tspan font-size="21" x="776.943" y="340">)</tspan><tspan font-size="21" x="256.03" y="366">Example (2, 0) </tspan><tspan font-size="21" x="251.835" y="83">Dimension (</tspan><tspan font-size="21" x="355.669" y="83">y_interpolation_zone</tspan><tspan font-size="21" x="540.575" y="83">, </tspan><tspan font-size="21" x="550.742" y="83">x_interpolation_zone</tspan><tspan font-size="21" x="735.149" y="83">)</tspan><tspan font-size="21" x="251.835" y="109">Example (0, 1) </tspan></text><path d="M555 385C555 382.791 556.791 381 559 381 561.209 381 563 382.791 563 385 563 387.209 561.209 389 559 389 556.791 389 555 387.209 555 385Z" fill="#ED7D31" fill-rule="evenodd"/><path d="M551 256C551 253.791 552.791 252 555 252 557.209 252 559 253.791 559 256 559 258.209 557.209 260 555 260 552.791 260 551 258.209 551 256Z" fill="#ED7D31" fill-rule="evenodd"/><path d="M552 129C552 126.791 553.791 125 556 125 558.209 125 560 126.791 560 129 560 131.209 558.209 133 556 133 553.791 133 552 131.209 552 129Z" fill="#ED7D31" fill-rule="evenodd"/><text fill="#2F5597" font-family="Calibri,Calibri_MSFontService,sans-serif" font-weight="400" font-size="21" transform="translate(425.29 492)">Dimension (<tspan font-size="21" x="103.833" y="0">x_interpolation_zone</tspan>)<tspan font-size="21" x="0" y="26">Example (1) </tspan></text><rect x="195" y="40" width="62" height="50" fill="#DAE3F3"/><rect x="325" y="40" width="64" height="50" fill="#DAE3F3"/><rect x="195" y="91" width="62" height="49" fill="#DAE3F3"/><rect x="325" y="91" width="64" height="49" fill="#DAE3F3"/><rect x="259" y="92" width="64" height="48" fill="#DAE3F3"/><rect x="259" y="40" width="64" height="50" fill="#DAE3F3"/><path d="M223 64.5C223 62.567 224.343 61 226 61 227.657 61 229 62.567 229 64.5 229 66.433 227.657 68 226 68 224.343 68 223 66.433 223 64.5Z" fill="#0D0D0D" fill-rule="evenodd"/><path d="M288 64.5C288 62.567 289.343 61 291 61 292.657 61 294 62.567 294 64.5 294 66.433 292.657 68 291 68 289.343 68 288 66.433 288 64.5Z" fill="#ED7D31" fill-rule="evenodd"/><path d="M353 64.5C353 62.567 354.567 61 356.5 61 358.433 61 360 62.567 360 64.5 360 66.433 358.433 68 356.5 68 354.567 68 353 66.433 353 64.5Z" fill="#0D0D0D" fill-rule="evenodd"/><path d="M223 114.5C223 112.567 224.343 111 226 111 227.657 111 229 112.567 229 114.5 229 116.433 227.657 118 226 118 224.343 118 223 116.433 223 114.5Z" fill="#0D0D0D" fill-rule="evenodd"/><path d="M288 114.5C288 112.567 289.343 111 291 111 292.657 111 294 112.567 294 114.5 294 116.433 292.657 118 291 118 289.343 118 288 116.433 288 114.5Z" fill="#0D0D0D" fill-rule="evenodd"/><path d="M353 114.5C353 112.567 354.567 111 356.5 111 358.433 111 360 112.567 360 114.5 360 116.433 358.433 118 356.5 118 354.567 118 353 116.433 353 114.5Z" fill="#0D0D0D" fill-rule="evenodd"/><rect x="195" y="163" width="62" height="50" fill="#DAE3F3"/><rect x="325" y="163" width="64" height="50" fill="#DAE3F3"/><rect x="195" y="215" width="62" height="49" fill="#DAE3F3"/><rect x="325" y="215" width="64" height="49" fill="#DAE3F3"/><rect x="259" y="216" width="64" height="48" fill="#DAE3F3"/><rect x="259" y="163" width="64" height="50" fill="#DAE3F3"/><path d="M191 188.5C191 186.567 192.567 185 194.5 185 196.433 185 198 186.567 198 188.5 198 190.433 196.433 192 194.5 192 192.567 192 191 190.433 191 188.5Z" fill="#0D0D0D" fill-rule="evenodd"/><path d="M255 188.5C255 186.567 256.343 185 258 185 259.657 185 261 186.567 261 188.5 261 190.433 259.657 192 258 192 256.343 192 255 190.433 255 188.5Z" fill-rule="evenodd"/><path d="M321 188.5C321 186.567 322.343 185 324 185 325.657 185 327 186.567 327 188.5 327 190.433 325.657 192 324 192 322.343 192 321 190.433 321 188.5Z" fill="#0D0D0D" fill-rule="evenodd"/><path d="M191 239C191 237.343 192.567 236 194.5 236 196.433 236 198 237.343 198 239 198 240.657 196.433 242 194.5 242 192.567 242 191 240.657 191 239Z" fill="#0D0D0D" fill-rule="evenodd"/><path d="M255 239C255 237.343 256.343 236 258 236 259.657 236 261 237.343 261 239 261 240.657 259.657 242 258 242 256.343 242 255 240.657 255 239Z" fill="#0D0D0D" fill-rule="evenodd"/><path d="M321 239C321 237.343 322.343 236 324 236 325.657 236 327 237.343 327 239 327 240.657 325.657 242 324 242 322.343 242 321 240.657 321 239Z" fill="#ED7D31" fill-rule="evenodd"/><rect x="195" y="291" width="62" height="50" fill="#DAE3F3"/><rect x="325" y="291" width="64" height="50" fill="#DAE3F3"/><rect x="195" y="342" width="62" height="49" fill="#DAE3F3"/><rect x="325" y="342" width="64" height="49" fill="#DAE3F3"/><rect x="259" y="343" width="64" height="48" fill="#DAE3F3"/><rect x="259" y="291" width="64" height="50" fill="#DAE3F3"/><path d="M223 291C223 289.343 224.567 288 226.5 288 228.433 288 230 289.343 230 291 230 292.657 228.433 294 226.5 294 224.567 294 223 292.657 223 291Z" fill="#0D0D0D" fill-rule="evenodd"/><path d="M288 291C288 289.343 289.567 288 291.5 288 293.433 288 295 289.343 295 291 295 292.657 293.433 294 291.5 294 289.567 294 288 292.657 288 291Z" fill-rule="evenodd"/><path d="M353 291C353 289.343 354.343 288 356 288 357.657 288 359 289.343 359 291 359 292.657 357.657 294 356 294 354.343 294 353 292.657 353 291Z" fill="#0D0D0D" fill-rule="evenodd"/><path d="M223 341.5C223 339.567 224.567 338 226.5 338 228.433 338 230 339.567 230 341.5 230 343.433 228.433 345 226.5 345 224.567 345 223 343.433 223 341.5Z" fill="#0D0D0D" fill-rule="evenodd"/><path d="M288 341.5C288 339.567 289.567 338 291.5 338 293.433 338 295 339.567 295 341.5 295 343.433 293.433 345 291.5 345 289.567 345 288 343.433 288 341.5Z" fill="#0D0D0D" fill-rule="evenodd"/><path d="M353 341.5C353 339.567 354.567 338 356.5 338 358.433 338 360 339.567 360 341.5 360 343.433 358.433 345 356.5 345 354.567 345 353 343.433 353 341.5Z" fill="#0D0D0D" fill-rule="evenodd"/><path d="M385 188.5C385 186.567 386.343 185 388 185 389.657 185 391 186.567 391 188.5 391 190.433 389.657 192 388 192 386.343 192 385 190.433 385 188.5Z" fill="#0D0D0D" fill-rule="evenodd"/><path d="M385 239C385 237.343 386.567 236 388.5 236 390.433 236 392 237.343 392 239 392 240.657 390.433 242 388.5 242 386.567 242 385 240.657 385 239Z" fill="#0D0D0D" fill-rule="evenodd"/><path d="M223 391.5C223 389.567 224.567 388 226.5 388 228.433 388 230 389.567 230 391.5 230 393.433 228.433 395 226.5 395 224.567 395 223 393.433 223 391.5Z" fill="#ED7D31" fill-rule="evenodd"/><path d="M288 391.5C288 389.567 289.567 388 291.5 388 293.433 388 295 389.567 295 391.5 295 393.433 293.433 395 291.5 395 289.567 395 288 393.433 288 391.5Z" fill="#0D0D0D" fill-rule="evenodd"/><path d="M353 391.5C353 389.567 354.567 388 356.5 388 358.433 388 360 389.567 360 391.5 360 393.433 358.433 395 356.5 395 354.567 395 353 393.433 353 391.5Z" fill="#0D0D0D" fill-rule="evenodd"/><rect x="195" y="420" width="62" height="50" fill="#DAE3F3"/><rect x="325" y="420" width="64" height="50" fill="#DAE3F3"/><rect x="195" y="472" width="62" height="48" fill="#DAE3F3"/><rect x="325" y="472" width="64" height="48" fill="#DAE3F3"/><rect x="259" y="472" width="64" height="48" fill="#DAE3F3"/><rect x="259" y="420" width="64" height="50" fill="#DAE3F3"/><path d="M223 445C223 443.343 224.567 442 226.5 442 228.433 442 230 443.343 230 445 230 446.657 228.433 448 226.5 448 224.567 448 223 446.657 223 445Z" fill="#0D0D0D" fill-rule="evenodd"/><path d="M288 445C288 443.343 289.567 442 291.5 442 293.433 442 295 443.343 295 445 295 446.657 293.433 448 291.5 448 289.567 448 288 446.657 288 445Z" fill="#ED7D31" fill-rule="evenodd"/><path d="M353 445C353 443.343 354.343 442 356 442 357.657 442 359 443.343 359 445 359 446.657 357.657 448 356 448 354.343 448 353 446.657 353 445Z" fill="#0D0D0D" fill-rule="evenodd"/><path d="M223 495C223 493.343 224.567 492 226.5 492 228.433 492 230 493.343 230 495 230 496.657 228.433 498 226.5 498 224.567 498 223 496.657 223 495Z" fill="#0D0D0D" fill-rule="evenodd"/><path d="M288 495.5C288 493.567 289.567 492 291.5 492 293.433 492 295 493.567 295 495.5 295 497.433 293.433 499 291.5 499 289.567 499 288 497.433 288 495.5Z" fill="#ED7D31" fill-rule="evenodd"/><path d="M353 495.5C353 493.567 354.343 492 356 492 357.657 492 359 493.567 359 495.5 359 497.433 357.657 499 356 499 354.343 499 353 497.433 353 495.5Z" fill="#0D0D0D" fill-rule="evenodd"/><path d="M540 509.5C540 507.567 541.791 506 544 506 546.209 506 548 507.567 548 509.5 548 511.433 546.209 513 544 513 541.791 513 540 511.433 540 509.5Z" fill="#ED7D31" fill-rule="evenodd"/><rect x="194" y="548" width="63" height="50" fill="#DAE3F3"/><rect x="324" y="548" width="64" height="50" fill="#DAE3F3"/><rect x="194" y="600" width="63" height="49" fill="#DAE3F3"/><rect x="324" y="600" width="64" height="49" fill="#DAE3F3"/><rect x="258" y="601" width="64" height="48" fill="#DAE3F3"/><rect x="258" y="548" width="64" height="50" fill="#DAE3F3"/><path d="M191 548C191 546.343 192.343 545 194 545 195.657 545 197 546.343 197 548 197 549.657 195.657 551 194 551 192.343 551 191 549.657 191 548Z" fill="#ED7D31" fill-rule="evenodd"/><path d="M255 548C255 546.343 256.343 545 258 545 259.657 545 261 546.343 261 548 261 549.657 259.657 551 258 551 256.343 551 255 549.657 255 548Z" fill-rule="evenodd"/><path d="M320 548C320 546.343 321.567 545 323.5 545 325.433 545 327 546.343 327 548 327 549.657 325.433 551 323.5 551 321.567 551 320 549.657 320 548Z" fill="#0D0D0D" fill-rule="evenodd"/><path d="M191 598.5C191 596.567 192.343 595 194 595 195.657 595 197 596.567 197 598.5 197 600.433 195.657 602 194 602 192.343 602 191 600.433 191 598.5Z" fill="#0D0D0D" fill-rule="evenodd"/><path d="M255 598.5C255 596.567 256.343 595 258 595 259.657 595 261 596.567 261 598.5 261 600.433 259.657 602 258 602 256.343 602 255 600.433 255 598.5Z" fill="#0D0D0D" fill-rule="evenodd"/><path d="M320 598.5C320 596.567 321.567 595 323.5 595 325.433 595 327 596.567 327 598.5 327 600.433 325.433 602 323.5 602 321.567 602 320 600.433 320 598.5Z" fill-rule="evenodd"/><path d="M384 548C384 546.343 385.567 545 387.5 545 389.433 545 391 546.343 391 548 391 549.657 389.433 551 387.5 551 385.567 551 384 549.657 384 548Z" fill="#0D0D0D" fill-rule="evenodd"/><path d="M385 598.5C385 596.567 386.343 595 388 595 389.657 595 391 596.567 391 598.5 391 600.433 389.657 602 388 602 386.343 602 385 600.433 385 598.5Z" fill="#0D0D0D" fill-rule="evenodd"/><path d="M191 649C191 647.343 192.567 646 194.5 646 196.433 646 198 647.343 198 649 198 650.657 196.433 652 194.5 652 192.567 652 191 650.657 191 649Z" fill="#0D0D0D" fill-rule="evenodd"/><path d="M255 649C255 647.343 256.343 646 258 646 259.657 646 261 647.343 261 649 261 650.657 259.657 652 258 652 256.343 652 255 650.657 255 649Z" fill="#0D0D0D" fill-rule="evenodd"/><path d="M321 649C321 647.343 322.343 646 324 646 325.657 646 327 647.343 327 649 327 650.657 325.657 652 324 652 322.343 652 321 650.657 321 649Z" fill-rule="evenodd"/><path d="M385 649C385 647.343 386.567 646 388.5 646 390.433 646 392 647.343 392 649 392 650.657 390.433 652 388.5 652 386.567 652 385 650.657 385 649Z" fill="#0D0D0D" fill-rule="evenodd"/><text fill="#2F5597" font-family="Calibri,Calibri_MSFontService,sans-serif" font-weight="400" font-size="21" transform="translate(420.96 621)">Dimension (y<tspan font-size="21" x="113.5" y="0">_ </tspan>tie_point_interpolation<tspan font-size="21" x="331.173" y="0">, </tspan><tspan font-size="21" x="341.34" y="0">x_tie_point_interpolation</tspan>)<tspan font-size="21" x="0" y="26">Example </tspan><tspan font-size="21" x="77.9467" y="26">(0, 0) </tspan></text><path d="M556 639C556 636.791 557.791 635 560 635 562.209 635 564 636.791 564 639 564 641.209 562.209 643 560 643 557.791 643 556 641.209 556 639Z" fill="#ED7D31" fill-rule="evenodd"/></g></svg>