<svg width="963" height="522" xmlns="http://www.w3.org/2000/svg" xmlns:xlink="http://www.w3.org/1999/xlink" overflow="hidden"><defs><clipPath id="clip0"><rect x="80" y="7" width="963" height="522"/></clipPath></defs><g clip-path="url(#clip0)" transform="translate(-80 -7)"><path d="M116.5 40.0001 166.526 40.0001 166.526 41.0001 116.5 41.0001ZM165.193 36.5001 173.193 40.5002 165.193 44.5001Z"/><path d="M117 40.5001 117 90.5263 116 90.5263 116 40.5001ZM120.5 89.193 116.5 97.193 112.5 89.193Z"/><text fill="#2F5597" font-family="Calibri,Calibri_MSFontService,sans-serif" font-weight="400" font-size="16" transform="translate(169.26 27)">x<tspan font-size="16" x="-78.8727" y="68">y</tspan><tspan font-style="italic" font-size="21" x="249.068" y="289">Example c)</tspan><tspan font-size="21" x="249.068" y="315">Dimension (y_ </tspan><tspan font-size="21" x="378.068" y="315">interpolation_subarea</tspan><tspan font-size="21" x="570.328" y="315">, </tspan><tspan font-size="21" x="580.495" y="315">x_subsampled</tspan><tspan font-size="21" x="704.222" y="315">)</tspan><tspan font-size="21" x="249.068" y="340">Example (1, 2) </tspan><tspan font-style="italic" font-size="21" x="250.421" y="416">Example d)</tspan><tspan font-size="21" x="250.421" y="442">Dimension </tspan><tspan font-size="21" x="347.754" y="442">(</tspan><tspan font-size="21" x="354.254" y="442">y</tspan><tspan font-size="21" x="363.921" y="442">_subsampled</tspan><tspan font-size="21" x="478.481" y="442">, </tspan><tspan font-size="21" x="488.648" y="442">x</tspan><tspan font-size="21" x="497.814" y="442">_interpolation_subarea</tspan><tspan font-size="21" x="700.741" y="442">)</tspan><tspan font-size="21" x="250.421" y="467">Example (2, 0) </tspan><tspan font-style="italic" font-size="21" x="250.421" y="159">Example b)</tspan><tspan font-size="21" x="250.421" y="185">Dimension (y_ </tspan><tspan font-size="21" x="379.421" y="185">interpolation_subarea</tspan><tspan font-size="21" x="571.681" y="185">, x_ </tspan><tspan font-size="21" x="606.514" y="185">interpolation_subarea</tspan><tspan font-size="21" x="798.774" y="185">)</tspan><tspan font-size="21" x="250.421" y="210">Example (</tspan><tspan font-size="21" x="334.868" y="210">0, 1) </tspan></text><path d="M557 487.5C557 485.567 558.791 484 561 484 563.209 484 565 485.567 565 487.5 565 489.433 563.209 491 561 491 558.791 491 557 489.433 557 487.5Z" fill="#ED7D31" fill-rule="evenodd"/><path d="M557 360C557 357.791 558.791 356 561 356 563.209 356 565 357.791 565 360 565 362.209 563.209 364 561 364 558.791 364 557 362.209 557 360Z" fill="#ED7D31" fill-rule="evenodd"/><path d="M558 231.5C558 229.567 559.567 228 561.5 228 563.433 228 565 229.567 565 231.5 565 233.433 563.433 235 561.5 235 559.567 235 558 233.433 558 231.5Z" fill="#ED7D31" fill-rule="evenodd"/><rect x="193" y="170" width="63" height="50" fill="#DAE3F3"/><rect x="323" y="170" width="64" height="50" fill="#DAE3F3"/><rect x="193" y="222" width="63" height="49" fill="#DAE3F3"/><rect x="323" y="222" width="64" height="49" fill="#DAE3F3"/><rect x="258" y="223" width="64" height="48" fill="#DAE3F3"/><rect x="258" y="170" width="64" height="50" fill="#DAE3F3"/><path d="M221 195.5C221 193.567 222.791 192 225 192 227.209 192 229 193.567 229 195.5 229 197.433 227.209 199 225 199 222.791 199 221 197.433 221 195.5Z" fill="#0D0D0D" fill-rule="evenodd"/><path d="M287 195.5C287 193.567 288.567 192 290.5 192 292.433 192 294 193.567 294 195.5 294 197.433 292.433 199 290.5 199 288.567 199 287 197.433 287 195.5Z" fill="#ED7D31" fill-rule="evenodd"/><path d="M352 195.5C352 193.567 353.567 192 355.5 192 357.433 192 359 193.567 359 195.5 359 197.433 357.433 199 355.5 199 353.567 199 352 197.433 352 195.5Z" fill="#0D0D0D" fill-rule="evenodd"/><path d="M221 246C221 243.791 222.791 242 225 242 227.209 242 229 243.791 229 246 229 248.209 227.209 250 225 250 222.791 250 221 248.209 221 246Z" fill="#0D0D0D" fill-rule="evenodd"/><path d="M287 246C287 243.791 288.567 242 290.5 242 292.433 242 294 243.791 294 246 294 248.209 292.433 250 290.5 250 288.567 250 287 248.209 287 246Z" fill="#0D0D0D" fill-rule="evenodd"/><path d="M352 246C352 243.791 353.567 242 355.5 242 357.433 242 359 243.791 359 246 359 248.209 357.433 250 355.5 250 353.567 250 352 248.209 352 246Z" fill="#0D0D0D" fill-rule="evenodd"/><rect x="195" y="296" width="62" height="50" fill="#DAE3F3"/><rect x="325" y="296" width="64" height="50" fill="#DAE3F3"/><rect x="195" y="348" width="62" height="49" fill="#DAE3F3"/><rect x="325" y="348" width="64" height="48" fill="#DAE3F3"/><rect x="259" y="348" width="64" height="49" fill="#DAE3F3"/><rect x="259" y="296" width="64" height="50" fill="#DAE3F3"/><path d="M191 321.5C191 319.567 192.791 318 195 318 197.209 318 199 319.567 199 321.5 199 323.433 197.209 325 195 325 192.791 325 191 323.433 191 321.5Z" fill="#0D0D0D" fill-rule="evenodd"/><path d="M255 321.5C255 319.567 256.791 318 259 318 261.209 318 263 319.567 263 321.5 263 323.433 261.209 325 259 325 256.791 325 255 323.433 255 321.5Z" fill-rule="evenodd"/><path d="M321 321.5C321 319.567 322.567 318 324.5 318 326.433 318 328 319.567 328 321.5 328 323.433 326.433 325 324.5 325 322.567 325 321 323.433 321 321.5Z" fill="#0D0D0D" fill-rule="evenodd"/><path d="M191 372C191 369.791 192.791 368 195 368 197.209 368 199 369.791 199 372 199 374.209 197.209 376 195 376 192.791 376 191 374.209 191 372Z" fill="#0D0D0D" fill-rule="evenodd"/><path d="M255 372C255 369.791 256.791 368 259 368 261.209 368 263 369.791 263 372 263 374.209 261.209 376 259 376 256.791 376 255 374.209 255 372Z" fill="#0D0D0D" fill-rule="evenodd"/><path d="M321 372C321 369.791 322.567 368 324.5 368 326.433 368 328 369.791 328 372 328 374.209 326.433 376 324.5 376 322.567 376 321 374.209 321 372Z" fill="#ED7D31" fill-rule="evenodd"/><rect x="195" y="423" width="62" height="50" fill="#DAE3F3"/><rect x="325" y="423" width="64" height="50" fill="#DAE3F3"/><rect x="195" y="475" width="62" height="49" fill="#DAE3F3"/><rect x="325" y="475" width="64" height="48" fill="#DAE3F3"/><rect x="259" y="475" width="64" height="49" fill="#DAE3F3"/><rect x="259" y="423" width="64" height="50" fill="#DAE3F3"/><path d="M223 424C223 421.791 224.791 420 227 420 229.209 420 231 421.791 231 424 231 426.209 229.209 428 227 428 224.791 428 223 426.209 223 424Z" fill="#0D0D0D" fill-rule="evenodd"/><path d="M288 424C288 421.791 289.791 420 292 420 294.209 420 296 421.791 296 424 296 426.209 294.209 428 292 428 289.791 428 288 426.209 288 424Z" fill-rule="evenodd"/><path d="M353 424C353 421.791 354.567 420 356.5 420 358.433 420 360 421.791 360 424 360 426.209 358.433 428 356.5 428 354.567 428 353 426.209 353 424Z" fill="#0D0D0D" fill-rule="evenodd"/><path d="M223 474C223 471.791 224.791 470 227 470 229.209 470 231 471.791 231 474 231 476.209 229.209 478 227 478 224.791 478 223 476.209 223 474Z" fill="#0D0D0D" fill-rule="evenodd"/><path d="M288 474C288 471.791 289.791 470 292 470 294.209 470 296 471.791 296 474 296 476.209 294.209 478 292 478 289.791 478 288 476.209 288 474Z" fill="#0D0D0D" fill-rule="evenodd"/><path d="M353 474C353 471.791 354.791 470 357 470 359.209 470 361 471.791 361 474 361 476.209 359.209 478 357 478 354.791 478 353 476.209 353 474Z" fill="#0D0D0D" fill-rule="evenodd"/><path d="M385 321.5C385 319.567 386.567 318 388.5 318 390.433 318 392 319.567 392 321.5 392 323.433 390.433 325 388.5 325 386.567 325 385 323.433 385 321.5Z" fill="#0D0D0D" fill-rule="evenodd"/><path d="M385 372C385 369.791 386.791 368 389 368 391.209 368 393 369.791 393 372 393 374.209 391.209 376 389 376 386.791 376 385 374.209 385 372Z" fill="#0D0D0D" fill-rule="evenodd"/><path d="M223 524C223 521.791 224.791 520 227 520 229.209 520 231 521.791 231 524 231 526.209 229.209 528 227 528 224.791 528 223 526.209 223 524Z" fill="#ED7D31" fill-rule="evenodd"/><path d="M288 524C288 521.791 289.791 520 292 520 294.209 520 296 521.791 296 524 296 526.209 294.209 528 292 528 289.791 528 288 526.209 288 524Z" fill="#0D0D0D" fill-rule="evenodd"/><path d="M353 524C353 521.791 354.791 520 357 520 359.209 520 361 521.791 361 524 361 526.209 359.209 528 357 528 354.791 528 353 526.209 353 524Z" fill="#0D0D0D" fill-rule="evenodd"/><rect x="195" y="43" width="63" height="50" fill="#DAE3F3"/><rect x="325" y="43" width="64" height="50" fill="#DAE3F3"/><rect x="195" y="95" width="63" height="49" fill="#DAE3F3"/><rect x="325" y="95" width="64" height="48" fill="#DAE3F3"/><rect x="259" y="95" width="64" height="49" fill="#DAE3F3"/><rect x="259" y="43" width="64" height="50" fill="#DAE3F3"/><path d="M192 43C192 40.7909 193.567 39 195.5 39 197.433 39 199 40.7909 199 43 199 45.2091 197.433 47 195.5 47 193.567 47 192 45.2091 192 43Z" fill-rule="evenodd"/><path d="M256 43C256 40.7909 257.567 39 259.5 39 261.433 39 263 40.7909 263 43 263 45.2091 261.433 47 259.5 47 257.567 47 256 45.2091 256 43Z" fill-rule="evenodd"/><path d="M321 43C321 40.7909 322.791 39 325 39 327.209 39 329 40.7909 329 43 329 45.2091 327.209 47 325 47 322.791 47 321 45.2091 321 43Z" fill="#0D0D0D" fill-rule="evenodd"/><path d="M192 93.5C192 91.567 193.567 90 195.5 90 197.433 90 199 91.567 199 93.5 199 95.433 197.433 97 195.5 97 193.567 97 192 95.433 192 93.5Z" fill="#0D0D0D" fill-rule="evenodd"/><path d="M256 93.5C256 91.567 257.567 90 259.5 90 261.433 90 263 91.567 263 93.5 263 95.433 261.433 97 259.5 97 257.567 97 256 95.433 256 93.5Z" fill="#ED7D31" fill-rule="evenodd"/><path d="M321 93.5C321 91.567 322.791 90 325 90 327.209 90 329 91.567 329 93.5 329 95.433 327.209 97 325 97 322.791 97 321 95.433 321 93.5Z" fill-rule="evenodd"/><path d="M385 43C385 40.7909 386.791 39 389 39 391.209 39 393 40.7909 393 43 393 45.2091 391.209 47 389 47 386.791 47 385 45.2091 385 43Z" fill="#0D0D0D" fill-rule="evenodd"/><path d="M386 93.5C386 91.567 387.567 90 389.5 90 391.433 90 393 91.567 393 93.5 393 95.433 391.433 97 389.5 97 387.567 97 386 95.433 386 93.5Z" fill="#0D0D0D" fill-rule="evenodd"/><path d="M192 144C192 141.791 193.791 140 196 140 198.209 140 200 141.791 200 144 200 146.209 198.209 148 196 148 193.791 148 192 146.209 192 144Z" fill="#0D0D0D" fill-rule="evenodd"/><path d="M256 144C256 141.791 257.567 140 259.5 140 261.433 140 263 141.791 263 144 263 146.209 261.433 148 259.5 148 257.567 148 256 146.209 256 144Z" fill="#0D0D0D" fill-rule="evenodd"/><path d="M321 144C321 141.791 322.791 140 325 140 327.209 140 329 141.791 329 144 329 146.209 327.209 148 325 148 322.791 148 321 146.209 321 144Z" fill-rule="evenodd"/><path d="M386 144C386 141.791 387.791 140 390 140 392.209 140 394 141.791 394 144 394 146.209 392.209 148 390 148 387.791 148 386 146.209 386 144Z" fill="#0D0D0D" fill-rule="evenodd"/><text fill="#2F5597" font-family="Calibri,Calibri_MSFontService,sans-serif" font-style="italic" font-weight="400" font-size="21" transform="translate(418.328 60)">Example a)<tspan font-style="normal" font-size="21" x="0" y="26">Dimension (</tspan><tspan font-style="normal" font-size="21" x="103.833" y="26">y_subsampled</tspan><tspan font-style="normal" font-size="21" x="228.06" y="26">, </tspan><tspan font-style="normal" font-size="21" x="238.227" y="26">x_subsampled</tspan><tspan font-style="normal" font-size="21" x="361.953" y="26">)</tspan><tspan font-style="normal" font-size="21" x="0" y="51">Example (1, </tspan><tspan font-style="normal" font-size="21" x="105.447" y="51">1</tspan><tspan font-style="normal" font-size="21" x="116.28" y="51">) </tspan></text><path d="M557 105C557 102.791 558.791 101 561 101 563.209 101 565 102.791 565 105 565 107.209 563.209 109 561 109 558.791 109 557 107.209 557 105Z" fill="#ED7D31" fill-rule="evenodd"/></g></svg>