<svg width="1197" height="349" xmlns="http://www.w3.org/2000/svg" xmlns:xlink="http://www.w3.org/1999/xlink" overflow="hidden"><defs><clipPath id="clip0"><rect x="63" y="122" width="1197" height="349"/></clipPath></defs><g clip-path="url(#clip0)" transform="translate(-63 -122)"><path d="M117.5 209.5 117.5 285.091" stroke="#4472C4" stroke-width="0.666667" stroke-miterlimit="8" fill="none" fill-rule="evenodd"/><path d="M265.5 151.5 265.911 420.63" stroke="#4472C4" stroke-width="0.666667" stroke-miterlimit="8" fill="none" fill-rule="evenodd"/><path d="M557.5 209.5 557.5 285.091" stroke="#4472C4" stroke-width="0.666667" stroke-miterlimit="8" fill="none" fill-rule="evenodd"/><path d="M674.232 252.5 120.5 252.5" stroke="#4472C4" stroke-width="0.666667" stroke-miterlimit="8" fill="none" fill-rule="evenodd"/><rect x="535" y="237" width="46" height="30" fill="#FFFFFF"/><text fill="#2F5597" font-family="Calibri,Calibri_MSFontService,sans-serif" font-weight="400" font-size="27" transform="translate(537.752 261)">n+1<tspan fill="#7F7F7F" x="178.611" y="0">Tie</tspan><tspan fill="#7F7F7F" x="217.111" y="0">Point </tspan><tspan fill="#7F7F7F" x="279.331" y="0">Interpolation Dimension</tspan></text><path d="M0 0 567.254 0.000104987" stroke="#4472C4" stroke-width="0.666667" stroke-miterlimit="8" fill="none" fill-rule="evenodd" transform="matrix(-1 0 0 1 673.754 201.5)"/><rect x="95" y="232" width="46" height="31" fill="#FFFFFF"/><text fill="#2F5597" font-family="Calibri,Calibri_MSFontService,sans-serif" font-weight="400" font-size="27" transform="translate(111.309 256)">n<tspan fill="#7F7F7F" x="605.054" y="-46">Interpolation </tspan><tspan fill="#7F7F7F" x="752.774" y="-46">Dimensio</tspan><tspan fill="#7F7F7F" x="854.607" y="-46">n</tspan></text><rect x="99" y="288" width="472" height="37" fill="#DAE3F3"/><path d="M125.007 306.666C125.007 310.816 121.657 314.167 117.507 314.167 113.357 314.167 110.007 310.816 110.007 306.666 110.007 302.516 113.357 299.166 117.507 299.166 121.657 299.166 125.007 302.516 125.007 306.666Z" fill-rule="evenodd"/><path d="M174.007 306.666C174.007 310.799 170.657 314.167 166.507 314.167 162.357 314.167 159.007 310.799 159.007 306.666 159.007 302.516 162.357 299.166 166.507 299.166 170.657 299.166 174.007 302.516 174.007 306.666Z" fill="#AFABAB" fill-rule="evenodd"/><path d="M223.007 306.666C223.007 310.799 219.657 314.167 215.507 314.167 211.374 314.167 208.007 310.799 208.007 306.666 208.007 302.516 211.374 299.166 215.507 299.166 219.657 299.166 223.007 302.516 223.007 306.666Z" fill="#AFABAB" fill-rule="evenodd"/><path d="M271.941 306.666C271.941 310.799 268.368 314.167 263.94 314.167 259.532 314.167 255.94 310.799 255.94 306.666 255.94 302.516 259.532 299.166 263.94 299.166 268.368 299.166 271.941 302.516 271.941 306.666Z" fill="#AFABAB" fill-rule="evenodd"/><path d="M320.007 306.666C320.007 310.799 316.657 314.167 312.507 314.167 308.374 314.167 305.007 310.799 305.007 306.666 305.007 302.516 308.374 299.166 312.507 299.166 316.657 299.166 320.007 302.516 320.007 306.666Z" fill="#AFABAB" fill-rule="evenodd"/><path d="M369.007 306.666C369.007 310.799 365.657 314.167 361.507 314.167 357.374 314.167 354.007 310.799 354.007 306.666 354.007 302.516 357.374 299.166 361.507 299.166 365.657 299.166 369.007 302.516 369.007 306.666Z" fill="#AFABAB" fill-rule="evenodd"/><path d="M418.007 306.666C418.007 310.799 414.657 314.167 410.507 314.167 406.374 314.167 403.007 310.799 403.007 306.666 403.007 302.516 406.374 299.166 410.507 299.166 414.657 299.166 418.007 302.516 418.007 306.666Z" fill="#AFABAB" fill-rule="evenodd"/><path d="M467.007 306.666C467.007 310.799 463.657 314.167 459.507 314.167 455.374 314.167 452.007 310.799 452.007 306.666 452.007 302.516 455.374 299.166 459.507 299.166 463.657 299.166 467.007 302.516 467.007 306.666Z" fill="#AFABAB" fill-rule="evenodd"/><path d="M516.007 306.666C516.007 310.799 512.657 314.167 508.507 314.167 504.374 314.167 501.007 310.799 501.007 306.666 501.007 302.516 504.374 299.166 508.507 299.166 512.657 299.166 516.007 302.516 516.007 306.666Z" fill="#AFABAB" fill-rule="evenodd"/><path d="M565.007 306.666C565.007 310.799 561.657 314.167 557.507 314.167 553.357 314.167 550.007 310.799 550.007 306.666 550.007 302.516 553.357 299.166 557.507 299.166 561.657 299.166 565.007 302.516 565.007 306.666Z" fill-rule="evenodd"/><rect x="478" y="185" width="178" height="28" fill="#FFFFFF"/><text fill="#2F5597" font-family="Calibri,Calibri_MSFontService,sans-serif" font-weight="400" font-size="27" transform="translate(489.254 208)">i<tspan font-size="18" x="6.16666" y="6">B</tspan><tspan x="19.8333" y="0">= </tspan><tspan x="39.1666" y="0">index</tspan><tspan x="97.76" y="0">(n+1)</tspan><tspan fill="#7F7F7F" x="227.109" y="-49">Reconstituted</tspan><tspan fill="#7F7F7F" x="384.002" y="-49">Point (</tspan><tspan fill="#7F7F7F" x="454.389" y="-49">Interpolation </tspan><tspan fill="#7F7F7F" x="602.109" y="-49">Dimensio</tspan><tspan fill="#7F7F7F" x="703.942" y="-49">n)</tspan></text><rect x="69" y="342" width="96" height="26" fill="#FFFFFF"/><text fill="#2F5597" font-family="Calibri,Calibri_MSFontService,sans-serif" font-weight="400" font-size="27" transform="translate(109.238 364)">A</text><rect x="509" y="342" width="96" height="26" fill="#FFFFFF"/><text fill="#2F5597" font-family="Calibri,Calibri_MSFontService,sans-serif" font-weight="400" font-size="27" transform="translate(549.581 364)">B</text><rect x="63" y="188" width="178" height="27" fill="#FFFFFF"/><text fill="#2F5597" font-family="Calibri,Calibri_MSFontService,sans-serif" font-weight="400" font-size="27" transform="translate(87.9047 210)">i<tspan font-size="18" x="6.16666" y="6">A</tspan><tspan x="20.5" y="0">= </tspan>index(n)</text><path d="M0 0 404.554 0.000104987" stroke="#4472C4" stroke-width="0.666667" stroke-miterlimit="8" fill="none" fill-rule="evenodd" transform="matrix(-1 0 0 1 671.054 150.5)"/><rect x="247" y="133" width="32" height="29" fill="#FFFFFF"/><text fill="#2F5597" font-family="Calibri,Calibri_MSFontService,sans-serif" font-weight="400" font-size="27" transform="translate(255.115 156)">i<tspan font-size="18" x="6.16666" y="6">P</tspan></text><rect x="78" y="378" width="96" height="27" fill="#FFFFFF"/><text fill="#2F5597" font-family="Calibri,Calibri_MSFontService,sans-serif" font-weight="400" font-size="27" transform="translate(99.8682 401)">0.0…</text><rect x="500" y="378" width="97" height="27" fill="#FFFFFF"/><text fill="#2F5597" font-family="Calibri,Calibri_MSFontService,sans-serif" font-weight="400" font-size="27" transform="translate(522.521 401)">…1.0</text><rect x="216" y="378" width="96" height="26" fill="#FFFFFF"/><text fill="#2F5597" font-family="Calibri,Calibri_MSFontService,sans-serif" font-weight="400" font-size="27" transform="translate(254.397 400)">s<tspan font-size="18" x="10.5" y="6">P</tspan></text><rect x="217" y="420" width="96" height="26" fill="#FFFFFF"/><text fill="#2F5597" font-family="Calibri,Calibri_MSFontService,sans-serif" font-weight="400" font-size="27" transform="translate(255.191 442)">c<tspan font-size="18" x="11.3333" y="6">P</tspan></text><rect x="66" y="420" width="96" height="26" fill="#FFFFFF"/><text fill="#2F5597" font-family="Calibri,Calibri_MSFontService,sans-serif" font-weight="400" font-size="27" transform="translate(103.515 442)">c<tspan font-size="18" x="11.3333" y="6">A</tspan></text><rect x="509" y="420" width="96" height="26" fill="#FFFFFF"/><text fill="#2F5597" font-family="Calibri,Calibri_MSFontService,sans-serif" font-weight="400" font-size="27" transform="translate(546.331 442)">c<tspan font-size="18" x="11.3333" y="6">B</tspan><tspan fill="#7F7F7F" x="170.032" y="5">Coordinate</tspan><tspan fill="#7F7F7F" x="295.965" y="5">Values</tspan><tspan fill="#7F7F7F" x="170.032" y="-36">Interpolation </tspan><tspan fill="#7F7F7F" x="317.752" y="-36">Parameter</tspan><tspan fill="#7F7F7F" x="170.032" y="-73">Tie</tspan><tspan fill="#7F7F7F" x="208.532" y="-73">Points and </tspan><tspan fill="#7F7F7F" x="328.085" y="-73">Reconstituted</tspan><tspan fill="#7F7F7F" x="484.979" y="-73">Point</tspan></text><rect x="218" y="342" width="96" height="26" fill="#FFFFFF"/><text fill="#2F5597" font-family="Calibri,Calibri_MSFontService,sans-serif" font-weight="400" font-size="27" transform="translate(259.022 364)">P</text></g></svg>