<svg width="474" height="472" xmlns="http://www.w3.org/2000/svg" xmlns:xlink="http://www.w3.org/1999/xlink" overflow="hidden"><defs><clipPath id="clip0"><rect x="341" y="104" width="474" height="472"/></clipPath></defs><g clip-path="url(#clip0)" transform="translate(-341 -104)"><path d="M728 192C731.314 192 734 194.686 734 198 734 201.314 731.314 204 728 204 724.686 204 722 201.314 722 198 722 194.686 724.686 192 728 192Z" fill-rule="evenodd"/><path d="M728 495C731.314 495 734 497.462 734 500.5 734 503.538 731.314 506 728 506 724.686 506 722 503.538 722 500.5 722 497.462 724.686 495 728 495Z" fill-rule="evenodd"/><path d="M425.5 495C428.538 495 431 497.462 431 500.5 431 503.538 428.538 506 425.5 506 422.462 506 420 503.538 420 500.5 420 497.462 422.462 495 425.5 495Z" fill-rule="evenodd"/><path d="M425.5 192C428.538 192 431 194.686 431 198 431 201.314 428.538 204 425.5 204 422.462 204 420 201.314 420 198 420 194.686 422.462 192 425.5 192Z" fill-rule="evenodd"/><path d="M428 306 428 349.193 425 349.193 425 306ZM419 307.5 426.5 292.5 434 307.5Z" fill="#0070C0"/><path d="M469.693 351 426.5 351 426.5 348 469.693 348ZM468.193 342 483.193 349.5 468.193 357Z" fill="#00B050"/><path d="M729 306 729 349.193 726 349.193 726 306ZM720 307.5 727.5 292.5 735 307.5Z" fill="#0070C0"/><path d="M770.693 351 727.5 351 727.5 348 770.693 348ZM769.193 342 784.193 349.5 769.193 357Z" fill="#00B050"/><path d="M534 197 577.193 197 577.193 200 534 200ZM535.5 206 520.5 198.5 535.5 191Z" fill="#0070C0"/><path d="M578 155 578 198.193 575 198.193 575 155ZM569 156.5 576.5 141.5 584 156.5Z" fill="#00B050"/><path d="M534 348 577.193 348 577.193 351 534 351ZM535.5 357 520.5 349.5 535.5 342Z" fill="#0070C0"/><path d="M578 306 578 349.193 575 349.193 575 306ZM569 307.5 576.5 292.5 584 307.5Z" fill="#00B050"/><path d="M534 499 577.193 499 577.193 502 534 502ZM535.5 508 520.5 500.5 535.5 493Z" fill="#0070C0"/><path d="M578 458 578 501.193 575 501.193 575 458ZM569 459.5 576.5 444.5 584 459.5Z" fill="#00B050"/><path d="M425.5 344C428.538 344 431 346.462 431 349.5 431 352.538 428.538 355 425.5 355 422.462 355 420 352.538 420 349.5 420 346.462 422.462 344 425.5 344Z" fill-rule="evenodd"/><path d="M576.5 343C579.538 343 582 345.462 582 348.5 582 351.538 579.538 354 576.5 354 573.462 354 571 351.538 571 348.5 571 345.462 573.462 343 576.5 343Z" fill-rule="evenodd"/><path d="M728 343C731.314 343 734 345.462 734 348.5 734 351.538 731.314 354 728 354 724.686 354 722 351.538 722 348.5 722 345.462 724.686 343 728 343Z" fill-rule="evenodd"/><path d="M576.5 495C579.538 495 582 497.462 582 500.5 582 503.538 579.538 506 576.5 506 573.462 506 571 503.538 571 500.5 571 497.462 573.462 495 576.5 495Z" fill-rule="evenodd"/><path d="M576.5 192C579.538 192 582 194.686 582 198 582 201.314 579.538 204 576.5 204 573.463 204 571 201.314 571 198 571 194.686 573.463 192 576.5 192Z" fill-rule="evenodd"/><text font-family="Calibri,Calibri_MSFontService,sans-serif" font-weight="400" font-size="32" transform="translate(378.772 177)">A<tspan font-size="32" x="372.505" y="-1">B</tspan><tspan font-size="32" x="5.32086" y="370">C</tspan><tspan font-size="32" x="374.86" y="367">D</tspan><tspan fill="#0070C0" font-size="24" x="125.542" y="353">ca1(</tspan><tspan fill="#0070C0" font-size="24" x="166.509" y="353">tp2+1, iz1)</tspan><tspan fill="#00B050" font-size="24" x="138.348" y="-43">ca1(tp2, iz1)</tspan><tspan fill="#0070C0" font-size="24" x="138.509" y="52">ce1(tp2, iz1)</tspan><tspan fill="#00B050" font-size="24" x="126.081" y="258">c</tspan><tspan fill="#00B050" font-size="24" x="136.048" y="258">a1(</tspan><tspan fill="#00B050" font-size="24" x="167.048" y="258">tp2+1, iz1)</tspan><tspan fill="#00B050" font-size="24" x="140.325" y="105">ca3(iz2, iz1)</tspan><tspan fill="#0070C0" font-size="24" x="141.342" y="201">ce3(iz2, iz1)</tspan><tspan fill="#00B050" font-size="24" x="-13.6922" y="202">ca2(iz2, tp</tspan><tspan fill="#00B050" font-size="24" x="86.6078" y="202">1</tspan><tspan fill="#00B050" font-size="24" x="98.7745" y="202">)</tspan><tspan fill="#0070C0" font-size="24" x="-13.2552" y="105">ce2(iz2, tp1)</tspan><tspan fill="#00B050" font-size="24" x="276.532" y="202">ca2(iz2, tp1+</tspan><tspan fill="#00B050" font-size="24" x="400.999" y="202">1</tspan><tspan fill="#00B050" font-size="24" x="413.166" y="202">)</tspan><tspan fill="#0070C0" font-size="24" x="276.425" y="105">ce2(iz2, tp1+1)</tspan></text><path d="M403.5 176.5 403.5 524.217" stroke="#7F7F7F" stroke-width="0.666667" stroke-miterlimit="8" fill="none" fill-rule="evenodd"/><path d="M447.5 176.5 447.5 524.217" stroke="#7F7F7F" stroke-width="0.666667" stroke-miterlimit="8" fill="none" fill-rule="evenodd"/><path d="M490.5 176.5 490.5 524.217" stroke="#7F7F7F" stroke-width="0.666667" stroke-miterlimit="8" fill="none" fill-rule="evenodd"/><path d="M533.5 176.5 533.5 524.217" stroke="#7F7F7F" stroke-width="0.666667" stroke-miterlimit="8" fill="none" fill-rule="evenodd"/><path d="M620.5 176.5 620.5 524.217" stroke="#7F7F7F" stroke-width="0.666667" stroke-miterlimit="8" fill="none" fill-rule="evenodd"/><path d="M663.5 176.5 663.5 524.217" stroke="#7F7F7F" stroke-width="0.666667" stroke-miterlimit="8" fill="none" fill-rule="evenodd"/><path d="M706.5 176.5 706.5 524.217" stroke="#7F7F7F" stroke-width="0.666667" stroke-miterlimit="8" fill="none" fill-rule="evenodd"/><path d="M576.5 176.5 576.5 524.217" stroke="#7F7F7F" stroke-width="0.666667" stroke-miterlimit="8" fill="none" fill-rule="evenodd"/><path d="M749.5 176.5 749.5 524.217" stroke="#7F7F7F" stroke-width="0.666667" stroke-miterlimit="8" fill="none" fill-rule="evenodd"/><path d="M401.5 176.5 748.183 176.5" stroke="#7F7F7F" stroke-width="0.666667" stroke-miterlimit="8" fill="none" fill-rule="evenodd"/><path d="M401.5 219.5 748.183 219.5" stroke="#7F7F7F" stroke-width="0.666667" stroke-miterlimit="8" fill="none" fill-rule="evenodd"/><path d="M401.5 263.5 748.183 263.5" stroke="#7F7F7F" stroke-width="0.666667" stroke-miterlimit="8" fill="none" fill-rule="evenodd"/><path d="M401.5 306.5 748.183 306.5" stroke="#7F7F7F" stroke-width="0.666667" stroke-miterlimit="8" fill="none" fill-rule="evenodd"/><path d="M401.5 349.5 748.183 349.5" stroke="#7F7F7F" stroke-width="0.666667" stroke-miterlimit="8" fill="none" fill-rule="evenodd"/><path d="M401.5 392.5 748.183 392.5" stroke="#7F7F7F" stroke-width="0.666667" stroke-miterlimit="8" fill="none" fill-rule="evenodd"/><path d="M401.5 436.5 748.183 436.5" stroke="#7F7F7F" stroke-width="0.666667" stroke-miterlimit="8" fill="none" fill-rule="evenodd"/><path d="M401.5 479.5 748.183 479.5" stroke="#7F7F7F" stroke-width="0.666667" stroke-miterlimit="8" fill="none" fill-rule="evenodd"/><path d="M401.5 522.5 748.183 522.5" stroke="#7F7F7F" stroke-width="0.666667" stroke-miterlimit="8" fill="none" fill-rule="evenodd"/></g></svg>