<svg width="2253" height="722" xmlns="http://www.w3.org/2000/svg" xmlns:xlink="http://www.w3.org/1999/xlink" overflow="hidden"><defs><clipPath id="clip0"><rect x="3733" y="2098" width="2253" height="722"/></clipPath><clipPath id="clip1"><rect x="3733" y="2098" width="2252" height="722"/></clipPath><clipPath id="clip2"><rect x="3733" y="2098" width="2252" height="722"/></clipPath><clipPath id="clip3"><rect x="3733" y="2098" width="2252" height="722"/></clipPath><clipPath id="clip4"><rect x="3733" y="2098" width="2252" height="722"/></clipPath><clipPath id="clip5"><rect x="3733" y="2098" width="2252" height="722"/></clipPath><clipPath id="clip6"><rect x="3815" y="2290" width="1927" height="486"/></clipPath><clipPath id="clip7"><rect x="3815" y="2290" width="1927" height="486"/></clipPath><clipPath id="clip8"><rect x="3815" y="2290" width="1927" height="486"/></clipPath><clipPath id="clip9"><rect x="3815" y="2290" width="1927" height="486"/></clipPath><clipPath id="clip10"><rect x="3815" y="2290" width="1927" height="486"/></clipPath><clipPath id="clip11"><rect x="3815" y="2290" width="1927" height="486"/></clipPath><clipPath id="clip12"><rect x="3815" y="2290" width="1927" height="486"/></clipPath><clipPath id="clip13"><rect x="3815" y="2290" width="1927" height="486"/></clipPath><clipPath id="clip14"><rect x="3815" y="2290" width="1927" height="486"/></clipPath><clipPath id="clip15"><rect x="3815" y="2290" width="1927" height="486"/></clipPath><clipPath id="clip16"><rect x="3733" y="2098" width="2252" height="722"/></clipPath><clipPath id="clip17"><rect x="3733" y="2098" width="2252" height="722"/></clipPath><clipPath id="clip18"><rect x="3733" y="2098" width="2252" height="722"/></clipPath><clipPath id="clip19"><rect x="3733" y="2098" width="2252" height="722"/></clipPath><clipPath id="clip20"><rect x="3733" y="2098" width="2252" height="722"/></clipPath><clipPath id="clip21"><rect x="3733" y="2098" width="2252" height="722"/></clipPath><clipPath id="clip22"><rect x="3733" y="2098" width="2252" height="722"/></clipPath><clipPath id="clip23"><rect x="3733" y="2098" width="2252" height="722"/></clipPath><clipPath id="clip24"><rect x="3733" y="2098" width="2252" height="722"/></clipPath><clipPath id="clip25"><rect x="3733" y="2098" width="2252" height="722"/></clipPath><clipPath id="clip26"><rect x="3733" y="2098" width="2252" height="722"/></clipPath><clipPath id="clip27"><rect x="3733" y="2098" width="2252" height="722"/></clipPath><clipPath id="clip28"><rect x="3733" y="2098" width="2252" height="722"/></clipPath><clipPath id="clip29"><rect x="3733" y="2098" width="2252" height="722"/></clipPath><clipPath id="clip30"><rect x="3733" y="2098" width="2252" height="722"/></clipPath><clipPath id="clip31"><rect x="3733" y="2098" width="2252" height="722"/></clipPath><clipPath id="clip32"><rect x="3733" y="2098" width="2252" height="722"/></clipPath><clipPath id="clip33"><rect x="3733" y="2098" width="2252" height="722"/></clipPath><clipPath id="clip34"><rect x="3733" y="2098" width="2252" height="722"/></clipPath><clipPath id="clip35"><rect x="3733" y="2098" width="2253" height="723"/></clipPath><clipPath id="clip36"><rect x="3733" y="2098" width="2253" height="723"/></clipPath><clipPath id="clip37"><rect x="3733" y="2098" width="2253" height="723"/></clipPath><clipPath id="clip38"><rect x="3923" y="2592" width="335" height="133"/></clipPath><clipPath id="clip39"><rect x="3733" y="2098" width="2253" height="723"/></clipPath><clipPath id="clip40"><rect x="3733" y="2098" width="2253" height="723"/></clipPath><clipPath id="clip41"><rect x="3733" y="2098" width="2253" height="723"/></clipPath><clipPath id="clip42"><rect x="3733" y="2098" width="2253" height="723"/></clipPath><clipPath id="clip43"><rect x="3733" y="2098" width="2253" height="723"/></clipPath><clipPath id="clip44"><rect x="3733" y="2098" width="2253" height="723"/></clipPath><clipPath id="clip45"><rect x="3733" y="2098" width="2253" height="723"/></clipPath><clipPath id="clip46"><rect x="3733" y="2098" width="2253" height="723"/></clipPath><clipPath id="clip47"><rect x="3733" y="2098" width="2253" height="723"/></clipPath><clipPath id="clip48"><rect x="3733" y="2098" width="2253" height="723"/></clipPath><clipPath id="clip49"><rect x="3733" y="2098" width="2253" height="723"/></clipPath><clipPath id="clip50"><rect x="3733" y="2098" width="2253" height="723"/></clipPath><clipPath id="clip51"><rect x="3733" y="2098" width="2253" height="723"/></clipPath><clipPath id="clip52"><rect x="3733" y="2098" width="2253" height="723"/></clipPath></defs><g clip-path="url(#clip0)" transform="translate(-3733 -2098)"><g clip-path="url(#clip1)"><rect x="3816" y="2291" width="1923" height="482" fill="#FFFFFF"/></g><g clip-path="url(#clip2)"><path d="M3815.5 2772.5 5738.5 2772.5M3815.5 2652.59 5738.5 2652.59M3815.5 2531.58 5738.5 2531.58M3815.5 2410.58 5738.5 2410.58" stroke="#D9D9D9" stroke-width="3.4375" stroke-linejoin="round" stroke-miterlimit="10" fill="none"/></g><g clip-path="url(#clip3)"><path d="M3815.5 2290.5 3815.5 2772.5M4090.63 2290.5 4090.63 2772.5M4365.64 2290.5 4365.64 2772.5M4639.65 2290.5 4639.65 2772.5M4914.66 2290.5 4914.66 2772.5M5189.67 2290.5 5189.67 2772.5M5463.68 2290.5 5463.68 2772.5" stroke="#D9D9D9" stroke-width="3.4375" stroke-linejoin="round" stroke-miterlimit="10" fill="none"/></g><g clip-path="url(#clip4)"><path d="M0 0 0.000360892 482" stroke="#BFBFBF" stroke-width="3.4375" stroke-linejoin="round" stroke-miterlimit="10" fill="none" fill-rule="evenodd" transform="matrix(1 0 0 -1 5738.5 2772.5)"/></g><g clip-path="url(#clip5)"><path d="M3815.5 2290.5 5738.5 2290.5" stroke="#BFBFBF" stroke-width="3.4375" stroke-linejoin="round" stroke-miterlimit="10" fill="none" fill-rule="evenodd"/></g><g clip-path="url(#clip6)"><path d="M3815.5 2290.5C3815.5 2330.67 3815.5 2370.83 3815.5 2411 3815.5 2451.17 3815.5 2491.33 3815.5 2531.5 3815.5 2571.67 3815.5 2611.83 3815.5 2652 3815.5 2692.17 3815.5 2752.42 3815.5 2772.5M3952.86 2290.5C3952.86 2310.58 3952.86 2370.83 3952.86 2411 3952.86 2451.17 3952.86 2491.33 3952.86 2531.5 3952.86 2571.67 3952.86 2611.83 3952.86 2652 3952.86 2692.17 3952.86 2752.42 3952.86 2772.5M4090.21 2290.5C4090.21 2310.58 4090.21 2370.83 4090.21 2411 4090.21 2451.17 4090.21 2491.33 4090.21 2531.5 4090.21 2571.67 4090.21 2611.83 4090.21 2652 4090.21 2692.17 4090.21 2752.42 4090.21 2772.5M4227.57 2290.5C4227.57 2310.58 4227.57 2370.83 4227.57 2411 4227.57 2451.17 4227.57 2491.33 4227.57 2531.5 4227.57 2571.67 4227.57 2611.83 4227.57 2652 4227.57 2692.17 4227.57 2752.42 4227.57 2772.5M4364.93 2290.5C4364.93 2310.58 4364.93 2370.83 4364.93 2411 4364.93 2451.17 4364.93 2491.33 4364.93 2531.5 4364.93 2571.67 4364.93 2611.83 4364.93 2652 4364.93 2692.17 4364.93 2752.42 4364.93 2772.5M4502.29 2290.5C4502.29 2310.58 4502.29 2370.83 4502.29 2411 4502.29 2451.17 4502.29 2491.33 4502.29 2531.5 4502.29 2571.67 4502.29 2611.83 4502.29 2652 4502.29 2692.17 4502.29 2752.42 4502.29 2772.5M4639.64 2290.5C4639.64 2310.58 4639.64 2370.83 4639.64 2411 4639.64 2451.17 4639.64 2491.33 4639.64 2531.5 4639.64 2571.67 4639.64 2611.83 4639.64 2652 4639.64 2692.17 4639.64 2752.42 4639.64 2772.5M4777 2290.5C4777 2310.58 4777 2370.83 4777 2411 4777 2451.17 4777 2491.33 4777 2531.5 4777 2571.67 4777 2611.83 4777 2652 4777 2692.17 4777 2752.42 4777 2772.5M4914.36 2290.5C4914.36 2310.58 4914.36 2370.83 4914.36 2411 4914.36 2451.17 4914.36 2491.33 4914.36 2531.5 4914.36 2571.67 4914.36 2611.83 4914.36 2652 4914.36 2692.17 4914.36 2752.42 4914.36 2772.5M5051.71 2290.5C5051.71 2310.58 5051.71 2370.83 5051.71 2411 5051.71 2451.17 5051.71 2491.33 5051.71 2531.5 5051.71 2571.67 5051.71 2611.83 5051.71 2652 5051.71 2692.17 5051.71 2752.42 5051.71 2772.5M5189.07 2290.5C5189.07 2310.58 5189.07 2370.83 5189.07 2411 5189.07 2451.17 5189.07 2491.33 5189.07 2531.5 5189.07 2571.67 5189.07 2611.83 5189.07 2652 5189.07 2692.17 5189.07 2752.42 5189.07 2772.5M5326.43 2290.5C5326.43 2310.58 5326.43 2370.83 5326.43 2411 5326.43 2451.17 5326.43 2491.33 5326.43 2531.5 5326.43 2571.67 5326.43 2611.83 5326.43 2652 5326.43 2692.17 5326.43 2752.42 5326.43 2772.5M5463.79 2290.5C5463.79 2310.58 5463.79 2370.83 5463.79 2411 5463.79 2451.17 5463.79 2491.33 5463.79 2531.5 5463.79 2571.67 5463.79 2611.83 5463.79 2652 5463.79 2692.17 5463.79 2752.42 5463.79 2772.5M5601.14 2290.5C5601.14 2310.58 5601.14 2370.83 5601.14 2411 5601.14 2451.17 5601.14 2491.33 5601.14 2531.5 5601.14 2571.67 5601.14 2611.83 5601.14 2652 5601.14 2692.17 5601.14 2752.42 5601.14 2772.5M5738.5 2290.5C5738.5 2310.58 5738.5 2370.83 5738.5 2411 5738.5 2451.17 5738.5 2491.33 5738.5 2531.5 5738.5 2571.67 5738.5 2611.83 5738.5 2652 5738.5 2692.17 5738.5 2752.42 5738.5 2772.5" stroke="#BFBFBF" stroke-width="6.875" stroke-linecap="round" stroke-linejoin="round" stroke-miterlimit="10" stroke-dasharray="13.75 13.75" fill="none"/></g><g clip-path="url(#clip7)"><path d="M3815.5 2772.5C3861.29 2772.5 3907.07 2772.5 3952.86 2772.5 3998.64 2772.5 4044.43 2772.5 4090.21 2772.5 4136 2772.5 4181.79 2772.5 4227.57 2772.5 4273.36 2772.5 4319.14 2772.5 4364.93 2772.5 4410.71 2772.5 4456.5 2772.5 4502.29 2772.5 4548.07 2772.5 4593.86 2772.5 4639.64 2772.5 4685.43 2772.5 4731.21 2772.5 4777 2772.5 4822.79 2772.5 4868.57 2772.5 4914.36 2772.5 4960.14 2772.5 5005.93 2772.5 5051.71 2772.5 5097.5 2772.5 5143.29 2772.5 5189.07 2772.5 5234.86 2772.5 5280.64 2772.5 5326.43 2772.5 5372.21 2772.5 5418 2772.5 5463.79 2772.5 5509.57 2772.5 5555.36 2772.5 5601.14 2772.5 5646.93 2772.5 5715.61 2772.5 5738.5 2772.5M3815.5 2652C3838.39 2652 3907.07 2652 3952.86 2652 3998.64 2652 4044.43 2652 4090.21 2652 4136 2652 4181.79 2652 4227.57 2652 4273.36 2652 4319.14 2652 4364.93 2652 4410.71 2652 4456.5 2652 4502.29 2652 4548.07 2652 4593.86 2652 4639.64 2652 4685.43 2652 4731.21 2652 4777 2652 4822.79 2652 4868.57 2652 4914.36 2652 4960.14 2652 5005.93 2652 5051.71 2652 5097.5 2652 5143.29 2652 5189.07 2652 5234.86 2652 5280.64 2652 5326.43 2652 5372.21 2652 5418 2652 5463.79 2652 5509.57 2652 5555.36 2652 5601.14 2652 5646.93 2652 5715.61 2652 5738.5 2652M3815.5 2531.5C3838.39 2531.5 3907.07 2531.5 3952.86 2531.5 3998.64 2531.5 4044.43 2531.5 4090.21 2531.5 4136 2531.5 4181.79 2531.5 4227.57 2531.5 4273.36 2531.5 4319.14 2531.5 4364.93 2531.5 4410.71 2531.5 4456.5 2531.5 4502.29 2531.5 4548.07 2531.5 4593.86 2531.5 4639.64 2531.5 4685.43 2531.5 4731.21 2531.5 4777 2531.5 4822.79 2531.5 4868.57 2531.5 4914.36 2531.5 4960.14 2531.5 5005.93 2531.5 5051.71 2531.5 5097.5 2531.5 5143.29 2531.5 5189.07 2531.5 5234.86 2531.5 5280.64 2531.5 5326.43 2531.5 5372.21 2531.5 5418 2531.5 5463.79 2531.5 5509.57 2531.5 5555.36 2531.5 5601.14 2531.5 5646.93 2531.5 5715.61 2531.5 5738.5 2531.5M3815.5 2411C3838.39 2411 3907.07 2411 3952.86 2411 3998.64 2411 4044.43 2411 4090.21 2411 4136 2411 4181.79 2411 4227.57 2411 4273.36 2411 4319.14 2411 4364.93 2411 4410.71 2411 4456.5 2411 4502.29 2411 4548.07 2411 4593.86 2411 4639.64 2411 4685.43 2411 4731.21 2411 4777 2411 4822.79 2411 4868.57 2411 4914.36 2411 4960.14 2411 5005.93 2411 5051.71 2411 5097.5 2411 5143.29 2411 5189.07 2411 5234.86 2411 5280.64 2411 5326.43 2411 5372.21 2411 5418 2411 5463.79 2411 5509.57 2411 5555.36 2411 5601.14 2411 5646.93 2411 5715.61 2411 5738.5 2411M3815.5 2290.5C3838.39 2290.5 3907.07 2290.5 3952.86 2290.5 3998.64 2290.5 4044.43 2290.5 4090.21 2290.5 4136 2290.5 4181.79 2290.5 4227.57 2290.5 4273.36 2290.5 4319.14 2290.5 4364.93 2290.5 4410.71 2290.5 4456.5 2290.5 4502.29 2290.5 4548.07 2290.5 4593.86 2290.5 4639.64 2290.5 4685.43 2290.5 4731.21 2290.5 4777 2290.5 4822.79 2290.5 4868.57 2290.5 4914.36 2290.5 4960.14 2290.5 5005.93 2290.5 5051.71 2290.5 5097.5 2290.5 5143.29 2290.5 5189.07 2290.5 5234.86 2290.5 5280.64 2290.5 5326.43 2290.5 5372.21 2290.5 5418 2290.5 5463.79 2290.5 5509.57 2290.5 5555.36 2290.5 5601.14 2290.5 5646.93 2290.5 5715.61 2290.5 5738.5 2290.5" stroke="#BFBFBF" stroke-width="6.875" stroke-linecap="round" stroke-linejoin="round" stroke-miterlimit="10" stroke-dasharray="13.75 13.75" fill="none"/></g><g clip-path="url(#clip8)"><path d="M3815.5 2290.5C3815.5 2330.67 3815.5 2370.83 3815.5 2411 3815.5 2451.17 3815.5 2491.33 3815.5 2531.5 3815.5 2571.67 3815.5 2611.83 3815.5 2652 3815.5 2692.17 3815.5 2752.42 3815.5 2772.5M3952.86 2290.5C3952.86 2310.58 3952.86 2370.83 3952.86 2411 3952.86 2451.17 3952.86 2491.33 3952.86 2531.5 3952.86 2571.67 3952.86 2611.83 3952.86 2652 3952.86 2692.17 3952.86 2752.42 3952.86 2772.5M4090.21 2290.5C4090.21 2310.58 4090.21 2370.83 4090.21 2411 4090.21 2451.17 4090.21 2491.33 4090.21 2531.5 4090.21 2571.67 4090.21 2611.83 4090.21 2652 4090.21 2692.17 4090.21 2752.42 4090.21 2772.5M4227.57 2290.5C4227.57 2310.58 4227.57 2370.83 4227.57 2411 4227.57 2451.17 4227.57 2491.33 4227.57 2531.5 4227.57 2571.67 4227.57 2611.83 4227.57 2652 4227.57 2692.17 4227.57 2752.42 4227.57 2772.5M4364.93 2290.5C4364.93 2310.58 4364.93 2370.83 4364.93 2411 4364.93 2451.17 4364.93 2491.33 4364.93 2531.5 4364.93 2571.67 4364.93 2611.83 4364.93 2652 4364.93 2692.17 4364.93 2752.42 4364.93 2772.5M4502.29 2290.5C4502.29 2310.58 4502.29 2370.83 4502.29 2411 4502.29 2451.17 4502.29 2491.33 4502.29 2531.5 4502.29 2571.67 4502.29 2611.83 4502.29 2652 4502.29 2692.17 4502.29 2752.42 4502.29 2772.5M4639.64 2290.5C4639.64 2310.58 4639.64 2370.83 4639.64 2411 4639.64 2451.17 4639.64 2491.33 4639.64 2531.5 4639.64 2571.67 4639.64 2611.83 4639.64 2652 4639.64 2692.17 4639.64 2752.42 4639.64 2772.5M4777 2290.5C4777 2310.58 4777 2370.83 4777 2411 4777 2451.17 4777 2491.33 4777 2531.5 4777 2571.67 4777 2611.83 4777 2652 4777 2692.17 4777 2752.42 4777 2772.5M4914.36 2290.5C4914.36 2310.58 4914.36 2370.83 4914.36 2411 4914.36 2451.17 4914.36 2491.33 4914.36 2531.5 4914.36 2571.67 4914.36 2611.83 4914.36 2652 4914.36 2692.17 4914.36 2752.42 4914.36 2772.5M5051.71 2290.5C5051.71 2310.58 5051.71 2370.83 5051.71 2411 5051.71 2451.17 5051.71 2491.33 5051.71 2531.5 5051.71 2571.67 5051.71 2611.83 5051.71 2652 5051.71 2692.17 5051.71 2752.42 5051.71 2772.5M5189.07 2290.5C5189.07 2310.58 5189.07 2370.83 5189.07 2411 5189.07 2451.17 5189.07 2491.33 5189.07 2531.5 5189.07 2571.67 5189.07 2611.83 5189.07 2652 5189.07 2692.17 5189.07 2752.42 5189.07 2772.5M5326.43 2290.5C5326.43 2310.58 5326.43 2370.83 5326.43 2411 5326.43 2451.17 5326.43 2491.33 5326.43 2531.5 5326.43 2571.67 5326.43 2611.83 5326.43 2652 5326.43 2692.17 5326.43 2752.42 5326.43 2772.5M5463.79 2290.5C5463.79 2310.58 5463.79 2370.83 5463.79 2411 5463.79 2451.17 5463.79 2491.33 5463.79 2531.5 5463.79 2571.67 5463.79 2611.83 5463.79 2652 5463.79 2692.17 5463.79 2752.42 5463.79 2772.5M5601.14 2290.5C5601.14 2310.58 5601.14 2370.83 5601.14 2411 5601.14 2451.17 5601.14 2491.33 5601.14 2531.5 5601.14 2571.67 5601.14 2611.83 5601.14 2652 5601.14 2692.17 5601.14 2752.42 5601.14 2772.5M5738.5 2290.5C5738.5 2310.58 5738.5 2370.83 5738.5 2411 5738.5 2451.17 5738.5 2491.33 5738.5 2531.5 5738.5 2571.67 5738.5 2611.83 5738.5 2652 5738.5 2692.17 5738.5 2752.42 5738.5 2772.5" stroke="#BFBFBF" stroke-width="6.875" stroke-linecap="round" stroke-linejoin="round" stroke-miterlimit="10" stroke-dasharray="13.75 13.75" fill="none"/></g><g clip-path="url(#clip9)"><path d="M3815.5 2772.5C3861.29 2772.5 3907.07 2772.5 3952.86 2772.5 3998.64 2772.5 4044.43 2772.5 4090.21 2772.5 4136 2772.5 4181.79 2772.5 4227.57 2772.5 4273.36 2772.5 4319.14 2772.5 4364.93 2772.5 4410.71 2772.5 4456.5 2772.5 4502.29 2772.5 4548.07 2772.5 4593.86 2772.5 4639.64 2772.5 4685.43 2772.5 4731.21 2772.5 4777 2772.5 4822.79 2772.5 4868.57 2772.5 4914.36 2772.5 4960.14 2772.5 5005.93 2772.5 5051.71 2772.5 5097.5 2772.5 5143.29 2772.5 5189.07 2772.5 5234.86 2772.5 5280.64 2772.5 5326.43 2772.5 5372.21 2772.5 5418 2772.5 5463.79 2772.5 5509.57 2772.5 5555.36 2772.5 5601.14 2772.5 5646.93 2772.5 5715.61 2772.5 5738.5 2772.5M3815.5 2652C3838.39 2652 3907.07 2652 3952.86 2652 3998.64 2652 4044.43 2652 4090.21 2652 4136 2652 4181.79 2652 4227.57 2652 4273.36 2652 4319.14 2652 4364.93 2652 4410.71 2652 4456.5 2652 4502.29 2652 4548.07 2652 4593.86 2652 4639.64 2652 4685.43 2652 4731.21 2652 4777 2652 4822.79 2652 4868.57 2652 4914.36 2652 4960.14 2652 5005.93 2652 5051.71 2652 5097.5 2652 5143.29 2652 5189.07 2652 5234.86 2652 5280.64 2652 5326.43 2652 5372.21 2652 5418 2652 5463.79 2652 5509.57 2652 5555.36 2652 5601.14 2652 5646.93 2652 5715.61 2652 5738.5 2652M3815.5 2531.5C3838.39 2531.5 3907.07 2531.5 3952.86 2531.5 3998.64 2531.5 4044.43 2531.5 4090.21 2531.5 4136 2531.5 4181.79 2531.5 4227.57 2531.5 4273.36 2531.5 4319.14 2531.5 4364.93 2531.5 4410.71 2531.5 4456.5 2531.5 4502.29 2531.5 4548.07 2531.5 4593.86 2531.5 4639.64 2531.5 4685.43 2531.5 4731.21 2531.5 4777 2531.5 4822.79 2531.5 4868.57 2531.5 4914.36 2531.5 4960.14 2531.5 5005.93 2531.5 5051.71 2531.5 5097.5 2531.5 5143.29 2531.5 5189.07 2531.5 5234.86 2531.5 5280.64 2531.5 5326.43 2531.5 5372.21 2531.5 5418 2531.5 5463.79 2531.5 5509.57 2531.5 5555.36 2531.5 5601.14 2531.5 5646.93 2531.5 5715.61 2531.5 5738.5 2531.5M3815.5 2411C3838.39 2411 3907.07 2411 3952.86 2411 3998.64 2411 4044.43 2411 4090.21 2411 4136 2411 4181.79 2411 4227.57 2411 4273.36 2411 4319.14 2411 4364.93 2411 4410.71 2411 4456.5 2411 4502.29 2411 4548.07 2411 4593.86 2411 4639.64 2411 4685.43 2411 4731.21 2411 4777 2411 4822.79 2411 4868.57 2411 4914.36 2411 4960.14 2411 5005.93 2411 5051.71 2411 5097.5 2411 5143.29 2411 5189.07 2411 5234.86 2411 5280.64 2411 5326.43 2411 5372.21 2411 5418 2411 5463.79 2411 5509.57 2411 5555.36 2411 5601.14 2411 5646.93 2411 5715.61 2411 5738.5 2411M3815.5 2290.5C3838.39 2290.5 3907.07 2290.5 3952.86 2290.5 3998.64 2290.5 4044.43 2290.5 4090.21 2290.5 4136 2290.5 4181.79 2290.5 4227.57 2290.5 4273.36 2290.5 4319.14 2290.5 4364.93 2290.5 4410.71 2290.5 4456.5 2290.5 4502.29 2290.5 4548.07 2290.5 4593.86 2290.5 4639.64 2290.5 4685.43 2290.5 4731.21 2290.5 4777 2290.5 4822.79 2290.5 4868.57 2290.5 4914.36 2290.5 4960.14 2290.5 5005.93 2290.5 5051.71 2290.5 5097.5 2290.5 5143.29 2290.5 5189.07 2290.5 5234.86 2290.5 5280.64 2290.5 5326.43 2290.5 5372.21 2290.5 5418 2290.5 5463.79 2290.5 5509.57 2290.5 5555.36 2290.5 5601.14 2290.5 5646.93 2290.5 5715.61 2290.5 5738.5 2290.5" stroke="#BFBFBF" stroke-width="6.875" stroke-linecap="round" stroke-linejoin="round" stroke-miterlimit="10" stroke-dasharray="13.75 13.75" fill="none"/></g><g clip-path="url(#clip10)"><path d="M4090.5 2531.5C4124.76 2517.1 4157.73 2501.1 4193.28 2488.3 4228.82 2475.5 4265.64 2464.3 4303.74 2454.7 4341.85 2445.1 4381.24 2437.1 4421.91 2430.7 4462.58 2424.3 4504.53 2419.5 4547.77 2416.3 4591 2413.1 4635.52 2411.5 4681.32 2411.5 4727.12 2411.5 4774.2 2413.1 4822.57 2416.3 4870.93 2419.5 4920.58 2424.3 4971.51 2430.7 5022.44 2437.1 5074.65 2445.1 5128.15 2454.7 5181.64 2464.3 5236.42 2475.5 5292.48 2488.3 5348.53 2501.1 5407.16 2517.1 5464.5 2531.5" stroke="#1F4E79" stroke-width="6.875" stroke-linecap="round" stroke-linejoin="round" stroke-miterlimit="10" fill="none"/></g><g clip-path="url(#clip11)"><path d="M3815.5 2290.5C3815.5 2330.67 3815.5 2370.83 3815.5 2411 3815.5 2451.17 3815.5 2491.33 3815.5 2531.5 3815.5 2571.67 3815.5 2611.83 3815.5 2652 3815.5 2692.17 3815.5 2752.42 3815.5 2772.5M3952.86 2290.5C3952.86 2310.58 3952.86 2370.83 3952.86 2411 3952.86 2451.17 3952.86 2491.33 3952.86 2531.5 3952.86 2571.67 3952.86 2611.83 3952.86 2652 3952.86 2692.17 3952.86 2752.42 3952.86 2772.5M4090.21 2290.5C4090.21 2310.58 4090.21 2370.83 4090.21 2411 4090.21 2451.17 4090.21 2491.33 4090.21 2531.5 4090.21 2571.67 4090.21 2611.83 4090.21 2652 4090.21 2692.17 4090.21 2752.42 4090.21 2772.5M4227.57 2290.5C4227.57 2310.58 4227.57 2370.83 4227.57 2411 4227.57 2451.17 4227.57 2491.33 4227.57 2531.5 4227.57 2571.67 4227.57 2611.83 4227.57 2652 4227.57 2692.17 4227.57 2752.42 4227.57 2772.5M4364.93 2290.5C4364.93 2310.58 4364.93 2370.83 4364.93 2411 4364.93 2451.17 4364.93 2491.33 4364.93 2531.5 4364.93 2571.67 4364.93 2611.83 4364.93 2652 4364.93 2692.17 4364.93 2752.42 4364.93 2772.5M4502.29 2290.5C4502.29 2310.58 4502.29 2370.83 4502.29 2411 4502.29 2451.17 4502.29 2491.33 4502.29 2531.5 4502.29 2571.67 4502.29 2611.83 4502.29 2652 4502.29 2692.17 4502.29 2752.42 4502.29 2772.5M4639.64 2290.5C4639.64 2310.58 4639.64 2370.83 4639.64 2411 4639.64 2451.17 4639.64 2491.33 4639.64 2531.5 4639.64 2571.67 4639.64 2611.83 4639.64 2652 4639.64 2692.17 4639.64 2752.42 4639.64 2772.5M4777 2290.5C4777 2310.58 4777 2370.83 4777 2411 4777 2451.17 4777 2491.33 4777 2531.5 4777 2571.67 4777 2611.83 4777 2652 4777 2692.17 4777 2752.42 4777 2772.5M4914.36 2290.5C4914.36 2310.58 4914.36 2370.83 4914.36 2411 4914.36 2451.17 4914.36 2491.33 4914.36 2531.5 4914.36 2571.67 4914.36 2611.83 4914.36 2652 4914.36 2692.17 4914.36 2752.42 4914.36 2772.5M5051.71 2290.5C5051.71 2310.58 5051.71 2370.83 5051.71 2411 5051.71 2451.17 5051.71 2491.33 5051.71 2531.5 5051.71 2571.67 5051.71 2611.83 5051.71 2652 5051.71 2692.17 5051.71 2752.42 5051.71 2772.5M5189.07 2290.5C5189.07 2310.58 5189.07 2370.83 5189.07 2411 5189.07 2451.17 5189.07 2491.33 5189.07 2531.5 5189.07 2571.67 5189.07 2611.83 5189.07 2652 5189.07 2692.17 5189.07 2752.42 5189.07 2772.5M5326.43 2290.5C5326.43 2310.58 5326.43 2370.83 5326.43 2411 5326.43 2451.17 5326.43 2491.33 5326.43 2531.5 5326.43 2571.67 5326.43 2611.83 5326.43 2652 5326.43 2692.17 5326.43 2752.42 5326.43 2772.5M5463.79 2290.5C5463.79 2310.58 5463.79 2370.83 5463.79 2411 5463.79 2451.17 5463.79 2491.33 5463.79 2531.5 5463.79 2571.67 5463.79 2611.83 5463.79 2652 5463.79 2692.17 5463.79 2752.42 5463.79 2772.5M5601.14 2290.5C5601.14 2310.58 5601.14 2370.83 5601.14 2411 5601.14 2451.17 5601.14 2491.33 5601.14 2531.5 5601.14 2571.67 5601.14 2611.83 5601.14 2652 5601.14 2692.17 5601.14 2752.42 5601.14 2772.5M5738.5 2290.5C5738.5 2310.58 5738.5 2370.83 5738.5 2411 5738.5 2451.17 5738.5 2491.33 5738.5 2531.5 5738.5 2571.67 5738.5 2611.83 5738.5 2652 5738.5 2692.17 5738.5 2752.42 5738.5 2772.5" stroke="#BFBFBF" stroke-width="6.875" stroke-linecap="round" stroke-linejoin="round" stroke-miterlimit="10" stroke-dasharray="13.75 13.75" fill="none"/></g><g clip-path="url(#clip12)"><path d="M3815.5 2772.5C3861.29 2772.5 3907.07 2772.5 3952.86 2772.5 3998.64 2772.5 4044.43 2772.5 4090.21 2772.5 4136 2772.5 4181.79 2772.5 4227.57 2772.5 4273.36 2772.5 4319.14 2772.5 4364.93 2772.5 4410.71 2772.5 4456.5 2772.5 4502.29 2772.5 4548.07 2772.5 4593.86 2772.5 4639.64 2772.5 4685.43 2772.5 4731.21 2772.5 4777 2772.5 4822.79 2772.5 4868.57 2772.5 4914.36 2772.5 4960.14 2772.5 5005.93 2772.5 5051.71 2772.5 5097.5 2772.5 5143.29 2772.5 5189.07 2772.5 5234.86 2772.5 5280.64 2772.5 5326.43 2772.5 5372.21 2772.5 5418 2772.5 5463.79 2772.5 5509.57 2772.5 5555.36 2772.5 5601.14 2772.5 5646.93 2772.5 5715.61 2772.5 5738.5 2772.5M3815.5 2652C3838.39 2652 3907.07 2652 3952.86 2652 3998.64 2652 4044.43 2652 4090.21 2652 4136 2652 4181.79 2652 4227.57 2652 4273.36 2652 4319.14 2652 4364.93 2652 4410.71 2652 4456.5 2652 4502.29 2652 4548.07 2652 4593.86 2652 4639.64 2652 4685.43 2652 4731.21 2652 4777 2652 4822.79 2652 4868.57 2652 4914.36 2652 4960.14 2652 5005.93 2652 5051.71 2652 5097.5 2652 5143.29 2652 5189.07 2652 5234.86 2652 5280.64 2652 5326.43 2652 5372.21 2652 5418 2652 5463.79 2652 5509.57 2652 5555.36 2652 5601.14 2652 5646.93 2652 5715.61 2652 5738.5 2652M3815.5 2531.5C3838.39 2531.5 3907.07 2531.5 3952.86 2531.5 3998.64 2531.5 4044.43 2531.5 4090.21 2531.5 4136 2531.5 4181.79 2531.5 4227.57 2531.5 4273.36 2531.5 4319.14 2531.5 4364.93 2531.5 4410.71 2531.5 4456.5 2531.5 4502.29 2531.5 4548.07 2531.5 4593.86 2531.5 4639.64 2531.5 4685.43 2531.5 4731.21 2531.5 4777 2531.5 4822.79 2531.5 4868.57 2531.5 4914.36 2531.5 4960.14 2531.5 5005.93 2531.5 5051.71 2531.5 5097.5 2531.5 5143.29 2531.5 5189.07 2531.5 5234.86 2531.5 5280.64 2531.5 5326.43 2531.5 5372.21 2531.5 5418 2531.5 5463.79 2531.5 5509.57 2531.5 5555.36 2531.5 5601.14 2531.5 5646.93 2531.5 5715.61 2531.5 5738.5 2531.5M3815.5 2411C3838.39 2411 3907.07 2411 3952.86 2411 3998.64 2411 4044.43 2411 4090.21 2411 4136 2411 4181.79 2411 4227.57 2411 4273.36 2411 4319.14 2411 4364.93 2411 4410.71 2411 4456.5 2411 4502.29 2411 4548.07 2411 4593.86 2411 4639.64 2411 4685.43 2411 4731.21 2411 4777 2411 4822.79 2411 4868.57 2411 4914.36 2411 4960.14 2411 5005.93 2411 5051.71 2411 5097.5 2411 5143.29 2411 5189.07 2411 5234.86 2411 5280.64 2411 5326.43 2411 5372.21 2411 5418 2411 5463.79 2411 5509.57 2411 5555.36 2411 5601.14 2411 5646.93 2411 5715.61 2411 5738.5 2411M3815.5 2290.5C3838.39 2290.5 3907.07 2290.5 3952.86 2290.5 3998.64 2290.5 4044.43 2290.5 4090.21 2290.5 4136 2290.5 4181.79 2290.5 4227.57 2290.5 4273.36 2290.5 4319.14 2290.5 4364.93 2290.5 4410.71 2290.5 4456.5 2290.5 4502.29 2290.5 4548.07 2290.5 4593.86 2290.5 4639.64 2290.5 4685.43 2290.5 4731.21 2290.5 4777 2290.5 4822.79 2290.5 4868.57 2290.5 4914.36 2290.5 4960.14 2290.5 5005.93 2290.5 5051.71 2290.5 5097.5 2290.5 5143.29 2290.5 5189.07 2290.5 5234.86 2290.5 5280.64 2290.5 5326.43 2290.5 5372.21 2290.5 5418 2290.5 5463.79 2290.5 5509.57 2290.5 5555.36 2290.5 5601.14 2290.5 5646.93 2290.5 5715.61 2290.5 5738.5 2290.5" stroke="#BFBFBF" stroke-width="6.875" stroke-linecap="round" stroke-linejoin="round" stroke-miterlimit="10" stroke-dasharray="13.75 13.75" fill="none"/></g><g clip-path="url(#clip13)"><path d="M3815.5 2290.5C3815.5 2330.67 3815.5 2370.83 3815.5 2411 3815.5 2451.17 3815.5 2491.33 3815.5 2531.5 3815.5 2571.67 3815.5 2611.83 3815.5 2652 3815.5 2692.17 3815.5 2752.42 3815.5 2772.5M3952.86 2290.5C3952.86 2310.58 3952.86 2370.83 3952.86 2411 3952.86 2451.17 3952.86 2491.33 3952.86 2531.5 3952.86 2571.67 3952.86 2611.83 3952.86 2652 3952.86 2692.17 3952.86 2752.42 3952.86 2772.5M4090.21 2290.5C4090.21 2310.58 4090.21 2370.83 4090.21 2411 4090.21 2451.17 4090.21 2491.33 4090.21 2531.5 4090.21 2571.67 4090.21 2611.83 4090.21 2652 4090.21 2692.17 4090.21 2752.42 4090.21 2772.5M4227.57 2290.5C4227.57 2310.58 4227.57 2370.83 4227.57 2411 4227.57 2451.17 4227.57 2491.33 4227.57 2531.5 4227.57 2571.67 4227.57 2611.83 4227.57 2652 4227.57 2692.17 4227.57 2752.42 4227.57 2772.5M4364.93 2290.5C4364.93 2310.58 4364.93 2370.83 4364.93 2411 4364.93 2451.17 4364.93 2491.33 4364.93 2531.5 4364.93 2571.67 4364.93 2611.83 4364.93 2652 4364.93 2692.17 4364.93 2752.42 4364.93 2772.5M4502.29 2290.5C4502.29 2310.58 4502.29 2370.83 4502.29 2411 4502.29 2451.17 4502.29 2491.33 4502.29 2531.5 4502.29 2571.67 4502.29 2611.83 4502.29 2652 4502.29 2692.17 4502.29 2752.42 4502.29 2772.5M4639.64 2290.5C4639.64 2310.58 4639.64 2370.83 4639.64 2411 4639.64 2451.17 4639.64 2491.33 4639.64 2531.5 4639.64 2571.67 4639.64 2611.83 4639.64 2652 4639.64 2692.17 4639.64 2752.42 4639.64 2772.5M4777 2290.5C4777 2310.58 4777 2370.83 4777 2411 4777 2451.17 4777 2491.33 4777 2531.5 4777 2571.67 4777 2611.83 4777 2652 4777 2692.17 4777 2752.42 4777 2772.5M4914.36 2290.5C4914.36 2310.58 4914.36 2370.83 4914.36 2411 4914.36 2451.17 4914.36 2491.33 4914.36 2531.5 4914.36 2571.67 4914.36 2611.83 4914.36 2652 4914.36 2692.17 4914.36 2752.42 4914.36 2772.5M5051.71 2290.5C5051.71 2310.58 5051.71 2370.83 5051.71 2411 5051.71 2451.17 5051.71 2491.33 5051.71 2531.5 5051.71 2571.67 5051.71 2611.83 5051.71 2652 5051.71 2692.17 5051.71 2752.42 5051.71 2772.5M5189.07 2290.5C5189.07 2310.58 5189.07 2370.83 5189.07 2411 5189.07 2451.17 5189.07 2491.33 5189.07 2531.5 5189.07 2571.67 5189.07 2611.83 5189.07 2652 5189.07 2692.17 5189.07 2752.42 5189.07 2772.5M5326.43 2290.5C5326.43 2310.58 5326.43 2370.83 5326.43 2411 5326.43 2451.17 5326.43 2491.33 5326.43 2531.5 5326.43 2571.67 5326.43 2611.83 5326.43 2652 5326.43 2692.17 5326.43 2752.42 5326.43 2772.5M5463.79 2290.5C5463.79 2310.58 5463.79 2370.83 5463.79 2411 5463.79 2451.17 5463.79 2491.33 5463.79 2531.5 5463.79 2571.67 5463.79 2611.83 5463.79 2652 5463.79 2692.17 5463.79 2752.42 5463.79 2772.5M5601.14 2290.5C5601.14 2310.58 5601.14 2370.83 5601.14 2411 5601.14 2451.17 5601.14 2491.33 5601.14 2531.5 5601.14 2571.67 5601.14 2611.83 5601.14 2652 5601.14 2692.17 5601.14 2752.42 5601.14 2772.5M5738.5 2290.5C5738.5 2310.58 5738.5 2370.83 5738.5 2411 5738.5 2451.17 5738.5 2491.33 5738.5 2531.5 5738.5 2571.67 5738.5 2611.83 5738.5 2652 5738.5 2692.17 5738.5 2752.42 5738.5 2772.5" stroke="#BFBFBF" stroke-width="6.875" stroke-linecap="round" stroke-linejoin="round" stroke-miterlimit="10" stroke-dasharray="13.75 13.75" fill="none"/></g><g clip-path="url(#clip14)"><path d="M3815.5 2772.5C3861.29 2772.5 3907.07 2772.5 3952.86 2772.5 3998.64 2772.5 4044.43 2772.5 4090.21 2772.5 4136 2772.5 4181.79 2772.5 4227.57 2772.5 4273.36 2772.5 4319.14 2772.5 4364.93 2772.5 4410.71 2772.5 4456.5 2772.5 4502.29 2772.5 4548.07 2772.5 4593.86 2772.5 4639.64 2772.5 4685.43 2772.5 4731.21 2772.5 4777 2772.5 4822.79 2772.5 4868.57 2772.5 4914.36 2772.5 4960.14 2772.5 5005.93 2772.5 5051.71 2772.5 5097.5 2772.5 5143.29 2772.5 5189.07 2772.5 5234.86 2772.5 5280.64 2772.5 5326.43 2772.5 5372.21 2772.5 5418 2772.5 5463.79 2772.5 5509.57 2772.5 5555.36 2772.5 5601.14 2772.5 5646.93 2772.5 5715.61 2772.5 5738.5 2772.5M3815.5 2652C3838.39 2652 3907.07 2652 3952.86 2652 3998.64 2652 4044.43 2652 4090.21 2652 4136 2652 4181.79 2652 4227.57 2652 4273.36 2652 4319.14 2652 4364.93 2652 4410.71 2652 4456.5 2652 4502.29 2652 4548.07 2652 4593.86 2652 4639.64 2652 4685.43 2652 4731.21 2652 4777 2652 4822.79 2652 4868.57 2652 4914.36 2652 4960.14 2652 5005.93 2652 5051.71 2652 5097.5 2652 5143.29 2652 5189.07 2652 5234.86 2652 5280.64 2652 5326.43 2652 5372.21 2652 5418 2652 5463.79 2652 5509.57 2652 5555.36 2652 5601.14 2652 5646.93 2652 5715.61 2652 5738.5 2652M3815.5 2531.5C3838.39 2531.5 3907.07 2531.5 3952.86 2531.5 3998.64 2531.5 4044.43 2531.5 4090.21 2531.5 4136 2531.5 4181.79 2531.5 4227.57 2531.5 4273.36 2531.5 4319.14 2531.5 4364.93 2531.5 4410.71 2531.5 4456.5 2531.5 4502.29 2531.5 4548.07 2531.5 4593.86 2531.5 4639.64 2531.5 4685.43 2531.5 4731.21 2531.5 4777 2531.5 4822.79 2531.5 4868.57 2531.5 4914.36 2531.5 4960.14 2531.5 5005.93 2531.5 5051.71 2531.5 5097.5 2531.5 5143.29 2531.5 5189.07 2531.5 5234.86 2531.5 5280.64 2531.5 5326.43 2531.5 5372.21 2531.5 5418 2531.5 5463.79 2531.5 5509.57 2531.5 5555.36 2531.5 5601.14 2531.5 5646.93 2531.5 5715.61 2531.5 5738.5 2531.5M3815.5 2411C3838.39 2411 3907.07 2411 3952.86 2411 3998.64 2411 4044.43 2411 4090.21 2411 4136 2411 4181.79 2411 4227.57 2411 4273.36 2411 4319.14 2411 4364.93 2411 4410.71 2411 4456.5 2411 4502.29 2411 4548.07 2411 4593.86 2411 4639.64 2411 4685.43 2411 4731.21 2411 4777 2411 4822.79 2411 4868.57 2411 4914.36 2411 4960.14 2411 5005.93 2411 5051.71 2411 5097.5 2411 5143.29 2411 5189.07 2411 5234.86 2411 5280.64 2411 5326.43 2411 5372.21 2411 5418 2411 5463.79 2411 5509.57 2411 5555.36 2411 5601.14 2411 5646.93 2411 5715.61 2411 5738.5 2411M3815.5 2290.5C3838.39 2290.5 3907.07 2290.5 3952.86 2290.5 3998.64 2290.5 4044.43 2290.5 4090.21 2290.5 4136 2290.5 4181.79 2290.5 4227.57 2290.5 4273.36 2290.5 4319.14 2290.5 4364.93 2290.5 4410.71 2290.5 4456.5 2290.5 4502.29 2290.5 4548.07 2290.5 4593.86 2290.5 4639.64 2290.5 4685.43 2290.5 4731.21 2290.5 4777 2290.5 4822.79 2290.5 4868.57 2290.5 4914.36 2290.5 4960.14 2290.5 5005.93 2290.5 5051.71 2290.5 5097.5 2290.5 5143.29 2290.5 5189.07 2290.5 5234.86 2290.5 5280.64 2290.5 5326.43 2290.5 5372.21 2290.5 5418 2290.5 5463.79 2290.5 5509.57 2290.5 5555.36 2290.5 5601.14 2290.5 5646.93 2290.5 5715.61 2290.5 5738.5 2290.5" stroke="#BFBFBF" stroke-width="6.875" stroke-linecap="round" stroke-linejoin="round" stroke-miterlimit="10" stroke-dasharray="13.75 13.75" fill="none"/></g><g clip-path="url(#clip15)"><path d="M4090.5 2531.5C4124.76 2517.1 4157.73 2501.1 4193.28 2488.3 4228.82 2475.5 4265.64 2464.3 4303.74 2454.7 4341.85 2445.1 4381.24 2437.1 4421.91 2430.7 4462.58 2424.3 4504.53 2419.5 4547.77 2416.3 4591 2413.1 4635.52 2411.5 4681.32 2411.5 4727.12 2411.5 4774.2 2413.1 4822.57 2416.3 4870.93 2419.5 4920.58 2424.3 4971.51 2430.7 5022.44 2437.1 5074.65 2445.1 5128.15 2454.7 5181.64 2464.3 5236.42 2475.5 5292.48 2488.3 5348.53 2501.1 5407.16 2517.1 5464.5 2531.5" stroke="#1F4E79" stroke-width="6.875" stroke-linecap="round" stroke-linejoin="round" stroke-miterlimit="10" fill="none"/></g><g clip-path="url(#clip16)"><path d="M4106 2530.5C4106 2539.06 4099.06 2546 4090.5 2546 4081.94 2546 4075 2539.06 4075 2530.5 4075 2521.94 4081.94 2515 4090.5 2515 4099.06 2515 4106 2521.94 4106 2530.5Z" stroke="#1F4E79" stroke-width="6.875" stroke-linejoin="round" stroke-miterlimit="10" fill="#1F4E79"/></g><g clip-path="url(#clip17)"><path d="M4208.91 2488.16C4208.91 2496.72 4201.97 2503.66 4193.41 2503.66 4184.85 2503.66 4177.91 2496.72 4177.91 2488.16 4177.91 2479.6 4184.85 2472.66 4193.41 2472.66 4201.97 2472.66 4208.91 2479.6 4208.91 2488.16Z" stroke="#1F4E79" stroke-width="6.875" stroke-linejoin="round" stroke-miterlimit="10" fill="#FFFFFF"/><path d="M4318.91 2454.16C4318.91 2462.72 4311.97 2469.66 4303.41 2469.66 4294.85 2469.66 4287.91 2462.72 4287.91 2454.16 4287.91 2445.6 4294.85 2438.66 4303.41 2438.66 4311.97 2438.66 4318.91 2445.6 4318.91 2454.16Z" stroke="#1F4E79" stroke-width="6.875" stroke-linejoin="round" stroke-miterlimit="10" fill="#FFFFFF"/><path d="M4436.91 2430.16C4436.91 2438.72 4429.97 2445.66 4421.41 2445.66 4412.85 2445.66 4405.91 2438.72 4405.91 2430.16 4405.91 2421.6 4412.85 2414.66 4421.41 2414.66 4429.97 2414.66 4436.91 2421.6 4436.91 2430.16Z" stroke="#1F4E79" stroke-width="6.875" stroke-linejoin="round" stroke-miterlimit="10" fill="#FFFFFF"/><path d="M4562.91 2415.16C4562.91 2423.72 4555.97 2430.66 4547.41 2430.66 4538.85 2430.66 4531.91 2423.72 4531.91 2415.16 4531.91 2406.6 4538.85 2399.66 4547.41 2399.66 4555.97 2399.66 4562.91 2406.6 4562.91 2415.16Z" stroke="#1F4E79" stroke-width="6.875" stroke-linejoin="round" stroke-miterlimit="10" fill="#FFFFFF"/><path d="M4837.91 2415.16C4837.91 2423.72 4830.97 2430.66 4822.41 2430.66 4813.85 2430.66 4806.91 2423.72 4806.91 2415.16 4806.91 2406.6 4813.85 2399.66 4822.41 2399.66 4830.97 2399.66 4837.91 2406.6 4837.91 2415.16Z" stroke="#1F4E79" stroke-width="6.875" stroke-linejoin="round" stroke-miterlimit="10" fill="#FFFFFF"/><path d="M4986.91 2430.16C4986.91 2438.72 4979.97 2445.66 4971.41 2445.66 4962.85 2445.66 4955.91 2438.72 4955.91 2430.16 4955.91 2421.6 4962.85 2414.66 4971.41 2414.66 4979.97 2414.66 4986.91 2421.6 4986.91 2430.16Z" stroke="#1F4E79" stroke-width="6.875" stroke-linejoin="round" stroke-miterlimit="10" fill="#FFFFFF"/><path d="M5142.91 2454.16C5142.91 2462.72 5135.97 2469.66 5127.41 2469.66 5118.85 2469.66 5111.91 2462.72 5111.91 2454.16 5111.91 2445.6 5118.85 2438.66 5127.41 2438.66 5135.97 2438.66 5142.91 2445.6 5142.91 2454.16Z" stroke="#1F4E79" stroke-width="6.875" stroke-linejoin="round" stroke-miterlimit="10" fill="#FFFFFF"/><path d="M5307.91 2488.16C5307.91 2496.72 5300.97 2503.66 5292.41 2503.66 5283.85 2503.66 5276.91 2496.72 5276.91 2488.16 5276.91 2479.6 5283.85 2472.66 5292.41 2472.66 5300.97 2472.66 5307.91 2479.6 5307.91 2488.16Z" stroke="#1F4E79" stroke-width="6.875" stroke-linejoin="round" stroke-miterlimit="10" fill="#FFFFFF"/></g><g clip-path="url(#clip18)"><path d="M4697 2410.5C4697 2419.06 4690.06 2426 4681.5 2426 4672.94 2426 4666 2419.06 4666 2410.5 4666 2401.94 4672.94 2395 4681.5 2395 4690.06 2395 4697 2401.94 4697 2410.5Z" stroke="#1F4E79" stroke-width="6.875" stroke-linejoin="round" stroke-miterlimit="10" fill="#1F4E79"/></g><g clip-path="url(#clip19)"><path d="M5480 2530.5C5480 2539.06 5473.06 2546 5464.5 2546 5455.94 2546 5449 2539.06 5449 2530.5 5449 2521.94 5455.94 2515 5464.5 2515 5473.06 2515 5480 2521.94 5480 2530.5Z" stroke="#1F4E79" stroke-width="6.875" stroke-linejoin="round" stroke-miterlimit="10" fill="#1F4E79"/></g><g clip-path="url(#clip20)"><text fill="#595959" font-family="Calibri,Calibri_MSFontService,sans-serif" font-weight="400" font-size="41" transform="matrix(1 0 0 1 5776.97 2784)">-0.2</text></g><g clip-path="url(#clip21)"><text fill="#595959" font-family="Calibri,Calibri_MSFontService,sans-serif" font-weight="400" font-size="41" transform="matrix(1 0 0 1 5776.97 2664)">-0.1</text></g><g clip-path="url(#clip22)"><text fill="#595959" font-family="Calibri,Calibri_MSFontService,sans-serif" font-weight="400" font-size="41" transform="matrix(1 0 0 1 5776.97 2543)">0</text></g><g clip-path="url(#clip23)"><text fill="#595959" font-family="Calibri,Calibri_MSFontService,sans-serif" font-weight="400" font-size="41" transform="matrix(1 0 0 1 5776.97 2423)">0.1</text></g><g clip-path="url(#clip24)"><text fill="#595959" font-family="Calibri,Calibri_MSFontService,sans-serif" font-weight="400" font-size="41" transform="matrix(1 0 0 1 5776.97 2302)">0.2</text></g><g clip-path="url(#clip25)"><text fill="#595959" font-family="Calibri,Calibri_MSFontService,sans-serif" font-weight="400" font-size="41" transform="matrix(1 0 0 1 3783.41 2248)">-0.2</text></g><g clip-path="url(#clip26)"><text fill="#595959" font-family="Calibri,Calibri_MSFontService,sans-serif" font-weight="400" font-size="41" transform="matrix(1 0 0 1 4080.07 2248)">0</text></g><g clip-path="url(#clip27)"><text fill="#595959" font-family="Calibri,Calibri_MSFontService,sans-serif" font-weight="400" font-size="41" transform="matrix(1 0 0 1 4339.12 2248)">0.2</text></g><g clip-path="url(#clip28)"><text fill="#595959" font-family="Calibri,Calibri_MSFontService,sans-serif" font-weight="400" font-size="41" transform="matrix(1 0 0 1 4613.81 2248)">0.4</text></g><g clip-path="url(#clip29)"><text fill="#595959" font-family="Calibri,Calibri_MSFontService,sans-serif" font-weight="400" font-size="41" transform="matrix(1 0 0 1 4888.51 2248)">0.6</text></g><g clip-path="url(#clip30)"><text fill="#595959" font-family="Calibri,Calibri_MSFontService,sans-serif" font-weight="400" font-size="41" transform="matrix(1 0 0 1 5163.21 2248)">0.8</text></g><g clip-path="url(#clip31)"><text fill="#595959" font-family="Calibri,Calibri_MSFontService,sans-serif" font-weight="400" font-size="41" transform="matrix(1 0 0 1 5453.56 2248)">1</text></g><g clip-path="url(#clip32)"><text fill="#595959" font-family="Calibri,Calibri_MSFontService,sans-serif" font-weight="400" font-size="41" transform="matrix(1 0 0 1 5712.6 2248)">1.2</text></g><g clip-path="url(#clip33)"><text font-family="Calibri,Calibri_MSFontService,sans-serif" font-weight="400" font-size="46" transform="matrix(6.12323e-17 -1 1 6.12323e-17 5899.55 2543)">Y</text></g><g clip-path="url(#clip34)"><text font-family="Calibri,Calibri_MSFontService,sans-serif" font-weight="400" font-size="46" transform="matrix(1 0 0 1 4765.37 2188)">X</text></g><g clip-path="url(#clip35)"><path d="M4777.84 2533.36 4657.41 2533.01 4657.43 2526.13 4777.86 2526.49ZM4661.96 2543.33 4634.5 2529.5 4662.04 2515.83Z" fill="#0070C0"/></g><g clip-path="url(#clip36)"><path d="M4774.15 2526.83 4774.08 2433.42 4780.96 2433.41 4781.03 2526.82ZM4763.77 2438.01 4777.5 2410.5 4791.27 2437.99Z" fill="#00B050"/></g><g clip-path="url(#clip37)"><g clip-path="url(#clip38)"><text fill="#1F4E79" font-family="Calibri,Calibri_MSFontService,sans-serif" font-weight="400" font-size="83" transform="matrix(1 0 0 1 4066.66 2688)">A</text></g></g><g clip-path="url(#clip39)"><text fill="#1F4E79" font-family="Calibri,Calibri_MSFontService,sans-serif" font-weight="400" font-size="83" transform="matrix(1 0 0 1 5442.12 2688)">B</text></g><g clip-path="url(#clip40)"><text fill="#1F4E79" font-family="Calibri,Calibri_MSFontService,sans-serif" font-weight="400" font-size="83" transform="matrix(1 0 0 1 4742.35 2688)">M</text></g><g clip-path="url(#clip41)"><path d="M4790.92 2515.84 4761.9 2544.86" stroke="#1F4E79" stroke-width="6.875" stroke-miterlimit="8" fill="none" fill-rule="evenodd"/></g><g clip-path="url(#clip42)"><path d="M4789.43 2543.42 4763.38 2517.36" stroke="#1F4E79" stroke-width="6.875" stroke-miterlimit="8" fill="none" fill-rule="evenodd"/></g><g clip-path="url(#clip43)"><text fill="#00B050" font-family="Calibri,Calibri_MSFontService,sans-serif" font-weight="400" font-size="64" transform="matrix(1 0 0 1 4685.05 2378)">ca</text></g><g clip-path="url(#clip44)"><text fill="#00B050" font-family="Calibri,Calibri_MSFontService,sans-serif" font-weight="400" font-size="64" transform="matrix(1 0 0 1 4742.91 2378)">(iz)</text></g><g clip-path="url(#clip45)"><text fill="#00B050" font-family="Calibri,Calibri_MSFontService,sans-serif" font-weight="400" font-size="64" transform="matrix(1 0 0 1 4836.41 2378)">= 0.1</text></g><g clip-path="url(#clip46)"><text fill="#0070C0" font-family="Calibri,Calibri_MSFontService,sans-serif" font-weight="400" font-size="64" transform="matrix(1 0 0 1 4446.71 2607)">ce</text></g><g clip-path="url(#clip47)"><text fill="#0070C0" font-family="Calibri,Calibri_MSFontService,sans-serif" font-weight="400" font-size="64" transform="matrix(1 0 0 1 4505.77 2607)">(iz)</text></g><g clip-path="url(#clip48)"><text fill="#0070C0" font-family="Calibri,Calibri_MSFontService,sans-serif" font-weight="400" font-size="64" transform="matrix(1 0 0 1 4599.27 2607)">=</text></g><g clip-path="url(#clip49)"><text fill="#0070C0" font-family="Calibri,Calibri_MSFontService,sans-serif" font-weight="400" font-size="64" transform="matrix(1 0 0 1 4645.74 2607)">0.07</text></g><g clip-path="url(#clip50)"><path d="M0 0 0.000360892 117.796" stroke="#0070C0" stroke-width="6.875" stroke-miterlimit="8" stroke-dasharray="20.625 6.875" fill="none" fill-rule="evenodd" transform="matrix(1 0 0 -1 4682.5 2531.3)"/></g><g clip-path="url(#clip51)"><path d="M0 0 85.2551 0.000360892" stroke="#00B050" stroke-width="6.875" stroke-miterlimit="8" stroke-dasharray="20.625 6.875" fill="none" fill-rule="evenodd" transform="matrix(1 0 0 -1 4694.5 2411.5)"/></g><g clip-path="url(#clip52)"><text fill="#1F4E79" font-family="Calibri,Calibri_MSFontService,sans-serif" font-weight="400" font-size="83" transform="matrix(1 0 0 1 4598.44 2373)">P</text></g></g></svg>