<svg width="2253" height="718" xmlns="http://www.w3.org/2000/svg" xmlns:xlink="http://www.w3.org/1999/xlink" overflow="hidden"><defs><clipPath id="clip0"><rect x="1426" y="1352" width="2253" height="718"/></clipPath><clipPath id="clip1"><rect x="1425" y="1351" width="2253" height="718"/></clipPath><clipPath id="clip2"><rect x="1425" y="1351" width="2253" height="718"/></clipPath><clipPath id="clip3"><rect x="1425" y="1351" width="2253" height="718"/></clipPath><clipPath id="clip4"><rect x="1425" y="1351" width="2253" height="718"/></clipPath><clipPath id="clip5"><rect x="1425" y="1351" width="2253" height="718"/></clipPath><clipPath id="clip6"><rect x="1508" y="1554" width="1944" height="469"/></clipPath><clipPath id="clip7"><rect x="1508" y="1554" width="1944" height="469"/></clipPath><clipPath id="clip8"><rect x="1508" y="1554" width="1944" height="469"/></clipPath><clipPath id="clip9"><rect x="1508" y="1554" width="1944" height="469"/></clipPath><clipPath id="clip10"><rect x="1508" y="1554" width="1944" height="469"/></clipPath><clipPath id="clip11"><rect x="1508" y="1554" width="1944" height="469"/></clipPath><clipPath id="clip12"><rect x="1425" y="1351" width="2253" height="718"/></clipPath><clipPath id="clip13"><rect x="1425" y="1351" width="2253" height="718"/></clipPath><clipPath id="clip14"><rect x="1425" y="1351" width="2253" height="718"/></clipPath><clipPath id="clip15"><rect x="1425" y="1351" width="2253" height="718"/></clipPath><clipPath id="clip16"><rect x="1425" y="1351" width="2253" height="718"/></clipPath><clipPath id="clip17"><rect x="1425" y="1351" width="2253" height="718"/></clipPath><clipPath id="clip18"><rect x="1425" y="1351" width="2253" height="718"/></clipPath><clipPath id="clip19"><rect x="1425" y="1351" width="2253" height="718"/></clipPath><clipPath id="clip20"><rect x="1425" y="1351" width="2253" height="718"/></clipPath><clipPath id="clip21"><rect x="1425" y="1351" width="2253" height="718"/></clipPath><clipPath id="clip22"><rect x="1425" y="1351" width="2253" height="718"/></clipPath><clipPath id="clip23"><rect x="1425" y="1351" width="2253" height="718"/></clipPath><clipPath id="clip24"><rect x="1425" y="1351" width="2253" height="718"/></clipPath><clipPath id="clip25"><rect x="1425" y="1351" width="2253" height="718"/></clipPath><clipPath id="clip26"><rect x="1425" y="1351" width="2253" height="718"/></clipPath><clipPath id="clip27"><rect x="1425" y="1351" width="2253" height="718"/></clipPath><clipPath id="clip28"><rect x="1425" y="1351" width="2253" height="718"/></clipPath><clipPath id="clip29"><rect x="1425" y="1351" width="2253" height="718"/></clipPath><clipPath id="clip30"><rect x="1425" y="1351" width="2253" height="718"/></clipPath><clipPath id="clip31"><rect x="1425" y="1351" width="2254" height="719"/></clipPath><clipPath id="clip32"><rect x="1425" y="1351" width="2254" height="719"/></clipPath><clipPath id="clip33"><rect x="1425" y="1351" width="2254" height="719"/></clipPath><clipPath id="clip34"><rect x="1425" y="1351" width="2254" height="719"/></clipPath><clipPath id="clip35"><rect x="1425" y="1351" width="2254" height="719"/></clipPath><clipPath id="clip36"><rect x="1425" y="1351" width="2254" height="719"/></clipPath><clipPath id="clip37"><rect x="1425" y="1351" width="2254" height="719"/></clipPath><clipPath id="clip38"><rect x="1425" y="1351" width="2254" height="719"/></clipPath><clipPath id="clip39"><rect x="1425" y="1351" width="2254" height="719"/></clipPath><clipPath id="clip40"><rect x="1425" y="1351" width="2254" height="719"/></clipPath><clipPath id="clip41"><rect x="1425" y="1351" width="2254" height="719"/></clipPath><clipPath id="clip42"><rect x="1425" y="1351" width="2254" height="719"/></clipPath><clipPath id="clip43"><rect x="1425" y="1351" width="2254" height="719"/></clipPath><clipPath id="clip44"><rect x="1425" y="1351" width="2254" height="719"/></clipPath></defs><g clip-path="url(#clip0)" transform="translate(-1426 -1352)"><g clip-path="url(#clip1)"><rect x="1508" y="1554" width="1941" height="466" fill="#FFFFFF"/></g><g clip-path="url(#clip2)"><path d="M1508.5 2019.5 3449.5 2019.5M1508.5 1903.56 3449.5 1903.56M1508.5 1787.56 3449.5 1787.56M1508.5 1670.55 3449.5 1670.55" stroke="#D9D9D9" stroke-width="3.4375" stroke-linejoin="round" stroke-miterlimit="10" fill="none"/></g><g clip-path="url(#clip3)"><path d="M1508.5 1554.5 1508.5 2019.5M1785.56 1554.5 1785.56 2019.5M2062.57 1554.5 2062.57 2019.5M2340.58 1554.5 2340.58 2019.5M2617.59 1554.5 2617.59 2019.5M2894.6 1554.5 2894.6 2019.5M3171.6 1554.5 3171.6 2019.5" stroke="#D9D9D9" stroke-width="3.4375" stroke-linejoin="round" stroke-miterlimit="10" fill="none"/></g><g clip-path="url(#clip4)"><path d="M0 0 0.000360892 465" stroke="#BFBFBF" stroke-width="3.4375" stroke-linejoin="round" stroke-miterlimit="10" fill="none" fill-rule="evenodd" transform="matrix(1 0 0 -1 3449.5 2019.5)"/></g><g clip-path="url(#clip5)"><path d="M1508.5 1554.5 3449.5 1554.5" stroke="#BFBFBF" stroke-width="3.4375" stroke-linejoin="round" stroke-miterlimit="10" fill="none" fill-rule="evenodd"/></g><g clip-path="url(#clip6)"><path d="M1508.5 1554.5C1508.5 1593.25 1508.5 1632 1508.5 1670.75 1508.5 1709.5 1508.5 1748.25 1508.5 1787 1508.5 1825.75 1508.5 1864.5 1508.5 1903.25 1508.5 1942 1508.5 2000.12 1508.5 2019.5M1647.14 1554.5C1647.14 1573.87 1647.14 1632 1647.14 1670.75 1647.14 1709.5 1647.14 1748.25 1647.14 1787 1647.14 1825.75 1647.14 1864.5 1647.14 1903.25 1647.14 1942 1647.14 2000.12 1647.14 2019.5M1785.79 1554.5C1785.79 1573.87 1785.79 1632 1785.79 1670.75 1785.79 1709.5 1785.79 1748.25 1785.79 1787 1785.79 1825.75 1785.79 1864.5 1785.79 1903.25 1785.79 1942 1785.79 2000.12 1785.79 2019.5M1924.43 1554.5C1924.43 1573.87 1924.43 1632 1924.43 1670.75 1924.43 1709.5 1924.43 1748.25 1924.43 1787 1924.43 1825.75 1924.43 1864.5 1924.43 1903.25 1924.43 1942 1924.43 2000.12 1924.43 2019.5M2063.07 1554.5C2063.07 1573.87 2063.07 1632 2063.07 1670.75 2063.07 1709.5 2063.07 1748.25 2063.07 1787 2063.07 1825.75 2063.07 1864.5 2063.07 1903.25 2063.07 1942 2063.07 2000.12 2063.07 2019.5M2201.71 1554.5C2201.71 1573.87 2201.71 1632 2201.71 1670.75 2201.71 1709.5 2201.71 1748.25 2201.71 1787 2201.71 1825.75 2201.71 1864.5 2201.71 1903.25 2201.71 1942 2201.71 2000.12 2201.71 2019.5M2340.36 1554.5C2340.36 1573.87 2340.36 1632 2340.36 1670.75 2340.36 1709.5 2340.36 1748.25 2340.36 1787 2340.36 1825.75 2340.36 1864.5 2340.36 1903.25 2340.36 1942 2340.36 2000.12 2340.36 2019.5M2479 1554.5C2479 1573.87 2479 1632 2479 1670.75 2479 1709.5 2479 1748.25 2479 1787 2479 1825.75 2479 1864.5 2479 1903.25 2479 1942 2479 2000.12 2479 2019.5M2617.64 1554.5C2617.64 1573.87 2617.64 1632 2617.64 1670.75 2617.64 1709.5 2617.64 1748.25 2617.64 1787 2617.64 1825.75 2617.64 1864.5 2617.64 1903.25 2617.64 1942 2617.64 2000.12 2617.64 2019.5M2756.29 1554.5C2756.29 1573.87 2756.29 1632 2756.29 1670.75 2756.29 1709.5 2756.29 1748.25 2756.29 1787 2756.29 1825.75 2756.29 1864.5 2756.29 1903.25 2756.29 1942 2756.29 2000.12 2756.29 2019.5M2894.93 1554.5C2894.93 1573.87 2894.93 1632 2894.93 1670.75 2894.93 1709.5 2894.93 1748.25 2894.93 1787 2894.93 1825.75 2894.93 1864.5 2894.93 1903.25 2894.93 1942 2894.93 2000.12 2894.93 2019.5M3033.57 1554.5C3033.57 1573.87 3033.57 1632 3033.57 1670.75 3033.57 1709.5 3033.57 1748.25 3033.57 1787 3033.57 1825.75 3033.57 1864.5 3033.57 1903.25 3033.57 1942 3033.57 2000.12 3033.57 2019.5M3172.21 1554.5C3172.21 1573.87 3172.21 1632 3172.21 1670.75 3172.21 1709.5 3172.21 1748.25 3172.21 1787 3172.21 1825.75 3172.21 1864.5 3172.21 1903.25 3172.21 1942 3172.21 2000.12 3172.21 2019.5M3310.86 1554.5C3310.86 1573.87 3310.86 1632 3310.86 1670.75 3310.86 1709.5 3310.86 1748.25 3310.86 1787 3310.86 1825.75 3310.86 1864.5 3310.86 1903.25 3310.86 1942 3310.86 2000.12 3310.86 2019.5M3449.5 1554.5C3449.5 1573.87 3449.5 1632 3449.5 1670.75 3449.5 1709.5 3449.5 1748.25 3449.5 1787 3449.5 1825.75 3449.5 1864.5 3449.5 1903.25 3449.5 1942 3449.5 2000.12 3449.5 2019.5" stroke="#BFBFBF" stroke-width="6.875" stroke-linecap="round" stroke-linejoin="round" stroke-miterlimit="10" stroke-dasharray="13.75 13.75" fill="none"/></g><g clip-path="url(#clip7)"><path d="M1508.5 2019.5C1554.71 2019.5 1600.93 2019.5 1647.14 2019.5 1693.36 2019.5 1739.57 2019.5 1785.79 2019.5 1832 2019.5 1878.21 2019.5 1924.43 2019.5 1970.64 2019.5 2016.86 2019.5 2063.07 2019.5 2109.29 2019.5 2155.5 2019.5 2201.71 2019.5 2247.93 2019.5 2294.14 2019.5 2340.36 2019.5 2386.57 2019.5 2432.79 2019.5 2479 2019.5 2525.21 2019.5 2571.43 2019.5 2617.64 2019.5 2663.86 2019.5 2710.07 2019.5 2756.29 2019.5 2802.5 2019.5 2848.71 2019.5 2894.93 2019.5 2941.14 2019.5 2987.36 2019.5 3033.57 2019.5 3079.79 2019.5 3126 2019.5 3172.21 2019.5 3218.43 2019.5 3264.64 2019.5 3310.86 2019.5 3357.07 2019.5 3426.39 2019.5 3449.5 2019.5M1508.5 1903.25C1531.61 1903.25 1600.93 1903.25 1647.14 1903.25 1693.36 1903.25 1739.57 1903.25 1785.79 1903.25 1832 1903.25 1878.21 1903.25 1924.43 1903.25 1970.64 1903.25 2016.86 1903.25 2063.07 1903.25 2109.29 1903.25 2155.5 1903.25 2201.71 1903.25 2247.93 1903.25 2294.14 1903.25 2340.36 1903.25 2386.57 1903.25 2432.79 1903.25 2479 1903.25 2525.21 1903.25 2571.43 1903.25 2617.64 1903.25 2663.86 1903.25 2710.07 1903.25 2756.29 1903.25 2802.5 1903.25 2848.71 1903.25 2894.93 1903.25 2941.14 1903.25 2987.36 1903.25 3033.57 1903.25 3079.79 1903.25 3126 1903.25 3172.21 1903.25 3218.43 1903.25 3264.64 1903.25 3310.86 1903.25 3357.07 1903.25 3426.39 1903.25 3449.5 1903.25M1508.5 1787C1531.61 1787 1600.93 1787 1647.14 1787 1693.36 1787 1739.57 1787 1785.79 1787 1832 1787 1878.21 1787 1924.43 1787 1970.64 1787 2016.86 1787 2063.07 1787 2109.29 1787 2155.5 1787 2201.71 1787 2247.93 1787 2294.14 1787 2340.36 1787 2386.57 1787 2432.79 1787 2479 1787 2525.21 1787 2571.43 1787 2617.64 1787 2663.86 1787 2710.07 1787 2756.29 1787 2802.5 1787 2848.71 1787 2894.93 1787 2941.14 1787 2987.36 1787 3033.57 1787 3079.79 1787 3126 1787 3172.21 1787 3218.43 1787 3264.64 1787 3310.86 1787 3357.07 1787 3426.39 1787 3449.5 1787M1508.5 1670.75C1531.61 1670.75 1600.93 1670.75 1647.14 1670.75 1693.36 1670.75 1739.57 1670.75 1785.79 1670.75 1832 1670.75 1878.21 1670.75 1924.43 1670.75 1970.64 1670.75 2016.86 1670.75 2063.07 1670.75 2109.29 1670.75 2155.5 1670.75 2201.71 1670.75 2247.93 1670.75 2294.14 1670.75 2340.36 1670.75 2386.57 1670.75 2432.79 1670.75 2479 1670.75 2525.21 1670.75 2571.43 1670.75 2617.64 1670.75 2663.86 1670.75 2710.07 1670.75 2756.29 1670.75 2802.5 1670.75 2848.71 1670.75 2894.93 1670.75 2941.14 1670.75 2987.36 1670.75 3033.57 1670.75 3079.79 1670.75 3126 1670.75 3172.21 1670.75 3218.43 1670.75 3264.64 1670.75 3310.86 1670.75 3357.07 1670.75 3426.39 1670.75 3449.5 1670.75M1508.5 1554.5C1531.61 1554.5 1600.93 1554.5 1647.14 1554.5 1693.36 1554.5 1739.57 1554.5 1785.79 1554.5 1832 1554.5 1878.21 1554.5 1924.43 1554.5 1970.64 1554.5 2016.86 1554.5 2063.07 1554.5 2109.29 1554.5 2155.5 1554.5 2201.71 1554.5 2247.93 1554.5 2294.14 1554.5 2340.36 1554.5 2386.57 1554.5 2432.79 1554.5 2479 1554.5 2525.21 1554.5 2571.43 1554.5 2617.64 1554.5 2663.86 1554.5 2710.07 1554.5 2756.29 1554.5 2802.5 1554.5 2848.71 1554.5 2894.93 1554.5 2941.14 1554.5 2987.36 1554.5 3033.57 1554.5 3079.79 1554.5 3126 1554.5 3172.21 1554.5 3218.43 1554.5 3264.64 1554.5 3310.86 1554.5 3357.07 1554.5 3426.39 1554.5 3449.5 1554.5" stroke="#BFBFBF" stroke-width="6.875" stroke-linecap="round" stroke-linejoin="round" stroke-miterlimit="10" stroke-dasharray="13.75 13.75" fill="none"/></g><g clip-path="url(#clip8)"><path d="M1785.5 1787.5C1831.73 1787.5 1877.97 1787.5 1924.2 1787.5 1970.43 1787.5 2016.67 1787.5 2062.9 1787.5 2109.13 1787.5 2155.37 1787.5 2201.6 1787.5 2247.83 1787.5 2294.07 1787.5 2340.3 1787.5 2386.53 1787.5 2432.77 1787.5 2479 1787.5 2525.23 1787.5 2571.47 1787.5 2617.7 1787.5 2663.93 1787.5 2710.17 1787.5 2756.4 1787.5 2802.63 1787.5 2848.87 1787.5 2895.1 1787.5 2941.33 1787.5 2987.57 1787.5 3033.8 1787.5 3080.03 1787.5 3126.27 1787.5 3172.5 1787.5" stroke="#1F4E79" stroke-width="6.875" stroke-linecap="round" stroke-linejoin="round" stroke-miterlimit="10" fill="none"/></g><g clip-path="url(#clip9)"><path d="M1508.5 1554.5C1508.5 1593.25 1508.5 1632 1508.5 1670.75 1508.5 1709.5 1508.5 1748.25 1508.5 1787 1508.5 1825.75 1508.5 1864.5 1508.5 1903.25 1508.5 1942 1508.5 2000.12 1508.5 2019.5M1647.14 1554.5C1647.14 1573.87 1647.14 1632 1647.14 1670.75 1647.14 1709.5 1647.14 1748.25 1647.14 1787 1647.14 1825.75 1647.14 1864.5 1647.14 1903.25 1647.14 1942 1647.14 2000.12 1647.14 2019.5M1785.79 1554.5C1785.79 1573.87 1785.79 1632 1785.79 1670.75 1785.79 1709.5 1785.79 1748.25 1785.79 1787 1785.79 1825.75 1785.79 1864.5 1785.79 1903.25 1785.79 1942 1785.79 2000.12 1785.79 2019.5M1924.43 1554.5C1924.43 1573.87 1924.43 1632 1924.43 1670.75 1924.43 1709.5 1924.43 1748.25 1924.43 1787 1924.43 1825.75 1924.43 1864.5 1924.43 1903.25 1924.43 1942 1924.43 2000.12 1924.43 2019.5M2063.07 1554.5C2063.07 1573.87 2063.07 1632 2063.07 1670.75 2063.07 1709.5 2063.07 1748.25 2063.07 1787 2063.07 1825.75 2063.07 1864.5 2063.07 1903.25 2063.07 1942 2063.07 2000.12 2063.07 2019.5M2201.71 1554.5C2201.71 1573.87 2201.71 1632 2201.71 1670.75 2201.71 1709.5 2201.71 1748.25 2201.71 1787 2201.71 1825.75 2201.71 1864.5 2201.71 1903.25 2201.71 1942 2201.71 2000.12 2201.71 2019.5M2340.36 1554.5C2340.36 1573.87 2340.36 1632 2340.36 1670.75 2340.36 1709.5 2340.36 1748.25 2340.36 1787 2340.36 1825.75 2340.36 1864.5 2340.36 1903.25 2340.36 1942 2340.36 2000.12 2340.36 2019.5M2479 1554.5C2479 1573.87 2479 1632 2479 1670.75 2479 1709.5 2479 1748.25 2479 1787 2479 1825.75 2479 1864.5 2479 1903.25 2479 1942 2479 2000.12 2479 2019.5M2617.64 1554.5C2617.64 1573.87 2617.64 1632 2617.64 1670.75 2617.64 1709.5 2617.64 1748.25 2617.64 1787 2617.64 1825.75 2617.64 1864.5 2617.64 1903.25 2617.64 1942 2617.64 2000.12 2617.64 2019.5M2756.29 1554.5C2756.29 1573.87 2756.29 1632 2756.29 1670.75 2756.29 1709.5 2756.29 1748.25 2756.29 1787 2756.29 1825.75 2756.29 1864.5 2756.29 1903.25 2756.29 1942 2756.29 2000.12 2756.29 2019.5M2894.93 1554.5C2894.93 1573.87 2894.93 1632 2894.93 1670.75 2894.93 1709.5 2894.93 1748.25 2894.93 1787 2894.93 1825.75 2894.93 1864.5 2894.93 1903.25 2894.93 1942 2894.93 2000.12 2894.93 2019.5M3033.57 1554.5C3033.57 1573.87 3033.57 1632 3033.57 1670.75 3033.57 1709.5 3033.57 1748.25 3033.57 1787 3033.57 1825.75 3033.57 1864.5 3033.57 1903.25 3033.57 1942 3033.57 2000.12 3033.57 2019.5M3172.21 1554.5C3172.21 1573.87 3172.21 1632 3172.21 1670.75 3172.21 1709.5 3172.21 1748.25 3172.21 1787 3172.21 1825.75 3172.21 1864.5 3172.21 1903.25 3172.21 1942 3172.21 2000.12 3172.21 2019.5M3310.86 1554.5C3310.86 1573.87 3310.86 1632 3310.86 1670.75 3310.86 1709.5 3310.86 1748.25 3310.86 1787 3310.86 1825.75 3310.86 1864.5 3310.86 1903.25 3310.86 1942 3310.86 2000.12 3310.86 2019.5M3449.5 1554.5C3449.5 1573.87 3449.5 1632 3449.5 1670.75 3449.5 1709.5 3449.5 1748.25 3449.5 1787 3449.5 1825.75 3449.5 1864.5 3449.5 1903.25 3449.5 1942 3449.5 2000.12 3449.5 2019.5" stroke="#BFBFBF" stroke-width="6.875" stroke-linecap="round" stroke-linejoin="round" stroke-miterlimit="10" stroke-dasharray="13.75 13.75" fill="none"/></g><g clip-path="url(#clip10)"><path d="M1508.5 2019.5C1554.71 2019.5 1600.93 2019.5 1647.14 2019.5 1693.36 2019.5 1739.57 2019.5 1785.79 2019.5 1832 2019.5 1878.21 2019.5 1924.43 2019.5 1970.64 2019.5 2016.86 2019.5 2063.07 2019.5 2109.29 2019.5 2155.5 2019.5 2201.71 2019.5 2247.93 2019.5 2294.14 2019.5 2340.36 2019.5 2386.57 2019.5 2432.79 2019.5 2479 2019.5 2525.21 2019.5 2571.43 2019.5 2617.64 2019.5 2663.86 2019.5 2710.07 2019.5 2756.29 2019.5 2802.5 2019.5 2848.71 2019.5 2894.93 2019.5 2941.14 2019.5 2987.36 2019.5 3033.57 2019.5 3079.79 2019.5 3126 2019.5 3172.21 2019.5 3218.43 2019.5 3264.64 2019.5 3310.86 2019.5 3357.07 2019.5 3426.39 2019.5 3449.5 2019.5M1508.5 1903.25C1531.61 1903.25 1600.93 1903.25 1647.14 1903.25 1693.36 1903.25 1739.57 1903.25 1785.79 1903.25 1832 1903.25 1878.21 1903.25 1924.43 1903.25 1970.64 1903.25 2016.86 1903.25 2063.07 1903.25 2109.29 1903.25 2155.5 1903.25 2201.71 1903.25 2247.93 1903.25 2294.14 1903.25 2340.36 1903.25 2386.57 1903.25 2432.79 1903.25 2479 1903.25 2525.21 1903.25 2571.43 1903.25 2617.64 1903.25 2663.86 1903.25 2710.07 1903.25 2756.29 1903.25 2802.5 1903.25 2848.71 1903.25 2894.93 1903.25 2941.14 1903.25 2987.36 1903.25 3033.57 1903.25 3079.79 1903.25 3126 1903.25 3172.21 1903.25 3218.43 1903.25 3264.64 1903.25 3310.86 1903.25 3357.07 1903.25 3426.39 1903.25 3449.5 1903.25M1508.5 1787C1531.61 1787 1600.93 1787 1647.14 1787 1693.36 1787 1739.57 1787 1785.79 1787 1832 1787 1878.21 1787 1924.43 1787 1970.64 1787 2016.86 1787 2063.07 1787 2109.29 1787 2155.5 1787 2201.71 1787 2247.93 1787 2294.14 1787 2340.36 1787 2386.57 1787 2432.79 1787 2479 1787 2525.21 1787 2571.43 1787 2617.64 1787 2663.86 1787 2710.07 1787 2756.29 1787 2802.5 1787 2848.71 1787 2894.93 1787 2941.14 1787 2987.36 1787 3033.57 1787 3079.79 1787 3126 1787 3172.21 1787 3218.43 1787 3264.64 1787 3310.86 1787 3357.07 1787 3426.39 1787 3449.5 1787M1508.5 1670.75C1531.61 1670.75 1600.93 1670.75 1647.14 1670.75 1693.36 1670.75 1739.57 1670.75 1785.79 1670.75 1832 1670.75 1878.21 1670.75 1924.43 1670.75 1970.64 1670.75 2016.86 1670.75 2063.07 1670.75 2109.29 1670.75 2155.5 1670.75 2201.71 1670.75 2247.93 1670.75 2294.14 1670.75 2340.36 1670.75 2386.57 1670.75 2432.79 1670.75 2479 1670.75 2525.21 1670.75 2571.43 1670.75 2617.64 1670.75 2663.86 1670.75 2710.07 1670.75 2756.29 1670.75 2802.5 1670.75 2848.71 1670.75 2894.93 1670.75 2941.14 1670.75 2987.36 1670.75 3033.57 1670.75 3079.79 1670.75 3126 1670.75 3172.21 1670.75 3218.43 1670.75 3264.64 1670.75 3310.86 1670.75 3357.07 1670.75 3426.39 1670.75 3449.5 1670.75M1508.5 1554.5C1531.61 1554.5 1600.93 1554.5 1647.14 1554.5 1693.36 1554.5 1739.57 1554.5 1785.79 1554.5 1832 1554.5 1878.21 1554.5 1924.43 1554.5 1970.64 1554.5 2016.86 1554.5 2063.07 1554.5 2109.29 1554.5 2155.5 1554.5 2201.71 1554.5 2247.93 1554.5 2294.14 1554.5 2340.36 1554.5 2386.57 1554.5 2432.79 1554.5 2479 1554.5 2525.21 1554.5 2571.43 1554.5 2617.64 1554.5 2663.86 1554.5 2710.07 1554.5 2756.29 1554.5 2802.5 1554.5 2848.71 1554.5 2894.93 1554.5 2941.14 1554.5 2987.36 1554.5 3033.57 1554.5 3079.79 1554.5 3126 1554.5 3172.21 1554.5 3218.43 1554.5 3264.64 1554.5 3310.86 1554.5 3357.07 1554.5 3426.39 1554.5 3449.5 1554.5" stroke="#BFBFBF" stroke-width="6.875" stroke-linecap="round" stroke-linejoin="round" stroke-miterlimit="10" stroke-dasharray="13.75 13.75" fill="none"/></g><g clip-path="url(#clip11)"><path d="M1785.5 1787.5C1831.73 1787.5 1877.97 1787.5 1924.2 1787.5 1970.43 1787.5 2016.67 1787.5 2062.9 1787.5 2109.13 1787.5 2155.37 1787.5 2201.6 1787.5 2247.83 1787.5 2294.07 1787.5 2340.3 1787.5 2386.53 1787.5 2432.77 1787.5 2479 1787.5 2525.23 1787.5 2571.47 1787.5 2617.7 1787.5 2663.93 1787.5 2710.17 1787.5 2756.4 1787.5 2802.63 1787.5 2848.87 1787.5 2895.1 1787.5 2941.33 1787.5 2987.57 1787.5 3033.8 1787.5 3080.03 1787.5 3126.27 1787.5 3172.5 1787.5" stroke="#1F4E79" stroke-width="6.875" stroke-linecap="round" stroke-linejoin="round" stroke-miterlimit="10" fill="none"/></g><g clip-path="url(#clip12)"><path d="M1800 1787C1800 1795.29 1793.06 1802.02 1784.5 1802.02 1775.94 1802.02 1769 1795.29 1769 1787 1769 1778.71 1775.94 1771.98 1784.5 1771.98 1793.06 1771.98 1800 1778.71 1800 1787Z" stroke="#1F4E79" stroke-width="6.875" stroke-linejoin="round" stroke-miterlimit="10" fill="#1F4E79" fill-opacity="0.968627"/></g><g clip-path="url(#clip13)"><path d="M1939.23 1786.86C1939.23 1795.42 1932.3 1802.36 1923.73 1802.36 1915.17 1802.36 1908.24 1795.42 1908.24 1786.86 1908.24 1778.3 1915.17 1771.36 1923.73 1771.36 1932.3 1771.36 1939.23 1778.3 1939.23 1786.86Z" stroke="#1F4E79" stroke-width="6.875" stroke-linejoin="round" stroke-miterlimit="10" fill="#FFFFFF" fill-opacity="0.968627"/><path d="M2077.23 1786.86C2077.23 1795.42 2070.3 1802.36 2061.73 1802.36 2053.17 1802.36 2046.24 1795.42 2046.24 1786.86 2046.24 1778.3 2053.17 1771.36 2061.73 1771.36 2070.3 1771.36 2077.23 1778.3 2077.23 1786.86Z" stroke="#1F4E79" stroke-width="6.875" stroke-linejoin="round" stroke-miterlimit="10" fill="#FFFFFF" fill-opacity="0.968627"/><path d="M2216.23 1786.86C2216.23 1795.42 2209.29 1802.36 2200.73 1802.36 2192.17 1802.36 2185.24 1795.42 2185.24 1786.86 2185.24 1778.3 2192.17 1771.36 2200.73 1771.36 2209.29 1771.36 2216.23 1778.3 2216.23 1786.86Z" stroke="#1F4E79" stroke-width="6.875" stroke-linejoin="round" stroke-miterlimit="10" fill="#FFFFFF" fill-opacity="0.968627"/><path d="M2355.23 1786.86C2355.23 1795.42 2348.3 1802.36 2339.74 1802.36 2331.17 1802.36 2324.24 1795.42 2324.24 1786.86 2324.24 1778.3 2331.17 1771.36 2339.74 1771.36 2348.3 1771.36 2355.23 1778.3 2355.23 1786.86Z" stroke="#1F4E79" stroke-width="6.875" stroke-linejoin="round" stroke-miterlimit="10" fill="#FFFFFF" fill-opacity="0.968627"/><path d="M2632.23 1786.86C2632.23 1795.42 2625.3 1802.36 2616.74 1802.36 2608.17 1802.36 2601.24 1795.42 2601.24 1786.86 2601.24 1778.3 2608.17 1771.36 2616.74 1771.36 2625.3 1771.36 2632.23 1778.3 2632.23 1786.86Z" stroke="#1F4E79" stroke-width="6.875" stroke-linejoin="round" stroke-miterlimit="10" fill="#FFFFFF" fill-opacity="0.968627"/><path d="M2771.23 1786.86C2771.23 1795.42 2764.3 1802.36 2755.74 1802.36 2747.17 1802.36 2740.24 1795.42 2740.24 1786.86 2740.24 1778.3 2747.17 1771.36 2755.74 1771.36 2764.3 1771.36 2771.23 1778.3 2771.23 1786.86Z" stroke="#1F4E79" stroke-width="6.875" stroke-linejoin="round" stroke-miterlimit="10" fill="#FFFFFF" fill-opacity="0.968627"/><path d="M2909.23 1786.86C2909.23 1795.42 2902.29 1802.36 2893.73 1802.36 2885.17 1802.36 2878.24 1795.42 2878.24 1786.86 2878.24 1778.3 2885.17 1771.36 2893.73 1771.36 2902.29 1771.36 2909.23 1778.3 2909.23 1786.86Z" stroke="#1F4E79" stroke-width="6.875" stroke-linejoin="round" stroke-miterlimit="10" fill="#FFFFFF" fill-opacity="0.968627"/><path d="M3048.23 1786.86C3048.23 1795.42 3041.3 1802.36 3032.74 1802.36 3024.17 1802.36 3017.24 1795.42 3017.24 1786.86 3017.24 1778.3 3024.17 1771.36 3032.74 1771.36 3041.3 1771.36 3048.23 1778.3 3048.23 1786.86Z" stroke="#1F4E79" stroke-width="6.875" stroke-linejoin="round" stroke-miterlimit="10" fill="#FFFFFF" fill-opacity="0.968627"/></g><g clip-path="url(#clip14)"><path d="M2493 1787C2493 1795.29 2486.06 1802.02 2477.5 1802.02 2468.94 1802.02 2462 1795.29 2462 1787 2462 1778.71 2468.94 1771.98 2477.5 1771.98 2486.06 1771.98 2493 1778.71 2493 1787Z" stroke="#1F4E79" stroke-width="6.875" stroke-linejoin="round" stroke-miterlimit="10" fill="#1F4E79" fill-opacity="0.968627"/></g><g clip-path="url(#clip15)"><path d="M3187 1787C3187 1795.29 3180.06 1802.02 3171.5 1802.02 3162.94 1802.02 3156 1795.29 3156 1787 3156 1778.71 3162.94 1771.98 3171.5 1771.98 3180.06 1771.98 3187 1778.71 3187 1787Z" stroke="#1F4E79" stroke-width="6.875" stroke-linejoin="round" stroke-miterlimit="10" fill="#1F4E79" fill-opacity="0.968627"/></g><g clip-path="url(#clip16)"><text fill="#595959" font-family="Calibri,Calibri_MSFontService,sans-serif" font-weight="400" font-size="41" transform="matrix(1 0 0 1 3487.6 2031)">-0.2</text></g><g clip-path="url(#clip17)"><text fill="#595959" font-family="Calibri,Calibri_MSFontService,sans-serif" font-weight="400" font-size="41" transform="matrix(1 0 0 1 3487.6 1915)">-0.1</text></g><g clip-path="url(#clip18)"><text fill="#595959" font-family="Calibri,Calibri_MSFontService,sans-serif" font-weight="400" font-size="41" transform="matrix(1 0 0 1 3487.6 1799)">0</text></g><g clip-path="url(#clip19)"><text fill="#595959" font-family="Calibri,Calibri_MSFontService,sans-serif" font-weight="400" font-size="41" transform="matrix(1 0 0 1 3487.6 1682)">0.1</text></g><g clip-path="url(#clip20)"><text fill="#595959" font-family="Calibri,Calibri_MSFontService,sans-serif" font-weight="400" font-size="41" transform="matrix(1 0 0 1 3487.6 1566)">0.2</text></g><g clip-path="url(#clip21)"><text fill="#595959" font-family="Calibri,Calibri_MSFontService,sans-serif" font-weight="400" font-size="41" transform="matrix(1 0 0 1 1475.89 1512)">-0.2</text></g><g clip-path="url(#clip22)"><text fill="#595959" font-family="Calibri,Calibri_MSFontService,sans-serif" font-weight="400" font-size="41" transform="matrix(1 0 0 1 1775.15 1512)">0</text></g><g clip-path="url(#clip23)"><text fill="#595959" font-family="Calibri,Calibri_MSFontService,sans-serif" font-weight="400" font-size="41" transform="matrix(1 0 0 1 2036.78 1512)">0.2</text></g><g clip-path="url(#clip24)"><text fill="#595959" font-family="Calibri,Calibri_MSFontService,sans-serif" font-weight="400" font-size="41" transform="matrix(1 0 0 1 2314.07 1512)">0.4</text></g><g clip-path="url(#clip25)"><text fill="#595959" font-family="Calibri,Calibri_MSFontService,sans-serif" font-weight="400" font-size="41" transform="matrix(1 0 0 1 2591.36 1512)">0.6</text></g><g clip-path="url(#clip26)"><text fill="#595959" font-family="Calibri,Calibri_MSFontService,sans-serif" font-weight="400" font-size="41" transform="matrix(1 0 0 1 2868.65 1512)">0.8</text></g><g clip-path="url(#clip27)"><text fill="#595959" font-family="Calibri,Calibri_MSFontService,sans-serif" font-weight="400" font-size="41" transform="matrix(1 0 0 1 3161.59 1512)">1</text></g><g clip-path="url(#clip28)"><text fill="#595959" font-family="Calibri,Calibri_MSFontService,sans-serif" font-weight="400" font-size="41" transform="matrix(1 0 0 1 3423.23 1512)">1.2</text></g><g clip-path="url(#clip29)"><text font-family="Calibri,Calibri_MSFontService,sans-serif" font-weight="400" font-size="46" transform="matrix(6.12323e-17 -1 1 6.12323e-17 3610.18 1798)">Y</text></g><g clip-path="url(#clip30)"><text font-family="Calibri,Calibri_MSFontService,sans-serif" font-weight="400" font-size="46" transform="matrix(1 0 0 1 2466.93 1452)">X</text></g><g clip-path="url(#clip31)"><text fill="#00B050" font-family="Calibri,Calibri_MSFontService,sans-serif" font-weight="400" font-size="64" transform="matrix(1 0 0 1 2339.39 1641)">ca</text></g><g clip-path="url(#clip32)"><text fill="#00B050" font-family="Calibri,Calibri_MSFontService,sans-serif" font-weight="400" font-size="64" transform="matrix(1 0 0 1 2397.25 1641)">(iz)</text></g><g clip-path="url(#clip33)"><text fill="#00B050" font-family="Calibri,Calibri_MSFontService,sans-serif" font-weight="400" font-size="64" transform="matrix(1 0 0 1 2490.75 1641)">= 0</text></g><g clip-path="url(#clip34)"><text fill="#1F4E79" font-family="Calibri,Calibri_MSFontService,sans-serif" font-weight="400" font-size="83" transform="matrix(1 0 0 1 1758.82 1896)">A</text></g><g clip-path="url(#clip35)"><text fill="#1F4E79" font-family="Calibri,Calibri_MSFontService,sans-serif" font-weight="400" font-size="83" transform="matrix(1 0 0 1 3137.04 1896)">B</text></g><g clip-path="url(#clip36)"><text fill="#1F4E79" font-family="Calibri,Calibri_MSFontService,sans-serif" font-weight="400" font-size="83" transform="matrix(1 0 0 1 2448.4 1896)">M</text></g><g clip-path="url(#clip37)"><text fill="#1F4E79" font-family="Calibri,Calibri_MSFontService,sans-serif" font-weight="400" font-size="83" transform="matrix(1 0 0 1 2518.94 1896)">, P</text></g><g clip-path="url(#clip38)"><path d="M2501.16 1763.84 2455.38 1809.63" stroke="#1F4E79" stroke-width="6.875" stroke-miterlimit="8" fill="none" fill-rule="evenodd"/></g><g clip-path="url(#clip39)"><path d="M2501.14 1809.6 2455.4 1763.87" stroke="#1F4E79" stroke-width="6.875" stroke-miterlimit="8" fill="none" fill-rule="evenodd"/></g><g clip-path="url(#clip40)"><path d="M2458.34 1789.94 2356.42 1789.94 2356.42 1783.06 2458.34 1783.06ZM2361 1800.25 2333.5 1786.5 2361 1772.75Z" fill="#0070C0"/></g><g clip-path="url(#clip41)"><path d="M2474.06 1770.2 2474.06 1687.42 2480.94 1687.42 2480.94 1770.2ZM2463.75 1692 2477.5 1664.5 2491.25 1692Z" fill="#00B050"/></g><g clip-path="url(#clip42)"><text fill="#0070C0" font-family="Calibri,Calibri_MSFontService,sans-serif" font-weight="400" font-size="64" transform="matrix(1 0 0 1 2199.79 1864)">ce</text></g><g clip-path="url(#clip43)"><text fill="#0070C0" font-family="Calibri,Calibri_MSFontService,sans-serif" font-weight="400" font-size="64" transform="matrix(1 0 0 1 2258.84 1864)">(iz)</text></g><g clip-path="url(#clip44)"><text fill="#0070C0" font-family="Calibri,Calibri_MSFontService,sans-serif" font-weight="400" font-size="64" transform="matrix(1 0 0 1 2352.34 1864)">= 0</text></g></g></svg>