<svg width="474" height="471" xmlns="http://www.w3.org/2000/svg" xmlns:xlink="http://www.w3.org/1999/xlink" overflow="hidden"><defs><clipPath id="clip0"><rect x="675" y="101" width="474" height="471"/></clipPath></defs><g clip-path="url(#clip0)" transform="translate(-675 -101)"><path d="M762 303 762 346.193 759 346.193 759 303ZM753 304.5 760.5 289.5 768 304.5Z" fill="#0070C0"/><path d="M803.693 347 760.5 347 760.5 344 803.693 344ZM802.193 338 817.193 345.5 802.193 353Z" fill="#00B050"/><path d="M1063 303 1063 346.193 1060 346.193 1060 303ZM1054 304.5 1061.5 289.5 1069 304.5Z" fill="#0070C0"/><path d="M1104.69 347 1061.5 347 1061.5 344 1104.69 344ZM1103.19 338 1118.19 345.5 1103.19 353Z" fill="#00B050"/><path d="M868 194 911.193 194 911.193 197 868 197ZM869.5 203 854.5 195.5 869.5 188Z" fill="#0070C0"/><path d="M913 152 913 195.193 910 195.193 910 152ZM904 153.5 911.5 138.5 919 153.5Z" fill="#00B050"/><path d="M912 303 912 346.193 909 346.193 909 303ZM903 304.5 910.5 289.5 918 304.5Z" fill="#0070C0"/><path d="M954.693 347 911.5 347 911.5 344 954.693 344ZM953.193 338 968.193 345.5 953.193 353Z" fill="#00B050"/><path d="M868 496 911.193 496 911.193 499 868 499ZM869.5 505 854.5 497.5 869.5 490Z" fill="#0070C0"/><path d="M913 454 913 497.193 910 497.193 910 454ZM904 455.5 911.5 440.5 919 455.5Z" fill="#00B050"/><path d="M759.5 340C762.538 340 765 342.686 765 346 765 349.314 762.538 352 759.5 352 756.463 352 754 349.314 754 346 754 342.686 756.463 340 759.5 340Z" fill-rule="evenodd"/><path d="M910.5 340C913.538 340 916 342.462 916 345.5 916 348.538 913.538 351 910.5 351 907.462 351 905 348.538 905 345.5 905 342.462 907.462 340 910.5 340Z" fill-rule="evenodd"/><path d="M1062 340C1065.31 340 1068 342.462 1068 345.5 1068 348.538 1065.31 351 1062 351 1058.69 351 1056 348.538 1056 345.5 1056 342.462 1058.69 340 1062 340Z" fill-rule="evenodd"/><path d="M910.5 491C913.538 491 916 493.686 916 497 916 500.314 913.538 503 910.5 503 907.463 503 905 500.314 905 497 905 493.686 907.463 491 910.5 491Z" fill-rule="evenodd"/><path d="M910.5 189C913.538 189 916 191.462 916 194.5 916 197.538 913.538 200 910.5 200 907.462 200 905 197.538 905 194.5 905 191.462 907.462 189 910.5 189Z" fill-rule="evenodd"/><text fill="#0070C0" font-family="Calibri,Calibri_MSFontService,sans-serif" font-weight="400" font-size="24" transform="translate(838.429 526)">ca1(tp2+1, iz1)<tspan fill="#00B050" font-size="24" x="12.8058" y="-395">ca1(tp2, iz1)</tspan><tspan font-size="24" x="12.9666" y="-301">ce1(tp2, iz1)</tspan><tspan fill="#00B050" font-size="24" x="0.539001" y="-94">ca1(tp2+1, iz1)</tspan><tspan fill="#00B050" font-size="24" x="16.5737" y="-150">ca3(iz2, iz1)</tspan><tspan font-size="24" x="15.2892" y="-245">ce3(iz2, iz1)</tspan><tspan fill="#00B050" font-size="24" x="-139.234" y="-151">ca2(iz2, tp1)</tspan><tspan font-size="24" x="-138.797" y="-247">ce2(iz2, tp1)</tspan><tspan fill="#00B050" font-size="24" x="150.99" y="-150">ca2(iz2, tp1+1)</tspan><tspan font-size="24" x="150.883" y="-247">ce2(iz2, tp1+1)</tspan></text><path d="M1061.5 189C1064.54 189 1067 191.462 1067 194.5 1067 197.538 1064.54 200 1061.5 200 1058.46 200 1056 197.538 1056 194.5 1056 191.462 1058.46 189 1061.5 189Z" fill-rule="evenodd"/><path d="M1061.5 491C1064.54 491 1067 493.462 1067 496.5 1067 499.538 1064.54 502 1061.5 502 1058.46 502 1056 499.538 1056 496.5 1056 493.462 1058.46 491 1061.5 491Z" fill-rule="evenodd"/><path d="M759.5 491C762.538 491 765 493.462 765 496.5 765 499.538 762.538 502 759.5 502 756.462 502 754 499.538 754 496.5 754 493.462 756.462 491 759.5 491Z" fill-rule="evenodd"/><path d="M759.5 189C762.538 189 765 191.462 765 194.5 765 197.538 762.538 200 759.5 200 756.462 200 754 197.538 754 194.5 754 191.462 756.462 189 759.5 189Z" fill-rule="evenodd"/><text font-family="Calibri,Calibri_MSFontService,sans-serif" font-weight="400" font-size="32" transform="translate(712.655 174)">A<tspan font-size="32" x="372.505" y="-2">B</tspan><tspan font-size="32" x="5.32086" y="370">C</tspan><tspan font-size="32" x="374.86" y="366">D</tspan></text><path d="M737.5 172.5 737.5 520.217" stroke="#7F7F7F" stroke-width="0.666667" stroke-miterlimit="8" fill="none" fill-rule="evenodd"/><path d="M781.5 172.5 781.5 520.217" stroke="#7F7F7F" stroke-width="0.666667" stroke-miterlimit="8" fill="none" fill-rule="evenodd"/><path d="M824.5 172.5 824.5 520.217" stroke="#7F7F7F" stroke-width="0.666667" stroke-miterlimit="8" fill="none" fill-rule="evenodd"/><path d="M867.5 172.5 867.5 520.217" stroke="#7F7F7F" stroke-width="0.666667" stroke-miterlimit="8" fill="none" fill-rule="evenodd"/><path d="M953.5 172.5 953.5 520.217" stroke="#7F7F7F" stroke-width="0.666667" stroke-miterlimit="8" fill="none" fill-rule="evenodd"/><path d="M997.5 172.5 997.5 520.217" stroke="#7F7F7F" stroke-width="0.666667" stroke-miterlimit="8" fill="none" fill-rule="evenodd"/><path d="M1040.5 172.5 1040.5 520.217" stroke="#7F7F7F" stroke-width="0.666667" stroke-miterlimit="8" fill="none" fill-rule="evenodd"/><path d="M910.5 172.5 910.5 520.217" stroke="#7F7F7F" stroke-width="0.666667" stroke-miterlimit="8" fill="none" fill-rule="evenodd"/><path d="M1083.5 172.5 1083.5 520.217" stroke="#7F7F7F" stroke-width="0.666667" stroke-miterlimit="8" fill="none" fill-rule="evenodd"/><path d="M735.5 172.5 1082.18 172.5" stroke="#7F7F7F" stroke-width="0.666667" stroke-miterlimit="8" fill="none" fill-rule="evenodd"/><path d="M735.5 216.5 1082.18 216.5" stroke="#7F7F7F" stroke-width="0.666667" stroke-miterlimit="8" fill="none" fill-rule="evenodd"/><path d="M735.5 259.5 1082.18 259.5" stroke="#7F7F7F" stroke-width="0.666667" stroke-miterlimit="8" fill="none" fill-rule="evenodd"/><path d="M735.5 302.5 1082.18 302.5" stroke="#7F7F7F" stroke-width="0.666667" stroke-miterlimit="8" fill="none" fill-rule="evenodd"/><path d="M735.5 345.5 1082.18 345.5" stroke="#7F7F7F" stroke-width="0.666667" stroke-miterlimit="8" fill="none" fill-rule="evenodd"/><path d="M735.5 389.5 1082.18 389.5" stroke="#7F7F7F" stroke-width="0.666667" stroke-miterlimit="8" fill="none" fill-rule="evenodd"/><path d="M735.5 432.5 1082.18 432.5" stroke="#7F7F7F" stroke-width="0.666667" stroke-miterlimit="8" fill="none" fill-rule="evenodd"/><path d="M735.5 475.5 1082.18 475.5" stroke="#7F7F7F" stroke-width="0.666667" stroke-miterlimit="8" fill="none" fill-rule="evenodd"/><path d="M735.5 519.5 1082.18 519.5" stroke="#7F7F7F" stroke-width="0.666667" stroke-miterlimit="8" fill="none" fill-rule="evenodd"/></g></svg>