<svg width="924" height="676" xmlns="http://www.w3.org/2000/svg" xmlns:xlink="http://www.w3.org/1999/xlink" overflow="hidden"><defs><clipPath id="clip0"><rect x="80" y="7" width="924" height="676"/></clipPath></defs><g clip-path="url(#clip0)" transform="translate(-80 -7)"><path d="M116.5 40.0001 166.526 40.0001 166.526 41.0001 116.5 41.0001ZM165.193 36.5001 173.193 40.5002 165.193 44.5001Z"/><path d="M117 40.5001 117 90.5263 116 90.5263 116 40.5001ZM120.5 89.193 116.5 97.193 112.5 89.193Z"/><text fill="#2F5597" font-family="Calibri,Calibri_MSFontService,sans-serif" font-weight="400" font-size="16" transform="translate(169.26 27)">x<tspan font-size="16" x="-78.8727" y="68">y</tspan><tspan font-size="21" x="251.835" y="211">Dimension (</tspan><tspan font-size="21" x="355.669" y="211">y_interpolation_zone</tspan><tspan font-size="21" x="540.575" y="211">, </tspan><tspan font-size="21" x="550.742" y="211">x_tie_point_interpolation</tspan><tspan font-size="21" x="772.749" y="211">)</tspan><tspan font-size="21" x="251.835" y="237">Example (1, 2) </tspan><tspan font-size="21" x="256.03" y="340">Dimension (</tspan><tspan font-size="21" x="359.863" y="340">y_tie_point_interpolation</tspan><tspan font-size="21" x="582.37" y="340">, </tspan><tspan font-size="21" x="592.537" y="340">x_interpolation_zone</tspan><tspan font-size="21" x="776.943" y="340">)</tspan><tspan font-size="21" x="256.03" y="366">Example (2, 0) </tspan><tspan font-size="21" x="251.835" y="83">Dimension (</tspan><tspan font-size="21" x="355.669" y="83">y_interpolation_zone</tspan><tspan font-size="21" x="540.575" y="83">, </tspan><tspan font-size="21" x="550.742" y="83">x_interpolation_zone</tspan><tspan font-size="21" x="735.149" y="83">)</tspan><tspan font-size="21" x="251.835" y="109">Example (0, 1) </tspan></text><path d="M555 385C555 382.791 556.791 381 559 381 561.209 381 563 382.791 563 385 563 387.209 561.209 389 559 389 556.791 389 555 387.209 555 385Z" fill="#ED7D31" fill-rule="evenodd"/><path d="M551 256C551 253.791 552.791 252 555 252 557.209 252 559 253.791 559 256 559 258.209 557.209 260 555 260 552.791 260 551 258.209 551 256Z" fill="#ED7D31" fill-rule="evenodd"/><path d="M552 129C552 126.791 553.791 125 556 125 558.209 125 560 126.791 560 129 560 131.209 558.209 133 556 133 553.791 133 552 131.209 552 129Z" fill="#ED7D31" fill-rule="evenodd"/><text fill="#2F5597" font-family="Calibri,Calibri_MSFontService,sans-serif" font-weight="400" font-size="21" transform="translate(425.29 492)">Dimension (<tspan font-size="21" x="103.833" y="0">x_interpolation_zone</tspan>)<tspan font-size="21" x="0" y="26">Example (1) </tspan></text><rect x="195" y="40" width="62" height="50" fill="#DAE3F3"/><rect x="325" y="40" width="64" height="50" fill="#DAE3F3"/><rect x="195" y="91" width="62" height="49" fill="#DAE3F3"/><rect x="325" y="91" width="64" height="49" fill="#DAE3F3"/><rect x="259" y="92" width="64" height="48" fill="#DAE3F3"/><rect x="259" y="40" width="64" height="50" fill="#DAE3F3"/><path d="M223 65C223 62.7909 224.567 61 226.5 61 228.433 61 230 62.7909 230 65 230 67.2091 228.433 69 226.5 69 224.567 69 223 67.2091 223 65Z" fill="#0D0D0D" fill-rule="evenodd"/><path d="M288 65C288 62.7909 289.791 61 292 61 294.209 61 296 62.7909 296 65 296 67.2091 294.209 69 292 69 289.791 69 288 67.2091 288 65Z" fill="#ED7D31" fill-rule="evenodd"/><path d="M353 65C353 62.7909 354.791 61 357 61 359.209 61 361 62.7909 361 65 361 67.2091 359.209 69 357 69 354.791 69 353 67.2091 353 65Z" fill="#0D0D0D" fill-rule="evenodd"/><path d="M223 115C223 112.791 224.567 111 226.5 111 228.433 111 230 112.791 230 115 230 117.209 228.433 119 226.5 119 224.567 119 223 117.209 223 115Z" fill="#0D0D0D" fill-rule="evenodd"/><path d="M288 115C288 112.791 289.791 111 292 111 294.209 111 296 112.791 296 115 296 117.209 294.209 119 292 119 289.791 119 288 117.209 288 115Z" fill="#0D0D0D" fill-rule="evenodd"/><path d="M353 115C353 112.791 354.791 111 357 111 359.209 111 361 112.791 361 115 361 117.209 359.209 119 357 119 354.791 119 353 117.209 353 115Z" fill="#0D0D0D" fill-rule="evenodd"/><rect x="195" y="163" width="62" height="50" fill="#DAE3F3"/><rect x="325" y="163" width="64" height="50" fill="#DAE3F3"/><rect x="195" y="215" width="62" height="49" fill="#DAE3F3"/><rect x="325" y="215" width="64" height="49" fill="#DAE3F3"/><rect x="259" y="216" width="64" height="48" fill="#DAE3F3"/><rect x="259" y="163" width="64" height="50" fill="#DAE3F3"/><path d="M191 189C191 186.791 192.791 185 195 185 197.209 185 199 186.791 199 189 199 191.209 197.209 193 195 193 192.791 193 191 191.209 191 189Z" fill="#0D0D0D" fill-rule="evenodd"/><path d="M255 189C255 186.791 256.791 185 259 185 261.209 185 263 186.791 263 189 263 191.209 261.209 193 259 193 256.791 193 255 191.209 255 189Z" fill-rule="evenodd"/><path d="M321 189C321 186.791 322.567 185 324.5 185 326.433 185 328 186.791 328 189 328 191.209 326.433 193 324.5 193 322.567 193 321 191.209 321 189Z" fill="#0D0D0D" fill-rule="evenodd"/><path d="M191 239.5C191 237.567 192.791 236 195 236 197.209 236 199 237.567 199 239.5 199 241.433 197.209 243 195 243 192.791 243 191 241.433 191 239.5Z" fill="#0D0D0D" fill-rule="evenodd"/><path d="M255 239.5C255 237.567 256.791 236 259 236 261.209 236 263 237.567 263 239.5 263 241.433 261.209 243 259 243 256.791 243 255 241.433 255 239.5Z" fill="#0D0D0D" fill-rule="evenodd"/><path d="M321 239.5C321 237.567 322.567 236 324.5 236 326.433 236 328 237.567 328 239.5 328 241.433 326.433 243 324.5 243 322.567 243 321 241.433 321 239.5Z" fill="#ED7D31" fill-rule="evenodd"/><rect x="195" y="291" width="62" height="50" fill="#DAE3F3"/><rect x="325" y="291" width="64" height="50" fill="#DAE3F3"/><rect x="195" y="342" width="62" height="49" fill="#DAE3F3"/><rect x="325" y="342" width="64" height="49" fill="#DAE3F3"/><rect x="259" y="343" width="64" height="48" fill="#DAE3F3"/><rect x="259" y="291" width="64" height="50" fill="#DAE3F3"/><path d="M223 291.5C223 289.567 224.791 288 227 288 229.209 288 231 289.567 231 291.5 231 293.433 229.209 295 227 295 224.791 295 223 293.433 223 291.5Z" fill="#0D0D0D" fill-rule="evenodd"/><path d="M288 291.5C288 289.567 289.791 288 292 288 294.209 288 296 289.567 296 291.5 296 293.433 294.209 295 292 295 289.791 295 288 293.433 288 291.5Z" fill-rule="evenodd"/><path d="M353 291.5C353 289.567 354.567 288 356.5 288 358.433 288 360 289.567 360 291.5 360 293.433 358.433 295 356.5 295 354.567 295 353 293.433 353 291.5Z" fill="#0D0D0D" fill-rule="evenodd"/><path d="M223 342C223 339.791 224.791 338 227 338 229.209 338 231 339.791 231 342 231 344.209 229.209 346 227 346 224.791 346 223 344.209 223 342Z" fill="#0D0D0D" fill-rule="evenodd"/><path d="M288 342C288 339.791 289.791 338 292 338 294.209 338 296 339.791 296 342 296 344.209 294.209 346 292 346 289.791 346 288 344.209 288 342Z" fill="#0D0D0D" fill-rule="evenodd"/><path d="M353 342C353 339.791 354.791 338 357 338 359.209 338 361 339.791 361 342 361 344.209 359.209 346 357 346 354.791 346 353 344.209 353 342Z" fill="#0D0D0D" fill-rule="evenodd"/><path d="M385 189C385 186.791 386.567 185 388.5 185 390.433 185 392 186.791 392 189 392 191.209 390.433 193 388.5 193 386.567 193 385 191.209 385 189Z" fill="#0D0D0D" fill-rule="evenodd"/><path d="M385 239.5C385 237.567 386.791 236 389 236 391.209 236 393 237.567 393 239.5 393 241.433 391.209 243 389 243 386.791 243 385 241.433 385 239.5Z" fill="#0D0D0D" fill-rule="evenodd"/><path d="M223 392C223 389.791 224.791 388 227 388 229.209 388 231 389.791 231 392 231 394.209 229.209 396 227 396 224.791 396 223 394.209 223 392Z" fill="#ED7D31" fill-rule="evenodd"/><path d="M288 392C288 389.791 289.791 388 292 388 294.209 388 296 389.791 296 392 296 394.209 294.209 396 292 396 289.791 396 288 394.209 288 392Z" fill="#0D0D0D" fill-rule="evenodd"/><path d="M353 392C353 389.791 354.791 388 357 388 359.209 388 361 389.791 361 392 361 394.209 359.209 396 357 396 354.791 396 353 394.209 353 392Z" fill="#0D0D0D" fill-rule="evenodd"/><rect x="195" y="420" width="62" height="50" fill="#DAE3F3"/><rect x="325" y="420" width="64" height="50" fill="#DAE3F3"/><rect x="195" y="472" width="62" height="48" fill="#DAE3F3"/><rect x="325" y="472" width="64" height="48" fill="#DAE3F3"/><rect x="259" y="472" width="64" height="48" fill="#DAE3F3"/><rect x="259" y="420" width="64" height="50" fill="#DAE3F3"/><path d="M223 445.5C223 443.567 224.791 442 227 442 229.209 442 231 443.567 231 445.5 231 447.433 229.209 449 227 449 224.791 449 223 447.433 223 445.5Z" fill="#0D0D0D" fill-rule="evenodd"/><path d="M288 445.5C288 443.567 289.791 442 292 442 294.209 442 296 443.567 296 445.5 296 447.433 294.209 449 292 449 289.791 449 288 447.433 288 445.5Z" fill="#ED7D31" fill-rule="evenodd"/><path d="M353 445.5C353 443.567 354.791 442 357 442 359.209 442 361 443.567 361 445.5 361 447.433 359.209 449 357 449 354.791 449 353 447.433 353 445.5Z" fill="#0D0D0D" fill-rule="evenodd"/><path d="M223 495.5C223 493.567 224.791 492 227 492 229.209 492 231 493.567 231 495.5 231 497.433 229.209 499 227 499 224.791 499 223 497.433 223 495.5Z" fill="#0D0D0D" fill-rule="evenodd"/><path d="M288 496C288 493.791 289.791 492 292 492 294.209 492 296 493.791 296 496 296 498.209 294.209 500 292 500 289.791 500 288 498.209 288 496Z" fill="#ED7D31" fill-rule="evenodd"/><path d="M353 496C353 493.791 354.791 492 357 492 359.209 492 361 493.791 361 496 361 498.209 359.209 500 357 500 354.791 500 353 498.209 353 496Z" fill="#0D0D0D" fill-rule="evenodd"/><path d="M540 509.5C540 507.567 541.791 506 544 506 546.209 506 548 507.567 548 509.5 548 511.433 546.209 513 544 513 541.791 513 540 511.433 540 509.5Z" fill="#ED7D31" fill-rule="evenodd"/><rect x="194" y="548" width="63" height="50" fill="#DAE3F3"/><rect x="324" y="548" width="64" height="50" fill="#DAE3F3"/><rect x="194" y="600" width="63" height="49" fill="#DAE3F3"/><rect x="324" y="600" width="64" height="49" fill="#DAE3F3"/><rect x="258" y="601" width="64" height="48" fill="#DAE3F3"/><rect x="258" y="548" width="64" height="50" fill="#DAE3F3"/><path d="M191 548.5C191 546.567 192.567 545 194.5 545 196.433 545 198 546.567 198 548.5 198 550.433 196.433 552 194.5 552 192.567 552 191 550.433 191 548.5Z" fill="#ED7D31" fill-rule="evenodd"/><path d="M255 548.5C255 546.567 256.567 545 258.5 545 260.433 545 262 546.567 262 548.5 262 550.433 260.433 552 258.5 552 256.567 552 255 550.433 255 548.5Z" fill-rule="evenodd"/><path d="M320 548.5C320 546.567 321.791 545 324 545 326.209 545 328 546.567 328 548.5 328 550.433 326.209 552 324 552 321.791 552 320 550.433 320 548.5Z" fill="#0D0D0D" fill-rule="evenodd"/><path d="M191 599C191 596.791 192.567 595 194.5 595 196.433 595 198 596.791 198 599 198 601.209 196.433 603 194.5 603 192.567 603 191 601.209 191 599Z" fill="#0D0D0D" fill-rule="evenodd"/><path d="M255 599C255 596.791 256.567 595 258.5 595 260.433 595 262 596.791 262 599 262 601.209 260.433 603 258.5 603 256.567 603 255 601.209 255 599Z" fill="#0D0D0D" fill-rule="evenodd"/><path d="M320 599C320 596.791 321.791 595 324 595 326.209 595 328 596.791 328 599 328 601.209 326.209 603 324 603 321.791 603 320 601.209 320 599Z" fill-rule="evenodd"/><path d="M384 548.5C384 546.567 385.791 545 388 545 390.209 545 392 546.567 392 548.5 392 550.433 390.209 552 388 552 385.791 552 384 550.433 384 548.5Z" fill="#0D0D0D" fill-rule="evenodd"/><path d="M385 599C385 596.791 386.567 595 388.5 595 390.433 595 392 596.791 392 599 392 601.209 390.433 603 388.5 603 386.567 603 385 601.209 385 599Z" fill="#0D0D0D" fill-rule="evenodd"/><path d="M191 649.5C191 647.567 192.791 646 195 646 197.209 646 199 647.567 199 649.5 199 651.433 197.209 653 195 653 192.791 653 191 651.433 191 649.5Z" fill="#0D0D0D" fill-rule="evenodd"/><path d="M255 649.5C255 647.567 256.791 646 259 646 261.209 646 263 647.567 263 649.5 263 651.433 261.209 653 259 653 256.791 653 255 651.433 255 649.5Z" fill="#0D0D0D" fill-rule="evenodd"/><path d="M321 649.5C321 647.567 322.567 646 324.5 646 326.433 646 328 647.567 328 649.5 328 651.433 326.433 653 324.5 653 322.567 653 321 651.433 321 649.5Z" fill-rule="evenodd"/><path d="M385 649.5C385 647.567 386.791 646 389 646 391.209 646 393 647.567 393 649.5 393 651.433 391.209 653 389 653 386.791 653 385 651.433 385 649.5Z" fill="#0D0D0D" fill-rule="evenodd"/><text fill="#2F5597" font-family="Calibri,Calibri_MSFontService,sans-serif" font-weight="400" font-size="21" transform="translate(420.96 621)">Dimension (y<tspan font-size="21" x="113.5" y="0">_ </tspan>tie_point_interpolation<tspan font-size="21" x="331.173" y="0">, </tspan><tspan font-size="21" x="341.34" y="0">x_tie_point_interpolation</tspan>)<tspan font-size="21" x="0" y="26">Example </tspan><tspan font-size="21" x="77.9467" y="26">(0, 0) </tspan></text><path d="M556 639C556 636.791 557.791 635 560 635 562.209 635 564 636.791 564 639 564 641.209 562.209 643 560 643 557.791 643 556 641.209 556 639Z" fill="#ED7D31" fill-rule="evenodd"/></g></svg>