<?xml version="1.0" encoding="UTF-8" standalone="no"?>
<!DOCTYPE svg PUBLIC "-//W3C//DTD SVG 1.1//EN"
 "http://www.w3.org/Graphics/SVG/1.1/DTD/svg11.dtd">
<!-- Generated by graphviz version 2.43.0 (0)
 -->
<!-- Title: %3 Pages: 1 -->
<svg width="611pt" height="894pt"
 viewBox="0.00 0.00 610.50 894.00" xmlns="http://www.w3.org/2000/svg" xmlns:xlink="http://www.w3.org/1999/xlink">
<g id="graph0" class="graph" transform="scale(1 1) rotate(0) translate(4 890)">
<title>%3</title>
<polygon fill="white" stroke="transparent" points="-4,4 -4,-890 606.5,-890 606.5,4 -4,4"/>
<!-- Domain -->
<g id="node1" class="node">
<title>Domain</title>
<polygon fill="#c3ffc2" stroke="black" stroke-width="2" points="144,-606 0,-606 0,-534 144,-534 144,-606"/>
<text text-anchor="middle" x="72" y="-573.8" font-family="Arial" font-size="14.00">&lt;&lt;construct&gt;&gt;</text>
<text text-anchor="middle" x="72" y="-558.8" font-family="Arial" font-size="14.00">Domain</text>
</g>
<!-- route5 -->
<g id="node18" class="node">
<title>route5</title>
<polygon fill="#c3ffc2" stroke="transparent" stroke-width="2" points="184.5,-570.5 183.5,-570.5 183.5,-569.5 184.5,-569.5 184.5,-570.5"/>
</g>
<!-- Domain&#45;&gt;route5 -->
<g id="edge8" class="edge">
<title>Domain&#45;&gt;route5</title>
<path fill="none" stroke="black" d="M156.2,-570C156.2,-570 183.18,-570 183.18,-570"/>
<polygon fill="black" stroke="black" points="156.2,-570 150.2,-574 144.2,-570 150.2,-566 156.2,-570"/>
</g>
<!-- Field -->
<g id="node2" class="node">
<title>Field</title>
<polygon fill="#c3ffc2" stroke="black" stroke-width="2" points="180,-886 0,-886 0,-814 180,-814 180,-886"/>
<text text-anchor="middle" x="90" y="-853.8" font-family="Arial" font-size="14.00">&lt;&lt;construct&gt;&gt;</text>
<text text-anchor="middle" x="90" y="-838.8" font-family="Arial" font-size="14.00">Field</text>
</g>
<!-- route1 -->
<g id="node14" class="node">
<title>route1</title>
<polygon fill="#c3ffc2" stroke="transparent" stroke-width="2" points="63.5,-753.5 62.5,-753.5 62.5,-752.5 63.5,-752.5 63.5,-753.5"/>
</g>
<!-- Field&#45;&gt;route1 -->
<g id="edge1" class="edge">
<title>Field&#45;&gt;route1</title>
<path fill="none" stroke="black" d="M63,-801.88C63,-801.88 63,-753.85 63,-753.85"/>
<polygon fill="none" stroke="black" points="63,-801.88 67,-807.88 63,-813.88 59,-807.88 63,-801.88"/>
</g>
<!-- route2 -->
<g id="node15" class="node">
<title>route2</title>
<polygon fill="#c3ffc2" stroke="transparent" stroke-width="2" points="118.5,-753.5 117.5,-753.5 117.5,-752.5 118.5,-752.5 118.5,-753.5"/>
</g>
<!-- Field&#45;&gt;route2 -->
<g id="edge2" class="edge">
<title>Field&#45;&gt;route2</title>
<path fill="none" stroke="black" d="M118,-801.88C118,-801.88 118,-753.85 118,-753.85"/>
<polygon fill="black" stroke="black" points="118,-801.88 122,-807.88 118,-813.88 114,-807.88 118,-801.88"/>
</g>
<!-- CellMethod -->
<g id="node3" class="node">
<title>CellMethod</title>
<polygon fill="#c3ffc2" stroke="black" stroke-width="2" points="388,-692 244,-692 244,-642 388,-642 388,-692"/>
<text text-anchor="middle" x="316" y="-670.8" font-family="Arial" font-size="14.00">&lt;&lt;construct&gt;&gt;</text>
<text text-anchor="middle" x="316" y="-655.8" font-family="Arial" font-size="14.00">CellMethod</text>
</g>
<!-- DomainAxis -->
<g id="node4" class="node">
<title>DomainAxis</title>
<polygon fill="#c3ffc2" stroke="black" stroke-width="2" points="383,-595 239,-595 239,-545 383,-545 383,-595"/>
<text text-anchor="middle" x="311" y="-573.8" font-family="Arial" font-size="14.00">&lt;&lt;construct&gt;&gt;</text>
<text text-anchor="middle" x="311" y="-558.8" font-family="Arial" font-size="14.00">DomainAxis</text>
</g>
<!-- CellMethod&#45;&gt;DomainAxis -->
<g id="edge11" class="edge">
<title>CellMethod&#45;&gt;DomainAxis</title>
<path fill="none" stroke="black" d="M313.5,-641.77C313.5,-641.77 313.5,-605.11 313.5,-605.11"/>
<polygon fill="black" stroke="black" points="313.5,-595.11 318,-605.11 313.5,-600.11 313.5,-605.11 313.5,-605.11 313.5,-605.11 313.5,-600.11 309,-605.11 313.5,-595.11 313.5,-595.11"/>
<text text-anchor="middle" x="300.5" y="-598.31" font-family="Arial" font-size="11.00">0..* &#160;&#160;</text>
</g>
<!-- GenericCoordinate -->
<g id="node13" class="node">
<title>GenericCoordinate</title>
<polygon fill="white" stroke="black" stroke-width="2" points="383,-498 239,-498 239,-430 383,-430 383,-498"/>
<text text-anchor="middle" x="311" y="-482.8" font-family="Arial" font-size="14.00">&lt;&lt;abstract&gt;&gt;</text>
<text text-anchor="middle" x="311" y="-467.8" font-family="Arial" font-size="14.00">Generic</text>
<text text-anchor="middle" x="311" y="-452.8" font-family="Arial" font-size="14.00">Coordinate</text>
<text text-anchor="middle" x="311" y="-437.8" font-family="Arial" font-size="14.00">Construct</text>
</g>
<!-- DomainAxis&#45;&gt;GenericCoordinate -->
<!-- route6 -->
<g id="node19" class="node">
<title>route6</title>
<polygon fill="#c3ffc2" stroke="transparent" stroke-width="2" points="419.5,-570.5 418.5,-570.5 418.5,-569.5 419.5,-569.5 419.5,-570.5"/>
</g>
<!-- DomainAxis&#45;&gt;route6 -->
<!-- DomainAncillary -->
<g id="node5" class="node">
<title>DomainAncillary</title>
<polygon fill="#c3ffc2" stroke="black" stroke-width="2" points="382,-308 238,-308 238,-258 382,-258 382,-308"/>
<text text-anchor="middle" x="310" y="-286.8" font-family="Arial" font-size="14.00">&lt;&lt;construct&gt;&gt;</text>
<text text-anchor="middle" x="310" y="-271.8" font-family="Arial" font-size="14.00">DomainAncillary</text>
</g>
<!-- CellMeasure -->
<g id="node6" class="node">
<title>CellMeasure</title>
<polygon fill="#c3ffc2" stroke="black" stroke-width="2" points="382,-222 238,-222 238,-172 382,-172 382,-222"/>
<text text-anchor="middle" x="310" y="-200.8" font-family="Arial" font-size="14.00">&lt;&lt;construct&gt;&gt;</text>
<text text-anchor="middle" x="310" y="-185.8" font-family="Arial" font-size="14.00">CellMeasure</text>
</g>
<!-- DomainAncillary&#45;&gt;CellMeasure -->
<!-- DomainTopology -->
<g id="node11" class="node">
<title>DomainTopology</title>
<polygon fill="#c3ffc2" stroke="black" stroke-width="2" points="382,-136 238,-136 238,-86 382,-86 382,-136"/>
<text text-anchor="middle" x="310" y="-114.8" font-family="Arial" font-size="14.00">&lt;&lt;construct&gt;&gt;</text>
<text text-anchor="middle" x="310" y="-99.8" font-family="Arial" font-size="14.00">DomainTopology</text>
</g>
<!-- CellMeasure&#45;&gt;DomainTopology -->
<!-- CoordinateReference -->
<g id="node7" class="node">
<title>CoordinateReference</title>
<polygon fill="#c3ffc2" stroke="black" stroke-width="2" points="386.5,-394 237.5,-394 237.5,-344 386.5,-344 386.5,-394"/>
<text text-anchor="middle" x="312" y="-372.8" font-family="Arial" font-size="14.00">&lt;&lt;construct&gt;&gt;</text>
<text text-anchor="middle" x="312" y="-357.8" font-family="Arial" font-size="14.00">CoordinateReference </text>
</g>
<!-- CoordinateReference&#45;&gt;DomainAncillary -->
<g id="edge22" class="edge">
<title>CoordinateReference&#45;&gt;DomainAncillary</title>
<path fill="none" stroke="black" d="M310,-343.66C310,-343.66 310,-318.16 310,-318.16"/>
<polygon fill="black" stroke="black" points="310,-308.16 314.5,-318.16 310,-313.16 310,-318.16 310,-318.16 310,-318.16 310,-313.16 305.5,-318.16 310,-308.16 310,-308.16"/>
<text text-anchor="middle" x="297" y="-311.36" font-family="Arial" font-size="11.00">0..* &#160;&#160;</text>
</g>
<!-- AuxiliaryCoordinate -->
<g id="node8" class="node">
<title>AuxiliaryCoordinate</title>
<polygon fill="#c3ffc2" stroke="black" stroke-width="2" points="601,-489 457,-489 457,-439 601,-439 601,-489"/>
<text text-anchor="middle" x="529" y="-467.8" font-family="Arial" font-size="14.00">&lt;&lt;construct&gt;&gt;</text>
<text text-anchor="middle" x="529" y="-452.8" font-family="Arial" font-size="14.00">AuxillaryCoordinate</text>
</g>
<!-- DimensionCoordinate -->
<g id="node9" class="node">
<title>DimensionCoordinate</title>
<polygon fill="#c3ffc2" stroke="black" stroke-width="2" points="602.5,-595 455.5,-595 455.5,-545 602.5,-545 602.5,-595"/>
<text text-anchor="middle" x="529" y="-573.8" font-family="Arial" font-size="14.00">&lt;&lt;construct&gt;&gt;</text>
<text text-anchor="middle" x="529" y="-558.8" font-family="Arial" font-size="14.00">DimensionCoordinate</text>
</g>
<!-- DimensionCoordinate&#45;&gt;AuxiliaryCoordinate -->
<!-- FieldAncillary -->
<g id="node10" class="node">
<title>FieldAncillary</title>
<polygon fill="#c3ffc2" stroke="black" stroke-width="2" points="388,-778 244,-778 244,-728 388,-728 388,-778"/>
<text text-anchor="middle" x="316" y="-756.8" font-family="Arial" font-size="14.00">&lt;&lt;construct&gt;&gt;</text>
<text text-anchor="middle" x="316" y="-741.8" font-family="Arial" font-size="14.00">FieldAncillary</text>
</g>
<!-- FieldAncillary&#45;&gt;CellMethod -->
<!-- CellConnectivity -->
<g id="node12" class="node">
<title>CellConnectivity</title>
<polygon fill="#c3ffc2" stroke="black" stroke-width="2" points="382,-50 238,-50 238,0 382,0 382,-50"/>
<text text-anchor="middle" x="310" y="-28.8" font-family="Arial" font-size="14.00">&lt;&lt;construct&gt;&gt;</text>
<text text-anchor="middle" x="310" y="-13.8" font-family="Arial" font-size="14.00">CellConnectivity</text>
</g>
<!-- DomainTopology&#45;&gt;CellConnectivity -->
<!-- GenericCoordinate&#45;&gt;CoordinateReference -->
<g id="edge19" class="edge">
<title>GenericCoordinate&#45;&gt;CoordinateReference</title>
<path fill="none" stroke="black" d="M311,-419.97C311,-419.97 311,-394.15 311,-394.15"/>
<polygon fill="black" stroke="black" points="311,-429.97 306.5,-419.97 311,-424.97 311,-419.97 311,-419.97 311,-419.97 311,-424.97 315.5,-419.97 311,-429.97 311,-429.97"/>
<text text-anchor="middle" x="298" y="-421.17" font-family="Arial" font-size="11.00">0..* &#160;&#160;</text>
</g>
<!-- route8 -->
<g id="node21" class="node">
<title>route8</title>
<polygon fill="#c3ffc2" stroke="transparent" stroke-width="2" points="419.5,-464.5 418.5,-464.5 418.5,-463.5 419.5,-463.5 419.5,-464.5"/>
</g>
<!-- GenericCoordinate&#45;&gt;route8 -->
<g id="edge15" class="edge">
<title>GenericCoordinate&#45;&gt;route8</title>
<path fill="none" stroke="black" d="M393.04,-464C393.04,-464 418.27,-464 418.27,-464"/>
<polygon fill="none" stroke="black" points="393.04,-460.5 383.04,-464 393.04,-467.5 393.04,-460.5"/>
</g>
<!-- route1&#45;&gt;route2 -->
<!-- route3 -->
<g id="node16" class="node">
<title>route3</title>
<polygon fill="#c3ffc2" stroke="transparent" stroke-width="2" points="63.5,-667.5 62.5,-667.5 62.5,-666.5 63.5,-666.5 63.5,-667.5"/>
</g>
<!-- route1&#45;&gt;route3 -->
<g id="edge4" class="edge">
<title>route1&#45;&gt;route3</title>
<path fill="none" stroke="black" d="M63,-752.45C63,-745.58 63,-676.49 63,-667.88"/>
</g>
<!-- route2&#45;&gt;FieldAncillary -->
<g id="edge3" class="edge">
<title>route2&#45;&gt;FieldAncillary</title>
<path fill="none" stroke="black" d="M118.57,-753C118.57,-753 233.82,-753 233.82,-753"/>
<polygon fill="black" stroke="black" points="243.82,-753 233.82,-757.5 238.82,-753 233.82,-753 233.82,-753 233.82,-753 238.82,-753 233.82,-748.5 243.82,-753 243.82,-753"/>
<text text-anchor="middle" x="229.32" y="-756.2" font-family="Arial" font-size="11.00">0..* &#160;&#160;&#160;</text>
</g>
<!-- route4 -->
<g id="node17" class="node">
<title>route4</title>
<polygon fill="#c3ffc2" stroke="transparent" stroke-width="2" points="118.5,-667.5 117.5,-667.5 117.5,-666.5 118.5,-666.5 118.5,-667.5"/>
</g>
<!-- route2&#45;&gt;route4 -->
<g id="edge5" class="edge">
<title>route2&#45;&gt;route4</title>
<path fill="none" stroke="black" d="M118,-752.45C118,-745.58 118,-676.49 118,-667.88"/>
</g>
<!-- route3&#45;&gt;Domain -->
<g id="edge7" class="edge">
<title>route3&#45;&gt;Domain</title>
<path fill="none" stroke="black" d="M63,-666.38C63,-666.38 63,-616.01 63,-616.01"/>
<polygon fill="black" stroke="black" points="63,-606.01 67.5,-616.01 63,-611.01 63,-616.01 63,-616.01 63,-616.01 63,-611.01 58.5,-616.01 63,-606.01 63,-606.01"/>
<text text-anchor="middle" x="49" y="-609.21" font-family="Arial" font-size="11.00">0..1 &#160;&#160;</text>
</g>
<!-- route3&#45;&gt;route4 -->
<!-- route4&#45;&gt;CellMethod -->
<g id="edge6" class="edge">
<title>route4&#45;&gt;CellMethod</title>
<path fill="none" stroke="black" d="M118.57,-667C118.57,-667 233.82,-667 233.82,-667"/>
<polygon fill="black" stroke="black" points="243.82,-667 233.82,-671.5 238.82,-667 233.82,-667 233.82,-667 233.82,-667 238.82,-667 233.82,-662.5 243.82,-667 243.82,-667"/>
<text text-anchor="middle" x="229.32" y="-670.2" font-family="Arial" font-size="11.00">0..* &#160;&#160;&#160;</text>
</g>
<!-- route5&#45;&gt;DomainAxis -->
<g id="edge9" class="edge">
<title>route5&#45;&gt;DomainAxis</title>
<path fill="none" stroke="black" d="M184.81,-570C184.81,-570 228.87,-570 228.87,-570"/>
<polygon fill="black" stroke="black" points="238.87,-570 228.87,-574.5 233.87,-570 228.87,-570 228.87,-570 228.87,-570 233.87,-570 228.87,-565.5 238.87,-570 238.87,-570"/>
<text text-anchor="middle" x="224.37" y="-573.2" font-family="Arial" font-size="11.00">0..* &#160;&#160;&#160;</text>
</g>
<!-- route7 -->
<g id="node20" class="node">
<title>route7</title>
<polygon fill="#c3ffc2" stroke="transparent" stroke-width="2" points="184.5,-464.5 183.5,-464.5 183.5,-463.5 184.5,-463.5 184.5,-464.5"/>
</g>
<!-- route5&#45;&gt;route7 -->
<g id="edge12" class="edge">
<title>route5&#45;&gt;route7</title>
<path fill="none" stroke="black" d="M184,-569.32C184,-560.72 184,-472.84 184,-464.62"/>
</g>
<!-- route6&#45;&gt;DimensionCoordinate -->
<g id="edge10" class="edge">
<title>route6&#45;&gt;DimensionCoordinate</title>
<path fill="none" stroke="black" d="M419.7,-570C423.03,-570 437.81,-570 455.47,-570"/>
</g>
<!-- route6&#45;&gt;route8 -->
<g id="edge13" class="edge">
<title>route6&#45;&gt;route8</title>
<path fill="none" stroke="black" d="M419,-569.32C419,-560.72 419,-472.84 419,-464.62"/>
</g>
<!-- route7&#45;&gt;GenericCoordinate -->
<g id="edge14" class="edge">
<title>route7&#45;&gt;GenericCoordinate</title>
<path fill="none" stroke="black" d="M184.81,-464C184.81,-464 228.87,-464 228.87,-464"/>
<polygon fill="black" stroke="black" points="238.87,-464 228.87,-468.5 233.87,-464 228.87,-464 228.87,-464 228.87,-464 233.87,-464 228.87,-459.5 238.87,-464 238.87,-464"/>
<text text-anchor="middle" x="224.37" y="-467.2" font-family="Arial" font-size="11.00">0..* &#160;&#160;&#160;</text>
</g>
<!-- route9 -->
<g id="node22" class="node">
<title>route9</title>
<polygon fill="#c3ffc2" stroke="transparent" stroke-width="2" points="183.5,-369.5 182.5,-369.5 182.5,-368.5 183.5,-368.5 183.5,-369.5"/>
</g>
<!-- route7&#45;&gt;route9 -->
<g id="edge17" class="edge">
<title>route7&#45;&gt;route9</title>
<path fill="none" stroke="black" d="M183.5,-463.39C183.5,-455.68 183.5,-376.92 183.5,-369.55"/>
</g>
<!-- route8&#45;&gt;AuxiliaryCoordinate -->
<g id="edge16" class="edge">
<title>route8&#45;&gt;AuxiliaryCoordinate</title>
<path fill="none" stroke="black" d="M419.7,-464C423.12,-464 438.63,-464 456.93,-464"/>
</g>
<!-- route9&#45;&gt;CoordinateReference -->
<g id="edge18" class="edge">
<title>route9&#45;&gt;CoordinateReference</title>
<path fill="none" stroke="black" d="M183.82,-369C183.82,-369 227.3,-369 227.3,-369"/>
<polygon fill="black" stroke="black" points="237.3,-369 227.3,-373.5 232.3,-369 227.3,-369 227.3,-369 227.3,-369 232.3,-369 227.3,-364.5 237.3,-369 237.3,-369"/>
<text text-anchor="middle" x="222.8" y="-372.2" font-family="Arial" font-size="11.00">0..* &#160;&#160;&#160;</text>
</g>
<!-- route10 -->
<g id="node23" class="node">
<title>route10</title>
<polygon fill="#c3ffc2" stroke="transparent" stroke-width="2" points="184.5,-283.5 183.5,-283.5 183.5,-282.5 184.5,-282.5 184.5,-283.5"/>
</g>
<!-- route9&#45;&gt;route10 -->
<g id="edge20" class="edge">
<title>route9&#45;&gt;route10</title>
<path fill="none" stroke="black" d="M183.5,-368.45C183.5,-361.58 183.5,-292.49 183.5,-283.88"/>
</g>
<!-- route10&#45;&gt;DomainAncillary -->
<g id="edge21" class="edge">
<title>route10&#45;&gt;DomainAncillary</title>
<path fill="none" stroke="black" d="M184.8,-283C184.8,-283 227.74,-283 227.74,-283"/>
<polygon fill="black" stroke="black" points="237.74,-283 227.74,-287.5 232.74,-283 227.74,-283 227.74,-283 227.74,-283 232.74,-283 227.74,-278.5 237.74,-283 237.74,-283"/>
<text text-anchor="middle" x="223.24" y="-286.2" font-family="Arial" font-size="11.00">0..* &#160;&#160;&#160;</text>
</g>
<!-- route11 -->
<g id="node24" class="node">
<title>route11</title>
<polygon fill="#c3ffc2" stroke="transparent" stroke-width="2" points="184.5,-197.5 183.5,-197.5 183.5,-196.5 184.5,-196.5 184.5,-197.5"/>
</g>
<!-- route10&#45;&gt;route11 -->
<g id="edge23" class="edge">
<title>route10&#45;&gt;route11</title>
<path fill="none" stroke="black" d="M184,-282.45C184,-275.58 184,-206.49 184,-197.88"/>
</g>
<!-- route11&#45;&gt;CellMeasure -->
<g id="edge24" class="edge">
<title>route11&#45;&gt;CellMeasure</title>
<path fill="none" stroke="black" d="M184.8,-197C184.8,-197 227.74,-197 227.74,-197"/>
<polygon fill="black" stroke="black" points="237.74,-197 227.74,-201.5 232.74,-197 227.74,-197 227.74,-197 227.74,-197 232.74,-197 227.74,-192.5 237.74,-197 237.74,-197"/>
<text text-anchor="middle" x="223.24" y="-200.2" font-family="Arial" font-size="11.00">0..* &#160;&#160;&#160;</text>
</g>
<!-- route12 -->
<g id="node25" class="node">
<title>route12</title>
<polygon fill="#c3ffc2" stroke="transparent" stroke-width="2" points="184.5,-111.5 183.5,-111.5 183.5,-110.5 184.5,-110.5 184.5,-111.5"/>
</g>
<!-- route11&#45;&gt;route12 -->
<g id="edge25" class="edge">
<title>route11&#45;&gt;route12</title>
<path fill="none" stroke="black" d="M184,-196.45C184,-189.58 184,-120.49 184,-111.88"/>
</g>
<!-- route12&#45;&gt;DomainTopology -->
<g id="edge26" class="edge">
<title>route12&#45;&gt;DomainTopology</title>
<path fill="none" stroke="black" d="M184.8,-111C184.8,-111 227.74,-111 227.74,-111"/>
<polygon fill="black" stroke="black" points="237.74,-111 227.74,-115.5 232.74,-111 227.74,-111 227.74,-111 227.74,-111 232.74,-111 227.74,-106.5 237.74,-111 237.74,-111"/>
<text text-anchor="middle" x="223.24" y="-114.2" font-family="Arial" font-size="11.00">0..* &#160;&#160;&#160;</text>
</g>
<!-- route13 -->
<g id="node26" class="node">
<title>route13</title>
<polygon fill="#c3ffc2" stroke="transparent" stroke-width="2" points="184.5,-25.5 183.5,-25.5 183.5,-24.5 184.5,-24.5 184.5,-25.5"/>
</g>
<!-- route12&#45;&gt;route13 -->
<g id="edge27" class="edge">
<title>route12&#45;&gt;route13</title>
<path fill="none" stroke="black" d="M184,-110.45C184,-103.58 184,-34.49 184,-25.88"/>
</g>
<!-- route13&#45;&gt;CellConnectivity -->
<g id="edge28" class="edge">
<title>route13&#45;&gt;CellConnectivity</title>
<path fill="none" stroke="black" d="M184.8,-25C184.8,-25 227.74,-25 227.74,-25"/>
<polygon fill="black" stroke="black" points="237.74,-25 227.74,-29.5 232.74,-25 227.74,-25 227.74,-25 227.74,-25 232.74,-25 227.74,-20.5 237.74,-25 237.74,-25"/>
<text text-anchor="middle" x="223.24" y="-28.2" font-family="Arial" font-size="11.00">0..* &#160;&#160;&#160;</text>
</g>
</g>
</svg>
